<?xml version="1.0" encoding="UTF-8" standalone="no"?>
<!-- Created with Inkscape (http://www.inkscape.org/) -->

<svg
   xmlns:dc="http://purl.org/dc/elements/1.1/"
   xmlns:cc="http://creativecommons.org/ns#"
   xmlns:rdf="http://www.w3.org/1999/02/22-rdf-syntax-ns#"
   xmlns:svg="http://www.w3.org/2000/svg"
   xmlns="http://www.w3.org/2000/svg"
   xmlns:sodipodi="http://sodipodi.sourceforge.net/DTD/sodipodi-0.dtd"
   xmlns:inkscape="http://www.inkscape.org/namespaces/inkscape"
   width="25"
   height="60"
   viewBox="0 0 6.6145833 15.875"
   version="1.1"
   id="svg5813"
   inkscape:version="0.92.2 5c3e80d, 2017-08-06"
   sodipodi:docname="degree.svg">
  <defs
     id="defs5807" />
  <sodipodi:namedview
     id="base"
     pagecolor="#ffffff"
     bordercolor="#666666"
     borderopacity="1.0"
     inkscape:pageopacity="0.0"
     inkscape:pageshadow="2"
     inkscape:zoom="1.979899"
     inkscape:cx="211.95763"
     inkscape:cy="35.604489"
     inkscape:document-units="px"
     inkscape:current-layer="g33"
     showgrid="false"
     units="px"
     inkscape:snap-bbox="false"
     inkscape:bbox-paths="false"
     inkscape:bbox-nodes="true"
     inkscape:window-width="1920"
     inkscape:window-height="1015"
     inkscape:window-x="1920"
     inkscape:window-y="0"
     inkscape:window-maximized="1" />
  <metadata
     id="metadata5810">
    <rdf:RDF>
      <cc:Work
         rdf:about="">
        <dc:format>image/svg+xml</dc:format>
        <dc:type
           rdf:resource="http://purl.org/dc/dcmitype/StillImage" />
        <dc:title></dc:title>
      </cc:Work>
    </rdf:RDF>
  </metadata>
  <g
     inkscape:label="Layer 1"
     inkscape:groupmode="layer"
     id="layer1"
     transform="translate(0,-281.12499)">
    <g
       transform="matrix(0.26458333,0,0,0.26458333,-206.1246,261.86882)"
       id="g33">
      <path
         inkscape:connector-curvature="0"
         class="st1"
         d="m 804.35362,120.5 c 0,-4.7 -2.6,-8.9 -6.4,-11.1 V 79.1 c 0,-3.5 -2.9,-6.4 -6.4,-6.4 -3.5,0 -6.4,2.9 -6.4,6.4 v 30.3 c -3.8,2.2 -6.4,6.4 -6.4,11.1 0,7.1 5.7,12.8 12.8,12.8 7.1,0 12.8,-5.7 12.8,-12.8 z m -22.1,0 c 0,-3.9 2.4,-7.2 5.7,-8.6 V 79.1 c 0,-2 1.6,-3.6 3.6,-3.6 2,0 3.6,1.6 3.6,3.6 V 112 c 3.4,1.4 5.7,4.7 5.7,8.6 0,5.1 -4.1,9.3 -9.3,9.3 -5.2,0 -9.3,-4.3 -9.3,-9.4 z"
         id="path30"
         style="fill:#a6a7aa;fill-opacity:1" />
      <path
         inkscape:connector-curvature="0"
         id="XMLID_38_"
         class="st5"
         d="m 798.05362,120.5 c 0,-2.9 -1.9,-5.4 -4.6,-6.2 v -21 h -3.8 v 21.1 c -2.6,0.8 -4.6,3.3 -4.6,6.2 0,3.6 2.9,6.5 6.5,6.5 3.6,0 6.5,-3 6.5,-6.6 z"
         style="fill:#ff2a2a" />
    </g>
  </g>
</svg>
