<?xml version="1.0" encoding="UTF-8" standalone="no"?>
<!-- Created with Inkscape (http://www.inkscape.org/) -->

<svg
   xmlns:dc="http://purl.org/dc/elements/1.1/"
   xmlns:cc="http://creativecommons.org/ns#"
   xmlns:rdf="http://www.w3.org/1999/02/22-rdf-syntax-ns#"
   xmlns:svg="http://www.w3.org/2000/svg"
   xmlns="http://www.w3.org/2000/svg"
   xmlns:sodipodi="http://sodipodi.sourceforge.net/DTD/sodipodi-0.dtd"
   xmlns:inkscape="http://www.inkscape.org/namespaces/inkscape"
   width="38"
   height="38"
   viewBox="0 0 10.054166 10.054167"
   version="1.1"
   id="svg5217"
   inkscape:version="0.92.2 5c3e80d, 2017-08-06"
   sodipodi:docname="fan1.svg">
  <defs
     id="defs5211" />
  <sodipodi:namedview
     id="base"
     pagecolor="#ffffff"
     bordercolor="#666666"
     borderopacity="1.0"
     inkscape:pageopacity="0.0"
     inkscape:pageshadow="2"
     inkscape:zoom="5.6"
     inkscape:cx="7.5093902"
     inkscape:cy="11.755236"
     inkscape:document-units="px"
     inkscape:current-layer="layer1"
     showgrid="false"
     units="px"
     inkscape:pagecheckerboard="true"
     inkscape:window-width="1920"
     inkscape:window-height="1015"
     inkscape:window-x="1920"
     inkscape:window-y="0"
     inkscape:window-maximized="1" />
  <metadata
     id="metadata5214">
    <rdf:RDF>
      <cc:Work
         rdf:about="">
        <dc:format>image/svg+xml</dc:format>
        <dc:type
           rdf:resource="http://purl.org/dc/dcmitype/StillImage" />
        <dc:title></dc:title>
      </cc:Work>
    </rdf:RDF>
  </metadata>
  <g
     inkscape:label="Layer 1"
     inkscape:groupmode="layer"
     id="layer1"
     transform="translate(0,-286.94582)">
    <path
       inkscape:connector-curvature="0"
       class="st1"
       d="m 6.7336463,291.23204 c 0.264583,-0.0794 0.5291667,-0.0529 0.8202074,0.0265 0.185209,0.0529 0.396875,0.0794 0.6085417,0.0794 0.291042,0 0.5820827,-0.0794 0.8466667,-0.23813 0.4233327,-0.26458 0.7143744,-0.71437 0.7672904,-1.21708 0.07938,-0.58208 -0.1587497,-1.16417 -0.6085407,-1.64042 -0.4762497,-0.47625 -1.0847914,-0.71437 -1.7462488,-0.71437 -0.6614587,0 -1.3229166,0.26458 -1.7991666,0.74083 -0.6085417,0.60854 -0.9789583,1.56104 -1.0054167,2.43417 -0.1322916,-0.10583 -0.2645833,-0.23813 -0.3439583,-0.42333 -0.1058333,-0.29105 -0.052917,-0.52917 0.026458,-0.82021 0.079375,-0.39688 0.1852084,-0.87313 -0.15875,-1.45521 -0.2910416,-0.47625 -0.8466666,-0.79375 -1.4287501,-0.79375 -0.5027083,0 -1.0054167,0.21167 -1.42875,0.635 -0.97895812,0.97896 -0.95249982,2.56646 0.026458,3.54542 0.5820834,0.58208 1.5610418,0.97895 2.4341668,1.00541 -0.1058333,0.13229 -0.238125,0.26459 -0.4233333,0.3175 -0.2645833,0.0794 -0.5291667,0.0529 -0.8202085,-0.0265 -0.1852083,-0.0529 -0.396875,-0.0794 -0.6085416,-0.0794 -0.2910417,0 -0.5820834,0.0794 -0.8466666,0.23812 -0.42333332,0.26459 -0.71437492,0.71438 -0.76729162,1.21709 -0.079375,0.58208 0.15875,1.16416 0.60854166,1.64041 0.47624986,0.47625 1.08479156,0.71438 1.74624986,0.71438 0.6614585,0 1.3229168,-0.26458 1.7991668,-0.74083 0.6085417,-0.60855 0.9789583,-1.56105 1.0054166,-2.43417 0.1322917,0.10583 0.2645834,0.23812 0.3439584,0.42333 0.1058333,0.29104 0.052917,0.52917 -0.026458,0.82021 -0.079375,0.39688 -0.1852083,0.87313 0.15875,1.45521 0.2910417,0.47625 0.8466665,0.79375 1.4287492,0.79375 0.5027087,0 1.0054164,-0.21167 1.4287491,-0.635 0.9789584,-0.97896 0.9524994,-2.54 -0.02646,-3.54542 -0.5820827,-0.58208 -1.5610401,-0.97896 -2.434165,-1.00541 0.1058334,-0.1323 0.2381252,-0.26459 0.4233332,-0.3175 z m -1.2964583,1.1377 c -0.2116666,0.21167 -0.5820833,0.21167 -0.8202083,0 -0.2116666,-0.21166 -0.2116666,-0.58208 0,-0.8202 0.1058334,-0.10584 0.2645834,-0.15875 0.396875,-0.15875 0.1322917,0 0.2910417,0.0529 0.396875,0.15875 0.238125,0.23812 0.238125,0.60854 0.026458,0.8202 z m 0,0"
       id="path6"
       style="stroke-width:0.26458332;fill:#a6a7aa;fill-opacity:1" />
  </g>
</svg>
