<svg xmlns="http://www.w3.org/2000/svg" width="157.344" height="186" viewBox="0 0 157.344 186">
  <defs>
    <style>
      .cls-1 {
        fill: red;
        fill-rule: evenodd;
        opacity: 0.36;
      }
    </style>
  </defs>
  <path id="back" class="cls-1" d="M181,96s14.57-10.472,28-10,57.839,1.633,61,4,7.277,3.962,7,16-0.357,77.417-10,109c-7.271,28.777-11,40-11,40s-6.909-1.047-11,4-16,13-16,13-5.4-5.407-8-4-2,1-2,1-12.111-12.329-28-14-23.99-1.535-32-1-32.076-9.337-38-32,10-49,10-49,29.371-38.768,31-43S174.331,103.062,181,96Z" transform="translate(-119.656 -86)"/>
</svg>
