<svg xmlns="http://www.w3.org/2000/svg" width="233.531" height="84.406" viewBox="0 0 233.531 84.406">
  <defs>
    <style>
      .cls-1 {
        fill: red;
        fill-rule: evenodd;
        opacity: 0.36;
      }
    </style>
  </defs>
  <path id="seat" class="cls-1" d="M255,283s5.812-13.366,6-18a9.321,9.321,0,0,0-5-9c-2.639-1.307-6.321.05-8,1s-17,14-17,14l-2,1s-4.845-4.613-7-4a23.991,23.991,0,0,0-3,1s-11.848-11.43-25-13-38-2-38-2a30.6,30.6,0,0,1-13-4c-6.1-3.7-18-14-18-14l-5,3s-21.15-6.545-39-7-45.173,5.388-51,10c-2.163,7.884-3.276,24.07-2,29a22.059,22.059,0,0,0,8,12c3.613,2.615,76,26,76,26a5.541,5.541,0,0,0,3,0c1.316-.493,6,2,6,2v-9l6-1s21.883,13.879,31,15,20.779,0.877,57-15C240.378,289.853,255,283,255,283Z" transform="translate(-27.469 -231.969)"/>
</svg>
