<svg xmlns="http://www.w3.org/2000/svg" width="362.094" height="354.657" viewBox="0 0 362.094 354.657">
  <defs>
    <style>
      .cls-1 {
        fill: #0086a5;
        fill-rule: evenodd;
      }
    </style>
  </defs>
  <path id="Elips_1" data-name="Elips 1" class="cls-1" d="M19,214l1-32s0.011-8.69,13-10,18-3,18-3l11-33L46,121s-5.057-8.7,2-18S65,81,65,81s5.449-9.8,17-3,15,9,15,9l28-21-3-20s-2.086-10.057,8-13,30-10,30-10,11.761-2.124,15,7a75.8,75.8,0,0,0,9,17l35,1,10-19s1.763-9.452,17-4,26,9,26,9,10.439,3.6,8,15-3,17-3,17l28,21,18-8s8.695-4.369,13,1,20,27,20,27,6.68,8.894-2,17-14,13-14,13,10.7,27.832,11,33c11.679,1.72,20,3,20,3s9.8,1.719,10,12,0,33,0,33,1.3,7.656-11,10-19,3-19,3-7.567,28.732-11,33c12.607,12.847,14,15,14,15s8.729,7.814,0,18-19,24-19,24-5.808,5.131-13,2-18-9-18-9-22.554,18.848-29,21c1.808,8.927,3,19,3,19s2.518,10.623-9,14-27,9-27,9-12.849,3.246-16-8c-5.12-11.739-7-15-7-15H183l-11,18s-1.6,7.444-16,3-29-10-29-10-6.829-1.811-5-15,1.765-13.827,2-15-23.3-16.619-27-21c-1.161-.8-1-1-1-1l-17,9s-8.584,3.546-14-3-22-28-22-28-2.914-8.932,4-15,14-13,14-13-9.745-24.022-10-33c-13.6-2.784-21-4-21-4S19.673,225.974,19,214Zm12-30v32l26,5,16,46L54,285l19,27,25-12,39,30-5,26,31,10,13-25,49,1,12,24,30-10-3-28s34.758-22.168,38-28c16.757,9.242,26,13,26,13l18-25-19-23s12.512-22.64,15-43c25.88-4.765,28-5,28-5V184l-27-5s-8.8-34.848-16-46c19.308-17.91,19-18,19-18L329,89l-25,11s-28.2-22.126-37-26c-3.343-11.411,1.365-26.135,2-28s-31-11-31-11-6.67,12.57-10,18-7.323,5.609-23,5a239.593,239.593,0,0,0-24,0,25.8,25.8,0,0,1-11-11c-4.329-8.063-6-12-6-12L133,45l4,25s-30.936,24.346-37,29C87.438,96.9,75,87,75,87L55,113l15,16s4.6,5.881-2,18a227.366,227.366,0,0,0-7,23s-0.862,8.854-13,10C34.69,182.083,31,184,31,184Zm169.5-81c53.295,0,96.5,43.428,96.5,97s-43.205,97-96.5,97S104,253.572,104,200,147.205,103,200.5,103Zm1,12A85.5,85.5,0,1,1,116,200.5,85.5,85.5,0,0,1,201.5,115Z" transform="translate(-19 -22.781)"/>
</svg>
