<?xml version="1.0" encoding="UTF-8" standalone="no"?>
<!-- Created with Inkscape (http://www.inkscape.org/) -->

<svg
   xmlns:dc="http://purl.org/dc/elements/1.1/"
   xmlns:cc="http://creativecommons.org/ns#"
   xmlns:rdf="http://www.w3.org/1999/02/22-rdf-syntax-ns#"
   xmlns:svg="http://www.w3.org/2000/svg"
   xmlns="http://www.w3.org/2000/svg"
   xmlns:sodipodi="http://sodipodi.sourceforge.net/DTD/sodipodi-0.dtd"
   xmlns:inkscape="http://www.inkscape.org/namespaces/inkscape"
   width="72"
   height="72"
   viewBox="0 0 19.05 19.050001"
   version="1.1"
   id="svg4115"
   inkscape:version="0.92.3 (2405546, 2018-03-11)"
   sodipodi:docname="cogwheelbig.svg">
  <defs
     id="defs4109" />
  <sodipodi:namedview
     id="base"
     pagecolor="#ffffff"
     bordercolor="#666666"
     borderopacity="1.0"
     inkscape:pageopacity="0.0"
     inkscape:pageshadow="2"
     inkscape:zoom="3.959798"
     inkscape:cx="58.871431"
     inkscape:cy="49.497475"
     inkscape:document-units="px"
     inkscape:current-layer="layer1"
     showgrid="false"
     units="px"
     inkscape:window-width="1920"
     inkscape:window-height="1017"
     inkscape:window-x="-8"
     inkscape:window-y="-8"
     inkscape:window-maximized="1" />
  <metadata
     id="metadata4112">
    <rdf:RDF>
      <cc:Work
         rdf:about="">
        <dc:format>image/svg+xml</dc:format>
        <dc:type
           rdf:resource="http://purl.org/dc/dcmitype/StillImage" />
        <dc:title></dc:title>
      </cc:Work>
    </rdf:RDF>
  </metadata>
  <g
     inkscape:label="Layer 1"
     inkscape:groupmode="layer"
     id="layer1"
     transform="translate(0,-277.94999)">
    <g
       id="g4127"
       transform="translate(0.30419169,0.43079025)">
      <path
         inkscape:connector-curvature="0"
         id="path309"
         d="m 17.208166,288.9737 c 0.319257,-1.20944 0.348094,-2.44523 0.121545,-3.62221 l 1.293563,-0.51139 -1.033941,-2.61576 -1.256771,0.49671 c -0.621977,-1.05285 -1.48332,-1.9729 -2.547649,-2.67094 l 0.525756,-1.21316 -2.580616,-1.11859 -0.525756,1.21316 c -1.2372369,-0.29952 -2.4974209,-0.299 -3.6909379,-0.0332 l -0.496715,-1.25677 -2.615757,1.03374 0.51139,1.29356 c -1.013995,0.63924 -1.896112,1.50523 -2.560361,2.56512 l -1.338213,-0.57992 -1.11858799,2.58062 1.39205999,0.60348 c -0.261069,1.18452 -0.248563,2.38642 0.0055,3.52743 l -1.47433199,0.58283 1.033943,2.61555 1.51122499,-0.59728 c 0.610609,0.96831 1.429267,1.81488 2.424865,2.46786 l -0.657428,1.51681 2.58062,1.11859 0.657426,-1.51681 c 1.157242,0.28009 2.334741,0.29879 3.4588069,0.0825 l 0.597276,1.51122 2.615758,-1.03394 -0.582805,-1.47433 c 1.006345,-0.59469 1.891977,-1.40735 2.577928,-2.4076 l 1.39206,0.60347 1.11859,-2.58061 z m -10.1053259,2.9562 c -2.782362,-1.20603 -4.060113,-4.43911 -2.854088,-7.22127 1.206024,-2.78215 4.439315,-4.0598 7.2215749,-2.85398 2.782361,1.20602 4.060114,4.43911 2.854087,7.22126 -1.20592,2.78226 -4.4392109,4.06012 -7.2215739,2.85399 z"
         style="fill:#ff7f4f;stroke-width:0.10335287" />
      <path
         inkscape:connector-curvature="0"
         id="path311"
         d="m 17.329711,285.35149 1.293563,-0.51139 -1.033735,-2.61576 -1.256771,0.49671 c -0.621977,-1.05285 -1.48332,-1.9729 -2.547649,-2.67074 l 0.525756,-1.21315 -2.580616,-1.11859 -0.525756,1.21316 c -0.630039,-0.15255 -1.2660739,-0.22624 -1.8963189,-0.2279 v 2.6971 c 0.7228499,0.002 1.4568619,0.1481 2.1621429,0.45361 2.782361,1.20603 4.060114,4.43911 2.854087,7.22127 -0.894207,2.06282 -2.903077,3.29737 -5.0164359,3.30688 v 2.69678 c 0.51263,-0.001 1.0214369,-0.0481 1.5195969,-0.14417 l 0.597276,1.51122 2.615758,-1.03373 -0.582808,-1.47433 c 1.006348,-0.59469 1.891979,-1.40715 2.57793,-2.40761 l 1.392061,0.60348 1.118589,-2.58062 -1.338215,-0.57991 c 0.319466,-1.20933 0.348197,-2.44522 0.121545,-3.62231 z"
         style="fill:#d35933;stroke-width:0.10335287" />
    </g>
  </g>
</svg>
