<?xml version="1.0" encoding="UTF-8" standalone="no"?>
<!-- Created with Inkscape (http://www.inkscape.org/) -->

<svg
   xmlns:dc="http://purl.org/dc/elements/1.1/"
   xmlns:cc="http://creativecommons.org/ns#"
   xmlns:rdf="http://www.w3.org/1999/02/22-rdf-syntax-ns#"
   xmlns:svg="http://www.w3.org/2000/svg"
   xmlns="http://www.w3.org/2000/svg"
   xmlns:sodipodi="http://sodipodi.sourceforge.net/DTD/sodipodi-0.dtd"
   xmlns:inkscape="http://www.inkscape.org/namespaces/inkscape"
   width="60"
   height="60"
   viewBox="0 0 15.875 15.875"
   version="1.1"
   id="svg4145"
   inkscape:version="0.92.3 (2405546, 2018-03-11)"
   sodipodi:docname="cogwheelmid.svg">
  <defs
     id="defs4139" />
  <sodipodi:namedview
     id="base"
     pagecolor="#ffffff"
     bordercolor="#666666"
     borderopacity="1.0"
     inkscape:pageopacity="0.0"
     inkscape:pageshadow="2"
     inkscape:zoom="3.959798"
     inkscape:cx="4.7677148"
     inkscape:cy="57.901838"
     inkscape:document-units="px"
     inkscape:current-layer="layer1"
     showgrid="false"
     units="px"
     inkscape:window-width="1920"
     inkscape:window-height="1017"
     inkscape:window-x="-8"
     inkscape:window-y="-8"
     inkscape:window-maximized="1" />
  <metadata
     id="metadata4142">
    <rdf:RDF>
      <cc:Work
         rdf:about="">
        <dc:format>image/svg+xml</dc:format>
        <dc:type
           rdf:resource="http://purl.org/dc/dcmitype/StillImage" />
        <dc:title></dc:title>
      </cc:Work>
    </rdf:RDF>
  </metadata>
  <g
     inkscape:label="Layer 1"
     inkscape:groupmode="layer"
     id="layer1"
     transform="translate(0,-281.125)">
    <g
       id="g4157"
       transform="translate(-4.9136869,2.645835)">
      <path
         inkscape:connector-curvature="0"
         id="path301"
         d="m 19.191992,285.31529 c -0.14717,-0.96852 -0.51149,-1.86562 -1.04107,-2.64088 l 0.77039,-0.77039 -1.55753,-1.55752 -0.74848,0.74848 c -0.77484,-0.56286 -1.68031,-0.95571 -2.66278,-1.12583 v -1.03549 h -2.20287 v 1.03549 c -0.98226,0.17012 -1.8877401,0.56307 -2.6627801,1.12583 l -0.74848,-0.74848 -1.55753,1.55752 0.77039,0.77039 c -0.52947,0.77526 -0.89369,1.67236 -1.04107,2.64088 h -1.14226 v 2.20286 h 1.18836 c 0.18138,0.93255 0.56461,1.79235 1.10267,2.53308 l -0.87799,0.87798 1.55753,1.55753 0.8999,-0.89989 c 0.74052,0.5056 1.5924601,0.85896 2.5112601,1.01802 v 1.2948 h 2.20287 v -1.2948 c 0.9188,-0.15906 1.77084,-0.51242 2.51126,-1.01802 l 0.8999,0.89989 1.55753,-1.55753 -0.87799,-0.87798 c 0.53785,-0.74084 0.92129,-1.60073 1.10267,-2.53318 h 1.18836 v -2.20276 z m -6.3407,4.17897 c -1.77116,0 -3.2070401,-1.43588 -3.2070401,-3.20704 0,-1.77116 1.4358801,-3.20704 3.2070401,-3.20704 1.77116,0 3.20704,1.43588 3.20704,3.20704 0,1.77116 -1.43588,3.20704 -3.20704,3.20704 z"
         style="fill:#e09112;stroke-width:0.10335287" />
      <path
         inkscape:connector-curvature="0"
         id="path303"
         d="m 20.334452,287.51794 v -2.20286 h -1.14225 c -0.14718,-0.96852 -0.5115,-1.86562 -1.04108,-2.64087 l 0.77019,-0.77019 -1.55753,-1.55752 -0.74848,0.74848 c -0.77484,-0.56286 -1.68031,-0.95571 -2.66278,-1.12583 v -1.03549 h -1.16985 v 4.14993 c 0.0229,-5.3e-4 0.0455,-0.004 0.0686,-0.004 1.77116,0 3.20704,1.43588 3.20704,3.20704 0,1.77116 -1.43588,3.20704 -3.20704,3.20704 -0.0231,0 -0.0456,-0.003 -0.0686,-0.004 v 4.40901 h 1.17005 v -1.2948 c 0.91881,-0.15906 1.77085,-0.51242 2.51127,-1.01803 l 0.89989,0.8999 1.55753,-1.55753 -0.87798,-0.87798 c 0.53785,-0.74084 0.92129,-1.60073 1.10267,-2.53318 z"
         style="fill:#ff5419;stroke-width:0.10335287" />
    </g>
  </g>
</svg>
