<svg xmlns="http://www.w3.org/2000/svg" width="314.406" height="327.25" viewBox="0 0 314.406 327.25">
  <defs>
    <style>
      .cls-1 {
        fill: #0086a5;
        fill-rule: evenodd;
      }
    </style>
  </defs>
  <path id="Şekil_1" data-name="Şekil 1" class="cls-1" d="M66,296L44,250s-4.065-13.154,13-26,17-13,17-13l3-31L53,157s-11.953-9.476,3-32S79,91,79,91s12.272-14.125,30-3c18.925,8.013,19,8,19,8s1.759,2.264,17-7c10.932-5.913,12.195-5.006,13-13s5-26,5-26,6-12.648,24-13,37,0,37,0,23.29-.481,28,24c1.838,25.2,2,27,2,27l25,16,30-10s16.048-6.294,25,10,23,46,23,46,4.213,11.879-5,21c-11.52,8.957-27,19-27,19l-1,30,26,25s7.377,10.2,0,24-29,43-29,43-8.972,9.655-24,3-27-12-27-12l-25,14-7,32s-7.509,14.366-19,15-56-3-56-3-12.9-9.433-14-22-2-27-2-27l-24-15L92,307S77.182,310.713,66,296Zm19-11L66,245l29-23,4-47L70,143l24-38,36,15,48-28,6-33,45,2,7,39,42,26,36-12,23,42-31,25-4,45,29,31-25,38-35-13-45,23-9,37-46-2-5-38-41-27m75.5-136c35.07,0,63.5,27.982,63.5,62.5S235.57,264,200.5,264,137,236.018,137,201.5,165.43,139,200.5,139Zm0.5,20c22.644,0,41,18.58,41,41.5S223.644,242,201,242s-41-18.58-41-41.5S178.356,159,201,159Z" transform="translate(-43.563 -36.844)"/>
</svg>
