<svg xmlns="http://www.w3.org/2000/svg" width="357.844" height="358.313" viewBox="0 0 357.844 358.313">
  <defs>
    <style>
      .cls-1 {
        fill: #0086a5;
        fill-rule: evenodd;
      }
    </style>
  </defs>
  <path id="Elips_1" data-name="Elips 1" class="cls-1" d="M46,242s-15.217,1.376-19-5-4.3-6.755-5-13-1-35-1-35,2.827-8.059,10-10,22-6,22-6l9-32L47,124s-6.651-8.407,0-17S69,78,69,78s5.87-9.276,19-2,17,8,17,8l27-18-1-22s-0.3-11.276,9-14,37-9,37-9,12.305-2.537,17,11,7,18,7,18,28.13,1.071,34,3c11.435-15.289,14-18,14-18s6.13-9.059,19-3,31,17,31,17,7.957,5.724,3,20-4,14-4,14,21.913,24.506,23,27c13.261-4.115,18-6,18-6s12.913-3.8,18,6,16,37,16,37,3.609,10.332-6,16-17,10-17,10,1.652,30.941,0,34c8.609,4.45,20,11,20,11s12.087,4.028,8,17-11,34-11,34-2.652,8.854-15,8-21-2-21-2l-20,26,8,21s6.739,9.419-7,19-29,19-29,19-10.217,2.55-14-1-17-18-17-18l-33,8-6,22s-2.881,9.37-17,8-36-4-36-4-8.812-2.737-10-14c0.249-11.695,0-19,0-19l-31-16-18,12s-8.861,6.8-18-2-26-29-26-29-4.969-10.206,2-17a69.134,69.134,0,0,0,11-14L57,244Zm-9-17-2-33,29-6,14-49L60,115,79,88l24,14,45-29-2-28,32-9,12,27,53,6,16-24,30,16-8,27,38,39,26-8,13,31-25,17,3,49,26,14-8,31-30-2-30,40,11,29-27,18-21-22-49,12-9,28-34-3V332l-47-23L93,324,70,299l17-21L67,230l-30-3v-2ZM202.5,112A87.5,87.5,0,1,1,115,199.5,87.5,87.5,0,0,1,202.5,112Zm1,15c40.041,0,72.5,32.236,72.5,72s-32.459,72-72.5,72S131,238.764,131,199,163.459,127,203.5,127Z" transform="translate(-21 -20.813)"/>
</svg>
