<?xml version="1.0" encoding="utf-8"?>
<!-- Generator: Adobe Illustrator 16.0.0, SVG Export Plug-In . SVG Version: 6.00 Build 0)  -->
<!DOCTYPE svg PUBLIC "-//W3C//DTD SVG 1.0//EN" "http://www.w3.org/TR/2001/REC-SVG-20010904/DTD/svg10.dtd">
<svg version="1.0" id="Layer_1" xmlns="http://www.w3.org/2000/svg" xmlns:xlink="http://www.w3.org/1999/xlink" x="0px" y="0px"
	 width="67.639px" height="56.621px" viewBox="0 0 67.639 56.621" enable-background="new 0 0 67.639 56.621" xml:space="preserve">
<g>
	<path fill="#4D4D4D" d="M11.882,56.621C5.33,56.621,0,51.291,0,44.742V11.877C0,5.328,5.33,0,11.882,0h43.876
		c6.553,0,11.881,5.328,11.881,11.878v32.865c0,6.549-5.328,11.879-11.881,11.879H11.882z"/>
	<linearGradient id="SVGID_1_" gradientUnits="userSpaceOnUse" x1="33.8201" y1="56.0977" x2="33.8201" y2="0.3428">
		<stop  offset="0" style="stop-color:#3D3D3D"/>
		<stop  offset="0.1393" style="stop-color:#393939"/>
		<stop  offset="0.4946" style="stop-color:#363636"/>
		<stop  offset="0.5978" style="stop-color:#3B3B3B"/>
		<stop  offset="0.7271" style="stop-color:#4B4B4B"/>
		<stop  offset="0.8697" style="stop-color:#646464"/>
		<stop  offset="1" style="stop-color:#828282"/>
	</linearGradient>
	<path fill="url(#SVGID_1_)" d="M67.115,44.742c0,6.271-5.084,11.355-11.357,11.355H11.882c-6.273,0-11.358-5.084-11.358-11.355
		V11.877c0-6.269,5.085-11.354,11.358-11.354h43.876c6.273,0,11.357,5.086,11.357,11.354V44.742z"/>
	<linearGradient id="SVGID_2_" gradientUnits="userSpaceOnUse" x1="33.8191" y1="-45.6167" x2="33.8191" y2="100.6551">
		<stop  offset="0" style="stop-color:#FFFFFF"/>
		<stop  offset="1" style="stop-color:#FFFFFF"/>
	</linearGradient>
	<path opacity="0.8" fill="url(#SVGID_2_)" d="M11.919,53.021c-5.102,0-9.25-4.15-9.25-9.25V10.964c0-5.099,4.147-9.245,9.25-9.245
		h43.804c5.099,0,9.247,4.146,9.247,9.245v32.807c0,5.1-4.148,9.25-9.247,9.25H11.919z"/>
	<linearGradient id="SVGID_3_" gradientUnits="userSpaceOnUse" x1="2.6155" y1="28.3105" x2="65.0227" y2="28.3105">
		<stop  offset="0" style="stop-color:#525252"/>
		<stop  offset="1" style="stop-color:#7A7A7A"/>
	</linearGradient>
	<path fill="url(#SVGID_3_)" d="M11.882,54.006c-5.111,0-9.266-4.156-9.266-9.264V11.877c0-5.107,4.155-9.263,9.266-9.263h43.876
		c5.109,0,9.265,4.155,9.265,9.263v32.865c0,5.107-4.155,9.264-9.265,9.264H11.882z"/>
</g>
<g>
	<path fill="#FFFFFF" d="M21.38,24.758v-0.864h4.84v0.864h-1.97v7.968h-0.9v-7.968H21.38z"/>
	<path fill="#FFFFFF" d="M27.367,23.894h0.883v8.833h-0.883V23.894z"/>
	<path fill="#FFFFFF" d="M29.397,24.758v-0.864h4.84v0.864h-1.97v7.968h-0.9v-7.968H29.397z"/>
	<path fill="#FFFFFF" d="M35.509,23.894h0.883v7.981h3.399v0.852h-4.282V23.894z"/>
	<path fill="#FFFFFF" d="M41.197,23.894h5.063v0.864h-4.18v2.769h4.143v0.864h-4.143v3.472h4.143v0.863h-5.025V23.894z"/>
</g>
</svg>
