<?xml version="1.0" encoding="utf-8"?>
<!-- Generator: Adobe Illustrator 16.0.0, SVG Export Plug-In . SVG Version: 6.00 Build 0)  -->
<!DOCTYPE svg PUBLIC "-//W3C//DTD SVG 1.0//EN" "http://www.w3.org/TR/2001/REC-SVG-20010904/DTD/svg10.dtd">
<svg version="1.0" id="Layer_1" xmlns="http://www.w3.org/2000/svg" xmlns:xlink="http://www.w3.org/1999/xlink" x="0px" y="0px"
	 width="67.639px" height="56.621px" viewBox="0 0 67.639 56.621" enable-background="new 0 0 67.639 56.621" xml:space="preserve">
<g>
	<path fill="#4D4D4D" d="M11.881,56.621C5.33,56.621,0,51.291,0,44.74V11.878C0,5.328,5.33,0,11.881,0h43.877
		c6.553,0,11.881,5.328,11.881,11.879V44.74c0,6.551-5.328,11.881-11.881,11.881H11.881z"/>
	<linearGradient id="SVGID_1_" gradientUnits="userSpaceOnUse" x1="33.8193" y1="56.0977" x2="33.8193" y2="0.3428">
		<stop  offset="0" style="stop-color:#3D3D3D"/>
		<stop  offset="0.1393" style="stop-color:#393939"/>
		<stop  offset="0.4946" style="stop-color:#363636"/>
		<stop  offset="0.5978" style="stop-color:#3B3B3B"/>
		<stop  offset="0.7271" style="stop-color:#4B4B4B"/>
		<stop  offset="0.8697" style="stop-color:#646464"/>
		<stop  offset="1" style="stop-color:#828282"/>
	</linearGradient>
	<path fill="url(#SVGID_1_)" d="M67.115,44.74c0,6.272-5.084,11.358-11.357,11.358H11.881c-6.273,0-11.357-5.086-11.357-11.358
		V11.878c0-6.27,5.084-11.355,11.357-11.355h43.877c6.273,0,11.357,5.086,11.357,11.355V44.74z"/>
	<linearGradient id="SVGID_2_" gradientUnits="userSpaceOnUse" x1="33.8198" y1="-45.6147" x2="33.8198" y2="100.6515">
		<stop  offset="0" style="stop-color:#FFFFFF"/>
		<stop  offset="1" style="stop-color:#FFFFFF"/>
	</linearGradient>
	<path opacity="0.8" fill="url(#SVGID_2_)" d="M11.918,53.02c-5.102,0-9.248-4.149-9.248-9.249V10.964
		c0-5.1,4.146-9.245,9.248-9.245h43.804c5.1,0,9.248,4.146,9.248,9.245v32.807c0,5.1-4.148,9.249-9.248,9.249H11.918z"/>
	<path fill="#A80018" d="M11.881,54.004c-5.109,0-9.265-4.155-9.265-9.264V11.878c0-5.107,4.155-9.263,9.265-9.263h43.877
		c5.108,0,9.264,4.155,9.264,9.263V44.74c0,5.109-4.155,9.264-9.264,9.264H11.881z"/>
</g>
<g>
	<path fill="#FFFFFF" d="M12.973,24.433h1.759c1.009,0,1.689,0.044,2.042,0.132c0.504,0.125,0.917,0.379,1.237,0.766
		c0.32,0.387,0.48,0.872,0.48,1.457c0,0.588-0.156,1.074-0.469,1.456c-0.312,0.382-0.742,0.64-1.291,0.771
		c-0.4,0.096-1.149,0.144-2.246,0.144h-0.63v4.107h-0.883V24.433z M13.856,25.298v2.996l1.495,0.018
		c0.604,0,1.047-0.055,1.327-0.165s0.5-0.288,0.661-0.534c0.16-0.246,0.24-0.52,0.24-0.824c0-0.296-0.08-0.566-0.24-0.812
		c-0.16-0.246-0.372-0.42-0.634-0.524s-0.691-0.156-1.288-0.156H13.856z"/>
	<path fill="#FFFFFF" d="M24.463,24.211c1.338,0,2.458,0.446,3.359,1.339c0.901,0.893,1.352,1.992,1.352,3.297
		c0,1.293-0.45,2.39-1.349,3.291s-1.996,1.351-3.29,1.351c-1.31,0-2.415-0.448-3.316-1.345c-0.901-0.896-1.352-1.981-1.352-3.254
		c0-0.849,0.205-1.635,0.616-2.36s0.97-1.292,1.68-1.703C22.871,24.416,23.638,24.211,24.463,24.211z M24.502,25.069
		c-0.654,0-1.273,0.17-1.858,0.511c-0.585,0.34-1.043,0.799-1.372,1.376c-0.329,0.577-0.493,1.22-0.493,1.929
		c0,1.049,0.364,1.936,1.092,2.659c0.728,0.723,1.605,1.084,2.631,1.084c0.686,0,1.32-0.166,1.903-0.499s1.039-0.787,1.365-1.364
		c0.327-0.577,0.49-1.218,0.49-1.923c0-0.701-0.163-1.335-0.49-1.902c-0.327-0.567-0.787-1.021-1.38-1.361
		C25.797,25.24,25.168,25.069,24.502,25.069z"/>
	<path fill="#FFFFFF" d="M30.447,24.433h0.907l1.804,6.365l2.532-6.365h0.183l2.503,6.365l1.835-6.365h0.9l-2.538,8.833H38.41
		l-2.622-6.684l-2.672,6.684h-0.165L30.447,24.433z"/>
	<path fill="#FFFFFF" d="M42.757,24.433h5.062v0.865h-4.18v2.768h4.144v0.865h-4.144v3.471h4.144v0.865h-5.026V24.433z"/>
	<path fill="#FFFFFF" d="M49.392,24.433h1.759c0.981,0,1.646,0.04,1.994,0.12c0.524,0.12,0.951,0.378,1.279,0.772
		c0.328,0.395,0.493,0.881,0.493,1.458c0,0.481-0.113,0.904-0.339,1.269s-0.549,0.64-0.97,0.827
		c-0.42,0.186-1.001,0.281-1.742,0.286l3.177,4.101H53.95l-3.176-4.101h-0.5v4.101h-0.882V24.433z M50.274,25.298V28.3l1.522,0.012
		c0.589,0,1.025-0.056,1.308-0.168c0.283-0.112,0.503-0.291,0.662-0.538c0.158-0.246,0.237-0.521,0.237-0.826
		c0-0.296-0.08-0.565-0.24-0.808c-0.161-0.242-0.371-0.415-0.632-0.52c-0.26-0.104-0.693-0.156-1.299-0.156H50.274z"/>
</g>
<g>
</g>
<g>
</g>
<g>
</g>
<g>
</g>
<g>
</g>
<g>
</g>
<g>
</g>
<g>
</g>
<g>
</g>
<g>
</g>
<g>
</g>
<g>
</g>
<g>
</g>
<g>
</g>
<g>
</g>
</svg>
