<?xml version="1.0" encoding="utf-8"?>
<!-- Generator: Adobe Illustrator 16.0.0, SVG Export Plug-In . SVG Version: 6.00 Build 0)  -->
<!DOCTYPE svg PUBLIC "-//W3C//DTD SVG 1.0//EN" "http://www.w3.org/TR/2001/REC-SVG-20010904/DTD/svg10.dtd">
<svg version="1.0" id="Layer_1" xmlns="http://www.w3.org/2000/svg" xmlns:xlink="http://www.w3.org/1999/xlink" x="0px" y="0px"
	 width="67.639px" height="56.621px" viewBox="0 0 67.639 56.621" enable-background="new 0 0 67.639 56.621" xml:space="preserve">
<g>
	<path fill="#4D4D4D" d="M11.882,56.621C5.33,56.621,0,51.291,0,44.74V11.878C0,5.329,5.33,0,11.882,0h43.877
		C62.312,0,67.64,5.329,67.64,11.878V44.74c0,6.551-5.328,11.881-11.881,11.881H11.882z"/>
	<linearGradient id="SVGID_1_" gradientUnits="userSpaceOnUse" x1="33.8206" y1="56.0977" x2="33.8206" y2="0.3438">
		<stop  offset="0" style="stop-color:#3D3D3D"/>
		<stop  offset="0.1393" style="stop-color:#393939"/>
		<stop  offset="0.4946" style="stop-color:#363636"/>
		<stop  offset="0.5978" style="stop-color:#3B3B3B"/>
		<stop  offset="0.7271" style="stop-color:#4B4B4B"/>
		<stop  offset="0.8697" style="stop-color:#646464"/>
		<stop  offset="1" style="stop-color:#828282"/>
	</linearGradient>
	<path fill="url(#SVGID_1_)" d="M67.116,44.74c0,6.273-5.084,11.357-11.357,11.357H11.882c-6.272,0-11.357-5.084-11.357-11.357
		V11.878c0-6.27,5.085-11.354,11.357-11.354h43.877c6.273,0,11.357,5.085,11.357,11.354V44.74z"/>
	<linearGradient id="SVGID_2_" gradientUnits="userSpaceOnUse" x1="33.8196" y1="-45.6147" x2="33.8196" y2="100.6543">
		<stop  offset="0" style="stop-color:#FFFFFF"/>
		<stop  offset="1" style="stop-color:#FFFFFF"/>
	</linearGradient>
	<path opacity="0.8" fill="url(#SVGID_2_)" d="M11.919,53.021c-5.102,0-9.249-4.152-9.249-9.252V10.965
		c0-5.1,4.147-9.245,9.249-9.245h43.803c5.102,0,9.248,4.146,9.248,9.245V43.77c0,5.1-4.146,9.252-9.248,9.252H11.919z"/>
	<path fill="#FFB700" d="M11.882,54.006c-5.11,0-9.266-4.156-9.266-9.266V11.878c0-5.106,4.155-9.262,9.266-9.262h43.877
		c5.107,0,9.264,4.155,9.264,9.262V44.74c0,5.109-4.156,9.266-9.264,9.266H11.882z"/>
</g>
<g>
	<path fill="#FFFFFF" d="M17.263,25.103v-0.768h4.194l-3.321,7.172h3.153v0.778h-4.383l3.35-7.183H17.263z"/>
	<path fill="#FFFFFF" d="M26.669,24.136c1.204,0,2.212,0.401,3.023,1.205c0.811,0.803,1.217,1.792,1.217,2.967
		c0,1.164-0.405,2.15-1.215,2.962c-0.809,0.811-1.796,1.216-2.96,1.216c-1.18,0-2.175-0.403-2.985-1.211
		c-0.812-0.807-1.217-1.783-1.217-2.929c0-0.764,0.185-1.472,0.554-2.124c0.37-0.652,0.874-1.163,1.512-1.532
		C25.237,24.32,25.927,24.136,26.669,24.136z M26.704,24.908c-0.588,0-1.146,0.153-1.673,0.46c-0.526,0.307-0.938,0.719-1.233,1.238
		s-0.444,1.098-0.444,1.736c0,0.944,0.327,1.742,0.982,2.394c0.655,0.65,1.444,0.976,2.368,0.976c0.617,0,1.188-0.149,1.713-0.448
		c0.525-0.3,0.935-0.709,1.229-1.228c0.294-0.52,0.44-1.097,0.44-1.731c0-0.631-0.146-1.201-0.44-1.712
		c-0.295-0.51-0.709-0.918-1.242-1.225C27.87,25.062,27.304,24.908,26.704,24.908z"/>
	<path fill="#FFFFFF" d="M36.289,24.136c1.204,0,2.212,0.401,3.023,1.205c0.811,0.803,1.217,1.792,1.217,2.967
		c0,1.164-0.405,2.15-1.215,2.962c-0.809,0.811-1.796,1.216-2.96,1.216c-1.18,0-2.175-0.403-2.985-1.211
		c-0.812-0.807-1.217-1.783-1.217-2.929c0-0.764,0.185-1.472,0.554-2.124c0.37-0.652,0.874-1.163,1.512-1.532
		C34.857,24.32,35.547,24.136,36.289,24.136z M36.324,24.908c-0.588,0-1.146,0.153-1.673,0.46c-0.526,0.307-0.938,0.719-1.233,1.238
		s-0.444,1.098-0.444,1.736c0,0.944,0.327,1.742,0.982,2.394c0.655,0.65,1.444,0.976,2.368,0.976c0.617,0,1.188-0.149,1.713-0.448
		c0.525-0.3,0.935-0.709,1.229-1.228c0.294-0.52,0.44-1.097,0.44-1.731c0-0.631-0.146-1.201-0.44-1.712
		c-0.295-0.51-0.709-0.918-1.242-1.225C37.49,25.062,36.924,24.908,36.324,24.908z"/>
	<path fill="#FFFFFF" d="M41.762,32.285l1.138-7.95h0.13l3.231,6.523l3.2-6.523h0.128l1.144,7.95h-0.778L49.168,26.6l-2.811,5.686
		h-0.203l-2.845-5.729l-0.78,5.729H41.762z"/>
</g>
</svg>
