<?xml version="1.0" encoding="utf-8"?>
<!-- Generator: Adobe Illustrator 16.0.0, SVG Export Plug-In . SVG Version: 6.00 Build 0)  -->
<!DOCTYPE svg PUBLIC "-//W3C//DTD SVG 1.0//EN" "http://www.w3.org/TR/2001/REC-SVG-20010904/DTD/svg10.dtd">
<svg version="1.0" id="Layer_1" xmlns="http://www.w3.org/2000/svg" xmlns:xlink="http://www.w3.org/1999/xlink" x="0px" y="0px"
	 width="67.639px" height="56.621px" viewBox="0 0 67.639 56.621" enable-background="new 0 0 67.639 56.621" xml:space="preserve">
<g>
	<path fill="#4D4D4D" d="M11.881,56.621C5.329,56.621,0,51.291,0,44.741V11.878C0,5.327,5.329,0,11.881,0h43.877
		c6.552,0,11.881,5.327,11.881,11.878v32.863c0,6.55-5.329,11.88-11.881,11.88H11.881z"/>
	<linearGradient id="SVGID_1_" gradientUnits="userSpaceOnUse" x1="33.8201" y1="56.0986" x2="33.8201" y2="0.3423">
		<stop  offset="0" style="stop-color:#3D3D3D"/>
		<stop  offset="0.1393" style="stop-color:#393939"/>
		<stop  offset="0.4946" style="stop-color:#363636"/>
		<stop  offset="0.5978" style="stop-color:#3B3B3B"/>
		<stop  offset="0.7271" style="stop-color:#4B4B4B"/>
		<stop  offset="0.8697" style="stop-color:#646464"/>
		<stop  offset="1" style="stop-color:#828282"/>
	</linearGradient>
	<path fill="url(#SVGID_1_)" d="M67.116,44.741c0,6.271-5.086,11.357-11.358,11.357H11.881c-6.272,0-11.357-5.086-11.357-11.357
		V11.878c0-6.27,5.085-11.355,11.357-11.355h43.877c6.272,0,11.358,5.086,11.358,11.355V44.741z"/>
	<linearGradient id="SVGID_2_" gradientUnits="userSpaceOnUse" x1="33.8196" y1="-45.6157" x2="33.8196" y2="100.6547">
		<stop  offset="0" style="stop-color:#FFFFFF"/>
		<stop  offset="1" style="stop-color:#FFFFFF"/>
	</linearGradient>
	<path opacity="0.8" fill="url(#SVGID_2_)" d="M11.917,53.021c-5.101,0-9.248-4.151-9.248-9.25V10.964
		c0-5.099,4.146-9.244,9.248-9.244h43.805c5.099,0,9.248,4.146,9.248,9.244v32.808c0,5.099-4.149,9.25-9.248,9.25H11.917z"/>
	<linearGradient id="SVGID_3_" gradientUnits="userSpaceOnUse" x1="2.616" y1="28.3115" x2="65.0227" y2="28.3115">
		<stop  offset="0" style="stop-color:#525252"/>
		<stop  offset="1" style="stop-color:#7A7A7A"/>
	</linearGradient>
	<path fill="url(#SVGID_3_)" d="M11.881,54.007c-5.109,0-9.265-4.155-9.265-9.266V11.878c0-5.106,4.156-9.262,9.265-9.262h43.877
		c5.108,0,9.265,4.155,9.265,9.262v32.863c0,5.11-4.156,9.266-9.265,9.266H11.881z"/>
</g>
<g>
	<path fill="#FFFFFF" d="M26.585,28.317c0-2.796,0.3-4.957,0.901-6.485c0.601-1.527,1.448-2.685,2.543-3.473
		c1.096-0.788,2.32-1.182,3.675-1.182c1.373,0,2.617,0.396,3.732,1.188c1.113,0.793,1.996,1.981,2.645,3.567
		c0.648,1.585,0.973,3.713,0.973,6.384c0,2.662-0.32,4.78-0.959,6.355c-0.639,1.576-1.52,2.765-2.645,3.567
		c-1.123,0.802-2.373,1.203-3.746,1.203c-1.355,0-2.575-0.389-3.661-1.167c-1.086-0.778-1.934-1.938-2.543-3.48
		C26.89,33.254,26.585,31.095,26.585,28.317z M28.588,28.354c0,2.395,0.214,4.204,0.641,5.431c0.428,1.226,1.06,2.156,1.896,2.791
		c0.835,0.634,1.72,0.951,2.651,0.951c0.942,0,1.821-0.31,2.637-0.93s1.436-1.551,1.859-2.791c0.527-1.51,0.793-3.327,0.793-5.452
		c0-2.135-0.236-3.882-0.707-5.242c-0.471-1.361-1.121-2.356-1.953-2.985c-0.83-0.63-1.707-0.945-2.629-0.945
		c-0.941,0-1.825,0.315-2.651,0.945c-0.827,0.629-1.456,1.557-1.888,2.783C28.804,24.135,28.588,25.95,28.588,28.354z"/>
</g>
</svg>
