<?xml version="1.0" encoding="utf-8"?>
<!-- Generator: Adobe Illustrator 16.0.0, SVG Export Plug-In . SVG Version: 6.00 Build 0)  -->
<!DOCTYPE svg PUBLIC "-//W3C//DTD SVG 1.0//EN" "http://www.w3.org/TR/2001/REC-SVG-20010904/DTD/svg10.dtd">
<svg version="1.0" id="Layer_1" xmlns="http://www.w3.org/2000/svg" xmlns:xlink="http://www.w3.org/1999/xlink" x="0px" y="0px"
	 width="67.639px" height="56.621px" viewBox="0 0 67.639 56.621" enable-background="new 0 0 67.639 56.621" xml:space="preserve">
<g>
	<path fill="#4D4D4D" d="M11.881,56.621c-6.552,0-11.882-5.33-11.882-11.881V11.877C-0.001,5.327,5.329,0,11.881,0h43.878
		C62.312,0,67.64,5.327,67.64,11.877V44.74c0,6.551-5.328,11.881-11.881,11.881H11.881z"/>
	<linearGradient id="SVGID_1_" gradientUnits="userSpaceOnUse" x1="33.8201" y1="56.0977" x2="33.8201" y2="0.3433">
		<stop  offset="0" style="stop-color:#3D3D3D"/>
		<stop  offset="0.1393" style="stop-color:#393939"/>
		<stop  offset="0.4946" style="stop-color:#363636"/>
		<stop  offset="0.5978" style="stop-color:#3B3B3B"/>
		<stop  offset="0.7271" style="stop-color:#4B4B4B"/>
		<stop  offset="0.8697" style="stop-color:#646464"/>
		<stop  offset="1" style="stop-color:#828282"/>
	</linearGradient>
	<path fill="url(#SVGID_1_)" d="M67.116,44.74c0,6.271-5.084,11.357-11.357,11.357H11.881c-6.272,0-11.357-5.086-11.357-11.357
		V11.877c0-6.269,5.085-11.354,11.357-11.354h43.878c6.273,0,11.357,5.085,11.357,11.354V44.74z"/>
	<linearGradient id="SVGID_2_" gradientUnits="userSpaceOnUse" x1="33.8191" y1="-45.6147" x2="33.8191" y2="100.6529">
		<stop  offset="0" style="stop-color:#FFFFFF"/>
		<stop  offset="1" style="stop-color:#FFFFFF"/>
	</linearGradient>
	<path opacity="0.8" fill="url(#SVGID_2_)" d="M11.918,53.021c-5.102,0-9.249-4.151-9.249-9.25V10.966
		c0-5.1,4.147-9.246,9.249-9.246h43.804c5.102,0,9.248,4.146,9.248,9.246v32.805c0,5.099-4.146,9.25-9.248,9.25H11.918z"/>
	<path fill="#EB1C24" d="M11.881,54.005c-5.11,0-9.266-4.155-9.266-9.265V11.877c0-5.106,4.155-9.261,9.266-9.261h43.878
		c5.107,0,9.264,4.154,9.264,9.261V44.74c0,5.109-4.156,9.265-9.264,9.265H11.881z"/>
</g>
<g>
	<path fill="#FFFFFF" d="M16.861,24.336h1.584c0.907,0,1.52,0.039,1.837,0.118c0.454,0.112,0.825,0.342,1.113,0.689
		s0.433,0.784,0.433,1.311c0,0.529-0.141,0.967-0.422,1.311s-0.668,0.575-1.162,0.694c-0.36,0.087-1.034,0.13-2.021,0.13h-0.567
		v3.696h-0.795V24.336z M17.656,25.114v2.696l1.346,0.017c0.544,0,0.941-0.05,1.194-0.148c0.252-0.1,0.45-0.26,0.594-0.48
		c0.145-0.221,0.217-0.468,0.217-0.741c0-0.267-0.072-0.51-0.217-0.731c-0.144-0.221-0.334-0.378-0.57-0.472
		c-0.235-0.094-0.622-0.14-1.159-0.14H17.656z"/>
	<path fill="#FFFFFF" d="M23.459,24.336h1.583c0.883,0,1.481,0.036,1.795,0.107c0.472,0.108,0.855,0.341,1.15,0.695
		c0.296,0.355,0.443,0.793,0.443,1.313c0,0.434-0.102,0.813-0.306,1.142c-0.203,0.328-0.494,0.576-0.872,0.744
		c-0.379,0.168-0.901,0.254-1.567,0.257l2.858,3.691h-0.982l-2.859-3.691h-0.449v3.691h-0.794V24.336z M24.253,25.114v2.701
		l1.37,0.012c0.53,0,0.923-0.051,1.177-0.152c0.255-0.1,0.453-0.262,0.596-0.483c0.143-0.221,0.214-0.469,0.214-0.743
		c0-0.267-0.072-0.509-0.217-0.727s-0.334-0.374-0.568-0.468c-0.234-0.093-0.624-0.14-1.169-0.14H24.253z"/>
	<path fill="#FFFFFF" d="M33.919,24.136c1.204,0,2.212,0.401,3.023,1.205c0.811,0.804,1.217,1.792,1.217,2.967
		c0,1.164-0.405,2.15-1.215,2.961c-0.809,0.811-1.796,1.217-2.96,1.217c-1.18,0-2.175-0.404-2.985-1.211
		c-0.812-0.807-1.217-1.783-1.217-2.93c0-0.764,0.185-1.471,0.554-2.123c0.37-0.652,0.874-1.163,1.512-1.532
		C32.487,24.32,33.177,24.136,33.919,24.136z M33.954,24.908c-0.588,0-1.146,0.153-1.673,0.46c-0.526,0.307-0.938,0.72-1.233,1.238
		c-0.296,0.52-0.444,1.098-0.444,1.736c0,0.945,0.327,1.742,0.982,2.393c0.655,0.651,1.444,0.977,2.368,0.977
		c0.617,0,1.188-0.149,1.713-0.449c0.525-0.299,0.935-0.708,1.229-1.227c0.294-0.52,0.44-1.097,0.44-1.731
		c0-0.631-0.146-1.201-0.44-1.712c-0.295-0.51-0.709-0.918-1.242-1.225C35.12,25.062,34.554,24.908,33.954,24.908z"/>
	<path fill="#FFFFFF" d="M47.422,25.671l-0.616,0.583c-0.442-0.436-0.929-0.767-1.456-0.991c-0.527-0.226-1.042-0.338-1.543-0.338
		c-0.623,0-1.217,0.153-1.78,0.459c-0.564,0.307-1.001,0.722-1.311,1.246c-0.311,0.524-0.465,1.078-0.465,1.662
		c0,0.598,0.16,1.166,0.48,1.705c0.321,0.538,0.764,0.961,1.33,1.27c0.565,0.309,1.185,0.462,1.858,0.462
		c0.818,0,1.51-0.23,2.075-0.692c0.566-0.461,0.901-1.059,1.006-1.793h-2.535v-0.768h3.427c-0.008,1.229-0.372,2.203-1.095,2.926
		s-1.688,1.084-2.899,1.084c-1.47,0-2.634-0.501-3.491-1.502c-0.659-0.771-0.989-1.664-0.989-2.676c0-0.753,0.189-1.453,0.568-2.103
		c0.378-0.648,0.896-1.155,1.556-1.521c0.659-0.366,1.405-0.549,2.237-0.549c0.674,0,1.309,0.121,1.902,0.364
		C46.277,24.743,46.857,25.134,47.422,25.671z"/>
	<path fill="#FFFFFF" d="M50.115,31.097c0.184,0,0.34,0.064,0.47,0.193c0.13,0.131,0.194,0.289,0.194,0.477
		c0,0.184-0.064,0.342-0.194,0.473s-0.286,0.197-0.47,0.197c-0.185,0-0.341-0.066-0.471-0.197s-0.194-0.289-0.194-0.473
		c0-0.188,0.064-0.346,0.194-0.477C49.774,31.161,49.93,31.097,50.115,31.097z"/>
</g>
</svg>
