<?xml version="1.0" encoding="utf-8"?>
<!-- Generator: Adobe Illustrator 16.0.0, SVG Export Plug-In . SVG Version: 6.00 Build 0)  -->
<!DOCTYPE svg PUBLIC "-//W3C//DTD SVG 1.0//EN" "http://www.w3.org/TR/2001/REC-SVG-20010904/DTD/svg10.dtd">
<svg version="1.0" id="Layer_1" xmlns="http://www.w3.org/2000/svg" xmlns:xlink="http://www.w3.org/1999/xlink" x="0px" y="0px"
	 width="67.639px" height="56.621px" viewBox="0 0 67.639 56.621" enable-background="new 0 0 67.639 56.621" xml:space="preserve">
<g>
	<path fill="#4D4D4D" d="M11.881,56.621c-6.551,0-11.88-5.332-11.88-11.881V11.878C0.001,5.328,5.33,0,11.881,0h43.878
		c6.553,0,11.879,5.328,11.879,11.878V44.74c0,6.549-5.326,11.881-11.879,11.881H11.881z"/>
	<linearGradient id="SVGID_1_" gradientUnits="userSpaceOnUse" x1="33.8201" y1="56.0977" x2="33.8201" y2="0.3433">
		<stop  offset="0" style="stop-color:#3D3D3D"/>
		<stop  offset="0.1393" style="stop-color:#393939"/>
		<stop  offset="0.4946" style="stop-color:#363636"/>
		<stop  offset="0.5978" style="stop-color:#3B3B3B"/>
		<stop  offset="0.7271" style="stop-color:#4B4B4B"/>
		<stop  offset="0.8697" style="stop-color:#646464"/>
		<stop  offset="1" style="stop-color:#828282"/>
	</linearGradient>
	<path fill="url(#SVGID_1_)" d="M67.116,44.74c0,6.271-5.086,11.357-11.357,11.357H11.881c-6.272,0-11.357-5.086-11.357-11.357
		V11.878c0-6.27,5.085-11.354,11.357-11.354h43.878c6.271,0,11.357,5.085,11.357,11.354V44.74z"/>
	<linearGradient id="SVGID_2_" gradientUnits="userSpaceOnUse" x1="33.8196" y1="-45.6157" x2="33.8196" y2="100.6519">
		<stop  offset="0" style="stop-color:#FFFFFF"/>
		<stop  offset="1" style="stop-color:#FFFFFF"/>
	</linearGradient>
	<path opacity="0.8" fill="url(#SVGID_2_)" d="M11.919,53.02c-5.103,0-9.249-4.148-9.249-9.248V10.965
		c0-5.1,4.146-9.246,9.249-9.246h43.803c5.1,0,9.248,4.146,9.248,9.246v32.807c0,5.1-4.148,9.248-9.248,9.248H11.919z"/>
	<linearGradient id="SVGID_3_" gradientUnits="userSpaceOnUse" x1="2.616" y1="28.3101" x2="65.0227" y2="28.3101">
		<stop  offset="0" style="stop-color:#525252"/>
		<stop  offset="1" style="stop-color:#7A7A7A"/>
	</linearGradient>
	<path fill="url(#SVGID_3_)" d="M11.881,54.005c-5.109,0-9.265-4.155-9.265-9.265V11.878c0-5.106,4.155-9.263,9.265-9.263h43.878
		c5.107,0,9.264,4.156,9.264,9.263V44.74c0,5.109-4.156,9.265-9.264,9.265H11.881z"/>
</g>
<g>
	<path fill="#FFFFFF" d="M16.085,23.894h0.883v3.705h4.498v-3.705h0.883v8.833h-0.883v-4.264h-4.498v4.264h-0.883V23.894z"/>
	<path fill="#FFFFFF" d="M28.704,23.672c1.338,0,2.457,0.446,3.358,1.339c0.901,0.893,1.353,1.992,1.353,3.297
		c0,1.293-0.45,2.39-1.35,3.291c-0.899,0.9-1.995,1.351-3.289,1.351c-1.311,0-2.416-0.448-3.317-1.345s-1.352-1.982-1.352-3.255
		c0-0.849,0.205-1.635,0.616-2.36c0.41-0.725,0.97-1.292,1.679-1.703C27.111,23.877,27.879,23.672,28.704,23.672z M28.743,24.53
		c-0.653,0-1.273,0.17-1.858,0.511c-0.586,0.34-1.043,0.799-1.371,1.376c-0.329,0.577-0.493,1.22-0.493,1.929
		c0,1.049,0.363,1.936,1.091,2.659c0.729,0.724,1.605,1.085,2.632,1.085c0.686,0,1.32-0.166,1.903-0.499
		c0.584-0.333,1.038-0.787,1.365-1.364c0.327-0.576,0.49-1.218,0.49-1.923c0-0.701-0.163-1.335-0.49-1.902s-0.787-1.021-1.38-1.361
		C30.038,24.701,29.408,24.53,28.743,24.53z"/>
	<path fill="#FFFFFF" d="M34.784,32.728l1.264-8.833h0.145l3.59,7.248l3.557-7.248h0.141l1.271,8.833h-0.865l-0.873-6.317
		l-3.123,6.317h-0.225l-3.162-6.366l-0.867,6.366H34.784z"/>
	<path fill="#FFFFFF" d="M46.493,23.894h5.061v0.865h-4.178v2.768h4.143v0.865h-4.143v3.471h4.143v0.865h-5.025V23.894z"/>
</g>
</svg>
