<?xml version="1.0" encoding="utf-8"?>
<!-- Generator: Adobe Illustrator 16.0.0, SVG Export Plug-In . SVG Version: 6.00 Build 0)  -->
<!DOCTYPE svg PUBLIC "-//W3C//DTD SVG 1.0//EN" "http://www.w3.org/TR/2001/REC-SVG-20010904/DTD/svg10.dtd">
<svg version="1.0" id="Layer_1" xmlns="http://www.w3.org/2000/svg" xmlns:xlink="http://www.w3.org/1999/xlink" x="0px" y="0px"
	 width="67.639px" height="56.621px" viewBox="0 0 67.639 56.621" enable-background="new 0 0 67.639 56.621" xml:space="preserve">
<g>
	<path fill="#4D4D4D" d="M11.881,56.621C5.329,56.621,0,51.291,0,44.74V11.878C0,5.329,5.329,0,11.881,0h43.878
		c6.552,0,11.88,5.328,11.88,11.878V44.74c0,6.551-5.328,11.881-11.88,11.881H11.881z"/>
	<linearGradient id="SVGID_1_" gradientUnits="userSpaceOnUse" x1="33.8201" y1="56.0977" x2="33.8201" y2="0.3438">
		<stop  offset="0" style="stop-color:#3D3D3D"/>
		<stop  offset="0.1393" style="stop-color:#393939"/>
		<stop  offset="0.4946" style="stop-color:#363636"/>
		<stop  offset="0.5978" style="stop-color:#3B3B3B"/>
		<stop  offset="0.7271" style="stop-color:#4B4B4B"/>
		<stop  offset="0.8697" style="stop-color:#646464"/>
		<stop  offset="1" style="stop-color:#828282"/>
	</linearGradient>
	<path fill="url(#SVGID_1_)" d="M67.115,44.74c0,6.273-5.084,11.357-11.356,11.357H11.881c-6.272,0-11.357-5.084-11.357-11.357
		V11.878c0-6.27,5.085-11.354,11.357-11.354h43.878c6.272,0,11.356,5.085,11.356,11.354V44.74z"/>
	<linearGradient id="SVGID_2_" gradientUnits="userSpaceOnUse" x1="33.8201" y1="-45.6147" x2="33.8201" y2="100.6543">
		<stop  offset="0" style="stop-color:#FFFFFF"/>
		<stop  offset="1" style="stop-color:#FFFFFF"/>
	</linearGradient>
	<path opacity="0.8" fill="url(#SVGID_2_)" d="M11.918,53.021c-5.102,0-9.248-4.152-9.248-9.252V10.965
		c0-5.1,4.146-9.245,9.248-9.245h43.804c5.099,0,9.248,4.146,9.248,9.245V43.77c0,5.1-4.149,9.252-9.248,9.252H11.918z"/>
	<path fill="#1B75BA" d="M11.881,54.006c-5.109,0-9.266-4.156-9.266-9.266V11.878c0-5.106,4.156-9.262,9.266-9.262h43.878
		c5.107,0,9.263,4.155,9.263,9.262V44.74c0,5.109-4.155,9.266-9.263,9.266H11.881z"/>
</g>
<g>
	<path fill="#FFFFFF" d="M9.062,24.335h1.583c0.883,0,1.481,0.036,1.795,0.108c0.472,0.108,0.855,0.34,1.15,0.695
		c0.296,0.355,0.443,0.793,0.443,1.313c0,0.433-0.102,0.813-0.306,1.142c-0.203,0.328-0.494,0.576-0.872,0.744
		c-0.379,0.168-0.901,0.254-1.567,0.257l2.858,3.691h-0.982l-2.859-3.691H9.856v3.691H9.062V24.335z M9.856,25.113v2.702l1.37,0.011
		c0.53,0,0.923-0.05,1.177-0.15c0.255-0.102,0.453-0.263,0.596-0.484s0.214-0.469,0.214-0.743c0-0.267-0.072-0.509-0.217-0.727
		s-0.334-0.374-0.568-0.468s-0.624-0.141-1.169-0.141H9.856z"/>
	<path fill="#FFFFFF" d="M18.985,24.335l3.707,7.95h-0.858l-1.25-2.615h-3.425l-1.238,2.615h-0.887l3.756-7.95H18.985z
		 M18.885,26.024l-1.362,2.878h2.718L18.885,26.024z"/>
	<path fill="#FFFFFF" d="M23.929,32.285v-7.95h0.173l5.291,6.095v-6.095h0.783v7.95h-0.178l-5.248-6.02v6.02H23.929z"/>
	<path fill="#FFFFFF" d="M32.112,32.285v-7.95h1.647c1.189,0,2.052,0.096,2.589,0.287c0.771,0.27,1.373,0.738,1.807,1.405
		c0.436,0.666,0.652,1.461,0.652,2.383c0,0.796-0.172,1.497-0.516,2.103c-0.346,0.605-0.791,1.052-1.342,1.34
		c-0.549,0.288-1.318,0.433-2.309,0.433H32.112z M32.874,31.534h0.919c1.099,0,1.861-0.068,2.287-0.205
		c0.598-0.194,1.066-0.545,1.41-1.051c0.342-0.506,0.514-1.124,0.514-1.854c0-0.767-0.186-1.422-0.557-1.966
		c-0.371-0.543-0.889-0.916-1.553-1.117c-0.496-0.151-1.316-0.228-2.458-0.228h-0.562V31.534z"/>
	<path fill="#FFFFFF" d="M44.134,24.136c1.203,0,2.211,0.401,3.023,1.205c0.811,0.803,1.217,1.792,1.217,2.967
		c0,1.164-0.406,2.15-1.215,2.962c-0.809,0.811-1.797,1.216-2.961,1.216c-1.18,0-2.174-0.403-2.984-1.211
		c-0.813-0.807-1.217-1.783-1.217-2.929c0-0.764,0.184-1.472,0.553-2.124c0.371-0.652,0.875-1.163,1.512-1.532
		C42.7,24.32,43.392,24.136,44.134,24.136z M44.169,24.908c-0.588,0-1.146,0.153-1.674,0.46c-0.525,0.307-0.938,0.719-1.232,1.238
		c-0.297,0.52-0.445,1.098-0.445,1.736c0,0.944,0.328,1.742,0.982,2.394c0.656,0.65,1.445,0.976,2.369,0.976
		c0.617,0,1.188-0.149,1.713-0.448c0.525-0.3,0.934-0.709,1.229-1.228c0.295-0.52,0.441-1.097,0.441-1.731
		c0-0.631-0.146-1.201-0.441-1.712c-0.295-0.51-0.709-0.918-1.242-1.225S44.769,24.908,44.169,24.908z"/>
	<path fill="#FFFFFF" d="M49.607,32.285l1.137-7.95h0.131l3.23,6.523l3.201-6.523h0.127l1.145,7.95h-0.779L57.013,26.6l-2.811,5.686
		h-0.203l-2.846-5.729l-0.779,5.729H49.607z"/>
</g>
</svg>
