<?xml version="1.0" encoding="utf-8"?>
<!-- Generator: Adobe Illustrator 16.0.0, SVG Export Plug-In . SVG Version: 6.00 Build 0)  -->
<!DOCTYPE svg PUBLIC "-//W3C//DTD SVG 1.0//EN" "http://www.w3.org/TR/2001/REC-SVG-20010904/DTD/svg10.dtd">
<svg version="1.0" id="Layer_1" xmlns="http://www.w3.org/2000/svg" xmlns:xlink="http://www.w3.org/1999/xlink" x="0px" y="0px"
	 width="67.639px" height="56.621px" viewBox="0 0 67.639 56.621" enable-background="new 0 0 67.639 56.621" xml:space="preserve">
<g>
	<path fill="#4D4D4D" d="M11.881,56.621c-6.551,0-11.88-5.332-11.88-11.881V11.878C0.001,5.328,5.33,0,11.881,0h43.878
		c6.553,0,11.879,5.328,11.879,11.878V44.74c0,6.549-5.326,11.881-11.879,11.881H11.881z"/>
	<linearGradient id="SVGID_1_" gradientUnits="userSpaceOnUse" x1="33.8201" y1="56.0977" x2="33.8201" y2="0.3433">
		<stop  offset="0" style="stop-color:#3D3D3D"/>
		<stop  offset="0.1393" style="stop-color:#393939"/>
		<stop  offset="0.4946" style="stop-color:#363636"/>
		<stop  offset="0.5978" style="stop-color:#3B3B3B"/>
		<stop  offset="0.7271" style="stop-color:#4B4B4B"/>
		<stop  offset="0.8697" style="stop-color:#646464"/>
		<stop  offset="1" style="stop-color:#828282"/>
	</linearGradient>
	<path fill="url(#SVGID_1_)" d="M67.116,44.74c0,6.271-5.086,11.357-11.357,11.357H11.881c-6.272,0-11.357-5.086-11.357-11.357
		V11.878c0-6.27,5.085-11.354,11.357-11.354h43.878c6.271,0,11.357,5.085,11.357,11.354V44.74z"/>
	<linearGradient id="SVGID_2_" gradientUnits="userSpaceOnUse" x1="33.8196" y1="-45.6157" x2="33.8196" y2="100.6519">
		<stop  offset="0" style="stop-color:#FFFFFF"/>
		<stop  offset="1" style="stop-color:#FFFFFF"/>
	</linearGradient>
	<path opacity="0.8" fill="url(#SVGID_2_)" d="M11.919,53.02c-5.103,0-9.249-4.148-9.249-9.248V10.965
		c0-5.1,4.146-9.246,9.249-9.246h43.803c5.1,0,9.248,4.146,9.248,9.246v32.807c0,5.1-4.148,9.248-9.248,9.248H11.919z"/>
	<linearGradient id="SVGID_3_" gradientUnits="userSpaceOnUse" x1="2.616" y1="28.3101" x2="65.0227" y2="28.3101">
		<stop  offset="0" style="stop-color:#525252"/>
		<stop  offset="1" style="stop-color:#7A7A7A"/>
	</linearGradient>
	<path fill="url(#SVGID_3_)" d="M11.881,54.005c-5.109,0-9.265-4.155-9.265-9.265V11.878c0-5.106,4.155-9.263,9.265-9.263h43.878
		c5.107,0,9.264,4.156,9.264,9.263V44.74c0,5.109-4.156,9.265-9.264,9.265H11.881z"/>
</g>
<g>
	<path fill="#FFFFFF" d="M18.819,23.894l4.119,8.833h-0.953l-1.39-2.906h-3.805l-1.376,2.906h-0.985l4.174-8.833H18.819z
		 M18.708,25.771l-1.514,3.198h3.02L18.708,25.771z"/>
	<path fill="#FFFFFF" d="M24.338,23.894h0.883v5.333c0,0.633,0.013,1.027,0.036,1.184c0.044,0.348,0.146,0.639,0.307,0.873
		s0.406,0.43,0.738,0.588s0.667,0.238,1.003,0.238c0.292,0,0.572-0.063,0.841-0.188c0.268-0.123,0.492-0.295,0.672-0.516
		c0.181-0.221,0.313-0.486,0.396-0.799c0.061-0.225,0.091-0.686,0.091-1.381v-5.333h0.882v5.333c0,0.789-0.077,1.426-0.23,1.912
		c-0.154,0.486-0.463,0.91-0.925,1.27c-0.463,0.361-1.022,0.541-1.679,0.541c-0.713,0-1.323-0.17-1.831-0.51
		c-0.509-0.342-0.849-0.791-1.021-1.352c-0.107-0.344-0.162-0.965-0.162-1.861V23.894z"/>
	<path fill="#FFFFFF" d="M32.361,32.727v-8.833h1.831c1.321,0,2.28,0.106,2.875,0.318c0.857,0.3,1.527,0.82,2.01,1.562
		c0.482,0.74,0.723,1.623,0.723,2.647c0,0.885-0.191,1.663-0.572,2.336c-0.383,0.672-0.879,1.168-1.49,1.488
		c-0.609,0.32-1.465,0.48-2.566,0.48H32.361z M33.208,31.893h1.021c1.22,0,2.068-0.076,2.541-0.229
		c0.664-0.215,1.186-0.605,1.566-1.166c0.381-0.563,0.57-1.25,0.57-2.062c0-0.852-0.205-1.579-0.617-2.184
		c-0.414-0.604-0.988-1.018-1.725-1.242c-0.553-0.168-1.463-0.252-2.732-0.252h-0.624V31.893z"/>
	<path fill="#FFFFFF" d="M41.386,23.894h0.883v8.833h-0.883V23.894z"/>
	<path fill="#FFFFFF" d="M48.499,23.671c1.338,0,2.457,0.447,3.357,1.34c0.902,0.893,1.354,1.991,1.354,3.296
		c0,1.294-0.451,2.39-1.35,3.291c-0.9,0.9-1.996,1.352-3.289,1.352c-1.311,0-2.416-0.449-3.318-1.346
		c-0.9-0.896-1.352-1.98-1.352-3.254c0-0.849,0.205-1.635,0.617-2.359c0.41-0.725,0.969-1.292,1.678-1.702
		C46.906,23.876,47.673,23.671,48.499,23.671z M48.538,24.531c-0.654,0-1.273,0.17-1.859,0.511s-1.043,0.799-1.371,1.376
		s-0.492,1.22-0.492,1.929c0,1.05,0.363,1.937,1.09,2.66c0.729,0.723,1.605,1.084,2.633,1.084c0.686,0,1.32-0.166,1.902-0.498
		c0.584-0.332,1.039-0.787,1.365-1.363c0.328-0.578,0.49-1.219,0.49-1.924c0-0.701-0.162-1.335-0.49-1.901
		c-0.326-0.567-0.787-1.021-1.379-1.361C49.833,24.701,49.202,24.531,48.538,24.531z"/>
</g>
</svg>
