<?xml version="1.0" encoding="utf-8"?>
<!-- Generator: Adobe Illustrator 16.0.0, SVG Export Plug-In . SVG Version: 6.00 Build 0)  -->
<!DOCTYPE svg PUBLIC "-//W3C//DTD SVG 1.0//EN" "http://www.w3.org/TR/2001/REC-SVG-20010904/DTD/svg10.dtd">
<svg version="1.0" id="Layer_1" xmlns="http://www.w3.org/2000/svg" xmlns:xlink="http://www.w3.org/1999/xlink" x="0px" y="0px"
	 width="67.639px" height="56.621px" viewBox="0 0 67.639 56.621" enable-background="new 0 0 67.639 56.621" xml:space="preserve">
<g>
	<path fill="#4D4D4D" d="M11.882,56.621C5.33,56.621,0,51.291,0,44.742V11.878C0,5.327,5.33,0,11.882,0h43.877
		c6.553,0,11.88,5.326,11.88,11.878v32.864c0,6.549-5.327,11.879-11.88,11.879H11.882z"/>
	<linearGradient id="SVGID_1_" gradientUnits="userSpaceOnUse" x1="33.821" y1="56.0977" x2="33.821" y2="0.3428">
		<stop  offset="0" style="stop-color:#3D3D3D"/>
		<stop  offset="0.1393" style="stop-color:#393939"/>
		<stop  offset="0.4946" style="stop-color:#363636"/>
		<stop  offset="0.5978" style="stop-color:#3B3B3B"/>
		<stop  offset="0.7271" style="stop-color:#4B4B4B"/>
		<stop  offset="0.8697" style="stop-color:#646464"/>
		<stop  offset="1" style="stop-color:#828282"/>
	</linearGradient>
	<path fill="url(#SVGID_1_)" d="M67.117,44.742c0,6.271-5.086,11.355-11.358,11.355H11.882c-6.272,0-11.357-5.084-11.357-11.355
		V11.878c0-6.27,5.085-11.355,11.357-11.355h43.877c6.272,0,11.358,5.086,11.358,11.355V44.742z"/>
	<linearGradient id="SVGID_2_" gradientUnits="userSpaceOnUse" x1="33.8201" y1="-45.6128" x2="33.8201" y2="100.6507">
		<stop  offset="0" style="stop-color:#FFFFFF"/>
		<stop  offset="1" style="stop-color:#FFFFFF"/>
	</linearGradient>
	<path opacity="0.8" fill="url(#SVGID_2_)" d="M11.919,53.02c-5.102,0-9.249-4.15-9.249-9.248V10.964
		c0-5.099,4.147-9.244,9.249-9.244h43.804c5.099,0,9.247,4.146,9.247,9.244v32.807c0,5.098-4.148,9.248-9.247,9.248H11.919z"/>
	<linearGradient id="SVGID_3_" gradientUnits="userSpaceOnUse" x1="2.6165" y1="28.3096" x2="65.0237" y2="28.3096">
		<stop  offset="0" style="stop-color:#525252"/>
		<stop  offset="1" style="stop-color:#7A7A7A"/>
	</linearGradient>
	<path fill="url(#SVGID_3_)" d="M11.882,54.004c-5.111,0-9.266-4.154-9.266-9.262V11.878c0-5.108,4.154-9.264,9.266-9.264h43.877
		c5.107,0,9.265,4.155,9.265,9.264v32.864c0,5.107-4.157,9.262-9.265,9.262H11.882z"/>
</g>
<g>
	<path fill="#FFFFFF" d="M28.336,21.816c1.873,0,3.44,0.625,4.702,1.875s1.893,2.788,1.893,4.615c0,1.811-0.629,3.346-1.888,4.608
		c-1.26,1.26-2.795,1.891-4.606,1.891c-1.833,0-3.381-0.627-4.644-1.883c-1.262-1.256-1.893-2.775-1.893-4.557
		c0-1.188,0.288-2.289,0.862-3.304c0.575-1.014,1.358-1.809,2.352-2.383C26.107,22.103,27.181,21.816,28.336,21.816z M28.391,23.018
		c-0.915,0-1.782,0.238-2.602,0.716c-0.82,0.477-1.46,1.119-1.92,1.927s-0.69,1.707-0.69,2.7c0,1.469,0.509,2.711,1.528,3.723
		c1.019,1.012,2.246,1.518,3.684,1.518c0.96,0,1.849-0.232,2.665-0.697s1.454-1.102,1.911-1.91c0.458-0.807,0.687-1.705,0.687-2.692
		c0-0.981-0.229-1.869-0.687-2.663c-0.457-0.794-1.102-1.429-1.933-1.905C30.204,23.256,29.323,23.018,28.391,23.018z"/>
	<path fill="#FFFFFF" d="M37.411,22.127h1.261v4.641l4.943-4.641h1.66l-5.939,5.548l6.402,6.819h-1.646l-5.42-5.76v5.76h-1.261
		V22.127z"/>
</g>
</svg>
