<?xml version="1.0" encoding="utf-8"?>
<!-- Generator: Adobe Illustrator 16.0.0, SVG Export Plug-In . SVG Version: 6.00 Build 0)  -->
<!DOCTYPE svg PUBLIC "-//W3C//DTD SVG 1.0//EN" "http://www.w3.org/TR/2001/REC-SVG-20010904/DTD/svg10.dtd">
<svg version="1.0" id="Layer_1" xmlns="http://www.w3.org/2000/svg" xmlns:xlink="http://www.w3.org/1999/xlink" x="0px" y="0px"
	 width="67.639px" height="56.621px" viewBox="0 0 67.639 56.621" enable-background="new 0 0 67.639 56.621" xml:space="preserve">
<g>
	<path fill="#4D4D4D" d="M11.882,56.621C5.33,56.621,0,51.291,0,44.742V11.878C0,5.327,5.33,0,11.882,0h43.876
		c6.553,0,11.881,5.326,11.881,11.878v32.864c0,6.549-5.328,11.879-11.881,11.879H11.882z"/>
	<linearGradient id="SVGID_1_" gradientUnits="userSpaceOnUse" x1="33.8201" y1="56.0977" x2="33.8201" y2="0.3428">
		<stop  offset="0" style="stop-color:#3D3D3D"/>
		<stop  offset="0.1393" style="stop-color:#393939"/>
		<stop  offset="0.4946" style="stop-color:#363636"/>
		<stop  offset="0.5978" style="stop-color:#3B3B3B"/>
		<stop  offset="0.7271" style="stop-color:#4B4B4B"/>
		<stop  offset="0.8697" style="stop-color:#646464"/>
		<stop  offset="1" style="stop-color:#828282"/>
	</linearGradient>
	<path fill="url(#SVGID_1_)" d="M67.115,44.742c0,6.271-5.084,11.355-11.357,11.355H11.882c-6.273,0-11.358-5.084-11.358-11.355
		V11.878c0-6.27,5.085-11.355,11.358-11.355h43.876c6.273,0,11.357,5.086,11.357,11.355V44.742z"/>
	<linearGradient id="SVGID_2_" gradientUnits="userSpaceOnUse" x1="33.8191" y1="-45.6128" x2="33.8191" y2="100.6507">
		<stop  offset="0" style="stop-color:#FFFFFF"/>
		<stop  offset="1" style="stop-color:#FFFFFF"/>
	</linearGradient>
	<path opacity="0.8" fill="url(#SVGID_2_)" d="M11.919,53.02c-5.102,0-9.25-4.15-9.25-9.248V10.964c0-5.099,4.147-9.244,9.25-9.244
		h43.804c5.099,0,9.247,4.146,9.247,9.244v32.807c0,5.098-4.148,9.248-9.247,9.248H11.919z"/>
	<linearGradient id="SVGID_3_" gradientUnits="userSpaceOnUse" x1="2.6155" y1="28.3096" x2="65.0227" y2="28.3096">
		<stop  offset="0" style="stop-color:#525252"/>
		<stop  offset="1" style="stop-color:#7A7A7A"/>
	</linearGradient>
	<path fill="url(#SVGID_3_)" d="M11.882,54.004c-5.111,0-9.266-4.154-9.266-9.262V11.878c0-5.108,4.155-9.264,9.266-9.264h43.876
		c5.109,0,9.265,4.155,9.265,9.264v32.864c0,5.107-4.155,9.262-9.265,9.262H11.882z"/>
</g>
<g>
	<path fill="#FFFFFF" d="M31.514,39.443l-1.744-1.124l5.735-8.681c-0.769,0.253-1.49,0.38-2.163,0.38
		c-1.686,0-3.114-0.608-4.289-1.823c-1.175-1.216-1.762-2.712-1.762-4.489c0-1.22,0.283-2.32,0.851-3.301
		c0.566-0.979,1.371-1.763,2.414-2.349c1.042-0.586,2.159-0.879,3.351-0.879c1.171,0,2.255,0.283,3.249,0.85
		c0.994,0.567,1.775,1.36,2.342,2.378c0.566,1.019,0.851,2.104,0.851,3.258c0,0.874-0.175,1.789-0.526,2.745
		c-0.351,0.956-0.978,2.106-1.881,3.451L31.514,39.443z M33.829,28.159c1.242,0,2.295-0.435,3.16-1.305
		c0.865-0.869,1.297-1.919,1.297-3.148s-0.434-2.279-1.304-3.149c-0.87-0.869-1.924-1.304-3.163-1.304
		c-1.229,0-2.279,0.435-3.148,1.304c-0.87,0.87-1.305,1.92-1.305,3.149s0.436,2.279,1.308,3.148
		C31.545,27.725,32.597,28.159,33.829,28.159z"/>
</g>
</svg>
