<?xml version="1.0" encoding="utf-8"?>
<!-- Generator: Adobe Illustrator 16.0.0, SVG Export Plug-In . SVG Version: 6.00 Build 0)  -->
<!DOCTYPE svg PUBLIC "-//W3C//DTD SVG 1.0//EN" "http://www.w3.org/TR/2001/REC-SVG-20010904/DTD/svg10.dtd">
<svg version="1.0" id="Layer_1" xmlns="http://www.w3.org/2000/svg" xmlns:xlink="http://www.w3.org/1999/xlink" x="0px" y="0px"
	 width="67.639px" height="56.621px" viewBox="0 0 67.639 56.621" enable-background="new 0 0 67.639 56.621" xml:space="preserve">
<g>
	<path fill="#4D4D4D" d="M11.883,56.621C5.331,56.621,0,51.291,0,44.742V11.878C0,5.327,5.331,0,11.883,0h43.876
		C62.312,0,67.64,5.327,67.64,11.878v32.864c0,6.549-5.328,11.879-11.881,11.879H11.883z"/>
	<linearGradient id="SVGID_1_" gradientUnits="userSpaceOnUse" x1="33.822" y1="56.0977" x2="33.822" y2="0.3428">
		<stop  offset="0" style="stop-color:#3D3D3D"/>
		<stop  offset="0.1393" style="stop-color:#393939"/>
		<stop  offset="0.4946" style="stop-color:#363636"/>
		<stop  offset="0.5978" style="stop-color:#3B3B3B"/>
		<stop  offset="0.7271" style="stop-color:#4B4B4B"/>
		<stop  offset="0.8697" style="stop-color:#646464"/>
		<stop  offset="1" style="stop-color:#828282"/>
	</linearGradient>
	<path fill="url(#SVGID_1_)" d="M67.118,44.742c0,6.271-5.086,11.355-11.359,11.355H11.883c-6.273,0-11.357-5.084-11.357-11.355
		V11.878c0-6.27,5.084-11.355,11.357-11.355h43.876c6.273,0,11.359,5.086,11.359,11.355V44.742z"/>
	<linearGradient id="SVGID_2_" gradientUnits="userSpaceOnUse" x1="33.8206" y1="-45.6128" x2="33.8205" y2="100.6507">
		<stop  offset="0" style="stop-color:#FFFFFF"/>
		<stop  offset="1" style="stop-color:#FFFFFF"/>
	</linearGradient>
	<path opacity="0.8" fill="url(#SVGID_2_)" d="M11.92,53.02c-5.102,0-9.25-4.15-9.25-9.248V10.964c0-5.099,4.148-9.244,9.25-9.244
		h43.802c5.1,0,9.25,4.146,9.25,9.244v32.807c0,5.098-4.15,9.248-9.25,9.248H11.92z"/>
	<linearGradient id="SVGID_3_" gradientUnits="userSpaceOnUse" x1="2.6169" y1="28.3096" x2="65.0227" y2="28.3096">
		<stop  offset="0" style="stop-color:#525252"/>
		<stop  offset="1" style="stop-color:#7A7A7A"/>
	</linearGradient>
	<path fill="url(#SVGID_3_)" d="M11.883,54.004c-5.111,0-9.266-4.154-9.266-9.262V11.878c0-5.108,4.154-9.264,9.266-9.264h43.876
		c5.107,0,9.264,4.155,9.264,9.264v32.864c0,5.107-4.156,9.262-9.264,9.262H11.883z"/>
</g>
<path fill-rule="evenodd" clip-rule="evenodd" fill="#FFFFFF" d="M25.809,26.752c-0.962,0.824-0.962,2.246,0,3.116l12.955,11.444
	c0.962,0.871,1.787,0.32,1.787-1.282V16.59c0-1.602-0.825-2.152-1.787-1.283L25.809,26.752z"/>
</svg>
