<?xml version="1.0" encoding="utf-8"?>
<!-- Generator: Adobe Illustrator 16.0.0, SVG Export Plug-In . SVG Version: 6.00 Build 0)  -->
<!DOCTYPE svg PUBLIC "-//W3C//DTD SVG 1.0//EN" "http://www.w3.org/TR/2001/REC-SVG-20010904/DTD/svg10.dtd">
<svg version="1.0" id="Layer_1" xmlns="http://www.w3.org/2000/svg" xmlns:xlink="http://www.w3.org/1999/xlink" x="0px" y="0px"
	 width="67.639px" height="56.621px" viewBox="0 0 67.639 56.621" enable-background="new 0 0 67.639 56.621" xml:space="preserve">
<g>
	<path fill="#4D4D4D" d="M11.881,56.621C5.33,56.621,0,51.292,0,44.741V11.878C0,5.327,5.33,0,11.881,0h43.878
		c6.552,0,11.88,5.327,11.88,11.878v32.863c0,6.551-5.328,11.88-11.88,11.88H11.881z"/>
	<linearGradient id="SVGID_1_" gradientUnits="userSpaceOnUse" x1="33.8201" y1="56.0977" x2="33.8201" y2="0.3443">
		<stop  offset="0" style="stop-color:#3D3D3D"/>
		<stop  offset="0.1393" style="stop-color:#393939"/>
		<stop  offset="0.4946" style="stop-color:#363636"/>
		<stop  offset="0.5978" style="stop-color:#3B3B3B"/>
		<stop  offset="0.7271" style="stop-color:#4B4B4B"/>
		<stop  offset="0.8697" style="stop-color:#646464"/>
		<stop  offset="1" style="stop-color:#828282"/>
	</linearGradient>
	<path fill="url(#SVGID_1_)" d="M67.116,44.741c0,6.271-5.086,11.356-11.357,11.356H11.881c-6.273,0-11.357-5.086-11.357-11.356
		V11.878c0-6.269,5.084-11.354,11.357-11.354h43.878c6.271,0,11.357,5.085,11.357,11.354V44.741z"/>
	<linearGradient id="SVGID_2_" gradientUnits="userSpaceOnUse" x1="33.8201" y1="-45.6147" x2="33.8201" y2="100.6529">
		<stop  offset="0" style="stop-color:#FFFFFF"/>
		<stop  offset="1" style="stop-color:#FFFFFF"/>
	</linearGradient>
	<path opacity="0.8" fill="url(#SVGID_2_)" d="M11.918,53.021c-5.102,0-9.248-4.149-9.248-9.249V10.966
		c0-5.101,4.146-9.246,9.248-9.246h43.804c5.1,0,9.248,4.146,9.248,9.246v32.806c0,5.1-4.148,9.249-9.248,9.249H11.918z"/>
	<linearGradient id="SVGID_3_" gradientUnits="userSpaceOnUse" x1="2.6165" y1="28.311" x2="65.0227" y2="28.311">
		<stop  offset="0" style="stop-color:#525252"/>
		<stop  offset="1" style="stop-color:#7A7A7A"/>
	</linearGradient>
	<path fill="url(#SVGID_3_)" d="M11.881,54.006c-5.109,0-9.265-4.155-9.265-9.265V11.878c0-5.106,4.155-9.262,9.265-9.262h43.878
		c5.107,0,9.264,4.155,9.264,9.262v32.863c0,5.109-4.156,9.265-9.264,9.265H11.881z"/>
</g>
<g>
	<path fill="#FFFFFF" d="M27.759,18.624h13.445L29.863,40.356l-1.755-0.899l9.786-18.815H27.759V18.624z"/>
</g>
</svg>
