<?xml version="1.0" encoding="utf-8"?>
<!-- Generator: Adobe Illustrator 16.0.0, SVG Export Plug-In . SVG Version: 6.00 Build 0)  -->
<!DOCTYPE svg PUBLIC "-//W3C//DTD SVG 1.0//EN" "http://www.w3.org/TR/2001/REC-SVG-20010904/DTD/svg10.dtd">
<svg version="1.0" id="Layer_1" xmlns="http://www.w3.org/2000/svg" xmlns:xlink="http://www.w3.org/1999/xlink" x="0px" y="0px"
	 width="67.639px" height="56.621px" viewBox="0 0 67.639 56.621" enable-background="new 0 0 67.639 56.621" xml:space="preserve">
<g>
	<path fill="#4D4D4D" d="M11.881,56.621c-6.551,0-11.88-5.332-11.88-11.881V11.878C0.001,5.328,5.33,0,11.881,0h43.878
		c6.553,0,11.879,5.328,11.879,11.878V44.74c0,6.549-5.326,11.881-11.879,11.881H11.881z"/>
	<linearGradient id="SVGID_1_" gradientUnits="userSpaceOnUse" x1="33.8201" y1="56.0977" x2="33.8201" y2="0.3433">
		<stop  offset="0" style="stop-color:#3D3D3D"/>
		<stop  offset="0.1393" style="stop-color:#393939"/>
		<stop  offset="0.4946" style="stop-color:#363636"/>
		<stop  offset="0.5978" style="stop-color:#3B3B3B"/>
		<stop  offset="0.7271" style="stop-color:#4B4B4B"/>
		<stop  offset="0.8697" style="stop-color:#646464"/>
		<stop  offset="1" style="stop-color:#828282"/>
	</linearGradient>
	<path fill="url(#SVGID_1_)" d="M67.116,44.74c0,6.271-5.086,11.357-11.357,11.357H11.881c-6.272,0-11.357-5.086-11.357-11.357
		V11.878c0-6.27,5.085-11.354,11.357-11.354h43.878c6.271,0,11.357,5.085,11.357,11.354V44.74z"/>
	<linearGradient id="SVGID_2_" gradientUnits="userSpaceOnUse" x1="33.8196" y1="-45.6157" x2="33.8196" y2="100.6519">
		<stop  offset="0" style="stop-color:#FFFFFF"/>
		<stop  offset="1" style="stop-color:#FFFFFF"/>
	</linearGradient>
	<path opacity="0.8" fill="url(#SVGID_2_)" d="M11.919,53.02c-5.103,0-9.249-4.148-9.249-9.248V10.965
		c0-5.1,4.146-9.246,9.249-9.246h43.803c5.1,0,9.248,4.146,9.248,9.246v32.807c0,5.1-4.148,9.248-9.248,9.248H11.919z"/>
	<linearGradient id="SVGID_3_" gradientUnits="userSpaceOnUse" x1="2.616" y1="28.3101" x2="65.0227" y2="28.3101">
		<stop  offset="0" style="stop-color:#525252"/>
		<stop  offset="1" style="stop-color:#7A7A7A"/>
	</linearGradient>
	<path fill="url(#SVGID_3_)" d="M11.881,54.005c-5.109,0-9.265-4.155-9.265-9.265V11.878c0-5.106,4.155-9.263,9.265-9.263h43.878
		c5.107,0,9.264,4.156,9.264,9.263V44.74c0,5.109-4.156,9.265-9.264,9.265H11.881z"/>
</g>
<g>
	<path fill="#FFFFFF" d="M14.842,32.727l1.265-8.833h0.144l3.591,7.249l3.556-7.249h0.142l1.271,8.833h-0.866l-0.872-6.317
		l-3.123,6.317h-0.226l-3.161-6.365l-0.867,6.365H14.842z"/>
	<path fill="#FFFFFF" d="M26.551,23.894h5.062v0.864h-4.179v2.769h4.143v0.864h-4.143v3.472h4.143v0.863h-5.025V23.894z"/>
	<path fill="#FFFFFF" d="M33.138,32.727v-8.833h1.831c1.321,0,2.28,0.106,2.876,0.318c0.857,0.3,1.526,0.82,2.009,1.562
		c0.482,0.74,0.724,1.623,0.724,2.647c0,0.885-0.191,1.663-0.573,2.336c-0.383,0.672-0.879,1.168-1.489,1.488
		s-1.466,0.48-2.567,0.48H33.138z M33.985,31.893h1.021c1.221,0,2.067-0.076,2.54-0.229c0.664-0.215,1.187-0.605,1.567-1.166
		c0.38-0.563,0.57-1.25,0.57-2.062c0-0.852-0.206-1.579-0.618-2.184c-0.413-0.604-0.987-1.018-1.724-1.242
		c-0.553-0.168-1.463-0.252-2.732-0.252h-0.624V31.893z"/>
	<path fill="#FFFFFF" d="M42.163,23.894h0.882v8.833h-0.882V23.894z"/>
	<path fill="#FFFFFF" d="M48.678,23.894l4.119,8.833h-0.953l-1.39-2.906H46.65l-1.376,2.906h-0.985l4.174-8.833H48.678z
		 M48.567,25.771l-1.514,3.198h3.02L48.567,25.771z"/>
</g>
</svg>
