<?xml version="1.0" encoding="utf-8"?>
<!-- Generator: Adobe Illustrator 16.0.0, SVG Export Plug-In . SVG Version: 6.00 Build 0)  -->
<!DOCTYPE svg PUBLIC "-//W3C//DTD SVG 1.0//EN" "http://www.w3.org/TR/2001/REC-SVG-20010904/DTD/svg10.dtd">
<svg version="1.0" id="Layer_1" xmlns="http://www.w3.org/2000/svg" xmlns:xlink="http://www.w3.org/1999/xlink" x="0px" y="0px"
	 width="67.639px" height="56.621px" viewBox="0 0 67.639 56.621" enable-background="new 0 0 67.639 56.621" xml:space="preserve">
<g>
	<path fill="#4D4D4D" d="M11.882,56.621C5.331,56.621,0,51.291,0,44.74V11.877C0,5.327,5.331,0,11.882,0h43.877
		c6.553,0,11.88,5.327,11.88,11.877V44.74c0,6.551-5.327,11.881-11.88,11.881H11.882z"/>
	<linearGradient id="SVGID_1_" gradientUnits="userSpaceOnUse" x1="33.821" y1="56.0977" x2="33.821" y2="0.3433">
		<stop  offset="0" style="stop-color:#3D3D3D"/>
		<stop  offset="0.1393" style="stop-color:#393939"/>
		<stop  offset="0.4946" style="stop-color:#363636"/>
		<stop  offset="0.5978" style="stop-color:#3B3B3B"/>
		<stop  offset="0.7271" style="stop-color:#4B4B4B"/>
		<stop  offset="0.8697" style="stop-color:#646464"/>
		<stop  offset="1" style="stop-color:#828282"/>
	</linearGradient>
	<path fill="url(#SVGID_1_)" d="M67.116,44.74c0,6.271-5.085,11.357-11.357,11.357H11.882c-6.272,0-11.357-5.086-11.357-11.357
		V11.877c0-6.269,5.085-11.354,11.357-11.354h43.877c6.272,0,11.357,5.085,11.357,11.354V44.74z"/>
	<linearGradient id="SVGID_2_" gradientUnits="userSpaceOnUse" x1="33.8201" y1="-45.6147" x2="33.8201" y2="100.6529">
		<stop  offset="0" style="stop-color:#FFFFFF"/>
		<stop  offset="1" style="stop-color:#FFFFFF"/>
	</linearGradient>
	<path opacity="0.8" fill="url(#SVGID_2_)" d="M11.918,53.021c-5.102,0-9.248-4.151-9.248-9.25V10.966
		c0-5.1,4.146-9.246,9.248-9.246h43.806c5.099,0,9.246,4.146,9.246,9.246v32.805c0,5.099-4.147,9.25-9.246,9.25H11.918z"/>
	<path fill="#009245" d="M11.882,54.005c-5.11,0-9.267-4.155-9.267-9.265V11.877c0-5.106,4.156-9.261,9.267-9.261h43.877
		c5.107,0,9.264,4.154,9.264,9.261V44.74c0,5.109-4.156,9.265-9.264,9.265H11.882z"/>
</g>
<g>
	<path fill="#FFFFFF" d="M13.906,24.26h1.567c0.63,0,1.114,0.075,1.453,0.225s0.606,0.379,0.803,0.688
		c0.196,0.311,0.295,0.654,0.295,1.032c0,0.354-0.086,0.675-0.259,0.965c-0.172,0.291-0.425,0.525-0.758,0.705
		c0.413,0.141,0.73,0.307,0.953,0.495s0.396,0.418,0.521,0.687s0.186,0.559,0.186,0.873c0,0.637-0.233,1.177-0.699,1.618
		c-0.467,0.441-1.093,0.662-1.879,0.662h-2.183V24.26z M14.684,25.038v2.546h0.454c0.553,0,0.959-0.051,1.219-0.154
		c0.26-0.103,0.466-0.265,0.618-0.486c0.151-0.222,0.227-0.468,0.227-0.738c0-0.363-0.127-0.649-0.382-0.856
		c-0.254-0.207-0.659-0.311-1.216-0.311H14.684z M14.684,28.384v3.048h0.985c0.581,0,1.007-0.057,1.277-0.17
		s0.488-0.291,0.652-0.533c0.164-0.24,0.246-0.502,0.246-0.783c0-0.354-0.115-0.66-0.347-0.924c-0.23-0.264-0.548-0.443-0.952-0.541
		c-0.271-0.064-0.741-0.097-1.413-0.097H14.684z"/>
	<path fill="#FFFFFF" d="M20.948,31.021c0.184,0,0.34,0.064,0.47,0.193c0.13,0.131,0.194,0.289,0.194,0.477
		c0,0.184-0.064,0.342-0.194,0.473s-0.286,0.197-0.47,0.197c-0.185,0-0.341-0.066-0.471-0.197s-0.194-0.289-0.194-0.473
		c0-0.188,0.064-0.346,0.194-0.477C20.607,31.086,20.763,31.021,20.948,31.021z"/>
	<path fill="#FFFFFF" d="M22.942,32.21l1.138-7.95h0.13l3.231,6.523l3.2-6.523h0.128l1.144,7.95h-0.778l-0.786-5.686l-2.811,5.686
		h-0.203l-2.845-5.729l-0.78,5.729H22.942z"/>
	<path fill="#FFFFFF" d="M36.724,24.26l3.707,7.95h-0.859l-1.25-2.616h-3.424l-1.239,2.616h-0.887l3.756-7.95H36.724z
		 M36.622,25.949l-1.361,2.877h2.717L36.622,25.949z"/>
	<path fill="#FFFFFF" d="M41.706,24.26h1.582c0.883,0,1.482,0.036,1.795,0.108c0.473,0.108,0.855,0.34,1.15,0.695
		c0.297,0.355,0.443,0.793,0.443,1.313c0,0.433-0.102,0.813-0.305,1.142s-0.494,0.576-0.873,0.744s-0.9,0.254-1.566,0.257
		l2.857,3.691h-0.982l-2.859-3.691h-0.449v3.691h-0.793V24.26z M42.499,25.038v2.702l1.371,0.012c0.529,0,0.922-0.051,1.176-0.152
		c0.256-0.1,0.453-0.262,0.596-0.483s0.215-0.47,0.215-0.743c0-0.267-0.072-0.509-0.217-0.727c-0.145-0.219-0.334-0.374-0.568-0.468
		s-0.625-0.141-1.17-0.141H42.499z"/>
	<path fill="#FFFFFF" d="M48.38,24.26h0.811v2.983l3.178-2.983h1.068l-3.818,3.567l4.115,4.383h-1.059l-3.484-3.703v3.703H48.38
		V24.26z"/>
</g>
</svg>
