<?xml version="1.0" encoding="utf-8"?>
<!-- Generator: Adobe Illustrator 16.0.0, SVG Export Plug-In . SVG Version: 6.00 Build 0)  -->
<!DOCTYPE svg PUBLIC "-//W3C//DTD SVG 1.0//EN" "http://www.w3.org/TR/2001/REC-SVG-20010904/DTD/svg10.dtd">
<svg version="1.0" id="Layer_1" xmlns="http://www.w3.org/2000/svg" xmlns:xlink="http://www.w3.org/1999/xlink" x="0px" y="0px"
	 width="67.639px" height="56.621px" viewBox="0 0 67.639 56.621" enable-background="new 0 0 67.639 56.621" xml:space="preserve">
<g>
	<path fill="#4D4D4D" d="M11.881,56.621c-6.551,0-11.88-5.332-11.88-11.881V11.878C0.001,5.328,5.33,0,11.881,0h43.878
		c6.553,0,11.879,5.328,11.879,11.878V44.74c0,6.549-5.326,11.881-11.879,11.881H11.881z"/>
	<linearGradient id="SVGID_1_" gradientUnits="userSpaceOnUse" x1="33.8201" y1="56.0977" x2="33.8201" y2="0.3433">
		<stop  offset="0" style="stop-color:#3D3D3D"/>
		<stop  offset="0.1393" style="stop-color:#393939"/>
		<stop  offset="0.4946" style="stop-color:#363636"/>
		<stop  offset="0.5978" style="stop-color:#3B3B3B"/>
		<stop  offset="0.7271" style="stop-color:#4B4B4B"/>
		<stop  offset="0.8697" style="stop-color:#646464"/>
		<stop  offset="1" style="stop-color:#828282"/>
	</linearGradient>
	<path fill="url(#SVGID_1_)" d="M67.116,44.74c0,6.271-5.086,11.357-11.357,11.357H11.881c-6.272,0-11.357-5.086-11.357-11.357
		V11.878c0-6.27,5.085-11.354,11.357-11.354h43.878c6.271,0,11.357,5.085,11.357,11.354V44.74z"/>
	<linearGradient id="SVGID_2_" gradientUnits="userSpaceOnUse" x1="33.8196" y1="-45.6157" x2="33.8196" y2="100.6519">
		<stop  offset="0" style="stop-color:#FFFFFF"/>
		<stop  offset="1" style="stop-color:#FFFFFF"/>
	</linearGradient>
	<path opacity="0.8" fill="url(#SVGID_2_)" d="M11.919,53.02c-5.103,0-9.249-4.148-9.249-9.248V10.965
		c0-5.1,4.146-9.246,9.249-9.246h43.803c5.1,0,9.248,4.146,9.248,9.246v32.807c0,5.1-4.148,9.248-9.248,9.248H11.919z"/>
	<linearGradient id="SVGID_3_" gradientUnits="userSpaceOnUse" x1="2.616" y1="28.3101" x2="65.0227" y2="28.3101">
		<stop  offset="0" style="stop-color:#525252"/>
		<stop  offset="1" style="stop-color:#7A7A7A"/>
	</linearGradient>
	<path fill="url(#SVGID_3_)" d="M11.881,54.005c-5.109,0-9.265-4.155-9.265-9.265V11.878c0-5.106,4.155-9.263,9.265-9.263h43.878
		c5.107,0,9.264,4.156,9.264,9.263V44.74c0,5.109-4.156,9.265-9.264,9.265H11.881z"/>
</g>
<g>
	<path fill="#FFFFFF" d="M25.701,23.671c1.338,0,2.457,0.447,3.358,1.34s1.353,1.991,1.353,3.296c0,1.294-0.45,2.39-1.35,3.291
		s-1.995,1.352-3.289,1.352c-1.311,0-2.416-0.449-3.317-1.346s-1.352-1.98-1.352-3.254c0-0.849,0.205-1.635,0.616-2.359
		c0.41-0.725,0.97-1.292,1.679-1.702C24.108,23.876,24.876,23.671,25.701,23.671z M25.74,24.531c-0.653,0-1.273,0.17-1.858,0.511
		c-0.586,0.341-1.043,0.799-1.371,1.376c-0.329,0.577-0.493,1.22-0.493,1.929c0,1.05,0.363,1.937,1.091,2.66
		c0.729,0.723,1.605,1.084,2.632,1.084c0.686,0,1.32-0.166,1.903-0.498c0.584-0.332,1.038-0.787,1.365-1.363
		c0.327-0.578,0.49-1.219,0.49-1.924c0-0.701-0.163-1.335-0.49-1.901c-0.327-0.567-0.787-1.021-1.38-1.361
		C27.035,24.701,26.405,24.531,25.74,24.531z"/>
	<path fill="#FFFFFF" d="M31.27,31.082l0.751-0.451c0.528,0.973,1.139,1.459,1.831,1.459c0.296,0,0.575-0.068,0.834-0.207
		c0.26-0.137,0.459-0.322,0.594-0.555c0.137-0.232,0.205-0.479,0.205-0.738c0-0.297-0.1-0.588-0.301-0.871
		c-0.275-0.393-0.779-0.865-1.512-1.417c-0.737-0.557-1.195-0.959-1.376-1.207c-0.312-0.416-0.468-0.866-0.468-1.351
		c0-0.385,0.092-0.734,0.276-1.051c0.184-0.316,0.443-0.565,0.777-0.748c0.334-0.182,0.697-0.273,1.09-0.273
		c0.416,0,0.806,0.104,1.167,0.31c0.363,0.206,0.746,0.586,1.15,1.138l-0.721,0.547c-0.332-0.44-0.615-0.73-0.85-0.871
		c-0.234-0.14-0.49-0.21-0.765-0.21c-0.356,0-0.648,0.108-0.874,0.324c-0.227,0.216-0.339,0.482-0.339,0.799
		c0,0.192,0.039,0.378,0.119,0.559c0.08,0.18,0.227,0.376,0.438,0.588c0.116,0.112,0.497,0.406,1.141,0.883
		c0.766,0.564,1.289,1.067,1.574,1.507c0.283,0.441,0.426,0.883,0.426,1.328c0,0.639-0.244,1.195-0.73,1.668
		s-1.078,0.709-1.774,0.709c-0.536,0-1.022-0.143-1.459-0.43C32.041,32.234,31.638,31.754,31.27,31.082z"/>
	<path fill="#FFFFFF" d="M46.534,25.534l-0.697,0.534c-0.383-0.501-0.846-0.88-1.383-1.138c-0.539-0.259-1.131-0.388-1.775-0.388
		c-0.703,0-1.357,0.169-1.957,0.508c-0.6,0.338-1.066,0.792-1.396,1.362c-0.33,0.571-0.494,1.212-0.494,1.925
		c0,1.077,0.369,1.975,1.107,2.696s1.67,1.082,2.795,1.082c1.236,0,2.271-0.484,3.104-1.453l0.697,0.527
		c-0.439,0.561-0.99,0.994-1.648,1.301s-1.395,0.459-2.207,0.459c-1.545,0-2.764-0.514-3.656-1.543
		c-0.748-0.869-1.123-1.918-1.123-3.147c0-1.293,0.453-2.381,1.359-3.264c0.908-0.883,2.043-1.324,3.408-1.324
		c0.824,0,1.57,0.163,2.234,0.49C45.566,24.488,46.111,24.945,46.534,25.534z"/>
</g>
</svg>
