<?xml version="1.0" encoding="utf-8"?>
<!-- Generator: Adobe Illustrator 16.0.0, SVG Export Plug-In . SVG Version: 6.00 Build 0)  -->
<!DOCTYPE svg PUBLIC "-//W3C//DTD SVG 1.0//EN" "http://www.w3.org/TR/2001/REC-SVG-20010904/DTD/svg10.dtd">
<svg version="1.0" id="Layer_1" xmlns="http://www.w3.org/2000/svg" xmlns:xlink="http://www.w3.org/1999/xlink" x="0px" y="0px"
	 width="67.639px" height="56.621px" viewBox="0 0 67.639 56.621" enable-background="new 0 0 67.639 56.621" xml:space="preserve">
<g>
	<path fill="#4D4D4D" d="M11.88,56.621C5.329,56.621,0,51.291,0,44.741V11.878C0,5.328,5.329,0,11.88,0h43.877
		c6.552,0,11.881,5.328,11.881,11.878v32.863c0,6.55-5.329,11.88-11.881,11.88H11.88z"/>
	<linearGradient id="SVGID_1_" gradientUnits="userSpaceOnUse" x1="33.8193" y1="56.0967" x2="33.8193" y2="0.3443">
		<stop  offset="0" style="stop-color:#3D3D3D"/>
		<stop  offset="0.1393" style="stop-color:#393939"/>
		<stop  offset="0.4946" style="stop-color:#363636"/>
		<stop  offset="0.5978" style="stop-color:#3B3B3B"/>
		<stop  offset="0.7271" style="stop-color:#4B4B4B"/>
		<stop  offset="0.8697" style="stop-color:#646464"/>
		<stop  offset="1" style="stop-color:#828282"/>
	</linearGradient>
	<path fill="url(#SVGID_1_)" d="M67.116,44.741c0,6.271-5.085,11.355-11.358,11.355H11.88c-6.272,0-11.357-5.084-11.357-11.355
		V11.878c0-6.27,5.085-11.354,11.357-11.354h43.877c6.272,0,11.358,5.084,11.358,11.354V44.741z"/>
	<linearGradient id="SVGID_2_" gradientUnits="userSpaceOnUse" x1="33.8198" y1="-45.6147" x2="33.8198" y2="100.6529">
		<stop  offset="0" style="stop-color:#FFFFFF"/>
		<stop  offset="1" style="stop-color:#FFFFFF"/>
	</linearGradient>
	<path opacity="0.8" fill="url(#SVGID_2_)" d="M11.917,53.021c-5.101,0-9.248-4.15-9.248-9.25V10.965
		c0-5.099,4.146-9.245,9.248-9.245h43.804c5.099,0,9.249,4.146,9.249,9.245v32.806c0,5.1-4.149,9.25-9.249,9.25H11.917z"/>
	<linearGradient id="SVGID_3_" gradientUnits="userSpaceOnUse" x1="2.6157" y1="28.3105" x2="65.022" y2="28.3105">
		<stop  offset="0" style="stop-color:#525252"/>
		<stop  offset="1" style="stop-color:#7A7A7A"/>
	</linearGradient>
	<path fill="url(#SVGID_3_)" d="M11.88,54.005c-5.109,0-9.265-4.154-9.265-9.264V11.878c0-5.106,4.156-9.262,9.265-9.262h43.877
		c5.108,0,9.264,4.155,9.264,9.262v32.863c0,5.109-4.156,9.264-9.264,9.264H11.88z"/>
</g>
<g>
	<path fill="#FFFFFF" d="M39.742,17.595v2.018h-7.533l-1.061,5.781c0.921-0.271,1.751-0.405,2.49-0.405
		c1.929,0,3.52,0.646,4.772,1.938c1.252,1.292,1.879,2.947,1.879,4.965c0,1.394-0.322,2.671-0.966,3.833
		c-0.644,1.163-1.516,2.054-2.616,2.673s-2.371,0.93-3.812,0.93c-1.72,0-3.17-0.526-4.353-1.578
		c-1.182-1.052-1.888-2.414-2.118-4.085h2.176c0.164,0.816,0.44,1.479,0.829,1.989c0.389,0.509,0.908,0.92,1.556,1.232
		c0.648,0.313,1.328,0.468,2.039,0.468c1.393,0,2.589-0.527,3.589-1.583c0.999-1.055,1.499-2.375,1.499-3.958
		c0-1.43-0.452-2.59-1.354-3.483c-0.903-0.892-2.109-1.338-3.617-1.338c-1.25,0-2.763,0.38-4.54,1.139l1.96-10.535H39.742z"/>
</g>
<g>
</g>
<g>
</g>
<g>
</g>
<g>
</g>
<g>
</g>
<g>
</g>
<g>
</g>
<g>
</g>
<g>
</g>
<g>
</g>
<g>
</g>
<g>
</g>
<g>
</g>
<g>
</g>
<g>
</g>
</svg>
