<?xml version="1.0" encoding="utf-8"?>
<!-- Generator: Adobe Illustrator 16.0.0, SVG Export Plug-In . SVG Version: 6.00 Build 0)  -->
<!DOCTYPE svg PUBLIC "-//W3C//DTD SVG 1.0//EN" "http://www.w3.org/TR/2001/REC-SVG-20010904/DTD/svg10.dtd">
<svg version="1.0" id="Layer_1" xmlns="http://www.w3.org/2000/svg" xmlns:xlink="http://www.w3.org/1999/xlink" x="0px" y="0px"
	 width="67.639px" height="56.621px" viewBox="0 0 67.639 56.621" enable-background="new 0 0 67.639 56.621" xml:space="preserve">
<g>
	<path fill="#4D4D4D" d="M11.881,56.621C5.33,56.621,0,51.292,0,44.741V11.878C0,5.328,5.33,0,11.881,0h43.878
		c6.552,0,11.88,5.328,11.88,11.878v32.863c0,6.551-5.328,11.88-11.88,11.88H11.881z"/>
	<linearGradient id="SVGID_1_" gradientUnits="userSpaceOnUse" x1="33.8201" y1="56.0986" x2="33.8201" y2="0.3433">
		<stop  offset="0" style="stop-color:#3D3D3D"/>
		<stop  offset="0.1393" style="stop-color:#393939"/>
		<stop  offset="0.4946" style="stop-color:#363636"/>
		<stop  offset="0.5978" style="stop-color:#3B3B3B"/>
		<stop  offset="0.7271" style="stop-color:#4B4B4B"/>
		<stop  offset="0.8697" style="stop-color:#646464"/>
		<stop  offset="1" style="stop-color:#828282"/>
	</linearGradient>
	<path fill="url(#SVGID_1_)" d="M67.116,44.741c0,6.272-5.086,11.357-11.357,11.357H11.881c-6.273,0-11.357-5.085-11.357-11.357
		V11.878c0-6.27,5.084-11.354,11.357-11.354h43.878c6.271,0,11.357,5.085,11.357,11.354V44.741z"/>
	<linearGradient id="SVGID_2_" gradientUnits="userSpaceOnUse" x1="33.8201" y1="-45.6157" x2="33.8201" y2="100.6547">
		<stop  offset="0" style="stop-color:#FFFFFF"/>
		<stop  offset="1" style="stop-color:#FFFFFF"/>
	</linearGradient>
	<path opacity="0.8" fill="url(#SVGID_2_)" d="M11.918,53.021c-5.102,0-9.248-4.15-9.248-9.251V10.965
		c0-5.1,4.146-9.245,9.248-9.245h43.804c5.1,0,9.248,4.146,9.248,9.245v32.806c0,5.101-4.148,9.251-9.248,9.251H11.918z"/>
	<linearGradient id="SVGID_3_" gradientUnits="userSpaceOnUse" x1="2.6165" y1="28.311" x2="65.0227" y2="28.311">
		<stop  offset="0" style="stop-color:#525252"/>
		<stop  offset="1" style="stop-color:#7A7A7A"/>
	</linearGradient>
	<path fill="url(#SVGID_3_)" d="M11.881,54.007c-5.109,0-9.265-4.157-9.265-9.266V11.878c0-5.106,4.155-9.263,9.265-9.263h43.878
		c5.107,0,9.264,4.156,9.264,9.263v32.863c0,5.108-4.156,9.266-9.264,9.266H11.881z"/>
</g>
<g>
	<path fill="#FFFFFF" d="M10.851,32.727v-8.833h1.832c1.321,0,2.279,0.106,2.876,0.318c0.856,0.3,1.526,0.82,2.009,1.562
		c0.482,0.74,0.724,1.623,0.724,2.647c0,0.885-0.191,1.663-0.573,2.336c-0.383,0.672-0.879,1.168-1.489,1.488
		s-1.467,0.48-2.567,0.48H10.851z M11.698,31.893h1.021c1.221,0,2.067-0.076,2.54-0.229c0.664-0.215,1.187-0.605,1.567-1.166
		c0.38-0.563,0.57-1.25,0.57-2.062c0-0.852-0.206-1.579-0.619-2.184c-0.412-0.604-0.986-1.018-1.723-1.242
		c-0.553-0.168-1.464-0.252-2.732-0.252h-0.625V31.893z"/>
	<path fill="#FFFFFF" d="M19.876,23.894h0.883v8.833h-0.883V23.894z"/>
	<path fill="#FFFFFF" d="M21.87,31.082l0.75-0.451c0.528,0.973,1.14,1.459,1.832,1.459c0.296,0,0.574-0.068,0.834-0.207
		c0.261-0.137,0.459-0.322,0.595-0.555c0.137-0.232,0.204-0.479,0.204-0.738c0-0.297-0.1-0.588-0.3-0.871
		c-0.276-0.393-0.781-0.865-1.514-1.417c-0.736-0.557-1.194-0.959-1.375-1.207c-0.313-0.416-0.468-0.866-0.468-1.351
		c0-0.385,0.092-0.734,0.275-1.051c0.185-0.316,0.443-0.565,0.778-0.748c0.334-0.182,0.697-0.273,1.09-0.273
		c0.416,0,0.806,0.104,1.168,0.31s0.745,0.586,1.149,1.138l-0.721,0.547c-0.332-0.44-0.615-0.73-0.85-0.871
		c-0.233-0.14-0.489-0.21-0.766-0.21c-0.356,0-0.647,0.108-0.873,0.324c-0.227,0.216-0.34,0.482-0.34,0.799
		c0,0.192,0.04,0.378,0.12,0.559c0.08,0.18,0.227,0.376,0.438,0.588c0.116,0.112,0.496,0.406,1.141,0.883
		c0.765,0.564,1.289,1.067,1.573,1.507c0.284,0.441,0.427,0.883,0.427,1.328c0,0.639-0.243,1.195-0.729,1.668
		s-1.078,0.709-1.774,0.709c-0.536,0-1.023-0.143-1.459-0.43C22.641,32.234,22.239,31.754,21.87,31.082z"/>
	<path fill="#FFFFFF" d="M28.902,23.894h1.759c1.009,0,1.689,0.044,2.042,0.132c0.505,0.124,0.917,0.38,1.237,0.766
		c0.32,0.387,0.48,0.872,0.48,1.456c0,0.589-0.156,1.074-0.469,1.456c-0.313,0.383-0.742,0.64-1.291,0.772
		c-0.4,0.096-1.149,0.144-2.246,0.144h-0.63v4.107h-0.883V23.894z M29.784,24.758v2.997l1.495,0.018
		c0.604,0,1.047-0.055,1.327-0.165c0.28-0.109,0.5-0.287,0.66-0.533c0.16-0.245,0.24-0.521,0.24-0.824
		c0-0.295-0.08-0.565-0.24-0.812s-0.371-0.421-0.634-0.524c-0.262-0.104-0.691-0.156-1.288-0.156H29.784z"/>
	<path fill="#FFFFFF" d="M36.185,23.894h0.883v7.981h3.399v0.852h-4.282V23.894z"/>
	<path fill="#FFFFFF" d="M45.475,23.894l4.12,8.833h-0.954l-1.39-2.906h-3.805l-1.377,2.906h-0.984l4.174-8.833H45.475z
		 M45.364,25.771l-1.514,3.198h3.021L45.364,25.771z"/>
	<path fill="#FFFFFF" d="M50.267,23.894h1.016l2.26,3.643l2.225-3.643h1.021l-2.799,4.611v4.221h-0.871v-4.221L50.267,23.894z"/>
</g>
</svg>
