<?xml version="1.0" encoding="utf-8"?>
<!-- Generator: Adobe Illustrator 16.0.0, SVG Export Plug-In . SVG Version: 6.00 Build 0)  -->
<!DOCTYPE svg PUBLIC "-//W3C//DTD SVG 1.0//EN" "http://www.w3.org/TR/2001/REC-SVG-20010904/DTD/svg10.dtd">
<svg version="1.0" id="Layer_1" xmlns="http://www.w3.org/2000/svg" xmlns:xlink="http://www.w3.org/1999/xlink" x="0px" y="0px"
	 width="67.639px" height="56.621px" viewBox="0 0 67.639 56.621" enable-background="new 0 0 67.639 56.621" xml:space="preserve">
<g>
	<path fill="#4D4D4D" d="M11.882,56.621C5.33,56.621,0,51.289,0,44.74V11.877C0,5.327,5.33,0,11.882,0h43.877
		c6.553,0,11.88,5.327,11.88,11.878V44.74c0,6.549-5.327,11.881-11.88,11.881H11.882z"/>
	<linearGradient id="SVGID_1_" gradientUnits="userSpaceOnUse" x1="33.821" y1="56.0977" x2="33.821" y2="0.3438">
		<stop  offset="0" style="stop-color:#3D3D3D"/>
		<stop  offset="0.1393" style="stop-color:#393939"/>
		<stop  offset="0.4946" style="stop-color:#363636"/>
		<stop  offset="0.5978" style="stop-color:#3B3B3B"/>
		<stop  offset="0.7271" style="stop-color:#4B4B4B"/>
		<stop  offset="0.8697" style="stop-color:#646464"/>
		<stop  offset="1" style="stop-color:#828282"/>
	</linearGradient>
	<path fill="url(#SVGID_1_)" d="M67.117,44.74c0,6.271-5.086,11.357-11.358,11.357H11.882c-6.272,0-11.357-5.086-11.357-11.357
		V11.877c0-6.269,5.085-11.354,11.357-11.354h43.877c6.272,0,11.358,5.085,11.358,11.354V44.74z"/>
	<linearGradient id="SVGID_2_" gradientUnits="userSpaceOnUse" x1="33.8201" y1="-45.6147" x2="33.8201" y2="100.6515">
		<stop  offset="0" style="stop-color:#FFFFFF"/>
		<stop  offset="1" style="stop-color:#FFFFFF"/>
	</linearGradient>
	<path opacity="0.8" fill="url(#SVGID_2_)" d="M11.919,53.02c-5.102,0-9.249-4.15-9.249-9.25V10.965
		c0-5.101,4.147-9.246,9.249-9.246h43.804c5.099,0,9.247,4.146,9.247,9.246V43.77c0,5.1-4.148,9.25-9.247,9.25H11.919z"/>
	<linearGradient id="SVGID_3_" gradientUnits="userSpaceOnUse" x1="2.6165" y1="28.3105" x2="65.0237" y2="28.3105">
		<stop  offset="0" style="stop-color:#525252"/>
		<stop  offset="1" style="stop-color:#7A7A7A"/>
	</linearGradient>
	<path fill="url(#SVGID_3_)" d="M11.882,54.006c-5.111,0-9.266-4.154-9.266-9.266V11.877c0-5.106,4.154-9.262,9.266-9.262h43.877
		c5.107,0,9.265,4.155,9.265,9.262V44.74c0,5.111-4.157,9.266-9.265,9.266H11.882z"/>
</g>
<g>
	<polygon fill="#FFFFFF" points="21.123,28.31 21.123,18.002 30.052,23.156 38.978,28.31 30.052,33.465 21.123,38.619 	"/>
	<rect x="40.169" y="18.002" fill="#FFFFFF" width="6.348" height="20.617"/>
</g>
</svg>
