<?xml version="1.0" encoding="utf-8"?>
<!-- Generator: Adobe Illustrator 16.0.0, SVG Export Plug-In . SVG Version: 6.00 Build 0)  -->
<!DOCTYPE svg PUBLIC "-//W3C//DTD SVG 1.0//EN" "http://www.w3.org/TR/2001/REC-SVG-20010904/DTD/svg10.dtd">
<svg version="1.0" id="Layer_1" xmlns="http://www.w3.org/2000/svg" xmlns:xlink="http://www.w3.org/1999/xlink" x="0px" y="0px"
	 width="67.639px" height="56.621px" viewBox="0 0 67.639 56.621" enable-background="new 0 0 67.639 56.621" xml:space="preserve">
<g>
	<path fill="#4D4D4D" d="M11.882,56.621c-6.552,0-11.881-5.33-11.881-11.879V11.878C0.001,5.327,5.33,0,11.882,0h43.877
		c6.553,0,11.879,5.326,11.879,11.878v32.864c0,6.549-5.326,11.879-11.879,11.879H11.882z"/>
	<linearGradient id="SVGID_1_" gradientUnits="userSpaceOnUse" x1="33.8206" y1="56.0977" x2="33.8206" y2="0.3428">
		<stop  offset="0" style="stop-color:#3D3D3D"/>
		<stop  offset="0.1393" style="stop-color:#393939"/>
		<stop  offset="0.4946" style="stop-color:#363636"/>
		<stop  offset="0.5978" style="stop-color:#3B3B3B"/>
		<stop  offset="0.7271" style="stop-color:#4B4B4B"/>
		<stop  offset="0.8697" style="stop-color:#646464"/>
		<stop  offset="1" style="stop-color:#828282"/>
	</linearGradient>
	<path fill="url(#SVGID_1_)" d="M67.116,44.742c0,6.271-5.084,11.355-11.357,11.355H11.882c-6.273,0-11.357-5.084-11.357-11.355
		V11.878c0-6.27,5.084-11.355,11.357-11.355h43.877c6.273,0,11.357,5.086,11.357,11.355V44.742z"/>
	<linearGradient id="SVGID_2_" gradientUnits="userSpaceOnUse" x1="33.8196" y1="-45.6128" x2="33.8196" y2="100.6507">
		<stop  offset="0" style="stop-color:#FFFFFF"/>
		<stop  offset="1" style="stop-color:#FFFFFF"/>
	</linearGradient>
	<path opacity="0.8" fill="url(#SVGID_2_)" d="M11.918,53.02c-5.101,0-9.248-4.15-9.248-9.248V10.964
		c0-5.099,4.147-9.244,9.248-9.244h43.804c5.1,0,9.248,4.146,9.248,9.244v32.807c0,5.098-4.148,9.248-9.248,9.248H11.918z"/>
	<linearGradient id="SVGID_3_" gradientUnits="userSpaceOnUse" x1="2.616" y1="28.3096" x2="65.0227" y2="28.3096">
		<stop  offset="0" style="stop-color:#525252"/>
		<stop  offset="1" style="stop-color:#7A7A7A"/>
	</linearGradient>
	<path fill="url(#SVGID_3_)" d="M11.882,54.004c-5.11,0-9.266-4.154-9.266-9.262V11.878c0-5.108,4.155-9.264,9.266-9.264h43.877
		c5.107,0,9.264,4.155,9.264,9.264v32.864c0,5.107-4.156,9.262-9.264,9.262H11.882z"/>
</g>
<path fill-rule="evenodd" clip-rule="evenodd" fill="#FFFFFF" d="M41.814,26.753c1.007,0.824,1.007,2.245,0,3.115L28.856,41.313
	c-0.96,0.871-1.786,0.32-1.786-1.282V16.591c0-1.602,0.826-2.152,1.786-1.283L41.814,26.753z"/>
</svg>
