<?xml version="1.0" encoding="utf-8"?>
<!-- Generator: Adobe Illustrator 16.0.0, SVG Export Plug-In . SVG Version: 6.00 Build 0)  -->
<!DOCTYPE svg PUBLIC "-//W3C//DTD SVG 1.0//EN" "http://www.w3.org/TR/2001/REC-SVG-20010904/DTD/svg10.dtd">
<svg version="1.0" id="Layer_1" xmlns="http://www.w3.org/2000/svg" xmlns:xlink="http://www.w3.org/1999/xlink" x="0px" y="0px"
	 width="67.639px" height="56.621px" viewBox="0 0 67.639 56.621" enable-background="new 0 0 67.639 56.621" xml:space="preserve">
<g>
	<g>
		<path fill="#4D4D4D" d="M11.881,56.621C5.33,56.621,0,51.29,0,44.74V11.879C0,5.328,5.33,0,11.881,0h43.877
			c6.553,0,11.88,5.328,11.88,11.879V44.74c0,6.55-5.328,11.881-11.88,11.881H11.881z"/>
		<linearGradient id="SVGID_1_" gradientUnits="userSpaceOnUse" x1="33.8198" y1="56.0977" x2="33.8198" y2="0.3433">
			<stop  offset="0" style="stop-color:#3D3D3D"/>
			<stop  offset="0.1393" style="stop-color:#393939"/>
			<stop  offset="0.4946" style="stop-color:#363636"/>
			<stop  offset="0.5978" style="stop-color:#3B3B3B"/>
			<stop  offset="0.7271" style="stop-color:#4B4B4B"/>
			<stop  offset="0.8697" style="stop-color:#646464"/>
			<stop  offset="1" style="stop-color:#828282"/>
		</linearGradient>
		<path fill="url(#SVGID_1_)" d="M67.116,44.74c0,6.271-5.084,11.357-11.357,11.357H11.881c-6.273,0-11.358-5.086-11.358-11.357
			V11.879c0-6.27,5.085-11.355,11.358-11.355h43.877c6.273,0,11.357,5.086,11.357,11.355V44.74z"/>
		<linearGradient id="SVGID_2_" gradientUnits="userSpaceOnUse" x1="33.8193" y1="-45.6167" x2="33.8193" y2="100.6537">
			<stop  offset="0" style="stop-color:#FFFFFF"/>
			<stop  offset="1" style="stop-color:#FFFFFF"/>
		</linearGradient>
		<path opacity="0.8" fill="url(#SVGID_2_)" d="M11.918,53.021c-5.102,0-9.25-4.149-9.25-9.249V10.965c0-5.1,4.147-9.246,9.25-9.246
			h43.804c5.099,0,9.248,4.146,9.248,9.246v32.807c0,5.1-4.148,9.249-9.248,9.249H11.918z"/>
		<linearGradient id="SVGID_3_" gradientUnits="userSpaceOnUse" x1="2.6152" y1="28.3105" x2="65.0225" y2="28.3105">
			<stop  offset="0" style="stop-color:#525252"/>
			<stop  offset="1" style="stop-color:#7A7A7A"/>
		</linearGradient>
		<path fill="url(#SVGID_3_)" d="M11.881,54.005c-5.111,0-9.266-4.154-9.266-9.265V11.879c0-5.108,4.155-9.263,9.266-9.263h43.877
			c5.108,0,9.264,4.154,9.264,9.263V44.74c0,5.11-4.156,9.265-9.264,9.265H11.881z"/>
	</g>
	<g>
		<path fill="#FFFFFF" d="M29.16,21.993h-2.162c0.394-1.749,1.148-3.094,2.263-4.035c1.114-0.941,2.431-1.413,3.949-1.413
			c1.105,0,2.135,0.252,3.091,0.757s1.696,1.184,2.219,2.039c0.524,0.855,0.786,1.749,0.786,2.681c0,1.826-0.908,3.271-2.724,4.338
			c1.018,0.413,1.854,1.019,2.507,1.816c0.922,1.124,1.384,2.383,1.384,3.776c0,1.201-0.317,2.347-0.951,3.437
			c-0.634,1.091-1.499,1.934-2.594,2.529s-2.32,0.894-3.675,0.894c-1.826,0-3.349-0.526-4.568-1.578
			c-1.221-1.052-2.018-2.596-2.393-4.633h2.075c0.365,1.374,0.889,2.369,1.571,2.983c0.875,0.778,1.989,1.167,3.344,1.167
			c1.537,0,2.771-0.461,3.704-1.383c0.932-0.922,1.398-2.003,1.398-3.243c0-0.826-0.233-1.6-0.699-2.32
			c-0.466-0.721-1.09-1.263-1.873-1.628c-0.783-0.365-1.996-0.591-3.639-0.677v-1.946c0.97,0,1.854-0.17,2.652-0.512
			c0.797-0.341,1.376-0.775,1.736-1.304c0.36-0.528,0.541-1.104,0.541-1.729c0-0.922-0.368-1.72-1.103-2.393
			c-0.735-0.672-1.665-1.009-2.789-1.009c-0.913,0-1.701,0.257-2.363,0.771C30.184,19.891,29.622,20.763,29.16,21.993z"/>
	</g>
</g>
<g>
</g>
<g>
</g>
<g>
</g>
<g>
</g>
<g>
</g>
<g>
</g>
<g>
</g>
<g>
</g>
<g>
</g>
<g>
</g>
<g>
</g>
<g>
</g>
<g>
</g>
<g>
</g>
<g>
</g>
</svg>
