<?xml version="1.0" encoding="utf-8"?>
<!-- Generator: Adobe Illustrator 16.0.0, SVG Export Plug-In . SVG Version: 6.00 Build 0)  -->
<!DOCTYPE svg PUBLIC "-//W3C//DTD SVG 1.0//EN" "http://www.w3.org/TR/2001/REC-SVG-20010904/DTD/svg10.dtd">
<svg version="1.0" id="Layer_1" xmlns="http://www.w3.org/2000/svg" xmlns:xlink="http://www.w3.org/1999/xlink" x="0px" y="0px"
	 width="67.639px" height="56.621px" viewBox="0 0 67.639 56.621" enable-background="new 0 0 67.639 56.621" xml:space="preserve">
<g>
	<path fill="#4D4D4D" d="M11.881,56.621C5.329,56.621,0,51.291,0,44.742V11.877C0,5.328,5.329,0,11.881,0h43.877
		c6.552,0,11.881,5.328,11.881,11.878v32.865c0,6.549-5.329,11.879-11.881,11.879H11.881z"/>
	<linearGradient id="SVGID_1_" gradientUnits="userSpaceOnUse" x1="33.8201" y1="56.0977" x2="33.8201" y2="0.3428">
		<stop  offset="0" style="stop-color:#3D3D3D"/>
		<stop  offset="0.1393" style="stop-color:#393939"/>
		<stop  offset="0.4946" style="stop-color:#363636"/>
		<stop  offset="0.5978" style="stop-color:#3B3B3B"/>
		<stop  offset="0.7271" style="stop-color:#4B4B4B"/>
		<stop  offset="0.8697" style="stop-color:#646464"/>
		<stop  offset="1" style="stop-color:#828282"/>
	</linearGradient>
	<path fill="url(#SVGID_1_)" d="M67.116,44.742c0,6.271-5.086,11.355-11.358,11.355H11.881c-6.272,0-11.357-5.084-11.357-11.355
		V11.877c0-6.269,5.085-11.354,11.357-11.354h43.877c6.272,0,11.358,5.086,11.358,11.354V44.742z"/>
	<linearGradient id="SVGID_2_" gradientUnits="userSpaceOnUse" x1="33.8196" y1="-45.6167" x2="33.8196" y2="100.6551">
		<stop  offset="0" style="stop-color:#FFFFFF"/>
		<stop  offset="1" style="stop-color:#FFFFFF"/>
	</linearGradient>
	<path opacity="0.8" fill="url(#SVGID_2_)" d="M11.917,53.021c-5.101,0-9.248-4.15-9.248-9.25V10.964
		c0-5.099,4.146-9.245,9.248-9.245h43.805c5.099,0,9.248,4.146,9.248,9.245v32.807c0,5.1-4.149,9.25-9.248,9.25H11.917z"/>
	<linearGradient id="SVGID_3_" gradientUnits="userSpaceOnUse" x1="2.616" y1="28.3105" x2="65.0227" y2="28.3105">
		<stop  offset="0" style="stop-color:#525252"/>
		<stop  offset="1" style="stop-color:#7A7A7A"/>
	</linearGradient>
	<path fill="url(#SVGID_3_)" d="M11.881,54.006c-5.109,0-9.265-4.156-9.265-9.264V11.877c0-5.107,4.156-9.263,9.265-9.263h43.877
		c5.108,0,9.265,4.155,9.265,9.263v32.865c0,5.107-4.156,9.264-9.265,9.264H11.881z"/>
</g>
<g>
	<path fill="#FFFFFF" d="M23.717,25.534l-0.696,0.534c-0.384-0.501-0.846-0.88-1.384-1.138c-0.539-0.259-1.13-0.388-1.774-0.388
		c-0.705,0-1.357,0.169-1.958,0.508c-0.601,0.338-1.066,0.792-1.396,1.362c-0.331,0.571-0.496,1.212-0.496,1.925
		c0,1.077,0.37,1.975,1.108,2.696c0.739,0.721,1.67,1.082,2.795,1.082c1.237,0,2.271-0.484,3.104-1.453l0.696,0.527
		c-0.44,0.561-0.99,0.994-1.648,1.301c-0.659,0.307-1.395,0.459-2.207,0.459c-1.545,0-2.764-0.514-3.657-1.543
		c-0.749-0.869-1.123-1.918-1.123-3.147c0-1.293,0.454-2.381,1.36-3.264c0.906-0.883,2.042-1.324,3.408-1.324
		c0.824,0,1.569,0.163,2.233,0.49C22.748,24.488,23.292,24.945,23.717,25.534z"/>
	<path fill="#FFFFFF" d="M25.488,23.894h0.883v7.981h3.399v0.852h-4.282V23.894z"/>
	<path fill="#FFFFFF" d="M31.175,23.894h5.063v0.864h-4.181v2.769H36.2v0.864h-4.144v3.472H36.2v0.863h-5.026V23.894z"/>
	<path fill="#FFFFFF" d="M41.37,23.894l4.119,8.833h-0.953l-1.389-2.906h-3.805l-1.377,2.906h-0.984l4.174-8.833H41.37z
		 M41.259,25.771l-1.514,3.198h3.02L41.259,25.771z"/>
	<path fill="#FFFFFF" d="M46.907,23.894h1.76c0.98,0,1.645,0.04,1.994,0.12c0.523,0.12,0.949,0.378,1.277,0.772
		s0.494,0.881,0.494,1.458c0,0.481-0.113,0.904-0.34,1.269c-0.227,0.365-0.549,0.641-0.971,0.827c-0.42,0.187-1,0.281-1.74,0.285
		l3.176,4.101h-1.092l-3.176-4.101h-0.5v4.101h-0.883V23.894z M47.79,24.758v3.003l1.521,0.012c0.59,0,1.025-0.056,1.309-0.168
		s0.504-0.291,0.662-0.537s0.236-0.521,0.236-0.826c0-0.296-0.08-0.565-0.24-0.808s-0.371-0.415-0.631-0.52
		c-0.262-0.104-0.693-0.156-1.299-0.156H47.79z"/>
</g>
</svg>
