<?xml version="1.0" encoding="utf-8"?>
<!-- Generator: Adobe Illustrator 16.0.0, SVG Export Plug-In . SVG Version: 6.00 Build 0)  -->
<!DOCTYPE svg PUBLIC "-//W3C//DTD SVG 1.0//EN" "http://www.w3.org/TR/2001/REC-SVG-20010904/DTD/svg10.dtd">
<svg version="1.0" id="Layer_1" xmlns="http://www.w3.org/2000/svg" xmlns:xlink="http://www.w3.org/1999/xlink" x="0px" y="0px"
	 width="67.639px" height="56.621px" viewBox="0 0 67.639 56.621" enable-background="new 0 0 67.639 56.621" xml:space="preserve">
<g>
	<path fill="#4D4D4D" d="M11.881,56.621C5.33,56.621,0,51.291,0,44.741V11.878C0,5.328,5.33,0,11.881,0h43.877
		c6.553,0,11.88,5.328,11.88,11.878v32.863c0,6.55-5.328,11.88-11.88,11.88H11.881z"/>
	<linearGradient id="SVGID_1_" gradientUnits="userSpaceOnUse" x1="33.8198" y1="56.0977" x2="33.8198" y2="0.3443">
		<stop  offset="0" style="stop-color:#3D3D3D"/>
		<stop  offset="0.1393" style="stop-color:#393939"/>
		<stop  offset="0.4946" style="stop-color:#363636"/>
		<stop  offset="0.5978" style="stop-color:#3B3B3B"/>
		<stop  offset="0.7271" style="stop-color:#4B4B4B"/>
		<stop  offset="0.8697" style="stop-color:#646464"/>
		<stop  offset="1" style="stop-color:#828282"/>
	</linearGradient>
	<path fill="url(#SVGID_1_)" d="M67.116,44.741c0,6.271-5.084,11.356-11.357,11.356H11.881c-6.273,0-11.358-5.085-11.358-11.356
		V11.878c0-6.27,5.085-11.354,11.358-11.354h43.877c6.273,0,11.357,5.084,11.357,11.354V44.741z"/>
	<linearGradient id="SVGID_2_" gradientUnits="userSpaceOnUse" x1="33.8193" y1="-45.6147" x2="33.8193" y2="100.6529">
		<stop  offset="0" style="stop-color:#FFFFFF"/>
		<stop  offset="1" style="stop-color:#FFFFFF"/>
	</linearGradient>
	<path opacity="0.8" fill="url(#SVGID_2_)" d="M11.918,53.021c-5.102,0-9.25-4.15-9.25-9.25V10.965c0-5.099,4.147-9.245,9.25-9.245
		h43.804c5.099,0,9.248,4.146,9.248,9.245v32.806c0,5.1-4.148,9.25-9.248,9.25H11.918z"/>
	<linearGradient id="SVGID_3_" gradientUnits="userSpaceOnUse" x1="2.6152" y1="28.311" x2="65.0225" y2="28.311">
		<stop  offset="0" style="stop-color:#525252"/>
		<stop  offset="1" style="stop-color:#7A7A7A"/>
	</linearGradient>
	<path fill="url(#SVGID_3_)" d="M11.881,54.006c-5.111,0-9.266-4.155-9.266-9.265V11.878c0-5.106,4.155-9.262,9.266-9.262h43.877
		c5.108,0,9.264,4.155,9.264,9.262v32.863c0,5.109-4.156,9.265-9.264,9.265H11.881z"/>
</g>
<g>
	<path fill="#FFFFFF" d="M35.501,17.061l1.744,1.139l-5.732,8.675c0.769-0.259,1.49-0.388,2.163-0.388
		c1.684,0,3.113,0.608,4.287,1.823c1.174,1.215,1.761,2.712,1.761,4.489c0,1.22-0.284,2.323-0.851,3.307
		c-0.567,0.985-1.374,1.768-2.417,2.349c-1.043,0.582-2.167,0.872-3.369,0.872c-1.164,0-2.244-0.281-3.239-0.843
		c-0.995-0.562-1.777-1.352-2.344-2.371c-0.567-1.018-0.851-2.109-0.851-3.271c0-0.865,0.175-1.775,0.527-2.731
		c0.351-0.956,0.979-2.106,1.884-3.452L35.501,17.061z M33.173,28.346c-1.232,0-2.283,0.435-3.154,1.304s-1.306,1.924-1.306,3.163
		c0,1.23,0.435,2.28,1.306,3.149c0.871,0.87,1.922,1.304,3.154,1.304c1.232,0,2.283-0.435,3.154-1.304
		c0.871-0.869,1.306-1.919,1.306-3.149c0-1.239-0.436-2.293-1.307-3.163S34.405,28.346,33.173,28.346z"/>
</g>
<g>
</g>
<g>
</g>
<g>
</g>
<g>
</g>
<g>
</g>
<g>
</g>
<g>
</g>
<g>
</g>
<g>
</g>
<g>
</g>
<g>
</g>
<g>
</g>
<g>
</g>
<g>
</g>
<g>
</g>
</svg>
