<?xml version="1.0" encoding="utf-8"?>
<!-- Generator: Adobe Illustrator 16.0.0, SVG Export Plug-In . SVG Version: 6.00 Build 0)  -->
<!DOCTYPE svg PUBLIC "-//W3C//DTD SVG 1.0//EN" "http://www.w3.org/TR/2001/REC-SVG-20010904/DTD/svg10.dtd">
<svg version="1.0" id="Layer_1" xmlns="http://www.w3.org/2000/svg" xmlns:xlink="http://www.w3.org/1999/xlink" x="0px" y="0px"
	 width="67.639px" height="56.621px" viewBox="0 0 67.639 56.621" enable-background="new 0 0 67.639 56.621" xml:space="preserve">
<g>
	<path fill="#4D4D4D" d="M11.881,56.621C5.329,56.621,0,51.291,0,44.742V11.878C0,5.327,5.329,0,11.881,0h43.877
		c6.552,0,11.881,5.326,11.881,11.878v32.864c0,6.549-5.329,11.879-11.881,11.879H11.881z"/>
	<linearGradient id="SVGID_1_" gradientUnits="userSpaceOnUse" x1="33.8201" y1="56.0977" x2="33.8201" y2="0.3428">
		<stop  offset="0" style="stop-color:#3D3D3D"/>
		<stop  offset="0.1393" style="stop-color:#393939"/>
		<stop  offset="0.4946" style="stop-color:#363636"/>
		<stop  offset="0.5978" style="stop-color:#3B3B3B"/>
		<stop  offset="0.7271" style="stop-color:#4B4B4B"/>
		<stop  offset="0.8697" style="stop-color:#646464"/>
		<stop  offset="1" style="stop-color:#828282"/>
	</linearGradient>
	<path fill="url(#SVGID_1_)" d="M67.116,44.742c0,6.271-5.086,11.355-11.358,11.355H11.881c-6.272,0-11.357-5.084-11.357-11.355
		V11.878c0-6.27,5.085-11.355,11.357-11.355h43.877c6.272,0,11.358,5.086,11.358,11.355V44.742z"/>
	<linearGradient id="SVGID_2_" gradientUnits="userSpaceOnUse" x1="33.8196" y1="-45.6128" x2="33.8196" y2="100.6507">
		<stop  offset="0" style="stop-color:#FFFFFF"/>
		<stop  offset="1" style="stop-color:#FFFFFF"/>
	</linearGradient>
	<path opacity="0.8" fill="url(#SVGID_2_)" d="M11.917,53.02c-5.101,0-9.248-4.15-9.248-9.248V10.964
		c0-5.099,4.146-9.244,9.248-9.244h43.805c5.099,0,9.248,4.146,9.248,9.244v32.807c0,5.098-4.149,9.248-9.248,9.248H11.917z"/>
	<linearGradient id="SVGID_3_" gradientUnits="userSpaceOnUse" x1="2.616" y1="28.3096" x2="65.0227" y2="28.3096">
		<stop  offset="0" style="stop-color:#525252"/>
		<stop  offset="1" style="stop-color:#7A7A7A"/>
	</linearGradient>
	<path fill="url(#SVGID_3_)" d="M11.881,54.004c-5.109,0-9.265-4.154-9.265-9.262V11.878c0-5.108,4.156-9.264,9.265-9.264h43.877
		c5.108,0,9.265,4.155,9.265,9.264v32.864c0,5.107-4.156,9.262-9.265,9.262H11.881z"/>
</g>
<g>
	<path fill="#FFFFFF" d="M36.99,27.28c1.432,0.711,2.457,1.522,3.076,2.436c0.621,0.913,0.93,1.95,0.93,3.112
		c0,1.634-0.533,3.075-1.6,4.324c-1.307,1.527-3.175,2.291-5.605,2.291c-2.345,0-4.122-0.67-5.333-2.011
		c-1.21-1.34-1.815-2.817-1.815-4.432c0-1.182,0.317-2.245,0.951-3.191s1.69-1.79,3.171-2.529c-1.038-0.538-1.816-1.206-2.335-2.004
		c-0.519-0.797-0.778-1.652-0.778-2.564c0-0.923,0.276-1.823,0.829-2.702c0.552-0.88,1.315-1.571,2.291-2.076
		c0.975-0.504,2.029-0.756,3.163-0.756c1.104,0,2.128,0.254,3.07,0.764c0.941,0.509,1.679,1.201,2.212,2.075s0.8,1.792,0.8,2.753
		s-0.252,1.815-0.757,2.564C38.756,26.084,37.999,26.732,36.99,27.28z M33.928,28.347c-1.459,0-2.682,0.473-3.67,1.419
		c-0.988,0.947-1.482,2.049-1.482,3.308c0,0.778,0.211,1.514,0.633,2.205c0.423,0.691,1.013,1.225,1.771,1.6
		s1.636,0.563,2.634,0.563c1.545,0,2.772-0.456,3.684-1.369c0.912-0.913,1.367-1.979,1.367-3.199c0-1.183-0.481-2.231-1.445-3.149
		C36.453,28.806,35.29,28.347,33.928,28.347z M33.827,19.238c-1.165,0-2.13,0.344-2.896,1.03c-0.765,0.688-1.147,1.506-1.147,2.457
		c0,0.942,0.411,1.795,1.234,2.559s1.783,1.146,2.881,1.146c0.702,0,1.366-0.173,1.992-0.519s1.114-0.819,1.466-1.42
		c0.351-0.601,0.526-1.203,0.526-1.809c0-0.854-0.347-1.643-1.04-2.363C36.152,19.599,35.146,19.238,33.827,19.238z"/>
</g>
</svg>
