<?xml version="1.0" encoding="utf-8"?>
<!-- Generator: Adobe Illustrator 16.0.0, SVG Export Plug-In . SVG Version: 6.00 Build 0)  -->
<!DOCTYPE svg PUBLIC "-//W3C//DTD SVG 1.0//EN" "http://www.w3.org/TR/2001/REC-SVG-20010904/DTD/svg10.dtd">
<svg version="1.0" id="Layer_1" xmlns="http://www.w3.org/2000/svg" xmlns:xlink="http://www.w3.org/1999/xlink" x="0px" y="0px"
	 width="67.639px" height="56.621px" viewBox="0 0 67.639 56.621" enable-background="new 0 0 67.639 56.621" xml:space="preserve">
<g>
	<path fill="#4D4D4D" d="M11.881,56.621C5.33,56.621,0,51.293,0,44.742V11.877C0,5.328,5.33,0,11.881,0h43.878
		c6.552,0,11.88,5.328,11.88,11.878v32.865c0,6.551-5.328,11.879-11.88,11.879H11.881z"/>
	<linearGradient id="SVGID_1_" gradientUnits="userSpaceOnUse" x1="33.8201" y1="56.0977" x2="33.8201" y2="0.3438">
		<stop  offset="0" style="stop-color:#3D3D3D"/>
		<stop  offset="0.1393" style="stop-color:#393939"/>
		<stop  offset="0.4946" style="stop-color:#363636"/>
		<stop  offset="0.5978" style="stop-color:#3B3B3B"/>
		<stop  offset="0.7271" style="stop-color:#4B4B4B"/>
		<stop  offset="0.8697" style="stop-color:#646464"/>
		<stop  offset="1" style="stop-color:#828282"/>
	</linearGradient>
	<path fill="url(#SVGID_1_)" d="M67.116,44.742c0,6.271-5.086,11.355-11.357,11.355H11.881c-6.273,0-11.357-5.084-11.357-11.355
		V11.877c0-6.27,5.084-11.354,11.357-11.354h43.878c6.271,0,11.357,5.084,11.357,11.354V44.742z"/>
	<linearGradient id="SVGID_2_" gradientUnits="userSpaceOnUse" x1="33.8201" y1="-45.6167" x2="33.8201" y2="100.6551">
		<stop  offset="0" style="stop-color:#FFFFFF"/>
		<stop  offset="1" style="stop-color:#FFFFFF"/>
	</linearGradient>
	<path opacity="0.8" fill="url(#SVGID_2_)" d="M11.918,53.021c-5.102,0-9.248-4.15-9.248-9.25V10.965c0-5.1,4.146-9.246,9.248-9.246
		h43.804c5.1,0,9.248,4.146,9.248,9.246v32.806c0,5.1-4.148,9.25-9.248,9.25H11.918z"/>
	<linearGradient id="SVGID_3_" gradientUnits="userSpaceOnUse" x1="2.6165" y1="28.3105" x2="65.0227" y2="28.3105">
		<stop  offset="0" style="stop-color:#525252"/>
		<stop  offset="1" style="stop-color:#7A7A7A"/>
	</linearGradient>
	<path fill="url(#SVGID_3_)" d="M11.881,54.006c-5.109,0-9.265-4.156-9.265-9.264V11.877c0-5.106,4.155-9.262,9.265-9.262h43.878
		c5.107,0,9.264,4.155,9.264,9.262v32.865c0,5.107-4.156,9.264-9.264,9.264H11.881z"/>
</g>
<g>
	<path fill="#FFFFFF" d="M24.687,23.894h1.759c0.981,0,1.646,0.04,1.994,0.12c0.524,0.12,0.95,0.378,1.278,0.772
		s0.493,0.881,0.493,1.458c0,0.481-0.113,0.904-0.34,1.269c-0.226,0.365-0.549,0.641-0.97,0.827
		c-0.42,0.187-1.001,0.281-1.741,0.285l3.177,4.101h-1.093l-3.176-4.101h-0.5v4.101h-0.882V23.894z M25.569,24.758v3.003
		l1.522,0.012c0.589,0,1.025-0.056,1.308-0.168c0.283-0.112,0.504-0.291,0.662-0.537s0.237-0.521,0.237-0.826
		c0-0.296-0.08-0.565-0.24-0.808c-0.161-0.242-0.371-0.415-0.632-0.52c-0.261-0.104-0.693-0.156-1.299-0.156H25.569z"/>
	<path fill="#FFFFFF" d="M32.109,23.894h5.062v0.864h-4.18v2.769h4.144v0.864H32.99v3.472h4.144v0.863h-5.025V23.894z"/>
	<path fill="#FFFFFF" d="M37.782,31.082l0.751-0.451c0.527,0.973,1.139,1.459,1.831,1.459c0.296,0,0.574-0.068,0.835-0.207
		c0.26-0.137,0.458-0.322,0.594-0.555c0.137-0.232,0.205-0.479,0.205-0.738c0-0.297-0.101-0.588-0.301-0.871
		c-0.275-0.393-0.781-0.865-1.514-1.417c-0.736-0.557-1.194-0.959-1.375-1.207c-0.313-0.416-0.468-0.866-0.468-1.351
		c0-0.385,0.092-0.734,0.276-1.051c0.184-0.316,0.443-0.565,0.777-0.748c0.334-0.182,0.697-0.273,1.09-0.273
		c0.416,0,0.806,0.104,1.168,0.31s0.746,0.586,1.15,1.138l-0.721,0.547c-0.332-0.44-0.615-0.73-0.85-0.871
		c-0.234-0.14-0.49-0.21-0.766-0.21c-0.357,0-0.648,0.108-0.874,0.324s-0.339,0.482-0.339,0.799c0,0.192,0.039,0.378,0.119,0.559
		c0.08,0.18,0.227,0.376,0.439,0.588c0.115,0.112,0.496,0.406,1.141,0.883c0.764,0.564,1.289,1.067,1.572,1.507
		c0.285,0.441,0.427,0.883,0.427,1.328c0,0.639-0.243,1.195-0.729,1.668s-1.078,0.709-1.774,0.709c-0.536,0-1.022-0.143-1.459-0.43
		C38.553,32.234,38.151,31.754,37.782,31.082z"/>
</g>
</svg>
