<?xml version="1.0" encoding="utf-8"?>
<!-- Generator: Adobe Illustrator 16.0.0, SVG Export Plug-In . SVG Version: 6.00 Build 0)  -->
<!DOCTYPE svg PUBLIC "-//W3C//DTD SVG 1.0//EN" "http://www.w3.org/TR/2001/REC-SVG-20010904/DTD/svg10.dtd">
<svg version="1.0" id="Layer_1" xmlns="http://www.w3.org/2000/svg" xmlns:xlink="http://www.w3.org/1999/xlink" x="0px" y="0px"
	 width="67.639px" height="56.621px" viewBox="0 0 67.639 56.621" enable-background="new 0 0 67.639 56.621" xml:space="preserve">
<g>
	<path fill="#4D4D4D" d="M11.882,56.621C5.33,56.621,0,51.291,0,44.741V11.878C0,5.327,5.33,0,11.882,0h43.876
		c6.553,0,11.881,5.327,11.881,11.878v32.863c0,6.55-5.328,11.88-11.881,11.88H11.882z"/>
	<linearGradient id="SVGID_1_" gradientUnits="userSpaceOnUse" x1="33.8201" y1="56.0986" x2="33.8201" y2="0.3423">
		<stop  offset="0" style="stop-color:#3D3D3D"/>
		<stop  offset="0.1393" style="stop-color:#393939"/>
		<stop  offset="0.4946" style="stop-color:#363636"/>
		<stop  offset="0.5978" style="stop-color:#3B3B3B"/>
		<stop  offset="0.7271" style="stop-color:#4B4B4B"/>
		<stop  offset="0.8697" style="stop-color:#646464"/>
		<stop  offset="1" style="stop-color:#828282"/>
	</linearGradient>
	<path fill="url(#SVGID_1_)" d="M67.115,44.741c0,6.271-5.084,11.357-11.357,11.357H11.882c-6.273,0-11.358-5.086-11.358-11.357
		V11.878c0-6.27,5.085-11.355,11.358-11.355h43.876c6.273,0,11.357,5.086,11.357,11.355V44.741z"/>
	<linearGradient id="SVGID_2_" gradientUnits="userSpaceOnUse" x1="33.8191" y1="-45.6157" x2="33.8191" y2="100.6547">
		<stop  offset="0" style="stop-color:#FFFFFF"/>
		<stop  offset="1" style="stop-color:#FFFFFF"/>
	</linearGradient>
	<path opacity="0.8" fill="url(#SVGID_2_)" d="M11.919,53.021c-5.102,0-9.25-4.151-9.25-9.25V10.964c0-5.099,4.147-9.244,9.25-9.244
		h43.804c5.099,0,9.247,4.146,9.247,9.244v32.808c0,5.099-4.148,9.25-9.247,9.25H11.919z"/>
	<linearGradient id="SVGID_3_" gradientUnits="userSpaceOnUse" x1="2.6155" y1="28.3115" x2="65.0227" y2="28.3115">
		<stop  offset="0" style="stop-color:#525252"/>
		<stop  offset="1" style="stop-color:#7A7A7A"/>
	</linearGradient>
	<path fill="url(#SVGID_3_)" d="M11.882,54.007c-5.111,0-9.266-4.155-9.266-9.266V11.878c0-5.106,4.155-9.262,9.266-9.262h43.876
		c5.109,0,9.265,4.155,9.265,9.262v32.863c0,5.11-4.155,9.266-9.265,9.266H11.882z"/>
</g>
<g>
	<path fill="#FFFFFF" d="M19.363,31.082l0.751-0.451c0.528,0.973,1.139,1.459,1.831,1.459c0.297,0,0.574-0.068,0.835-0.207
		c0.26-0.137,0.458-0.322,0.595-0.555c0.136-0.232,0.204-0.479,0.204-0.738c0-0.297-0.101-0.588-0.301-0.871
		c-0.275-0.393-0.78-0.865-1.513-1.417c-0.736-0.557-1.195-0.959-1.375-1.207c-0.313-0.416-0.469-0.866-0.469-1.351
		c0-0.385,0.092-0.734,0.276-1.051c0.184-0.316,0.443-0.565,0.777-0.748c0.334-0.182,0.697-0.273,1.09-0.273
		c0.417,0,0.806,0.104,1.168,0.31s0.746,0.586,1.15,1.138l-0.721,0.547c-0.332-0.44-0.615-0.73-0.85-0.871
		c-0.234-0.14-0.489-0.21-0.766-0.21c-0.356,0-0.647,0.108-0.874,0.324c-0.226,0.216-0.339,0.482-0.339,0.799
		c0,0.192,0.04,0.378,0.12,0.559c0.08,0.18,0.226,0.376,0.438,0.588c0.115,0.112,0.496,0.406,1.141,0.883
		c0.765,0.564,1.289,1.067,1.573,1.507c0.284,0.441,0.426,0.883,0.426,1.328c0,0.639-0.243,1.195-0.729,1.668
		s-1.077,0.709-1.774,0.709c-0.536,0-1.022-0.143-1.459-0.43C20.133,32.234,19.731,31.754,19.363,31.082z"/>
	<path fill="#FFFFFF" d="M26.431,23.894h0.883v5.333c0,0.633,0.012,1.027,0.035,1.184c0.044,0.348,0.146,0.639,0.307,0.873
		s0.406,0.43,0.738,0.588c0.333,0.158,0.667,0.238,1.003,0.238c0.292,0,0.572-0.063,0.841-0.188
		c0.269-0.123,0.492-0.295,0.673-0.516c0.18-0.221,0.312-0.486,0.396-0.799c0.06-0.225,0.09-0.686,0.09-1.381v-5.333h0.883v5.333
		c0,0.789-0.077,1.426-0.231,1.912s-0.463,0.91-0.925,1.27c-0.462,0.361-1.021,0.541-1.679,0.541c-0.712,0-1.322-0.17-1.831-0.51
		c-0.509-0.342-0.849-0.791-1.021-1.352c-0.108-0.344-0.162-0.965-0.162-1.861V23.894z"/>
	<path fill="#FFFFFF" d="M34.477,23.894h1.741c0.701,0,1.239,0.083,1.615,0.249c0.377,0.166,0.674,0.422,0.893,0.766
		c0.218,0.345,0.326,0.727,0.326,1.147c0,0.392-0.095,0.749-0.286,1.071s-0.472,0.584-0.843,0.784
		c0.459,0.155,0.813,0.339,1.061,0.549c0.246,0.21,0.439,0.465,0.577,0.762c0.138,0.299,0.206,0.621,0.206,0.971
		c0,0.709-0.259,1.309-0.777,1.799s-1.214,0.734-2.086,0.734h-2.427V23.894z M35.341,24.758v2.828h0.506
		c0.614,0,1.065-0.057,1.354-0.171c0.289-0.114,0.518-0.294,0.687-0.54s0.253-0.52,0.253-0.819c0-0.404-0.142-0.722-0.424-0.952
		c-0.283-0.23-0.733-0.346-1.352-0.346H35.341z M35.341,28.476v3.387h1.096c0.646,0,1.119-0.064,1.42-0.189
		c0.301-0.127,0.541-0.324,0.725-0.592c0.182-0.268,0.273-0.559,0.273-0.871c0-0.393-0.129-0.734-0.385-1.027
		c-0.257-0.291-0.609-0.492-1.059-0.6c-0.301-0.072-0.824-0.107-1.57-0.107H35.341z"/>
	<path fill="#FFFFFF" d="M40.638,24.758v-0.864h4.84v0.864h-1.97v7.968h-0.9v-7.968H40.638z"/>
	<path fill="#FFFFFF" d="M47.537,31.406c0.204,0,0.378,0.072,0.522,0.217c0.145,0.143,0.217,0.32,0.217,0.527
		c0,0.205-0.072,0.379-0.217,0.525s-0.318,0.219-0.522,0.219s-0.378-0.072-0.522-0.219s-0.216-0.32-0.216-0.525
		c0-0.207,0.071-0.385,0.216-0.527C47.159,31.479,47.333,31.406,47.537,31.406z"/>
</g>
</svg>
