<?xml version="1.0" encoding="UTF-8" standalone="no"?>
<!-- Generator: Adobe Illustrator 16.0.0, SVG Export Plug-In . SVG Version: 6.00 Build 0)  -->

<svg
   xmlns:dc="http://purl.org/dc/elements/1.1/"
   xmlns:cc="http://creativecommons.org/ns#"
   xmlns:rdf="http://www.w3.org/1999/02/22-rdf-syntax-ns#"
   xmlns:svg="http://www.w3.org/2000/svg"
   xmlns="http://www.w3.org/2000/svg"
   xmlns:sodipodi="http://sodipodi.sourceforge.net/DTD/sodipodi-0.dtd"
   xmlns:inkscape="http://www.inkscape.org/namespaces/inkscape"
   version="1.1"
   id="Capa_1"
   x="0px"
   y="0px"
   width="32"
   height="32"
   viewBox="0 0 31.875 31.875"
   xml:space="preserve"
   inkscape:version="0.91 r13725"
   sodipodi:docname="bluetooth-searching-signal-indicator.svg"><metadata
     id="metadata42"><rdf:RDF><cc:Work
         rdf:about=""><dc:format>image/svg+xml</dc:format><dc:type
           rdf:resource="http://purl.org/dc/dcmitype/StillImage" /><dc:title></dc:title></cc:Work></rdf:RDF></metadata><defs
     id="defs40" /><sodipodi:namedview
     pagecolor="#222330"
     bordercolor="#666666"
     borderopacity="1"
     objecttolerance="10"
     gridtolerance="10"
     guidetolerance="10"
     inkscape:pageopacity="1"
     inkscape:pageshadow="2"
     inkscape:window-width="1080"
     inkscape:window-height="1897"
     id="namedview38"
     showgrid="false"
     borderlayer="false"
     inkscape:zoom="2.6074563"
     inkscape:cx="49.598436"
     inkscape:cy="-26.174984"
     inkscape:window-x="-4"
     inkscape:window-y="-4"
     inkscape:window-maximized="1"
     inkscape:current-layer="bluetooth-searching" /><g
     id="g3"
     transform="translate(0,-478.12497)"><g
       id="bluetooth-searching"><path
         d="m 19.44379,494.52655 3.665624,3.66562 c 0.47813,-1.11568 0.6375,-2.39062 0.6375,-3.66562 0,-1.275 -0.31881,-2.55 -0.6375,-3.66562 l -3.665624,3.66562 z m 8.446874,-8.44687 -1.9125,2.07187 c 0.95625,1.9125 1.59375,4.14375 1.59375,6.375 0,2.23125 -0.6375,4.4625 -1.59375,6.375 l 1.9125,1.9125 c 1.59375,-2.39063 2.39063,-5.41869 2.39063,-8.44681 0,-3.02813 -0.79688,-5.89694 -2.39063,-8.28756 z m -6.05625,1.59375 -9.084374,-9.08438 -1.59375,0 0,12.1125 -7.3312498,-7.33125 -2.23125,2.23125 8.9249998,8.925 -8.9249998,8.925 2.23125,2.23125 7.3312498,-7.33125 0,12.1125 1.59375,0 9.084374,-9.08438 -6.853124,-6.85312 6.853124,-6.85312 z m -7.490624,-3.02813 3.02812,3.02813 -3.02812,3.02812 0,-6.05625 z m 3.02812,16.73437 -3.02812,3.02813 0,-6.05625 3.02812,3.02812 z"
         id="path6"
         inkscape:connector-curvature="0"
         style="fill:#ffffff;fill-opacity:1" /></g></g><g
     id="g8"
     transform="translate(0,-478.12497)" /><g
     id="g10"
     transform="translate(0,-478.12497)" /><g
     id="g12"
     transform="translate(0,-478.12497)" /><g
     id="g14"
     transform="translate(0,-478.12497)" /><g
     id="g16"
     transform="translate(0,-478.12497)" /><g
     id="g18"
     transform="translate(0,-478.12497)" /><g
     id="g20"
     transform="translate(0,-478.12497)" /><g
     id="g22"
     transform="translate(0,-478.12497)" /><g
     id="g24"
     transform="translate(0,-478.12497)" /><g
     id="g26"
     transform="translate(0,-478.12497)" /><g
     id="g28"
     transform="translate(0,-478.12497)" /><g
     id="g30"
     transform="translate(0,-478.12497)" /><g
     id="g32"
     transform="translate(0,-478.12497)" /><g
     id="g34"
     transform="translate(0,-478.12497)" /><g
     id="g36"
     transform="translate(0,-478.12497)" /></svg>