<?xml version="1.0" encoding="UTF-8" standalone="no"?>
<!-- Generator: Adobe Illustrator 16.0.0, SVG Export Plug-In . SVG Version: 6.00 Build 0)  -->

<svg
   xmlns:dc="http://purl.org/dc/elements/1.1/"
   xmlns:cc="http://creativecommons.org/ns#"
   xmlns:rdf="http://www.w3.org/1999/02/22-rdf-syntax-ns#"
   xmlns:svg="http://www.w3.org/2000/svg"
   xmlns="http://www.w3.org/2000/svg"
   xmlns:sodipodi="http://sodipodi.sourceforge.net/DTD/sodipodi-0.dtd"
   xmlns:inkscape="http://www.inkscape.org/namespaces/inkscape"
   version="1.1"
   id="Capa_1"
   x="0px"
   y="0px"
   width="64"
   height="32"
   viewBox="0 0 4 2"
   xml:space="preserve"
   inkscape:version="0.91 r13725"
   sodipodi:docname="low-battery.svg"><metadata
     id="metadata44"><rdf:RDF><cc:Work
         rdf:about=""><dc:format>image/svg+xml</dc:format><dc:type
           rdf:resource="http://purl.org/dc/dcmitype/StillImage" /><dc:title></dc:title></cc:Work></rdf:RDF></metadata><defs
     id="defs42" /><sodipodi:namedview
     pagecolor="#2d2d1c"
     bordercolor="#666666"
     borderopacity="1"
     objecttolerance="10"
     gridtolerance="10"
     guidetolerance="10"
     inkscape:pageopacity="1"
     inkscape:pageshadow="2"
     inkscape:window-width="1920"
     inkscape:window-height="1017"
     id="namedview40"
     showgrid="false"
     inkscape:zoom="0.4609375"
     inkscape:cx="256"
     inkscape:cy="256"
     inkscape:window-x="1076"
     inkscape:window-y="-4"
     inkscape:window-maximized="1"
     inkscape:current-layer="Capa_1" /><g
     id="g3"
     transform="matrix(0.125,0,0,0.125,0,-1)"><g
       id="Low_x5F_Charged_x5F_Battery"><g
         id="g6"><path
           d="m 30,11 -2,0 C 28,9.346 26.654,8 25,8 L 3,8 C 1.346,8 0,9.346 0,11 l 0,10 c 0,1.654 1.346,3 3,3 l 22,0 c 1.654,0 3,-1.346 3,-3 l 2,0 c 1.104,0 2,-0.896 2,-2 l 0,-6 c 0,-1.103 -0.896,-2 -2,-2 z m -4,10 c 0,0.552 -0.448,1 -1,1 L 3,22 C 2.448,22 2,21.552 2,21 L 2,11 c 0,-0.552 0.448,-1 1,-1 l 22,0 c 0.552,0 1,0.448 1,1 l 0,10 z m 4,-2 -2,0 0,-6 2,0 0,6 z M 7.447,12.895 C 7.201,12.402 6.55,12 6,12 l -1,0 c -0.55,0 -1,0.45 -1,1 l 0,6 c 0,0.55 0.45,1 1,1 l 5,0 c 0.55,0 0.799,-0.402 0.553,-0.895 l -3.106,-6.21 z"
           id="path8"
           inkscape:connector-curvature="0"
           style="fill:#ffffff" /></g></g></g><g
     id="g10"
     transform="translate(0,-30)" /><g
     id="g12"
     transform="translate(0,-30)" /><g
     id="g14"
     transform="translate(0,-30)" /><g
     id="g16"
     transform="translate(0,-30)" /><g
     id="g18"
     transform="translate(0,-30)" /><g
     id="g20"
     transform="translate(0,-30)" /><g
     id="g22"
     transform="translate(0,-30)" /><g
     id="g24"
     transform="translate(0,-30)" /><g
     id="g26"
     transform="translate(0,-30)" /><g
     id="g28"
     transform="translate(0,-30)" /><g
     id="g30"
     transform="translate(0,-30)" /><g
     id="g32"
     transform="translate(0,-30)" /><g
     id="g34"
     transform="translate(0,-30)" /><g
     id="g36"
     transform="translate(0,-30)" /><g
     id="g38"
     transform="translate(0,-30)" /></svg>