<?xml version="1.0" encoding="UTF-8" standalone="no"?>
<!-- Generator: Adobe Illustrator 16.0.0, SVG Export Plug-In . SVG Version: 6.00 Build 0)  -->

<svg
   xmlns:dc="http://purl.org/dc/elements/1.1/"
   xmlns:cc="http://creativecommons.org/ns#"
   xmlns:rdf="http://www.w3.org/1999/02/22-rdf-syntax-ns#"
   xmlns:svg="http://www.w3.org/2000/svg"
   xmlns="http://www.w3.org/2000/svg"
   xmlns:sodipodi="http://sodipodi.sourceforge.net/DTD/sodipodi-0.dtd"
   xmlns:inkscape="http://www.inkscape.org/namespaces/inkscape"
   version="1.1"
   id="Capa_1"
   x="0px"
   y="0px"
   width="44"
   height="32"
   viewBox="0 0 52.592805 38.24925"
   xml:space="preserve"
   inkscape:version="0.91 r13725"
   sodipodi:docname="wifi-connection-signal-symbol.svg"><metadata
     id="metadata4212"><rdf:RDF><cc:Work
         rdf:about=""><dc:format>image/svg+xml</dc:format><dc:type
           rdf:resource="http://purl.org/dc/dcmitype/StillImage" /><dc:title></dc:title></cc:Work></rdf:RDF></metadata><defs
     id="defs4210" /><sodipodi:namedview
     pagecolor="#414141"
     bordercolor="#666666"
     borderopacity="1"
     objecttolerance="10"
     gridtolerance="10"
     guidetolerance="10"
     inkscape:pageopacity="0"
     inkscape:pageshadow="2"
     inkscape:window-width="1080"
     inkscape:window-height="1897"
     id="namedview4208"
     showgrid="false"
     showborder="false"
     inkscape:zoom="1"
     inkscape:cx="176.06323"
     inkscape:cy="-147.60213"
     inkscape:window-x="-4"
     inkscape:window-y="-4"
     inkscape:window-maximized="1"
     inkscape:current-layer="g4171" /><g
     id="g4171"
     transform="matrix(0.08555072,0,0,0.08555072,264.2368,34.437365)"><g
       id="Wi-Fi"
       transform="translate(-3088.656,-484.98564)"><g
         id="g4174"><path
           d="m 305.994,417.769 c -30.85,0 -55.887,25.037 -55.887,55.887 0,30.85 25.038,55.887 55.887,55.887 30.849,0 55.887,-25.037 55.887,-55.887 0,-30.85 -25.038,-55.887 -55.887,-55.887 z m 299.442,-195.4 C 530.697,133.434 421.549,82.446 305.994,82.446 c -115.555,0 -224.685,50.988 -299.443,139.923 -9.93,11.811 -8.402,29.434 3.428,39.363 5.234,4.396 11.587,6.558 17.939,6.558 7.973,0 15.891,-3.391 21.423,-9.967 64.084,-76.248 157.639,-119.989 256.652,-119.989 99.013,0 192.568,43.741 256.651,119.971 5.533,6.576 13.45,9.967 21.424,9.967 6.353,0 12.724,-2.143 17.958,-6.558 11.811,-9.912 13.34,-27.553 3.41,-39.345 z M 305.994,194.22 c -82.545,0 -160.489,36.419 -213.879,99.926 -9.929,11.811 -8.402,29.434 3.428,39.363 5.234,4.396 11.605,6.558 17.958,6.558 7.973,0 15.891,-3.391 21.405,-9.967 42.716,-50.838 105.086,-79.993 171.089,-79.993 66.003,0 128.372,29.155 171.107,79.993 5.533,6.595 13.45,9.967 21.404,9.967 6.353,0 12.724,-2.143 17.959,-6.558 11.829,-9.929 13.356,-27.57 3.428,-39.363 C 466.483,230.64 388.539,194.22 305.994,194.22 Z m 0,111.774 c -49.553,0 -96.331,21.852 -128.335,59.948 -9.93,11.811 -8.402,29.434 3.428,39.363 5.234,4.396 11.605,6.557 17.958,6.557 7.973,0 15.891,-3.39 21.405,-9.966 21.368,-25.429 52.552,-40.016 85.544,-40.016 32.992,0 64.177,14.587 85.544,40.016 5.533,6.595 13.45,9.966 21.405,9.966 6.353,0 12.724,-2.142 17.958,-6.557 11.83,-9.93 13.357,-27.553 3.428,-39.363 -32.005,-38.096 -78.783,-59.948 -128.335,-59.948 z"
           id="path4176"
           inkscape:connector-curvature="0"
           style="fill:#ffffff" /></g></g></g><g
     id="g4178"
     transform="translate(0,-573.73969)" /><g
     id="g4180"
     transform="translate(0,-573.73969)" /><g
     id="g4182"
     transform="translate(0,-573.73969)" /><g
     id="g4184"
     transform="translate(0,-573.73969)" /><g
     id="g4186"
     transform="translate(0,-573.73969)" /><g
     id="g4188"
     transform="translate(0,-573.73969)" /><g
     id="g4190"
     transform="translate(0,-573.73969)" /><g
     id="g4192"
     transform="translate(0,-573.73969)" /><g
     id="g4194"
     transform="translate(0,-573.73969)" /><g
     id="g4196"
     transform="translate(0,-573.73969)" /><g
     id="g4198"
     transform="translate(0,-573.73969)" /><g
     id="g4200"
     transform="translate(0,-573.73969)" /><g
     id="g4202"
     transform="translate(0,-573.73969)" /><g
     id="g4204"
     transform="translate(0,-573.73969)" /><g
     id="g4206"
     transform="translate(0,-573.73969)" /></svg>