<svg xmlns="http://www.w3.org/2000/svg" width="380" height="380" viewBox="0 0 380 380">
  <defs>
    <style>
      .cls-1 {
        fill: #0086a5;
        stroke: #00455c;
        stroke-linejoin: round;
        stroke-width: 6px;
        fill-rule: evenodd;
      }
    </style>
  </defs>
  <path id="Elips_1" data-name="Elips 1" class="cls-1" d="M199,15c102.173,0,185,82.827,185,185S301.173,385,199,385,14,302.173,14,200,96.827,15,199,15Zm24,29s40.752,2.908,77,37c-76.023,66.25-75,68-75,68Zm110,73s17.928,27.333,23,57c-90.838,2.023-91,3-91,3Zm22,106s-10.681,43.781-26,63c-69.48-63.151-69-63-69-63h95ZM289,326s-33.127,28.519-66,27c0.977-88.966,0-89,0-89ZM172,352s-31.8,3.862-72-35c68.688-60.3,70-60,70-60ZM69,282l64-60-88,1S48.126,261.126,69,282ZM45,175l82-1L68,115S48.385,143.406,45,175ZM169,45l3,94L102,76S135.15,49.513,169,45Zm30.5,120A29.5,29.5,0,1,1,170,194.5,29.5,29.5,0,0,1,199.5,165Z" transform="translate(-9 -10)"/>
</svg>
