<?xml version="1.0" encoding="UTF-8" standalone="no"?>
<!-- Created with Inkscape (http://www.inkscape.org/) -->

<svg
   xmlns:dc="http://purl.org/dc/elements/1.1/"
   xmlns:cc="http://creativecommons.org/ns#"
   xmlns:rdf="http://www.w3.org/1999/02/22-rdf-syntax-ns#"
   xmlns:svg="http://www.w3.org/2000/svg"
   xmlns="http://www.w3.org/2000/svg"
   xmlns:sodipodi="http://sodipodi.sourceforge.net/DTD/sodipodi-0.dtd"
   xmlns:inkscape="http://www.inkscape.org/namespaces/inkscape"
   width="154"
   height="154"
   viewBox="0 0 40.745832 40.745834"
   version="1.1"
   id="svg4973"
   sodipodi:docname="cogwhell.svg"
   inkscape:version="0.92.2 5c3e80d, 2017-08-06">
  <defs
     id="defs4967" />
  <sodipodi:namedview
     id="base"
     pagecolor="#ffffff"
     bordercolor="#666666"
     borderopacity="1.0"
     inkscape:pageopacity="0.0"
     inkscape:pageshadow="2"
     inkscape:zoom="1.6898747"
     inkscape:cx="-81.318951"
     inkscape:cy="82.958949"
     inkscape:document-units="px"
     inkscape:current-layer="layer5"
     showgrid="false"
     units="px"
     inkscape:window-width="1920"
     inkscape:window-height="1051"
     inkscape:window-x="3840"
     inkscape:window-y="0"
     inkscape:window-maximized="1" />
  <metadata
     id="metadata4970">
    <rdf:RDF>
      <cc:Work
         rdf:about="">
        <dc:format>image/svg+xml</dc:format>
        <dc:type
           rdf:resource="http://purl.org/dc/dcmitype/StillImage" />
        <dc:title></dc:title>
      </cc:Work>
    </rdf:RDF>
  </metadata>
  <g
     inkscape:label="Layer 1"
     inkscape:groupmode="layer"
     id="layer1"
     transform="translate(0,-256.25415)">
    <path
       style="fill:#a6dae8;stroke-width:0.26458332"
       d="M 23.261083,256.56958 C 9.8377033,254.05684 -3.0240967,268.14194 0.62983331,281.31181 3.2813733,293.6985 18.753733,301.00859 29.886973,294.67255 c 11.01845,-5.56546 14.5901,-21.79518 6.08468,-31.05966 -3.18982,-3.78796 -7.78777,-6.397 -12.71057,-7.04331 z m 9.26703,8.71855 c -3.10476,4.50617 -10.76556,5.27985 -8.32545,-2.12803 -0.32433,-6.02434 6.78748,0.96337 8.32545,2.12803 z m -11.57419,-5.22208 c -0.33232,2.36114 -0.66464,4.72228 -0.99695,7.08343 -4.95238,3.34084 -11.5365197,-7.75899 -2.81206,-6.72706 1.25906,-0.192 2.53096,-0.39945 3.80901,-0.35637 z m -11.8763597,4.49077 c 4.5266097,3.15554 5.4318897,10.79319 -2.08398,8.32485 -6.06931999,0.34436 0.89866,-6.77956 2.08398,-8.32485 z m -5.22366,11.57288 c 2.34403,0.32967 4.68806,0.65934 7.0320897,0.98901 3.23378,5.12137 -7.7952997,11.55302 -6.6903097,2.70893 -0.17827,-1.22256 -0.4,-2.45746 -0.34178,-3.69794 z m 4.49077,11.87635 c 2.7536097,-3.66444 9.7816597,-5.92107 8.5173997,1.12045 0.39741,7.08218 -6.30601,0.79208 -8.5173997,-1.12045 z m 11.5744597,5.22367 c -1.48033,-5.77647 5.20166,-10.84758 7.82217,-3.6689 2.34179,3.46511 -5.81845,3.43959 -7.82217,3.6689 z m 11.87635,-4.49078 c -5.10029,-3.01394 -4.01588,-11.36493 2.90714,-8.12779 4.17467,0.7691 -1.65918,6.54892 -2.90714,8.12779 z m 5.22341,-11.57287 c -5.67728,1.43043 -11.05586,-5.06477 -3.79531,-7.72296 3.39474,-3.45914 3.6603,6.28326 3.79531,7.72296 z"
       id="path14"
       inkscape:connector-curvature="0" />
  </g>
  <g
     inkscape:groupmode="layer"
     id="layer5"
     inkscape:label="Layer 2">
    <g
       transform="matrix(-0.26458333,0,0,-0.26458333,70.079794,47.639374)"
       id="g4842">
      <path
         inkscape:connector-curvature="0"
         id="circle8"
         d="m 212.19337,103.05263 c 1.84257,27.74184 -44.07665,32.97073 -48.0818,4.95634 -6.35479,-28.046309 37.88325,-41.379009 46.68119,-13.107189 l 1.07134,3.99269 z"
         style="fill:#fdc00f" />
      <path
         style="fill:#f29a00"
         d="m 187.99037,78.875631 c 0,16.11767 0,32.235329 0,48.352999 31.38523,1.25416 31.4084,-49.479259 0,-48.352999 z"
         id="path10"
         inkscape:connector-curvature="0" />
      <path
         style="fill:#0f303f"
         d="m 199.85338,102.86862 c -5.25098,29.57228 -40.99507,-8.586959 -10.32019,-11.224889 6.03637,-0.12542 10.35851,5.53469 10.32019,11.224889 z"
         id="circle12"
         inkscape:connector-curvature="0" />
    </g>
  </g>
</svg>
