<?xml version="1.0" encoding="UTF-8" standalone="no"?>
<!-- Created with Inkscape (http://www.inkscape.org/) -->

<svg
   xmlns:dc="http://purl.org/dc/elements/1.1/"
   xmlns:cc="http://creativecommons.org/ns#"
   xmlns:rdf="http://www.w3.org/1999/02/22-rdf-syntax-ns#"
   xmlns:svg="http://www.w3.org/2000/svg"
   xmlns="http://www.w3.org/2000/svg"
   xmlns:sodipodi="http://sodipodi.sourceforge.net/DTD/sodipodi-0.dtd"
   xmlns:inkscape="http://www.inkscape.org/namespaces/inkscape"
   width="429"
   height="418"
   viewBox="0 0 113.50625 110.59584"
   version="1.1"
   id="svg7564"
   inkscape:version="0.92.2 5c3e80d, 2017-08-06"
   sodipodi:docname="shadow.svg">
  <defs
     id="defs7558" />
  <sodipodi:namedview
     id="base"
     pagecolor="#ffffff"
     bordercolor="#666666"
     borderopacity="1.0"
     inkscape:pageopacity="0.0"
     inkscape:pageshadow="2"
     inkscape:zoom="1.1949219"
     inkscape:cx="256.89441"
     inkscape:cy="292.20007"
     inkscape:document-units="px"
     inkscape:current-layer="layer1"
     showgrid="false"
     units="px"
     inkscape:window-width="1920"
     inkscape:window-height="1051"
     inkscape:window-x="3840"
     inkscape:window-y="0"
     inkscape:window-maximized="1" />
  <metadata
     id="metadata7561">
    <rdf:RDF>
      <cc:Work
         rdf:about="">
        <dc:format>image/svg+xml</dc:format>
        <dc:type
           rdf:resource="http://purl.org/dc/dcmitype/StillImage" />
        <dc:title></dc:title>
      </cc:Work>
    </rdf:RDF>
  </metadata>
  <g
     inkscape:label="Layer 1"
     inkscape:groupmode="layer"
     id="layer1"
     transform="translate(0,-186.40415)">
    <path
       style="fill:#0f303f;stroke-width:0.26458335"
       d="m 79.549241,193.0479 c -8.799962,-10.67935 -28.537059,-7.76749 -33.327844,5.38464 -2.647082,8.36475 -7.724844,-4.42206 -11.820353,-6.21417 -7.738155,-8.09512 -21.958836,-7.64324 -29.1058755,0.97498 -7.2994357,7.46435 -6.8478555,20.25403 0.427456,27.55887 3.372136,4.20966 8.4609705,7.31171 11.2340495,11.75217 -3.699428,2.41713 -2.448383,10.30112 -6.9614965,6.07356 -3.353425,0.0589 -1.297345,4.96422 -1.866509,7.32326 -1.32801,4.39439 3.0186865,6.03403 5.2411315,9.02377 -2.560521,10.03154 7.401348,15.11767 12.968219,21.57064 6.832668,6.83018 13.674208,13.65148 20.507134,20.4814 29.955358,0.0726 58.143557,-22.40249 64.738447,-51.63102 1.48199,-6.02861 2.14961,-12.27387 1.78758,-18.47748 -11.2611,-11.28638 -22.544048,-22.55099 -33.821939,-33.82062 z"
       id="path4"
       inkscape:connector-curvature="0" />
  </g>
</svg>
