<?xml version="1.0" encoding="UTF-8" standalone="no"?>
<!-- Generator: Adobe Illustrator 19.0.0, SVG Export Plug-In . SVG Version: 6.00 Build 0)  -->

<svg
   xmlns:dc="http://purl.org/dc/elements/1.1/"
   xmlns:cc="http://creativecommons.org/ns#"
   xmlns:rdf="http://www.w3.org/1999/02/22-rdf-syntax-ns#"
   xmlns:svg="http://www.w3.org/2000/svg"
   xmlns="http://www.w3.org/2000/svg"
   xmlns:sodipodi="http://sodipodi.sourceforge.net/DTD/sodipodi-0.dtd"
   xmlns:inkscape="http://www.inkscape.org/namespaces/inkscape"
   version="1.1"
   id="Layer_1"
   x="0px"
   y="0px"
   viewBox="0 0 512 512"
   style="enable-background:new 0 0 512 512;"
   xml:space="preserve"
   sodipodi:docname="work.svg"
   inkscape:version="0.92.2 5c3e80d, 2017-08-06"><metadata
     id="metadata83"><rdf:RDF><cc:Work
         rdf:about=""><dc:format>image/svg+xml</dc:format><dc:type
           rdf:resource="http://purl.org/dc/dcmitype/StillImage" /><dc:title></dc:title></cc:Work></rdf:RDF></metadata><defs
     id="defs81" /><sodipodi:namedview
     pagecolor="#ffffff"
     bordercolor="#666666"
     borderopacity="1"
     objecttolerance="10"
     gridtolerance="10"
     guidetolerance="10"
     inkscape:pageopacity="0"
     inkscape:pageshadow="2"
     inkscape:window-width="1920"
     inkscape:window-height="1015"
     id="namedview79"
     showgrid="false"
     inkscape:zoom="1.0669181"
     inkscape:cx="505.40547"
     inkscape:cy="243.95577"
     inkscape:window-x="1920"
     inkscape:window-y="0"
     inkscape:window-maximized="1"
     inkscape:current-layer="layer2"
     inkscape:measure-start="144.341,512.692"
     inkscape:measure-end="144.341,421.776"
     showguides="true"
     inkscape:guide-bbox="true"><sodipodi:guide
       position="254.9399,421.77557"
       orientation="0,1"
       id="guide8735"
       inkscape:locked="false" /><sodipodi:guide
       position="366.4761,320.54943"
       orientation="0,1"
       id="guide8737"
       inkscape:locked="false" /></sodipodi:namedview><g
     id="g48" /><g
     id="g50" /><g
     id="g52" /><g
     id="g54" /><g
     id="g56" /><g
     id="g58" /><g
     id="g60" /><g
     id="g62" /><g
     id="g64" /><g
     id="g66" /><g
     id="g68"
     style="display:inline" /><g
     id="g70" /><g
     id="g72" /><g
     id="g74" /><g
     id="g76"
     style="display:none" /><g
     inkscape:groupmode="layer"
     id="layer1"
     inkscape:label="bg"
     sodipodi:insensitive="true"><path
       style="fill:#2c5871"
       d="m 512.02004,255.06752 c 4.6273,104.00309 -68.70339,200.06474 -163.09267,238.00035 -56.702,24.12685 -122.13302,25.17109 -179.69238,3.26122 C 59.468775,460.97497 -8.8983351,341.40647 0.93710492,228.94215 5.4471549,164.47663 39.642475,104.73441 86.616555,61.566147 186.16676,-26.003039 356.19286,-20.172129 444.47278,80.892065 486.88579,128.52328 512.4968,190.97556 512.02004,255.06752 Z"
       id="circle2"
       inkscape:connector-curvature="0" /></g><g
     inkscape:groupmode="layer"
     id="layer4"
     inkscape:label="shadows"
     sodipodi:insensitive="true"><path
       style="fill:#0f303f"
       d="m 383.71148,118.66148 c -33.2597,-40.362876 -107.8566,-29.357446 -125.9635,20.35142 -10.00472,31.61479 -29.19626,-16.71332 -44.67535,-23.48666 -29.24657,-30.595696 -82.99402,-28.887836 -110.00645,3.68497 -27.588419,28.21173 -25.881659,76.55069 1.61558,104.1595 12.74508,15.91055 31.97847,27.63482 42.4594,44.41766 -13.98209,9.13562 -9.25373,38.93336 -26.31117,22.95518 -12.67436,0.22253 -4.90335,18.76243 -7.05452,27.67849 -5.01925,16.60869 11.40921,22.80576 19.809,34.10558 -9.67756,37.91448 27.9736,57.13765 49.01374,81.5268 25.82425,25.81488 51.68204,51.59617 77.50727,77.41005 113.2171,0.2744 219.75515,-84.67084 244.68075,-195.14088 5.6012,-22.78528 8.1245,-46.38941 6.7562,-69.83612 -42.56165,-42.6572 -85.20585,-85.23211 -127.83095,-127.82599 z"
       id="path4"
       inkscape:connector-curvature="0" /></g><g
     inkscape:groupmode="layer"
     id="layer3"
     inkscape:label="carks"
     sodipodi:insensitive="true"><path
       style="fill:#a6dae8"
       d="m 328.64819,90.22443 c -51.56369,-2.33668 -92.28657,57.15162 -71.67342,104.51955 16.44525,44.96581 78.2041,64.17408 116.53654,34.59874 38.3093,-26.63161 43.12574,-89.25543 6.41692,-119.45159 -13.93269,-12.49768 -32.51541,-19.8411 -51.28004,-19.6667 z m 39.275,27.75 c -6.25167,6.25167 -12.50333,12.50333 -18.755,18.755 -23.07025,-0.83471 -17.4868,-49.59831 6.63966,-26.23285 4.16344,2.26179 8.43317,4.46125 12.11534,7.47785 z m -46.07,-13.45 c 0,9.01133 0,18.02267 0,27.034 -16.77693,15.11576 -47.26802,-22.96455 -14.06825,-23.69432 4.61122,-1.38143 9.26238,-2.82685 14.06825,-3.33968 z m -42.086,23.06 c 6.40167,6.40167 12.80333,12.80333 19.205,19.205 -1.54993,22.44241 -49.73493,17.05681 -26.75772,-6.9534 2.27667,-4.21553 4.52316,-8.51403 7.55272,-12.2516 z m -13.45,46.065 c 8.948,0 17.896,0 26.844,0 14.80208,17.46928 -23.09414,47.34897 -23.62163,13.66548 -1.31066,-4.48314 -2.79432,-8.98973 -3.22237,-13.66548 z m 23.055,42.086 c 6.19167,-6.19167 12.38333,-12.38333 18.575,-18.575 22.75184,0.6684 17.66057,48.94072 -6.3866,26.14707 -4.21249,-2.26308 -8.39708,-4.64096 -12.1884,-7.57207 z m 46.07,13.456 c -8.57912,-20.84002 13.75813,-43.33965 27.34476,-17.84959 10.5864,11.73458 -19.96759,15.93314 -27.34476,17.84959 z m 42.086,-23.061 c -20.67643,-8.59626 -21.00974,-40.42475 6.60471,-31.95197 16.02862,0.68177 -2.76284,25.38684 -6.60471,31.95197 z m 13.456,-46.064 c -20.49289,8.34321 -44.04086,-13.13053 -18.26841,-26.90064 10.88091,-14.73379 17.00365,21.58566 18.26841,26.90064 z"
       id="path6"
       inkscape:connector-curvature="0" /><g
       id="g8733"
       transform="translate(-633.18644,104.70631)"><path
         inkscape:connector-curvature="0"
         id="path14"
         d="m 803.23407,-12.132069 c -50.73404,-9.49696 -99.34559,43.73805 -85.53546,93.51394 10.0216,46.815819 68.49981,74.444509 110.57819,50.497289 41.64455,-21.0348 55.14367,-82.375509 22.99722,-117.390849 -12.05601,-14.31670041 -29.4341,-24.1776604 -48.03995,-26.62038 z m 35.025,32.952 c -11.73453,17.03119 -40.68876,19.95534 -31.46628,-8.04294 -1.22581,-22.7691604 25.65348,3.64108 31.46628,8.04294 z m -43.745,-19.7370004 c -1.256,8.9240004 -2.512,17.8480004 -3.768,26.7720004 -18.71766,12.62681 -43.6026,-29.3253004 -10.62824,-25.4250804 4.75863,-0.72567 9.56582,-1.50976001 14.39624,-1.34692 z m -44.887,16.9730004 c 17.10842,11.92642 20.52996,40.79315 -7.87648,31.46398 -22.93917,1.30154 3.39652,-25.62353 7.87648,-31.46398 z m -19.743,43.74 c 8.85933,1.246 17.71867,2.492 26.578,3.738 12.22215,19.35637 -29.46254,43.664939 -25.28621,10.23846 -0.6738,-4.6207 -1.5118,-9.28802 -1.29179,-13.97646 z m 16.973,44.886989 c 10.40736,-13.849849 36.97007,-22.378849 32.19175,4.2348 1.50201,26.76728 -23.83374,2.99369 -32.19175,-4.2348 z m 43.746,19.743 c -5.59496,-21.8323 19.65981,-40.998719 29.56409,-13.8667 8.85086,13.09649 -21.99096,13.00002 -29.56409,13.8667 z m 44.887,-16.973 c -19.27668,-11.391269 -15.17812,-42.954089 10.98759,-30.719219 15.77831,2.90683 -6.27088,24.751829 -10.98759,30.719219 z m 19.742,-43.739989 c -21.45741,5.40635 -41.78592,-19.14243 -14.34448,-29.18913 12.83052,-13.07392 13.83421,23.74774 14.34448,29.18913 z"
         style="fill:#a6dae8" /><g
         id="g4842"
         transform="translate(603.19499,-38.136429)"><path
           style="fill:#fdc00f"
           d="m 212.19337,103.05263 c 1.84257,27.74184 -44.07665,32.97073 -48.0818,4.95634 -6.35479,-28.046309 37.88325,-41.379009 46.68119,-13.107189 l 1.07134,3.99269 z"
           id="circle8"
           inkscape:connector-curvature="0" /><path
           inkscape:connector-curvature="0"
           id="path10"
           d="m 187.99037,78.875631 c 0,16.11767 0,32.235329 0,48.352999 31.38523,1.25416 31.4084,-49.479259 0,-48.352999 z"
           style="fill:#f29a00" /><path
           inkscape:connector-curvature="0"
           id="circle12"
           d="m 199.85338,102.86862 c -5.25098,29.57228 -40.99507,-8.586959 -10.32019,-11.224889 6.03637,-0.12542 10.35851,5.53469 10.32019,11.224889 z"
           style="fill:#0f303f" /></g></g><path
       style="fill:#fdc00f"
       d="m 828.51026,244.65721 c 1.84258,27.74184 -44.07665,32.97074 -48.0818,4.95635 -6.35478,-28.0463 37.88325,-41.37903 46.68119,-13.1072 l 1.07134,3.99269 z"
       id="circle16"
       inkscape:connector-curvature="0" /><path
       style="fill:#f29a00"
       d="m 807.70227,220.71621 c -2.246,15.96067 -4.492,31.92133 -6.738,47.882 30.90306,5.60821 37.99381,-44.6135 6.738,-47.882 z"
       id="path18"
       inkscape:connector-curvature="0" /><path
       style="fill:#0f303f"
       d="m 816.23227,244.53421 c -5.25098,29.57228 -40.99507,-8.58696 -10.32019,-11.22489 6.03637,-0.12542 10.35851,5.53469 10.32019,11.22489 z"
       id="circle20"
       inkscape:connector-curvature="0" /></g><g
     inkscape:groupmode="layer"
     id="layer2"
     inkscape:label="camera"><g
       transform="translate(231.80193,56.568276)"
       id="g46"><g
         id="g4825" /><g
         id="g4949"
         transform="translate(115.28532,-86.229671)"><path
           inkscape:connector-curvature="0"
           id="rect22"
           d="m 6.7060284,327.74511 c 18.5348196,-5.78986 24.6182296,5.65505 21.5809996,21.72425 -0.0883,11.83216 3.9885,26.33913 -14.13374,20.91168 -13.18231959,-0.68372 -5.3010496,-18.80384 -7.4472596,-27.9645 0,-4.89048 0,-9.78095 0,-14.67143 z"
           style="fill:#a6dae8" /><path
           inkscape:connector-curvature="0"
           id="rect24"
           d="M 6.7060284,348.81912 C 22.950268,342.13161 37.956028,357.00218 24.029048,370.51872 5.0586884,374.62841 5.4318484,364.25534 6.7060284,348.81912 Z"
           style="fill:#95c2d8" /><path
           inkscape:connector-curvature="0"
           id="polygon26"
           d="m 28.292018,327.74512 c 10.844,-6.54 21.688,-13.08 32.532,-19.62 0,27.143 0,54.286 0,81.429 -10.844,-6.54 -21.688,-13.08 -32.532,-19.62 0,-14.063 0,-28.126 0,-42.189 z"
           style="fill:#fc611f" /><path
           inkscape:connector-curvature="0"
           id="polygon28"
           d="m 28.292018,348.83912 c -9.671,21.96764 22.32684,37.19359 32.532,37.81834 0,-12.60611 0,-25.21223 0,-37.81834 -10.844,0 -21.688,0 -32.532,0 z"
           style="fill:#e64500" /><path
           inkscape:connector-curvature="0"
           id="path30"
           d="m -30.531982,301.39812 c -31.33087,-9.89033 -6.92548,-51.1448 -20.258,-73.12333 -14.29667,-13.65441 -36.99048,-5.07352 -54.889658,-7.25056 -18.19287,1.60279 -49.68467,-8.35675 -53.59399,17.70197 -1.1835,23.412 8.93335,69.56161 -28.79385,62.6938 -32.29828,-3.1423 -23.82108,33.56326 -24.93869,53.92319 0.5549,20.17063 -1.17651,40.75688 1.49033,60.65797 10.721,17.86375 34.16074,9.37213 51.52198,11.20996 55.56629,0 111.132588,0 166.6988784,0 0,-41.93967 0,-83.87933 0,-125.819 -12.41233,0.004 -24.8246704,-0.008 -37.2370004,0.006 z"
           style="fill:#14b0bf" /><path
           inkscape:connector-curvature="0"
           id="path32"
           d="m -30.531982,301.39812 c -31.33087,-9.89033 -6.92548,-51.1448 -20.258,-73.12333 -12.97348,-12.64612 -38.17765,-6.90174 -52.327998,-5.97634 0,68.30456 0,136.60911 0,204.91367 36.606328,0 73.212668,0 109.8189984,0 0,-41.93967 0,-83.87933 0,-125.819 -12.411,0.003 -24.8220004,-0.007 -37.2330004,0.005 z"
           style="fill:#3387b5" /><path
           inkscape:connector-curvature="0"
           id="rect34"
           d="m -192.30899,324.03811 c 60.143,0 120.286008,0 180.429008,0 0,28.30833 0,56.61667 0,84.925 -60.143,0 -120.286008,0 -180.429008,0 0,-28.30833 0,-56.61667 0,-84.925 z"
           style="fill:#fdc00f" /><path
           inkscape:connector-curvature="0"
           id="rect36"
           d="m -103.11299,324.03811 c 30.402668,0 60.805328,0 91.207998,0 0,28.30833 0,56.61667 0,84.925 -30.40267,0 -60.80533,0 -91.207998,0 0,-28.30833 0,-56.61667 0,-84.925 z"
           style="fill:#f29a00" /><path
           inkscape:connector-curvature="0"
           id="rect38"
           d="m -222.82398,329.82412 c 24.17164,-4.76561 1.8126,49.60616 0,15.38624 0,-5.12875 0,-10.25749 0,-15.38624 z"
           style="fill:#a6dae8" /><path
           inkscape:connector-curvature="0"
           id="rect40"
           d="m -222.82398,343.28912 c 27.03805,-2.0006 -5.84658,31.79109 0,0 z"
           style="fill:#95c2d8" /><path
           inkscape:connector-curvature="0"
           id="rect42"
           d="m -232.75698,322.20513 c 18.62269,-1.2413 7.70685,30.15452 8.45884,42.168 -16.11617,0.68519 -5.73077,-23.58376 -8.45884,-34.75764 0,-2.47012 0,-4.94024 0,-7.41036 z"
           style="fill:#fc611f" /><path
           inkscape:connector-curvature="0"
           id="rect44"
           d="m -232.75698,344.00613 c 21.92316,-6.11645 3.60121,39.7306 -1.03227,10.81518 1.73749,-3.38646 0.79199,-7.20446 1.03227,-10.81518 z"
           style="fill:#e64500" /></g></g></g></svg>