<?xml version="1.0" encoding="utf-8"?>
<!-- Generator: Adobe Illustrator 16.0.0, SVG Export Plug-In . SVG Version: 6.00 Build 0)  -->
<!DOCTYPE svg PUBLIC "-//W3C//DTD SVG 1.0//EN" "http://www.w3.org/TR/2001/REC-SVG-20010904/DTD/svg10.dtd">
<svg version="1.0" id="orta_kisim" xmlns="http://www.w3.org/2000/svg" xmlns:xlink="http://www.w3.org/1999/xlink" x="0px" y="0px"
	 width="417px" height="390px" viewBox="0 0 417 390" enable-background="new 0 0 417 390" xml:space="preserve">
<g>
	<g>
		<path fill-rule="evenodd" clip-rule="evenodd" fill="#5F5F5F" d="M404.363,8.518l-2.26-0.969L19.15,50.944
			c-3.324,0.376-4.551,2.019-4.551,5.012v274.852c0,4.944,2.668,1.985,7.588,2.466l381.493,37.292
			c4.922,0.481,6.92-0.456,6.92-5.402V13.487C410.6,10.254,408.91,10.466,404.363,8.518"/>
		<path fill-rule="evenodd" clip-rule="evenodd" fill="#B4B4B6" d="M398.299,7.219L13.085,49.644
			c-3.327,0.366-4.552,2.019-4.552,5.013v274.851c0,4.945,2.664,4.322,7.587,4.772l381.493,34.984
			c4.924,0.451,6.922-0.455,6.922-5.4V12.188C404.535,8.954,403.215,6.677,398.299,7.219"/>
		<path fill-rule="evenodd" clip-rule="evenodd" fill="#1E1E1E" d="M395.699,7.651L10.484,50.078
			c-3.326,0.367-4.551,2.018-4.551,5.011v269.418c0,4.945,2.659,4.395,7.588,4.774l381.492,32.468
			c4.926,0.421,6.922-0.452,6.922-5.401V12.622C401.936,9.387,400.615,7.109,395.699,7.651"/>
		<path fill-rule="evenodd" clip-rule="evenodd" fill="#555459" d="M393.43,8.839L9.95,51.007c-3.325,0.366-4.549,2.021-4.549,5.012
			v268.066c0,4.939,2.656,4.392,7.585,4.771l379.76,34.083c4.918,0.443,6.918-0.456,6.918-5.402V13.809
			C399.664,10.575,398.344,8.299,393.43,8.839"/>
		<path fill-rule="evenodd" clip-rule="evenodd" fill="#2D2D2D" d="M393.43,8.839L9.95,51.007c-3.325,0.366-4.549,2.021-4.549,5.012
			v268.066c0,4.939,2.656,4.392,7.585,4.771l379.76,34.083c4.918,0.443,6.918-0.456,6.918-5.402V13.809
			C399.664,10.575,398.344,8.299,393.43,8.839"/>
		<path fill-rule="evenodd" clip-rule="evenodd" fill="#2E2E2E" d="M393.43,8.839L9.95,51.007c-3.325,0.366-4.549,2.021-4.549,5.012
			v268.066c0,4.939,2.656,4.392,7.585,4.771l379.76,34.083c4.918,0.443,6.918-0.456,6.918-5.402V13.809
			C399.664,10.575,398.344,8.299,393.43,8.839"/>
		<path fill-rule="evenodd" clip-rule="evenodd" fill="#2E2E2E" d="M9.547,328.63c-1.352-1.034-2.714-2.058-4.049-3.112
			c-0.064-0.416-0.097-0.891-0.097-1.433V56.02c0-2.993,1.225-4.648,4.552-5.013L393.428,8.84c4.916-0.541,6.236,1.734,6.236,4.969
			v343.727c0,4.949-2,5.846-6.92,5.404L12.988,328.855C11.679,328.755,10.528,328.719,9.547,328.63"/>
		<path fill-rule="evenodd" clip-rule="evenodd" fill="#2F2F2F" d="M17.12,329.226c-3.968-2.93-7.873-5.94-11.718-9.023V56.02
			c0-2.993,1.224-4.648,4.549-5.013L393.43,8.84c4.914-0.541,6.234,1.734,6.234,4.969v343.727c0,4.949-2,5.846-6.918,5.404
			L17.12,329.226z"/>
		<path fill-rule="evenodd" clip-rule="evenodd" fill="#303030" d="M25.022,329.936c-6.714-4.771-13.25-9.774-19.622-14.972V56.019
			c0-2.992,1.225-4.646,4.552-5.012L393.428,8.839c4.916-0.54,6.236,1.736,6.236,4.968v343.729c0,4.946-2.002,5.846-6.92,5.402
			L25.022,329.936z"/>
		<path fill-rule="evenodd" clip-rule="evenodd" fill="#303031" d="M399.664,357.17c-3.793,1.851-7.621,3.637-11.486,5.36
			L33.25,330.676c-9.621-6.562-18.916-13.566-27.849-20.987V56.02c0-2.993,1.225-4.646,4.552-5.013L393.43,8.839
			c4.914-0.54,6.234,1.736,6.234,4.97V357.17z"/>
		<path fill-rule="evenodd" clip-rule="evenodd" fill="#313131" d="M399.664,352.613c-6.547,3.241-13.197,6.307-19.959,9.157
			L41.763,331.438c-12.695-8.28-24.835-17.332-36.362-27.094V56.019c0-2.991,1.225-4.646,4.552-5.012L393.43,8.839
			c4.914-0.539,6.234,1.734,6.234,4.97V352.613z"/>
		<path fill-rule="evenodd" clip-rule="evenodd" fill="#323232" d="M399.664,348.058c-9.379,4.707-18.982,9.031-28.807,12.917
			L50.613,332.233c-15.947-9.908-31.068-21.017-45.213-33.231V56.019c0-2.991,1.225-4.646,4.552-5.012L393.43,8.839
			c4.914-0.539,6.234,1.734,6.234,4.97V348.058z"/>
		<path fill-rule="evenodd" clip-rule="evenodd" fill="#323233" d="M399.664,343.5c-12.297,6.263-25.006,11.829-38.08,16.643
			l-301.715-27.08c-19.42-11.444-37.653-24.681-54.469-39.497V56.02c0-2.993,1.225-4.646,4.552-5.013L393.43,8.839
			c4.914-0.54,6.234,1.736,6.234,4.97V343.5z"/>
		<path fill-rule="evenodd" clip-rule="evenodd" fill="#333333" d="M399.664,338.908c-15.318,7.918-31.293,14.743-47.826,20.359
			L69.609,333.937C46.471,321.078,24.94,305.685,5.4,288.112V56.019c0-2.992,1.225-4.646,4.552-5.012L393.43,8.839
			c4.914-0.54,6.234,1.736,6.234,4.968V338.908z"/>
		<path fill-rule="evenodd" clip-rule="evenodd" fill="#343434" d="M399.664,334.295c-18.479,9.694-37.936,17.782-58.195,24.043
			l-261.53-23.474C52.786,320.739,27.739,303.121,5.4,282.599V56.02c0-2.992,1.225-4.646,4.552-5.013L393.43,8.839
			c4.914-0.54,6.234,1.736,6.234,4.97V334.295z"/>
		<path fill-rule="evenodd" clip-rule="evenodd" fill="#343435" d="M399.664,329.681c-21.822,11.623-45.049,20.949-69.367,27.654
			L90.985,335.856C59.46,320.644,30.634,300.723,5.4,277.023V56.019c0-2.992,1.225-4.646,4.552-5.012L393.43,8.839
			c4.914-0.54,6.234,1.736,6.234,4.968V329.681z"/>
		<path fill-rule="evenodd" clip-rule="evenodd" fill="#353535" d="M399.664,325.067c-25.385,13.73-52.729,24.288-81.502,31.177
			l-215.026-19.299c-36.4-16.061-69.435-38.35-97.735-65.539V56.02c0-2.992,1.225-4.646,4.552-5.013L393.43,8.839
			c4.914-0.54,6.234,1.736,6.234,4.97V325.067z"/>
		<path fill-rule="evenodd" clip-rule="evenodd" fill="#363636" d="M399.664,320.408c-29.273,16.087-61.221,27.908-95.012,34.624
			l-188.118-16.883C74.668,321.566,36.962,296.75,5.4,265.704V56.02c0-2.993,1.225-4.646,4.552-5.013L393.43,8.839
			c4.914-0.54,6.234,1.736,6.234,4.97V320.408z"/>
		<path fill-rule="evenodd" clip-rule="evenodd" fill="#363637" d="M399.664,315.733c-33.67,18.805-70.969,31.892-110.598,37.9
			l-156.95-14.086C83.824,322.943,40.604,295.438,5.4,259.959V56.02c0-2.993,1.225-4.648,4.552-5.013L393.43,8.84
			c4.914-0.541,6.234,1.734,6.234,4.969V315.733z"/>
		<path fill-rule="evenodd" clip-rule="evenodd" fill="#373738" d="M399.664,311.06c-39.051,22.166-83.131,36.484-130.107,40.822
			l-118.188-10.605C95.062,325.51,44.929,294.979,5.4,254.119V56.02c0-2.993,1.225-4.648,4.552-5.013L393.43,8.84
			c4.914-0.541,6.234,1.734,6.234,4.969V311.06z"/>
		<path fill-rule="evenodd" clip-rule="evenodd" fill="#383738" d="M399.664,306.368c-47.059,27.167-101.645,42.75-159.865,42.844
			l-58.797-5.276C112.358,331.356,51.345,296.972,5.4,248.215V56.02c0-2.993,1.225-4.648,4.552-5.013L393.43,8.84
			c4.914-0.541,6.234,1.734,6.234,4.969V306.368z"/>
		<path fill-rule="evenodd" clip-rule="evenodd" fill="#383839" d="M399.664,301.629c-47.064,27.643-101.877,43.509-160.404,43.509
			c-92.571,0-175.87-39.663-233.859-102.909V56.02c0-2.993,1.225-4.646,4.552-5.013L393.43,8.84
			c4.914-0.541,6.234,1.734,6.234,4.969V301.629z"/>
		<path fill-rule="evenodd" clip-rule="evenodd" fill="#39393A" d="M399.664,296.889c-46.916,28.039-101.773,44.171-160.404,44.171
			c-92.997,0-176.508-40.557-233.859-104.93V56.019c0-2.991,1.225-4.646,4.552-5.012L393.43,8.839
			c4.914-0.539,6.234,1.734,6.234,4.97V296.889z"/>
		<path fill-rule="evenodd" clip-rule="evenodd" fill="#3A393A" d="M399.664,292.144c-46.76,28.449-101.668,44.835-160.404,44.835
			c-93.438,0-177.188-41.469-233.859-107.005V56.02c0-2.993,1.225-4.646,4.552-5.013L393.43,8.84
			c4.914-0.541,6.234,1.734,6.234,4.967V292.144z"/>
		<path fill-rule="evenodd" clip-rule="evenodd" fill="#3A3A3B" d="M399.664,287.333c-46.602,28.877-101.549,45.565-160.404,45.565
			c-93.922,0-177.917-42.472-233.859-109.243V56.019c0-2.991,1.225-4.646,4.552-5.012L393.43,8.839
			c4.914-0.539,6.234,1.734,6.234,4.97V287.333z"/>
		<path fill-rule="evenodd" clip-rule="evenodd" fill="#3B3B3C" d="M399.664,282.522c-46.434,29.316-101.43,46.296-160.404,46.296
			c-94.434,0-178.694-43.519-233.859-111.582V56.019c0-2.991,1.225-4.646,4.552-5.012L393.43,8.839
			c4.914-0.54,6.234,1.736,6.234,4.97V282.522z"/>
		<path fill-rule="evenodd" clip-rule="evenodd" fill="#3C3B3C" d="M399.664,277.698c-46.256,29.767-101.309,47.04-160.404,47.04
			c-94.977,0-179.532-44.616-233.859-114.028V56.019c0-2.992,1.225-4.646,4.552-5.012L393.43,8.839
			c4.914-0.54,6.234,1.736,6.234,4.968V277.698z"/>
		<path fill-rule="evenodd" clip-rule="evenodd" fill="#3C3C3D" d="M399.664,272.813c-46.07,30.239-101.178,47.844-160.404,47.844
			c-95.569,0-180.433-45.806-233.859-116.653V56.019c0-2.992,1.225-4.646,4.552-5.012L393.43,8.839
			c4.914-0.54,6.234,1.736,6.234,4.968V272.813z"/>
		<path fill-rule="evenodd" clip-rule="evenodd" fill="#3D3D3E" d="M399.664,267.929c-45.875,30.723-101.045,48.65-160.404,48.65
			c-96.209,0-181.409-47.083-233.859-119.45V56.019c0-2.991,1.225-4.646,4.552-5.012L393.43,8.839
			c4.914-0.54,6.234,1.736,6.234,4.97V267.929z"/>
		<path fill-rule="evenodd" clip-rule="evenodd" fill="#3E3D3F" d="M399.664,262.997c-45.67,31.227-100.9,49.502-160.404,49.502
			c-96.898,0-182.47-48.445-233.859-122.425V56.02c0-2.993,1.225-4.646,4.552-5.013L393.43,8.839c4.914-0.54,6.234,1.736,6.234,4.97
			V262.997z"/>
		<path fill-rule="evenodd" clip-rule="evenodd" fill="#3E3E3F" d="M399.664,258.033c-45.459,31.748-100.75,50.386-160.404,50.386
			c-97.647,0-183.63-49.913-233.859-125.602V56.019c0-2.992,1.225-4.646,4.552-5.012L393.43,8.839
			c4.914-0.54,6.234,1.736,6.234,4.968V258.033z"/>
		<path fill-rule="evenodd" clip-rule="evenodd" fill="#3F3F40" d="M399.664,253.054c-45.23,32.286-100.596,51.284-160.404,51.284
			c-98.468,0-184.897-51.5-233.859-129.025V56.019c0-2.991,1.225-4.646,4.552-5.012L393.43,8.839
			c4.914-0.539,6.234,1.734,6.234,4.97V253.054z"/>
		<path fill-rule="evenodd" clip-rule="evenodd" fill="#403F41" d="M399.664,248.006c-44.994,32.849-100.428,52.252-160.404,52.252
			c-99.374,0-186.302-53.236-233.859-132.736V56.019c0-2.991,1.225-4.646,4.552-5.012L393.43,8.839
			c4.914-0.539,6.234,1.734,6.234,4.97V248.006z"/>
		<path fill-rule="evenodd" clip-rule="evenodd" fill="#404041" d="M399.664,242.954c-44.74,33.431-100.26,53.225-160.404,53.225
			c-100.379,0-187.867-55.147-233.859-136.788V56.019c0-2.991,1.225-4.646,4.552-5.012L393.43,8.839
			c4.914-0.54,6.234,1.736,6.234,4.97V242.954z"/>
		<path fill-rule="evenodd" clip-rule="evenodd" fill="#414142" d="M399.664,237.816c-44.475,34.041-100.07,54.281-160.404,54.281
			c-101.507,0-189.625-57.261-233.859-141.234V56.019c0-2.991,1.225-4.646,4.552-5.012L393.43,8.839
			c4.914-0.539,6.234,1.734,6.234,4.97V237.816z"/>
		<path fill-rule="evenodd" clip-rule="evenodd" fill="#424143" d="M399.664,232.678c-44.188,34.667-99.881,55.339-160.404,55.339
			c-102.778,0-191.621-59.62-233.859-146.16V56.02c0-2.993,1.225-4.646,4.552-5.013L393.43,8.84
			c4.914-0.541,6.234,1.734,6.234,4.969V232.678z"/>
		<path fill-rule="evenodd" clip-rule="evenodd" fill="#424244" d="M399.664,227.443c-43.893,35.334-99.672,56.495-160.404,56.495
			c-104.245,0-193.928-62.315-233.859-151.72v-76.2c0-2.992,1.225-4.646,4.552-5.012L393.43,8.839
			c4.914-0.54,6.234,1.736,6.234,4.968V227.443z"/>
		<path fill-rule="evenodd" clip-rule="evenodd" fill="#434344" d="M399.664,222.2c-43.57,36.015-99.459,57.656-160.404,57.656
			c-105.971,0-196.646-65.436-233.859-158.101V56.019c0-2.991,1.225-4.646,4.552-5.01L393.43,8.839
			c4.914-0.54,6.234,1.736,6.234,4.97V222.2z"/>
		<path fill-rule="evenodd" clip-rule="evenodd" fill="#444345" d="M399.664,216.855c-43.232,36.74-99.223,58.923-160.404,58.923
			c-108.054,0-199.942-69.156-233.859-165.616V56.019c0-2.991,1.225-4.646,4.552-5.012L393.43,8.839
			c4.914-0.54,6.234,1.736,6.234,4.97V216.855z"/>
		<path fill-rule="evenodd" clip-rule="evenodd" fill="#444446" d="M399.664,211.477c-42.867,37.494-98.979,60.222-160.404,60.222
			C128.581,271.698,35.146,197.93,5.4,96.881V56.019c0-2.991,1.225-4.646,4.552-5.01L393.43,8.839
			c4.914-0.539,6.234,1.734,6.234,4.97V211.477z"/>
		<path fill-rule="evenodd" clip-rule="evenodd" fill="#454546" d="M399.664,206.023c-42.479,38.282-98.717,61.596-160.404,61.596
			c-114.267,0-209.844-79.967-233.859-186.986V56.02c0-2.993,1.225-4.646,4.552-5.013L393.43,8.84
			c4.914-0.541,6.234,1.734,6.234,4.969V206.023z"/>
		<path fill-rule="evenodd" clip-rule="evenodd" fill="#464547" d="M399.664,200.482c-42.061,39.117-98.432,63.054-160.404,63.054
			C118.865,263.536,19.574,173.23,5.4,56.662V56.02c0-2.993,1.225-4.646,4.552-5.013L393.43,8.84
			c4.914-0.541,6.234,1.734,6.234,4.969V200.482z"/>
		<path fill-rule="evenodd" clip-rule="evenodd" fill="#464648" d="M399.664,194.878c-41.611,39.99-98.133,64.581-160.404,64.581
			c-120.018,0-218.704-91.326-230.367-208.276c0.326-0.074,0.679-0.133,1.06-0.176L393.43,8.839c4.914-0.54,6.234,1.736,6.234,4.968
			V194.878z"/>
		<path fill-rule="evenodd" clip-rule="evenodd" fill="#474748" d="M399.664,189.176c-41.127,40.912-97.809,66.2-160.404,66.2
			c-117.937,0-214.901-89.765-226.315-204.697L393.43,8.839c4.914-0.539,6.234,1.734,6.234,4.97V189.176z"/>
		<path fill-rule="evenodd" clip-rule="evenodd" fill="#484749" d="M399.664,183.355c-40.602,41.895-97.457,67.941-160.404,67.941
			C123.426,251.297,28.192,163.122,17,50.231L393.43,8.839c4.914-0.54,6.234,1.736,6.234,4.97V183.355z"/>
		<path fill-rule="evenodd" clip-rule="evenodd" fill="#48484A" d="M399.664,177.432c-40.029,42.931-97.076,69.787-160.404,69.787
			c-113.73,0-207.233-86.587-218.204-197.432L393.43,8.839c4.914-0.54,6.234,1.736,6.234,4.97V177.432z"/>
		<path fill-rule="evenodd" clip-rule="evenodd" fill="#49484B" d="M399.664,171.387c-39.406,44.032-96.662,71.749-160.404,71.749
			c-111.629,0-203.399-84.993-214.147-193.796L393.43,8.839c4.914-0.54,6.234,1.736,6.234,4.97V171.387z"/>
		<path fill-rule="evenodd" clip-rule="evenodd" fill="#4A494B" d="M399.664,165.197c-38.723,45.205-96.213,73.858-160.404,73.858
			c-109.525,0-199.566-83.403-210.091-190.162L393.43,8.839c4.914-0.54,6.234,1.736,6.234,4.97V165.197z"/>
		<path fill-rule="evenodd" clip-rule="evenodd" fill="#4A4A4C" d="M399.664,158.842c-37.969,46.465-95.717,76.135-160.404,76.135
			c-107.423,0-195.732-81.813-206.035-186.529L393.43,8.84c4.914-0.541,6.234,1.734,6.234,4.969V158.842z"/>
		<path fill-rule="evenodd" clip-rule="evenodd" fill="#4B4A4D" d="M399.664,152.291c-37.133,47.823-95.17,78.605-160.404,78.605
			c-105.319,0-191.897-80.223-201.976-182.895L393.43,8.84c4.914-0.541,6.234,1.734,6.234,4.967V152.291z"/>
		<path fill-rule="evenodd" clip-rule="evenodd" fill="#4C4B4D" d="M399.664,145.518c-36.197,49.294-94.559,81.298-160.404,81.298
			c-103.217,0-188.065-78.631-197.921-179.259L393.43,8.839c4.914-0.54,6.234,1.736,6.234,4.97V145.518z"/>
		<path fill-rule="evenodd" clip-rule="evenodd" fill="#4C4C4E" d="M399.664,138.481c-35.145,50.896-93.873,84.256-160.404,84.256
			c-101.114,0-184.229-77.042-193.865-175.628L393.43,8.839c4.914-0.54,6.234,1.736,6.234,4.968V138.481z"/>
		<path fill-rule="evenodd" clip-rule="evenodd" fill="#4D4C4F" d="M399.664,131.148c-33.947,52.646-93.104,87.509-160.404,87.509
			c-99.012,0-180.396-75.452-189.81-171.994L393.43,8.839c4.914-0.54,6.234,1.736,6.234,4.97V131.148z"/>
		<path fill-rule="evenodd" clip-rule="evenodd" fill="#4E4D4F" d="M399.664,123.396c-32.566,54.601-92.209,91.179-160.404,91.179
			c-96.91,0-176.562-73.86-185.751-168.358L393.43,8.839c4.914-0.54,6.234,1.736,6.234,4.97V123.396z"/>
		<path fill-rule="evenodd" clip-rule="evenodd" fill="#4E4E50" d="M399.664,115.182c-30.953,56.783-91.176,95.313-160.404,95.313
			c-94.805,0-172.729-72.271-181.695-164.723L393.43,8.839c4.914-0.539,6.234,1.734,6.234,4.97V115.182z"/>
		<path fill-rule="evenodd" clip-rule="evenodd" fill="#4F4E51" d="M399.664,106.282c-29.018,59.296-89.938,100.134-160.404,100.134
			c-92.706,0-168.893-70.68-177.639-161.09L393.43,8.839c4.914-0.54,6.234,1.734,6.234,4.97V106.282z"/>
		<path fill-rule="evenodd" clip-rule="evenodd" fill="#504F52" d="M399.664,96.496c-26.637,62.233-88.424,105.842-160.404,105.842
			c-90.6,0-165.06-69.092-173.583-157.458L393.43,8.839c4.914-0.539,6.234,1.734,6.234,4.97V96.496z"/>
		<path fill-rule="evenodd" clip-rule="evenodd" fill="#505052" d="M399.664,85.321c-23.557,65.831-86.477,112.935-160.404,112.935
			c-88.499,0-161.225-67.499-169.527-153.823L393.43,8.839c4.914-0.539,6.234,1.734,6.234,4.97V85.321z"/>
		<path fill-rule="evenodd" clip-rule="evenodd" fill="#515053" d="M399.664,71.726c-19.223,70.565-83.748,122.449-160.404,122.449
			c-86.395,0-157.391-65.907-165.471-150.187L393.43,8.839c4.914-0.54,6.234,1.736,6.234,4.97V71.726z"/>
		<path fill-rule="evenodd" clip-rule="evenodd" fill="#525154" d="M399.664,51.869c-11.572,78.209-78.977,138.229-160.404,138.229
			c-84.293,0-153.558-64.32-161.412-146.556L393.43,8.839c4.914-0.54,6.234,1.734,6.234,4.97V51.869z"/>
		<path fill-rule="evenodd" clip-rule="evenodd" fill="#525254" d="M396.199,8.876c0.75,6.247,1.146,12.604,1.146,19.053
			c0,87.309-70.775,158.086-158.086,158.086c-82.192,0-149.724-62.729-157.357-142.92L393.43,8.839
			C394.521,8.718,395.438,8.738,396.199,8.876"/>
		<path fill-rule="evenodd" clip-rule="evenodd" fill="#535255" d="M392.105,8.985c0.762,6.209,1.16,12.529,1.16,18.944
			c0,85.057-68.949,154.006-154.006,154.006c-80.088,0-145.891-61.139-153.3-139.287L392.105,8.985z"/>
		<path fill-rule="evenodd" clip-rule="evenodd" fill="#545356" d="M388.051,9.431c0.744,6.064,1.135,12.235,1.135,18.5
			c0,82.801-67.123,149.925-149.926,149.925c-77.985,0-142.056-59.547-149.242-135.651L388.051,9.431z"/>
		<path fill-rule="evenodd" clip-rule="evenodd" fill="#545457" d="M383.994,9.876c0.729,5.916,1.113,11.941,1.113,18.054
			c0,80.547-65.299,145.845-145.848,145.845c-75.881,0-138.223-57.956-145.187-132.018L383.994,9.876z"/>
		<path fill-rule="evenodd" clip-rule="evenodd" fill="#555457" d="M379.938,10.323c0.717,5.769,1.086,11.645,1.086,17.608
			c0,78.294-63.467,141.765-141.764,141.765c-73.78,0-134.386-56.367-141.131-128.384L379.938,10.323z"/>
		<path fill-rule="evenodd" clip-rule="evenodd" fill="#565558" d="M375.883,10.769c0.697,5.623,1.063,11.349,1.063,17.162
			c0,76.04-61.645,137.684-137.686,137.684c-71.678,0-130.554-54.776-137.074-124.75L375.883,10.769z"/>
		<path fill-rule="evenodd" clip-rule="evenodd" fill="#565659" d="M371.828,11.214c0.682,5.476,1.039,11.056,1.039,16.716
			c0,73.789-59.818,133.604-133.605,133.604c-69.577,0-126.721-53.186-133.02-121.116L371.828,11.214z"/>
		<path fill-rule="evenodd" clip-rule="evenodd" fill="#575659" d="M367.771,11.66c0.668,5.329,1.016,10.759,1.016,16.271
			c0,71.535-57.992,129.524-129.525,129.524c-67.473,0-122.888-51.596-128.964-117.483L367.771,11.66z"/>
		<path fill-rule="evenodd" clip-rule="evenodd" fill="#58575A" d="M363.715,12.106c0.652,5.182,0.992,10.464,0.992,15.824
			c0,69.281-56.166,125.444-125.445,125.444c-65.37,0-119.054-50.005-124.908-113.849L363.715,12.106z"/>
		<path fill-rule="evenodd" clip-rule="evenodd" fill="#58585B" d="M359.658,12.553c0.639,5.036,0.969,10.168,0.969,15.377
			c0,67.027-54.338,121.363-121.365,121.363c-63.27,0-115.22-48.414-120.851-110.212L359.658,12.553z"/>
		<path fill-rule="evenodd" clip-rule="evenodd" fill="#59585B" d="M355.604,12.998c0.621,4.891,0.943,9.875,0.943,14.932
			c0,64.774-52.512,117.284-117.285,117.284c-61.165,0-111.386-46.822-116.795-106.579L355.604,12.998z"/>
		<path fill-rule="evenodd" clip-rule="evenodd" fill="#5A595C" d="M351.547,13.444c0.605,4.743,0.92,9.578,0.92,14.486
			c0,62.52-50.686,113.204-113.205,113.204c-59.063,0-107.554-45.234-112.737-102.946L351.547,13.444z"/>
		<path fill-rule="evenodd" clip-rule="evenodd" fill="#5A595D" d="M347.488,13.891c0.59,4.598,0.896,9.283,0.896,14.04
			c0,60.267-48.855,109.123-109.123,109.123c-56.961,0-103.72-43.643-108.682-99.312L347.488,13.891z"/>
		<path fill-rule="evenodd" clip-rule="evenodd" fill="#5B5A5E" d="M343.432,14.336c0.574,4.45,0.873,8.987,0.873,13.594
			c0,58.015-47.029,105.044-105.043,105.044c-54.858,0-99.886-42.052-104.625-95.678L343.432,14.336z"/>
		<path fill-rule="evenodd" clip-rule="evenodd" fill="#5C5B5E" d="M339.373,14.783c0.561,4.303,0.854,8.691,0.854,13.147
			c0,55.76-45.205,100.964-100.965,100.964c-52.756,0-96.051-40.462-100.567-92.044L339.373,14.783z"/>
		<path fill-rule="evenodd" clip-rule="evenodd" fill="#5C5B5F" d="M335.316,15.229c0.545,4.157,0.828,8.396,0.828,12.701
			c0,53.508-43.375,96.884-96.883,96.884c-50.653,0-92.219-38.871-96.513-88.41L335.316,15.229z"/>
		<path fill-rule="evenodd" clip-rule="evenodd" fill="#5D5C60" d="M331.26,15.676c0.527,4.01,0.805,8.099,0.805,12.253
			c0,51.256-41.551,92.803-92.803,92.803c-48.551,0-88.385-37.28-92.456-84.773L331.26,15.676z"/>
		<path fill-rule="evenodd" clip-rule="evenodd" fill="#5E5D60" d="M327.201,16.123c0.514,3.863,0.783,7.803,0.783,11.808
			c0,49-39.723,88.722-88.723,88.722c-46.448,0-84.553-35.69-88.399-81.14L327.201,16.123z"/>
		<path fill-rule="evenodd" clip-rule="evenodd" fill="#5E5D61" d="M323.143,16.569c0.498,3.717,0.762,7.508,0.762,11.361
			c0,46.748-37.895,84.643-84.643,84.643c-44.344,0-80.719-34.099-84.344-77.506L323.143,16.569z"/>
		<path fill-rule="evenodd" clip-rule="evenodd" fill="#5F5E62" d="M319.086,17.015c0.482,3.569,0.74,7.212,0.74,10.915
			c0,44.494-36.072,80.563-80.564,80.563c-42.243,0-76.883-32.51-80.288-73.874L319.086,17.015z"/>
		<path fill-rule="evenodd" clip-rule="evenodd" fill="#605F62" d="M315.029,17.46c0.467,3.424,0.715,6.917,0.715,10.469
			c0,42.242-34.242,76.485-76.482,76.485c-40.139,0-73.053-30.921-76.229-70.24L315.029,17.46z"/>
		<path fill-rule="evenodd" clip-rule="evenodd" fill="#605F63" d="M310.971,17.907c0.455,3.276,0.693,6.621,0.693,10.023
			c0,39.988-32.418,72.403-72.402,72.403c-38.036,0-69.219-29.328-72.172-66.605L310.971,17.907z"/>
		<path fill-rule="evenodd" clip-rule="evenodd" fill="#616064" d="M306.914,18.353c0.438,3.13,0.672,6.327,0.672,9.578
			c0,37.734-30.59,68.322-68.324,68.322c-35.932,0-65.387-27.739-68.116-62.972L306.914,18.353z"/>
		<path fill-rule="evenodd" clip-rule="evenodd" fill="#626165" d="M302.857,18.799c0.422,2.984,0.646,6.031,0.646,9.131
			c0,35.481-28.762,64.245-64.244,64.245c-33.829,0-61.551-26.149-64.059-59.338L302.857,18.799z"/>
		<path fill-rule="evenodd" clip-rule="evenodd" fill="#626165" d="M298.797,19.246c0.412,2.836,0.629,5.735,0.629,8.685
			c0,33.227-26.938,60.163-60.164,60.163c-31.729,0-57.717-24.559-60-55.703L298.797,19.246z"/>
		<path fill-rule="evenodd" clip-rule="evenodd" fill="#636266" d="M294.74,19.692c0.396,2.689,0.604,5.438,0.604,8.239
			c0,30.972-25.109,56.083-56.082,56.083c-29.625,0-53.883-22.97-55.94-52.072L294.74,19.692z"/>
		<path fill-rule="evenodd" clip-rule="evenodd" fill="#1E1E1E" d="M379.314,25.516L20.336,61.589
			c-3.015,0.304-4.123,1.828-4.123,4.541v231.511c0,4.476,2.408,4.011,6.872,4.322l355.607,24.799
			c4.467,0.313,6.27-0.412,6.27-4.894V30.018C384.963,27.087,383.771,25.069,379.314,25.516"/>
		<path fill-rule="evenodd" clip-rule="evenodd" fill="#555459" d="M379.414,26.488L20.436,62.563
			c-2.364,0.237-3.243,1.213-3.243,3.568v231.511c0,0.771,0.055,2.012,0.709,2.558c0.45,0.375,1.22,0.497,1.785,0.563
			c1.137,0.132,2.321,0.146,3.47,0.228l355.605,24.798c1.156,0.081,3.391,0.233,4.336-0.597c0.818-0.718,0.887-2.327,0.887-3.322
			V30.018C383.984,26.886,382.42,26.187,379.414,26.488"/>
		<path fill-rule="evenodd" clip-rule="evenodd" fill="#B7B7B7" d="M19.232,291.044c0.214,0.061,0.53,0.099,0.68,0.116
			c1.118,0.132,2.256,0.142,3.377,0.22l355.609,22.856c0.59,0.039,2.34,0.147,2.898-0.12c0.209-0.376,0.234-1.482,0.234-1.851
			V30.018c0-0.288-0.033-1.206-0.289-1.425c-0.357-0.306-1.715-0.203-2.137-0.159L20.63,64.506c-1.33,0.134-1.485,0.289-1.485,1.625
			v223.851C19.146,290.203,19.155,290.742,19.232,291.044"/>
		<polygon fill-rule="evenodd" clip-rule="evenodd" fill="#1F1F1F" points="305.717,360.99 305.717,374.605 251.764,384.861 
			251.764,381.739 293.676,369.255 293.676,359.812 		"/>
		<polygon fill-rule="evenodd" clip-rule="evenodd" fill="#B4B4B6" points="251.764,381.739 57.349,360.337 57.349,363.109 
			251.764,384.861 		"/>
		<polygon fill-rule="evenodd" clip-rule="evenodd" fill="#636266" points="293.676,369.255 102.832,350.972 57.349,360.337 
			251.764,381.739 		"/>
		<polygon fill-rule="evenodd" clip-rule="evenodd" fill="#3A393A" points="102.832,350.975 102.832,342.23 293.676,359.812 
			293.676,369.255 		"/>
		<path fill-rule="evenodd" clip-rule="evenodd" fill="#1E1E1E" d="M18.382,297.804c0.055,0.33,0.203,1.201,0.651,1.502
			c0.448,0.377,1.222,0.498,1.783,0.563c1.139,0.134,2.323,0.149,3.47,0.228l355.608,24.8c0.906,0.063,2.496,0.184,3.582-0.18
			c0.188-0.331,0.309-0.729,0.385-1.143L18.382,297.804z"/>
		<path fill-rule="evenodd" clip-rule="evenodd" fill="#B7B7B7" d="M17.25,298.693c0.055,0.33,0.202,1.204,0.651,1.506
			c0.449,0.373,1.22,0.496,1.782,0.563c1.139,0.134,2.324,0.147,3.47,0.228l355.607,24.798c1.154,0.081,3.412,0.256,4.336-0.597
			c0.318-0.294,0.369-0.457,0.477-0.666L17.25,298.693z"/>
		<path fill-rule="evenodd" clip-rule="evenodd" fill="#1E1E1E" d="M19.146,62.812c-1.402,0.453-1.953,1.454-1.953,3.319v231.512
			c0,0.771,0.055,2.013,0.708,2.557c0.318,0.264,0.794,0.402,1.245,0.484V62.812z"/>
		<path fill-rule="evenodd" clip-rule="evenodd" fill="#0A0A0A" d="M382.031,297.704l-7.467,16.252l4.334,0.279
			c0.59,0.042,2.34,0.148,2.898-0.118c0.209-0.377,0.234-1.485,0.234-1.852V297.704z"/>
		<path fill-rule="evenodd" clip-rule="evenodd" fill="#0D0D0D" d="M382.031,281.841l-14.545,31.662l11.412,0.733
			c0.59,0.039,2.34,0.147,2.898-0.12c0.209-0.376,0.234-1.482,0.234-1.851V281.841z"/>
		<polygon fill-rule="evenodd" clip-rule="evenodd" fill="#101010" points="378.412,314.204 382.031,306.326 382.031,265.977 
			360.406,313.046 		"/>
		<polygon fill-rule="evenodd" clip-rule="evenodd" fill="#131313" points="371.334,313.748 382.031,290.462 382.031,250.112 
			353.328,312.592 		"/>
		<polygon fill-rule="evenodd" clip-rule="evenodd" fill="#161616" points="364.254,313.293 382.031,274.6 382.031,234.251 
			346.252,312.138 		"/>
		<polygon fill-rule="evenodd" clip-rule="evenodd" fill="#191919" points="357.176,312.838 382.031,258.736 382.031,218.386 
			339.172,311.682 		"/>
		<polygon fill-rule="evenodd" clip-rule="evenodd" fill="#1C1C1C" points="350.098,312.385 382.031,242.872 382.031,202.522 
			332.092,311.227 		"/>
		<polygon fill-rule="evenodd" clip-rule="evenodd" fill="#1F1F1F" points="343.018,311.93 382.031,227.009 382.031,186.657 
			325.014,310.771 		"/>
		<polygon fill-rule="evenodd" clip-rule="evenodd" fill="#212121" points="335.939,311.474 382.031,211.146 382.031,170.795 
			317.936,310.316 		"/>
		<polygon fill-rule="evenodd" clip-rule="evenodd" fill="#242424" points="328.859,311.02 382.031,195.28 382.031,154.93 
			310.855,309.861 		"/>
		<polygon fill-rule="evenodd" clip-rule="evenodd" fill="#272727" points="321.781,310.564 382.031,179.416 382.031,139.066 
			303.777,309.407 		"/>
		<polygon fill-rule="evenodd" clip-rule="evenodd" fill="#2A2A2A" points="314.703,310.109 382.031,163.553 382.031,123.203 
			296.697,308.952 		"/>
		<polygon fill-rule="evenodd" clip-rule="evenodd" fill="#2D2D2D" points="307.623,309.653 382.033,147.688 382.033,107.338 
			289.619,308.497 		"/>
		<polygon fill-rule="evenodd" clip-rule="evenodd" fill="#303030" points="300.545,309.199 382.031,131.826 382.031,91.476 
			282.541,308.043 		"/>
		<polygon fill-rule="evenodd" clip-rule="evenodd" fill="#333333" points="293.465,308.744 382.031,115.961 382.031,75.613 
			275.461,307.587 		"/>
		<polygon fill-rule="evenodd" clip-rule="evenodd" fill="#363636" points="286.389,308.29 382.031,100.099 382.031,59.748 
			268.383,307.133 		"/>
		<polygon fill-rule="evenodd" clip-rule="evenodd" fill="#393939" points="279.311,307.833 382.031,84.232 382.031,43.885 
			261.303,306.677 		"/>
		<path fill-rule="evenodd" clip-rule="evenodd" fill="#3C3C3C" d="M272.23,307.379L382.031,68.372V30.018
			c0-0.281-0.033-1.161-0.27-1.409L254.225,306.222L272.23,307.379z"/>
		<path fill-rule="evenodd" clip-rule="evenodd" fill="#3F3F3F" d="M265.152,306.925L382.031,52.507V30.018
			c0-0.288-0.033-1.206-0.289-1.425c-0.357-0.306-1.715-0.203-2.137-0.159l-5.297,0.53L247.146,305.766L265.152,306.925z"/>
		<path fill-rule="evenodd" clip-rule="evenodd" fill="#424242" d="M258.072,306.47L382.031,36.643v-6.625
			c0-0.29-0.033-1.208-0.289-1.426c-0.357-0.303-1.713-0.202-2.137-0.159l-12.938,1.3l-126.602,275.58L258.072,306.47z"/>
		<polygon fill-rule="evenodd" clip-rule="evenodd" fill="#454545" points="250.994,306.014 378.463,28.547 359.029,30.501 
			232.988,304.856 		"/>
		<polygon fill-rule="evenodd" clip-rule="evenodd" fill="#484848" points="243.916,305.559 370.822,29.315 351.389,31.268 
			225.908,304.402 		"/>
		<polygon fill-rule="evenodd" clip-rule="evenodd" fill="#4B4B4B" points="236.836,305.104 363.182,30.083 343.748,32.036 
			218.83,303.946 		"/>
		<polygon fill-rule="evenodd" clip-rule="evenodd" fill="#4D4D4D" points="229.758,304.649 355.541,30.851 336.105,32.804 
			211.752,303.492 		"/>
		<polygon fill-rule="evenodd" clip-rule="evenodd" fill="#505050" points="222.678,304.194 347.9,31.619 328.467,33.572 
			204.671,303.038 		"/>
		<polygon fill-rule="evenodd" clip-rule="evenodd" fill="#535353" points="215.6,303.739 340.26,32.386 320.826,34.34 
			197.593,302.582 		"/>
		<polygon fill-rule="evenodd" clip-rule="evenodd" fill="#565656" points="208.519,303.284 332.619,33.154 313.186,35.107 
			190.513,302.127 		"/>
		<polygon fill-rule="evenodd" clip-rule="evenodd" fill="#595959" points="201.441,302.83 324.979,33.922 305.543,35.876 
			183.437,301.671 		"/>
		<polygon fill-rule="evenodd" clip-rule="evenodd" fill="#5C5C5C" points="194.361,302.375 317.34,34.69 297.904,36.643 
			176.355,301.218 		"/>
		<polygon fill-rule="evenodd" clip-rule="evenodd" fill="#5F5F5F" points="187.283,301.92 309.697,35.457 290.264,37.411 
			169.277,300.764 		"/>
		<polygon fill-rule="evenodd" clip-rule="evenodd" fill="#626262" points="180.205,301.464 302.057,36.225 282.623,38.179 
			162.199,300.308 		"/>
		<polygon fill-rule="evenodd" clip-rule="evenodd" fill="#656565" points="173.125,301.01 294.416,36.994 274.982,38.945 
			155.121,299.852 		"/>
		<polygon fill-rule="evenodd" clip-rule="evenodd" fill="#686868" points="166.046,300.555 286.775,37.761 267.34,39.714 
			148.042,299.397 		"/>
		<polygon fill-rule="evenodd" clip-rule="evenodd" fill="#6B6B6B" points="158.966,300.101 279.137,38.529 259.699,40.481 
			140.962,298.943 		"/>
		<polygon fill-rule="evenodd" clip-rule="evenodd" fill="#6E6E6E" points="151.888,299.644 271.494,39.297 252.059,41.25 
			133.884,298.487 		"/>
		<polygon fill-rule="evenodd" clip-rule="evenodd" fill="#717171" points="144.81,299.189 263.854,40.064 244.42,42.018 
			126.804,298.033 		"/>
		<polygon fill-rule="evenodd" clip-rule="evenodd" fill="#747474" points="137.729,298.735 256.213,40.833 236.779,42.786 
			119.726,297.577 		"/>
		<polygon fill-rule="evenodd" clip-rule="evenodd" fill="#767676" points="130.651,298.28 248.572,41.601 229.137,43.554 
			112.647,297.122 		"/>
		<polygon fill-rule="evenodd" clip-rule="evenodd" fill="#797979" points="123.571,297.825 240.93,42.369 221.498,44.32 
			105.566,296.669 		"/>
		<polygon fill-rule="evenodd" clip-rule="evenodd" fill="#7C7C7C" points="116.494,297.369 233.289,43.136 213.855,45.088 
			98.487,296.213 		"/>
		<polygon fill-rule="evenodd" clip-rule="evenodd" fill="#7F7F7F" points="109.415,296.915 225.65,43.904 206.216,45.858 
			91.41,295.757 		"/>
		<polygon fill-rule="evenodd" clip-rule="evenodd" fill="#828282" points="102.337,296.46 218.01,44.671 198.574,46.624 
			84.332,295.303 		"/>
		<polygon fill-rule="evenodd" clip-rule="evenodd" fill="#858585" points="95.258,296.005 210.369,45.438 190.935,47.393 
			77.252,294.849 		"/>
		<polygon fill-rule="evenodd" clip-rule="evenodd" fill="#888888" points="88.179,295.552 202.726,46.207 183.292,48.161 
			70.172,294.393 		"/>
		<polygon fill-rule="evenodd" clip-rule="evenodd" fill="#8B8B8B" points="81.099,295.096 195.087,46.975 175.654,48.928 
			63.095,293.938 		"/>
		<polygon fill-rule="evenodd" clip-rule="evenodd" fill="#8E8E8E" points="74.021,294.64 187.447,47.742 168.013,49.695 
			56.014,293.482 		"/>
		<polygon fill-rule="evenodd" clip-rule="evenodd" fill="#919191" points="66.941,294.186 179.804,48.511 160.373,50.464 
			48.937,293.027 		"/>
		<polygon fill-rule="evenodd" clip-rule="evenodd" fill="#949494" points="59.864,293.73 172.166,49.279 152.73,51.231 
			41.857,292.574 		"/>
		<polygon fill-rule="evenodd" clip-rule="evenodd" fill="#979797" points="52.783,293.274 164.525,50.046 145.089,51.999 
			34.78,292.118 		"/>
		<polygon fill-rule="evenodd" clip-rule="evenodd" fill="#9A9A9A" points="45.705,292.82 156.884,50.813 137.451,52.766 
			27.7,291.664 		"/>
		<path fill-rule="evenodd" clip-rule="evenodd" fill="#9D9D9D" d="M38.625,292.364L149.244,51.582l-19.435,1.952L20.612,291.229
			c0.891,0.07,1.789,0.09,2.679,0.151L38.625,292.364z"/>
		<path fill-rule="evenodd" clip-rule="evenodd" fill="#A0A0A0" d="M31.548,291.911L141.603,52.351l-19.435,1.951L19.146,278.556
			v11.426c0,0.222,0.01,0.76,0.086,1.063c0.215,0.061,0.531,0.099,0.681,0.116c1.119,0.132,2.256,0.141,3.377,0.22L31.548,291.911z"
			/>
		<path fill-rule="evenodd" clip-rule="evenodd" fill="#A2A2A2" d="M24.467,291.457l109.494-238.34l-19.433,1.953L19.146,262.691
			v27.291c0,0.221,0.01,0.759,0.087,1.063c0.214,0.061,0.53,0.097,0.681,0.114c1.117,0.133,2.255,0.141,3.378,0.22L24.467,291.457z"
			/>
		<polygon fill-rule="evenodd" clip-rule="evenodd" fill="#A5A5A5" points="19.146,287.177 126.321,53.883 106.887,55.839 
			19.146,246.827 		"/>
		<polygon fill-rule="evenodd" clip-rule="evenodd" fill="#A8A8A8" points="19.146,271.313 118.682,54.653 99.248,56.606 
			19.146,230.963 		"/>
		<polygon fill-rule="evenodd" clip-rule="evenodd" fill="#ABABAB" points="19.146,255.45 111.041,55.421 91.605,57.374 
			19.146,215.1 		"/>
		<polygon fill-rule="evenodd" clip-rule="evenodd" fill="#AEAEAE" points="19.146,239.587 103.398,56.188 83.966,58.142 
			19.146,199.235 		"/>
		<polygon fill-rule="evenodd" clip-rule="evenodd" fill="#B1B1B1" points="19.146,223.723 95.76,56.956 76.325,58.908 
			19.146,183.372 		"/>
		<polygon fill-rule="evenodd" clip-rule="evenodd" fill="#B4B4B4" points="19.146,207.859 88.118,57.725 68.684,59.678 
			19.146,167.508 		"/>
		<polygon fill-rule="evenodd" clip-rule="evenodd" fill="#B7B7B7" points="19.146,191.994 80.479,58.493 61.044,60.445 
			19.146,151.644 		"/>
	</g>
	<g>
		<g>
			<rect x="176.355" y="50.813" fill-rule="evenodd" clip-rule="evenodd" fill="#FFFFFF" width="0.975" height="246.556"/>
			
				<rect x="21.056" y="172.868" transform="matrix(0.9994 -0.0349 0.0349 0.9994 -5.9273 7.0773)" fill-rule="evenodd" clip-rule="evenodd" fill="#FFFFFF" width="357.406" height="0.907"/>
		</g>
		<g>
			<g>
				<path fill="#FFFFFF" d="M91.397,108.822c-0.048,0.002-0.072,0.004-0.12,0.007c-2.712,1.506-4.067,2.255-6.779,3.748
					c-0.408-1.464-0.612-2.193-1.02-3.655c3.408-1.869,5.112-2.811,8.52-4.703c1.8-0.104,2.699-0.156,4.499-0.26
					c0,12.119,0.001,24.239-0.001,36.358c-2.04,0.06-3.059,0.09-5.099,0.15C91.397,129.918,91.397,119.37,91.397,108.822z"/>
				<path fill="#FFFFFF" d="M272.657,135.12c0-1.375,0-2.062,0-3.437c1.656-1.758,2.485-2.639,4.142-4.407
					c9.96-10.429,14.489-16.13,14.52-22.418c0.021-4.233-1.92-8.079-7.74-7.758c-3.54,0.195-6.479,2.275-8.279,3.964
					c-0.672-1.546-1.008-2.318-1.68-3.86c2.699-2.569,6.539-4.583,11.039-4.846c8.399-0.49,11.939,5.511,11.939,11.526
					c0,7.762-5.22,14.296-13.439,23.043c-1.248,1.274-1.872,1.91-3.12,3.179c0,0.051,0,0.077,0,0.128
					c7.008-0.229,10.512-0.343,17.52-0.572c0,1.89,0,2.834,0,4.725C287.598,134.68,282.617,134.826,272.657,135.12z"/>
				<path fill="#FFFFFF" d="M81.198,245.71c1.5,0.965,4.979,2.538,8.64,2.74c6.779,0.375,8.867-3.555,8.819-6.57
					c-0.081-5.08-4.979-7.503-10.079-7.728c-1.176-0.052-1.764-0.08-2.94-0.132c0-1.464,0-2.194,0-3.658
					c1.176,0.049,1.763,0.072,2.939,0.121c3.84,0.158,8.7-1.491,8.7-5.801c0-2.911-1.978-5.546-6.838-5.702
					c-3.119-0.101-6.121,1.077-7.801,2.127c-0.552-1.436-0.828-2.152-1.379-3.584c2.04-1.318,5.999-2.589,10.199-2.467
					c7.68,0.223,11.16,4.597,11.16,9.037c0,3.766-2.399,6.874-7.199,8.291c0,0.045,0,0.066,0,0.111
					c4.8,1.099,8.699,4.648,8.699,9.769c0,5.853-4.86,10.688-14.22,10.141c-4.38-0.256-8.22-1.753-10.14-3.021
					C80.334,247.916,80.622,247.183,81.198,245.71z"/>
				<path fill="#FFFFFF" d="M288.979,263.322c0-4.556,0-6.833,0-11.389c-7.248-0.363-10.871-0.546-18.119-0.909
					c0-1.475,0-2.213,0-3.688c5.847-8.589,11.648-17.208,17.398-25.861c2.28,0.067,3.418,0.101,5.698,0.168
					c0,10.433,0,15.648,0,26.082c2.184,0.103,3.278,0.155,5.462,0.259c0,1.789,0,2.684,0,4.473
					c-2.184-0.109-3.278-0.164-5.462-0.273c0,4.571,0,6.855,0,11.427C291.964,263.495,290.971,263.438,288.979,263.322z
					 M288.979,247.492c0-5.586,0-8.377,0-13.962c0-2.187,0.06-4.372,0.18-6.557c-0.072-0.002-0.107-0.004-0.18-0.006
					c-1.2,2.404-2.16,4.168-3.24,6.054c-3.816,5.533-5.726,8.281-9.542,13.74c0,0.051,0,0.075,0,0.126
					C281.309,247.129,283.866,247.251,288.979,247.492z"/>
			</g>
		</g>
	</g>
</g>
<g>
</g>
<g>
</g>
<g>
</g>
<g>
</g>
<g>
</g>
<g>
</g>
</svg>
