<?xml version="1.0" encoding="utf-8"?>
<!-- Generator: Adobe Illustrator 16.0.0, SVG Export Plug-In . SVG Version: 6.00 Build 0)  -->
<!DOCTYPE svg PUBLIC "-//W3C//DTD SVG 1.0//EN" "http://www.w3.org/TR/2001/REC-SVG-20010904/DTD/svg10.dtd">
<svg version="1.0" id="orta_kisim" xmlns="http://www.w3.org/2000/svg" xmlns:xlink="http://www.w3.org/1999/xlink" x="0px" y="0px"
	 width="418px" height="388px" viewBox="0 0 418 388" enable-background="new 0 0 418 388" xml:space="preserve">
<g>
	<g>
		<path fill-rule="evenodd" clip-rule="evenodd" fill="#5F5F5F" d="M405.363,6.518l-2.26-0.969L20.15,48.944
			c-3.324,0.376-4.551,2.019-4.551,5.012v274.852c0,4.944,2.668,1.985,7.588,2.466l381.493,37.292
			c4.922,0.481,6.92-0.456,6.92-5.402V11.487C411.6,8.254,409.91,8.466,405.363,6.518"/>
		<path fill-rule="evenodd" clip-rule="evenodd" fill="#B4B4B6" d="M399.299,5.219L14.085,47.644
			c-3.327,0.366-4.552,2.019-4.552,5.013v274.851c0,4.945,2.664,4.322,7.587,4.772l381.493,34.984
			c4.924,0.451,6.922-0.455,6.922-5.4V10.188C405.535,6.954,404.215,4.677,399.299,5.219"/>
		<path fill-rule="evenodd" clip-rule="evenodd" fill="#1E1E1E" d="M396.699,5.651L11.484,48.078
			c-3.326,0.367-4.551,2.018-4.551,5.011v269.418c0,4.945,2.659,4.395,7.588,4.774l381.492,32.468
			c4.926,0.421,6.922-0.452,6.922-5.401V10.622C402.936,7.387,401.615,5.109,396.699,5.651"/>
		<path fill-rule="evenodd" clip-rule="evenodd" fill="#555459" d="M394.43,6.839L10.95,49.007
			c-3.325,0.366-4.549,2.021-4.549,5.012v268.066c0,4.939,2.656,4.392,7.585,4.771l379.76,34.083
			c4.918,0.443,6.918-0.456,6.918-5.402V11.809C400.664,8.575,399.344,6.299,394.43,6.839"/>
		<path fill-rule="evenodd" clip-rule="evenodd" fill="#2D2D2D" d="M394.43,6.839L10.95,49.007
			c-3.325,0.366-4.549,2.021-4.549,5.012v268.066c0,4.939,2.656,4.392,7.585,4.771l379.76,34.083
			c4.918,0.443,6.918-0.456,6.918-5.402V11.809C400.664,8.575,399.344,6.299,394.43,6.839"/>
		<path fill-rule="evenodd" clip-rule="evenodd" fill="#2E2E2E" d="M394.43,6.839L10.95,49.007
			c-3.325,0.366-4.549,2.021-4.549,5.012v268.066c0,4.939,2.656,4.392,7.585,4.771l379.76,34.083
			c4.918,0.443,6.918-0.456,6.918-5.402V11.809C400.664,8.575,399.344,6.299,394.43,6.839"/>
		<path fill-rule="evenodd" clip-rule="evenodd" fill="#2E2E2E" d="M10.547,326.63c-1.352-1.034-2.714-2.058-4.049-3.112
			c-0.064-0.416-0.097-0.891-0.097-1.433V54.02c0-2.993,1.225-4.648,4.552-5.013L394.428,6.84c4.916-0.541,6.236,1.734,6.236,4.969
			v343.727c0,4.949-2,5.846-6.92,5.404L13.988,326.855C12.679,326.755,11.528,326.719,10.547,326.63"/>
		<path fill-rule="evenodd" clip-rule="evenodd" fill="#2F2F2F" d="M18.12,327.226c-3.968-2.93-7.873-5.94-11.718-9.023V54.02
			c0-2.993,1.224-4.648,4.549-5.013L394.43,6.84c4.914-0.541,6.234,1.734,6.234,4.969v343.727c0,4.949-2,5.846-6.918,5.404
			L18.12,327.226z"/>
		<path fill-rule="evenodd" clip-rule="evenodd" fill="#303030" d="M26.022,327.936c-6.714-4.771-13.25-9.774-19.622-14.972V54.019
			c0-2.992,1.225-4.646,4.552-5.012L394.428,6.839c4.916-0.54,6.236,1.736,6.236,4.968v343.729c0,4.946-2.002,5.846-6.92,5.402
			L26.022,327.936z"/>
		<path fill-rule="evenodd" clip-rule="evenodd" fill="#303031" d="M400.664,355.17c-3.793,1.851-7.621,3.637-11.486,5.36
			L34.25,328.676c-9.621-6.562-18.916-13.566-27.849-20.987V54.02c0-2.993,1.225-4.646,4.552-5.013L394.43,6.839
			c4.914-0.54,6.234,1.736,6.234,4.97V355.17z"/>
		<path fill-rule="evenodd" clip-rule="evenodd" fill="#313131" d="M400.664,350.613c-6.547,3.241-13.197,6.307-19.959,9.157
			L42.763,329.438c-12.695-8.28-24.835-17.332-36.362-27.094V54.019c0-2.991,1.225-4.646,4.552-5.012L394.43,6.839
			c4.914-0.539,6.234,1.734,6.234,4.97V350.613z"/>
		<path fill-rule="evenodd" clip-rule="evenodd" fill="#323232" d="M400.664,346.058c-9.379,4.707-18.982,9.031-28.807,12.917
			L51.613,330.233c-15.947-9.908-31.068-21.017-45.213-33.231V54.019c0-2.991,1.225-4.646,4.552-5.012L394.43,6.839
			c4.914-0.539,6.234,1.734,6.234,4.97V346.058z"/>
		<path fill-rule="evenodd" clip-rule="evenodd" fill="#323233" d="M400.664,341.5c-12.297,6.263-25.006,11.829-38.08,16.643
			l-301.715-27.08c-19.42-11.444-37.653-24.681-54.469-39.497V54.02c0-2.993,1.225-4.646,4.552-5.013L394.43,6.839
			c4.914-0.54,6.234,1.736,6.234,4.97V341.5z"/>
		<path fill-rule="evenodd" clip-rule="evenodd" fill="#333333" d="M400.664,336.908c-15.318,7.918-31.293,14.743-47.826,20.359
			L70.61,331.937C47.471,319.078,25.94,303.685,6.4,286.112V54.019c0-2.992,1.225-4.646,4.552-5.012L394.43,6.839
			c4.914-0.54,6.234,1.736,6.234,4.968V336.908z"/>
		<path fill-rule="evenodd" clip-rule="evenodd" fill="#343434" d="M400.664,332.295c-18.479,9.694-37.936,17.782-58.195,24.043
			l-261.53-23.474C53.786,318.739,28.739,301.121,6.4,280.599V54.02c0-2.992,1.225-4.646,4.552-5.013L394.43,6.839
			c4.914-0.54,6.234,1.736,6.234,4.97V332.295z"/>
		<path fill-rule="evenodd" clip-rule="evenodd" fill="#343435" d="M400.664,327.681c-21.822,11.623-45.049,20.949-69.367,27.654
			L91.985,333.856C60.46,318.644,31.634,298.723,6.4,275.023V54.019c0-2.992,1.225-4.646,4.552-5.012L394.43,6.839
			c4.914-0.54,6.234,1.736,6.234,4.968V327.681z"/>
		<path fill-rule="evenodd" clip-rule="evenodd" fill="#353535" d="M400.664,323.067c-25.385,13.73-52.729,24.288-81.502,31.177
			l-215.026-19.299c-36.4-16.061-69.435-38.35-97.735-65.539V54.02c0-2.992,1.225-4.646,4.552-5.013L394.43,6.839
			c4.914-0.54,6.234,1.736,6.234,4.97V323.067z"/>
		<path fill-rule="evenodd" clip-rule="evenodd" fill="#363636" d="M400.664,318.408c-29.273,16.087-61.221,27.908-95.012,34.624
			l-188.118-16.883C75.668,319.566,37.962,294.75,6.4,263.704V54.02c0-2.993,1.225-4.646,4.552-5.013L394.43,6.839
			c4.914-0.54,6.234,1.736,6.234,4.97V318.408z"/>
		<path fill-rule="evenodd" clip-rule="evenodd" fill="#363637" d="M400.664,313.733c-33.67,18.805-70.969,31.892-110.598,37.9
			l-156.95-14.086C84.824,320.943,41.604,293.438,6.4,257.959V54.02c0-2.993,1.225-4.648,4.552-5.013L394.43,6.84
			c4.914-0.541,6.234,1.734,6.234,4.969V313.733z"/>
		<path fill-rule="evenodd" clip-rule="evenodd" fill="#373738" d="M400.664,309.06c-39.051,22.166-83.131,36.484-130.107,40.822
			l-118.188-10.605C96.062,323.51,45.929,292.979,6.4,252.119V54.02c0-2.993,1.225-4.648,4.552-5.013L394.43,6.84
			c4.914-0.541,6.234,1.734,6.234,4.969V309.06z"/>
		<path fill-rule="evenodd" clip-rule="evenodd" fill="#383738" d="M400.664,304.368c-47.059,27.167-101.645,42.75-159.865,42.844
			l-58.798-5.276C113.358,329.356,52.345,294.972,6.4,246.215V54.02c0-2.993,1.225-4.648,4.552-5.013L394.43,6.84
			c4.914-0.541,6.234,1.734,6.234,4.969V304.368z"/>
		<path fill-rule="evenodd" clip-rule="evenodd" fill="#383839" d="M400.664,299.629c-47.064,27.643-101.877,43.509-160.404,43.509
			c-92.57,0-175.87-39.663-233.859-102.909V54.02c0-2.993,1.225-4.646,4.552-5.013L394.43,6.84c4.914-0.541,6.234,1.734,6.234,4.969
			V299.629z"/>
		<path fill-rule="evenodd" clip-rule="evenodd" fill="#39393A" d="M400.664,294.889c-46.916,28.039-101.773,44.171-160.404,44.171
			c-92.997,0-176.508-40.557-233.859-104.93V54.019c0-2.991,1.225-4.646,4.552-5.012L394.43,6.839
			c4.914-0.539,6.234,1.734,6.234,4.97V294.889z"/>
		<path fill-rule="evenodd" clip-rule="evenodd" fill="#3A393A" d="M400.664,290.144c-46.76,28.449-101.668,44.835-160.404,44.835
			c-93.438,0-177.188-41.469-233.859-107.005V54.02c0-2.993,1.225-4.646,4.552-5.013L394.43,6.84
			c4.914-0.541,6.234,1.734,6.234,4.967V290.144z"/>
		<path fill-rule="evenodd" clip-rule="evenodd" fill="#3A3A3B" d="M400.664,285.333c-46.602,28.877-101.549,45.565-160.404,45.565
			c-93.922,0-177.917-42.472-233.859-109.243V54.019c0-2.991,1.225-4.646,4.552-5.012L394.43,6.839
			c4.914-0.539,6.234,1.734,6.234,4.97V285.333z"/>
		<path fill-rule="evenodd" clip-rule="evenodd" fill="#3B3B3C" d="M400.664,280.522c-46.434,29.316-101.43,46.296-160.404,46.296
			c-94.435,0-178.694-43.519-233.859-111.582V54.019c0-2.991,1.225-4.646,4.552-5.012L394.43,6.839
			c4.914-0.54,6.234,1.736,6.234,4.97V280.522z"/>
		<path fill-rule="evenodd" clip-rule="evenodd" fill="#3C3B3C" d="M400.664,275.698c-46.256,29.767-101.309,47.04-160.404,47.04
			c-94.978,0-179.532-44.616-233.859-114.028V54.019c0-2.992,1.225-4.646,4.552-5.012L394.43,6.839
			c4.914-0.54,6.234,1.736,6.234,4.968V275.698z"/>
		<path fill-rule="evenodd" clip-rule="evenodd" fill="#3C3C3D" d="M400.664,270.813c-46.07,30.239-101.178,47.844-160.404,47.844
			c-95.568,0-180.433-45.806-233.859-116.653V54.019c0-2.992,1.225-4.646,4.552-5.012L394.43,6.839
			c4.914-0.54,6.234,1.736,6.234,4.968V270.813z"/>
		<path fill-rule="evenodd" clip-rule="evenodd" fill="#3D3D3E" d="M400.664,265.929c-45.875,30.723-101.045,48.65-160.404,48.65
			c-96.209,0-181.409-47.083-233.859-119.45V54.019c0-2.991,1.225-4.646,4.552-5.012L394.43,6.839
			c4.914-0.54,6.234,1.736,6.234,4.97V265.929z"/>
		<path fill-rule="evenodd" clip-rule="evenodd" fill="#3E3D3F" d="M400.664,260.997c-45.67,31.227-100.9,49.502-160.404,49.502
			c-96.898,0-182.47-48.445-233.859-122.424V54.02c0-2.993,1.225-4.646,4.552-5.013L394.43,6.839c4.914-0.54,6.234,1.736,6.234,4.97
			V260.997z"/>
		<path fill-rule="evenodd" clip-rule="evenodd" fill="#3E3E3F" d="M400.664,256.033c-45.459,31.748-100.75,50.386-160.404,50.386
			c-97.647,0-183.63-49.913-233.859-125.602V54.019c0-2.992,1.225-4.646,4.552-5.012L394.43,6.839
			c4.914-0.54,6.234,1.736,6.234,4.968V256.033z"/>
		<path fill-rule="evenodd" clip-rule="evenodd" fill="#3F3F40" d="M400.664,251.054c-45.23,32.286-100.596,51.284-160.404,51.284
			c-98.468,0-184.897-51.5-233.859-129.025V54.019c0-2.991,1.225-4.646,4.552-5.012L394.43,6.839
			c4.914-0.539,6.234,1.734,6.234,4.97V251.054z"/>
		<path fill-rule="evenodd" clip-rule="evenodd" fill="#403F41" d="M400.664,246.006c-44.994,32.849-100.428,52.252-160.404,52.252
			c-99.374,0-186.302-53.236-233.859-132.736V54.019c0-2.991,1.225-4.646,4.552-5.012L394.43,6.839
			c4.914-0.539,6.234,1.734,6.234,4.97V246.006z"/>
		<path fill-rule="evenodd" clip-rule="evenodd" fill="#404041" d="M400.664,240.954c-44.74,33.431-100.26,53.225-160.404,53.225
			c-100.379,0-187.867-55.147-233.859-136.788V54.019c0-2.991,1.225-4.646,4.552-5.012L394.43,6.839
			c4.914-0.54,6.234,1.736,6.234,4.97V240.954z"/>
		<path fill-rule="evenodd" clip-rule="evenodd" fill="#414142" d="M400.664,235.816c-44.475,34.041-100.07,54.281-160.404,54.281
			c-101.507,0-189.625-57.261-233.859-141.235V54.019c0-2.991,1.225-4.646,4.552-5.012L394.43,6.839
			c4.914-0.539,6.234,1.734,6.234,4.97V235.816z"/>
		<path fill-rule="evenodd" clip-rule="evenodd" fill="#424143" d="M400.664,230.678c-44.188,34.667-99.881,55.339-160.404,55.339
			c-102.778,0-191.621-59.62-233.859-146.16V54.02c0-2.993,1.225-4.646,4.552-5.013L394.43,6.84
			c4.914-0.541,6.234,1.734,6.234,4.969V230.678z"/>
		<path fill-rule="evenodd" clip-rule="evenodd" fill="#424244" d="M400.664,225.443c-43.893,35.334-99.672,56.495-160.404,56.495
			c-104.245,0-193.928-62.315-233.859-151.72V54.019c0-2.992,1.225-4.646,4.552-5.012L394.43,6.839
			c4.914-0.54,6.234,1.736,6.234,4.968V225.443z"/>
		<path fill-rule="evenodd" clip-rule="evenodd" fill="#434344" d="M400.664,220.2c-43.57,36.015-99.459,57.656-160.404,57.656
			c-105.971,0-196.646-65.436-233.859-158.101V54.019c0-2.991,1.225-4.646,4.552-5.01L394.43,6.839
			c4.914-0.54,6.234,1.736,6.234,4.97V220.2z"/>
		<path fill-rule="evenodd" clip-rule="evenodd" fill="#444345" d="M400.664,214.855c-43.232,36.74-99.223,58.923-160.404,58.923
			c-108.054,0-199.942-69.156-233.859-165.616V54.019c0-2.991,1.225-4.646,4.552-5.012L394.43,6.839
			c4.914-0.54,6.234,1.736,6.234,4.97V214.855z"/>
		<path fill-rule="evenodd" clip-rule="evenodd" fill="#444446" d="M400.664,209.477c-42.867,37.494-98.979,60.222-160.404,60.222
			C129.581,269.698,36.146,195.93,6.4,94.881V54.019c0-2.991,1.225-4.646,4.552-5.01L394.43,6.839
			c4.914-0.539,6.234,1.734,6.234,4.97V209.477z"/>
		<path fill-rule="evenodd" clip-rule="evenodd" fill="#454546" d="M400.664,204.023c-42.479,38.282-98.717,61.596-160.404,61.596
			c-114.267,0-209.844-79.966-233.859-186.986V54.02c0-2.993,1.225-4.646,4.552-5.013L394.43,6.84
			c4.914-0.541,6.234,1.734,6.234,4.969V204.023z"/>
		<path fill-rule="evenodd" clip-rule="evenodd" fill="#464547" d="M400.664,198.482c-42.061,39.117-98.432,63.054-160.404,63.054
			C119.865,261.536,20.574,171.23,6.4,54.662V54.02c0-2.993,1.225-4.646,4.552-5.013L394.43,6.84
			c4.914-0.541,6.234,1.734,6.234,4.969V198.482z"/>
		<path fill-rule="evenodd" clip-rule="evenodd" fill="#464648" d="M400.664,192.877c-41.611,39.991-98.133,64.582-160.404,64.582
			c-120.018,0-218.704-91.326-230.367-208.276c0.326-0.074,0.679-0.133,1.06-0.176L394.43,6.839c4.914-0.54,6.234,1.736,6.234,4.968
			V192.877z"/>
		<path fill-rule="evenodd" clip-rule="evenodd" fill="#474748" d="M400.664,187.175c-41.127,40.913-97.809,66.201-160.404,66.201
			c-117.937,0-214.901-89.765-226.315-204.697L394.43,6.839c4.914-0.539,6.234,1.734,6.234,4.97V187.175z"/>
		<path fill-rule="evenodd" clip-rule="evenodd" fill="#484749" d="M400.664,181.355c-40.602,41.895-97.457,67.941-160.404,67.941
			C124.426,249.297,29.192,161.122,18,48.231L394.43,6.839c4.914-0.54,6.234,1.736,6.234,4.97V181.355z"/>
		<path fill-rule="evenodd" clip-rule="evenodd" fill="#48484A" d="M400.664,175.432c-40.029,42.931-97.076,69.787-160.404,69.787
			c-113.73,0-207.233-86.587-218.204-197.432L394.43,6.839c4.914-0.54,6.234,1.736,6.234,4.97V175.432z"/>
		<path fill-rule="evenodd" clip-rule="evenodd" fill="#49484B" d="M400.664,169.387c-39.406,44.032-96.662,71.749-160.404,71.749
			c-111.629,0-203.399-84.993-214.147-193.796L394.43,6.839c4.914-0.54,6.234,1.736,6.234,4.97V169.387z"/>
		<path fill-rule="evenodd" clip-rule="evenodd" fill="#4A494B" d="M400.664,163.198c-38.723,45.205-96.213,73.858-160.404,73.858
			c-109.525,0-199.566-83.403-210.091-190.162L394.43,6.839c4.914-0.54,6.234,1.736,6.234,4.97V163.198z"/>
		<path fill-rule="evenodd" clip-rule="evenodd" fill="#4A4A4C" d="M400.664,156.841c-37.969,46.465-95.717,76.135-160.404,76.135
			c-107.423,0-195.732-81.813-206.035-186.529L394.43,6.84c4.914-0.541,6.234,1.734,6.234,4.969V156.841z"/>
		<path fill-rule="evenodd" clip-rule="evenodd" fill="#4B4A4D" d="M400.664,150.292c-37.133,47.823-95.17,78.605-160.404,78.605
			c-105.319,0-191.897-80.222-201.976-182.895L394.43,6.84c4.914-0.541,6.234,1.734,6.234,4.967V150.292z"/>
		<path fill-rule="evenodd" clip-rule="evenodd" fill="#4C4B4D" d="M400.664,143.518c-36.197,49.293-94.559,81.298-160.404,81.298
			c-103.217,0-188.065-78.631-197.921-179.259L394.43,6.839c4.914-0.54,6.234,1.736,6.234,4.97V143.518z"/>
		<path fill-rule="evenodd" clip-rule="evenodd" fill="#4C4C4E" d="M400.664,136.481c-35.145,50.895-93.873,84.256-160.404,84.256
			c-101.114,0-184.229-77.042-193.865-175.628L394.43,6.839c4.914-0.54,6.234,1.736,6.234,4.968V136.481z"/>
		<path fill-rule="evenodd" clip-rule="evenodd" fill="#4D4C4F" d="M400.664,129.148c-33.947,52.646-93.104,87.509-160.404,87.509
			c-99.012,0-180.396-75.452-189.81-171.994L394.43,6.839c4.914-0.54,6.234,1.736,6.234,4.97V129.148z"/>
		<path fill-rule="evenodd" clip-rule="evenodd" fill="#4E4D4F" d="M400.664,121.396c-32.566,54.601-92.209,91.179-160.404,91.179
			c-96.91,0-176.562-73.86-185.751-168.358L394.43,6.839c4.914-0.54,6.234,1.736,6.234,4.97V121.396z"/>
		<path fill-rule="evenodd" clip-rule="evenodd" fill="#4E4E50" d="M400.664,113.181c-30.953,56.783-91.176,95.314-160.404,95.314
			c-94.806,0-172.728-72.271-181.695-164.723L394.43,6.839c4.914-0.539,6.234,1.734,6.234,4.97V113.181z"/>
		<path fill-rule="evenodd" clip-rule="evenodd" fill="#4F4E51" d="M400.664,104.282c-29.018,59.296-89.938,100.134-160.404,100.134
			c-92.705,0-168.893-70.68-177.639-161.09L394.43,6.839c4.914-0.54,6.234,1.734,6.234,4.97V104.282z"/>
		<path fill-rule="evenodd" clip-rule="evenodd" fill="#504F52" d="M400.664,94.496c-26.637,62.233-88.424,105.842-160.404,105.842
			c-90.601,0-165.06-69.091-173.583-157.458L394.43,6.839c4.914-0.539,6.234,1.734,6.234,4.97V94.496z"/>
		<path fill-rule="evenodd" clip-rule="evenodd" fill="#505052" d="M400.664,83.321c-23.557,65.831-86.477,112.935-160.404,112.935
			c-88.499,0-161.225-67.499-169.527-153.823L394.43,6.839c4.914-0.539,6.234,1.734,6.234,4.97V83.321z"/>
		<path fill-rule="evenodd" clip-rule="evenodd" fill="#515053" d="M400.664,69.726c-19.223,70.565-83.748,122.449-160.404,122.449
			c-86.395,0-157.391-65.907-165.471-150.188L394.43,6.839c4.914-0.54,6.234,1.736,6.234,4.97V69.726z"/>
		<path fill-rule="evenodd" clip-rule="evenodd" fill="#525154" d="M400.664,49.869c-11.572,78.208-78.977,138.228-160.404,138.228
			c-84.294,0-153.558-64.32-161.412-146.555L394.43,6.839c4.914-0.54,6.234,1.734,6.234,4.97V49.869z"/>
		<path fill-rule="evenodd" clip-rule="evenodd" fill="#525254" d="M397.199,6.876c0.75,6.247,1.146,12.604,1.146,19.053
			c0,87.308-70.775,158.086-158.086,158.086c-82.191,0-149.724-62.728-157.357-142.92L394.43,6.839
			C395.521,6.718,396.438,6.738,397.199,6.876"/>
		<path fill-rule="evenodd" clip-rule="evenodd" fill="#535255" d="M393.105,6.985c0.762,6.209,1.16,12.529,1.16,18.944
			c0,85.056-68.949,154.006-154.006,154.006c-80.088,0-145.891-61.138-153.3-139.287L393.105,6.985z"/>
		<path fill-rule="evenodd" clip-rule="evenodd" fill="#545356" d="M389.051,7.431c0.744,6.064,1.135,12.235,1.135,18.5
			c0,82.801-67.123,149.925-149.926,149.925c-77.985,0-142.056-59.547-149.242-135.652L389.051,7.431z"/>
		<path fill-rule="evenodd" clip-rule="evenodd" fill="#545457" d="M384.994,7.876c0.729,5.916,1.113,11.941,1.113,18.054
			c0,80.547-65.299,145.845-145.848,145.845c-75.882,0-138.223-57.956-145.187-132.018L384.994,7.876z"/>
		<path fill-rule="evenodd" clip-rule="evenodd" fill="#555457" d="M380.938,8.323c0.717,5.769,1.086,11.645,1.086,17.608
			c0,78.294-63.467,141.764-141.764,141.764c-73.78,0-134.386-56.366-141.131-128.383L380.938,8.323z"/>
		<path fill-rule="evenodd" clip-rule="evenodd" fill="#565558" d="M376.883,8.769c0.697,5.623,1.063,11.349,1.063,17.162
			c0,76.04-61.645,137.684-137.686,137.684c-71.679,0-130.554-54.776-137.074-124.75L376.883,8.769z"/>
		<path fill-rule="evenodd" clip-rule="evenodd" fill="#565659" d="M372.828,9.214c0.682,5.476,1.039,11.056,1.039,16.716
			c0,73.789-59.818,133.604-133.605,133.604c-69.576,0-126.721-53.186-133.02-121.116L372.828,9.214z"/>
		<path fill-rule="evenodd" clip-rule="evenodd" fill="#575659" d="M368.771,9.66c0.668,5.329,1.016,10.759,1.016,16.271
			c0,71.535-57.992,129.524-129.525,129.524c-67.474,0-122.888-51.596-128.964-117.483L368.771,9.66z"/>
		<path fill-rule="evenodd" clip-rule="evenodd" fill="#58575A" d="M364.715,10.106c0.652,5.182,0.992,10.464,0.992,15.824
			c0,69.281-56.166,125.444-125.445,125.444c-65.37,0-119.054-50.004-124.908-113.848L364.715,10.106z"/>
		<path fill-rule="evenodd" clip-rule="evenodd" fill="#58585B" d="M360.658,10.553c0.639,5.036,0.969,10.168,0.969,15.377
			c0,67.027-54.338,121.363-121.365,121.363c-63.27,0-115.22-48.414-120.851-110.212L360.658,10.553z"/>
		<path fill-rule="evenodd" clip-rule="evenodd" fill="#59585B" d="M356.604,10.998c0.621,4.891,0.943,9.875,0.943,14.932
			c0,64.774-52.512,117.284-117.285,117.284c-61.165,0-111.386-46.822-116.795-106.579L356.604,10.998z"/>
		<path fill-rule="evenodd" clip-rule="evenodd" fill="#5A595C" d="M352.547,11.444c0.605,4.743,0.92,9.578,0.92,14.486
			c0,62.52-50.686,113.204-113.205,113.204c-59.063,0-107.554-45.234-112.737-102.946L352.547,11.444z"/>
		<path fill-rule="evenodd" clip-rule="evenodd" fill="#5A595D" d="M348.488,11.891c0.59,4.598,0.896,9.283,0.896,14.04
			c0,60.267-48.855,109.123-109.123,109.123c-56.962,0-103.72-43.643-108.682-99.312L348.488,11.891z"/>
		<path fill-rule="evenodd" clip-rule="evenodd" fill="#5B5A5E" d="M344.432,12.336c0.574,4.45,0.873,8.987,0.873,13.594
			c0,58.015-47.029,105.043-105.043,105.043c-54.858,0-99.886-42.051-104.625-95.677L344.432,12.336z"/>
		<path fill-rule="evenodd" clip-rule="evenodd" fill="#5C5B5E" d="M340.373,12.783c0.561,4.303,0.854,8.691,0.854,13.147
			c0,55.76-45.205,100.963-100.965,100.963c-52.756,0-96.051-40.462-100.567-92.043L340.373,12.783z"/>
		<path fill-rule="evenodd" clip-rule="evenodd" fill="#5C5B5F" d="M336.316,13.229c0.545,4.157,0.828,8.396,0.828,12.701
			c0,53.508-43.375,96.883-96.883,96.883c-50.652,0-92.219-38.871-96.513-88.41L336.316,13.229z"/>
		<path fill-rule="evenodd" clip-rule="evenodd" fill="#5D5C60" d="M332.26,13.676c0.527,4.01,0.805,8.099,0.805,12.253
			c0,51.256-41.551,92.803-92.803,92.803c-48.551,0-88.386-37.28-92.456-84.773L332.26,13.676z"/>
		<path fill-rule="evenodd" clip-rule="evenodd" fill="#5E5D60" d="M328.201,14.123c0.514,3.863,0.783,7.803,0.783,11.808
			c0,49-39.723,88.722-88.723,88.722c-46.447,0-84.553-35.69-88.398-81.14L328.201,14.123z"/>
		<path fill-rule="evenodd" clip-rule="evenodd" fill="#5E5D61" d="M324.143,14.569c0.498,3.717,0.762,7.508,0.762,11.361
			c0,46.748-37.895,84.643-84.643,84.643c-44.345,0-80.719-34.1-84.344-77.506L324.143,14.569z"/>
		<path fill-rule="evenodd" clip-rule="evenodd" fill="#5F5E62" d="M320.086,15.015c0.482,3.569,0.74,7.212,0.74,10.915
			c0,44.494-36.072,80.563-80.564,80.563c-42.242,0-76.884-32.51-80.287-73.874L320.086,15.015z"/>
		<path fill-rule="evenodd" clip-rule="evenodd" fill="#605F62" d="M316.029,15.46c0.467,3.424,0.715,6.917,0.715,10.469
			c0,42.242-34.242,76.485-76.482,76.485c-40.139,0-73.053-30.921-76.229-70.24L316.029,15.46z"/>
		<path fill-rule="evenodd" clip-rule="evenodd" fill="#605F63" d="M311.971,15.907c0.455,3.276,0.693,6.621,0.693,10.023
			c0,39.988-32.418,72.403-72.402,72.403c-38.036,0-69.219-29.328-72.173-66.605L311.971,15.907z"/>
		<path fill-rule="evenodd" clip-rule="evenodd" fill="#616064" d="M307.914,16.353c0.438,3.13,0.672,6.327,0.672,9.578
			c0,37.734-30.59,68.322-68.324,68.322c-35.933,0-65.387-27.739-68.116-62.972L307.914,16.353z"/>
		<path fill-rule="evenodd" clip-rule="evenodd" fill="#626165" d="M303.857,16.799c0.422,2.984,0.646,6.031,0.646,9.131
			c0,35.481-28.762,64.245-64.244,64.245c-33.829,0-61.551-26.149-64.059-59.338L303.857,16.799z"/>
		<path fill-rule="evenodd" clip-rule="evenodd" fill="#626165" d="M299.797,17.246c0.412,2.836,0.629,5.735,0.629,8.685
			c0,33.227-26.938,60.163-60.164,60.163c-31.729,0-57.717-24.559-60-55.703L299.797,17.246z"/>
		<path fill-rule="evenodd" clip-rule="evenodd" fill="#636266" d="M295.74,17.692c0.396,2.689,0.604,5.438,0.604,8.239
			c0,30.972-25.109,56.083-56.082,56.083c-29.625,0-53.883-22.97-55.94-52.072L295.74,17.692z"/>
		<path fill-rule="evenodd" clip-rule="evenodd" fill="#1E1E1E" d="M380.314,23.516L21.336,59.589
			c-3.015,0.304-4.123,1.828-4.123,4.541v231.511c0,4.476,2.408,4.011,6.872,4.322l355.607,24.799
			c4.467,0.313,6.27-0.412,6.27-4.894V28.018C385.963,25.087,384.771,23.069,380.314,23.516"/>
		<path fill-rule="evenodd" clip-rule="evenodd" fill="#555459" d="M380.414,24.488L21.436,60.563
			c-2.364,0.237-3.243,1.213-3.243,3.568v231.511c0,0.771,0.055,2.012,0.709,2.558c0.45,0.375,1.22,0.497,1.785,0.563
			c1.137,0.132,2.321,0.146,3.47,0.228l355.605,24.798c1.156,0.081,3.391,0.233,4.336-0.597c0.818-0.718,0.887-2.327,0.887-3.322
			V28.018C384.984,24.886,383.42,24.187,380.414,24.488"/>
		<path fill-rule="evenodd" clip-rule="evenodd" fill="#B7B7B7" d="M20.232,289.044c0.214,0.061,0.53,0.099,0.68,0.116
			c1.118,0.132,2.256,0.142,3.377,0.22l355.609,22.856c0.59,0.039,2.34,0.147,2.898-0.12c0.209-0.376,0.234-1.482,0.234-1.851
			V28.018c0-0.288-0.033-1.206-0.289-1.425c-0.357-0.306-1.715-0.203-2.137-0.159L21.63,62.506c-1.33,0.134-1.485,0.289-1.485,1.625
			v223.851C20.146,288.203,20.155,288.742,20.232,289.044"/>
		<polygon fill-rule="evenodd" clip-rule="evenodd" fill="#1F1F1F" points="306.717,358.99 306.717,372.605 252.764,382.861 
			252.764,379.739 294.676,367.255 294.676,357.812 		"/>
		<polygon fill-rule="evenodd" clip-rule="evenodd" fill="#B4B4B6" points="252.764,379.739 58.349,358.337 58.349,361.109 
			252.764,382.861 		"/>
		<polygon fill-rule="evenodd" clip-rule="evenodd" fill="#636266" points="294.676,367.255 103.832,348.972 58.349,358.337 
			252.764,379.739 		"/>
		<polygon fill-rule="evenodd" clip-rule="evenodd" fill="#3A393A" points="103.832,348.975 103.832,340.23 294.676,357.812 
			294.676,367.255 		"/>
		<path fill-rule="evenodd" clip-rule="evenodd" fill="#1E1E1E" d="M19.382,295.804c0.055,0.33,0.203,1.201,0.651,1.502
			c0.448,0.377,1.222,0.498,1.783,0.563c1.139,0.134,2.323,0.149,3.47,0.228l355.608,24.8c0.906,0.063,2.496,0.184,3.582-0.18
			c0.188-0.331,0.309-0.729,0.385-1.143L19.382,295.804z"/>
		<path fill-rule="evenodd" clip-rule="evenodd" fill="#B7B7B7" d="M18.25,296.693c0.055,0.33,0.202,1.204,0.651,1.506
			c0.449,0.373,1.22,0.496,1.782,0.563c1.139,0.134,2.324,0.147,3.47,0.228l355.607,24.798c1.154,0.081,3.412,0.256,4.336-0.597
			c0.318-0.294,0.369-0.457,0.477-0.666L18.25,296.693z"/>
		<path fill-rule="evenodd" clip-rule="evenodd" fill="#1E1E1E" d="M20.146,60.812c-1.402,0.453-1.953,1.454-1.953,3.319v231.512
			c0,0.771,0.055,2.013,0.708,2.557c0.318,0.264,0.794,0.402,1.245,0.484V60.812z"/>
		<path fill-rule="evenodd" clip-rule="evenodd" fill="#0A0A0A" d="M383.031,295.704l-7.467,16.252l4.334,0.279
			c0.59,0.042,2.34,0.148,2.898-0.118c0.209-0.377,0.234-1.485,0.234-1.852V295.704z"/>
		<path fill-rule="evenodd" clip-rule="evenodd" fill="#0D0D0D" d="M383.031,279.841l-14.545,31.662l11.412,0.733
			c0.59,0.039,2.34,0.147,2.898-0.12c0.209-0.376,0.234-1.482,0.234-1.851V279.841z"/>
		<polygon fill-rule="evenodd" clip-rule="evenodd" fill="#101010" points="379.412,312.204 383.031,304.326 383.031,263.977 
			361.406,311.046 		"/>
		<polygon fill-rule="evenodd" clip-rule="evenodd" fill="#131313" points="372.334,311.748 383.031,288.462 383.031,248.112 
			354.328,310.592 		"/>
		<polygon fill-rule="evenodd" clip-rule="evenodd" fill="#161616" points="365.254,311.293 383.031,272.6 383.031,232.251 
			347.252,310.138 		"/>
		<polygon fill-rule="evenodd" clip-rule="evenodd" fill="#191919" points="358.176,310.838 383.031,256.736 383.031,216.386 
			340.172,309.682 		"/>
		<polygon fill-rule="evenodd" clip-rule="evenodd" fill="#1C1C1C" points="351.098,310.385 383.031,240.872 383.031,200.522 
			333.092,309.227 		"/>
		<polygon fill-rule="evenodd" clip-rule="evenodd" fill="#1F1F1F" points="344.018,309.93 383.031,225.009 383.031,184.657 
			326.014,308.771 		"/>
		<polygon fill-rule="evenodd" clip-rule="evenodd" fill="#212121" points="336.939,309.474 383.031,209.146 383.031,168.794 
			318.936,308.316 		"/>
		<polygon fill-rule="evenodd" clip-rule="evenodd" fill="#242424" points="329.859,309.02 383.031,193.281 383.031,152.93 
			311.855,307.861 		"/>
		<polygon fill-rule="evenodd" clip-rule="evenodd" fill="#272727" points="322.781,308.564 383.031,177.417 383.031,137.066 
			304.777,307.407 		"/>
		<polygon fill-rule="evenodd" clip-rule="evenodd" fill="#2A2A2A" points="315.703,308.109 383.031,161.552 383.031,121.203 
			297.697,306.952 		"/>
		<polygon fill-rule="evenodd" clip-rule="evenodd" fill="#2D2D2D" points="308.623,307.653 383.033,145.688 383.033,105.338 
			290.619,306.497 		"/>
		<polygon fill-rule="evenodd" clip-rule="evenodd" fill="#303030" points="301.545,307.199 383.031,129.826 383.031,89.476 
			283.541,306.043 		"/>
		<polygon fill-rule="evenodd" clip-rule="evenodd" fill="#333333" points="294.465,306.744 383.031,113.961 383.031,73.613 
			276.461,305.587 		"/>
		<polygon fill-rule="evenodd" clip-rule="evenodd" fill="#363636" points="287.389,306.29 383.031,98.099 383.031,57.748 
			269.383,305.133 		"/>
		<polygon fill-rule="evenodd" clip-rule="evenodd" fill="#393939" points="280.311,305.833 383.031,82.232 383.031,41.885 
			262.303,304.677 		"/>
		<path fill-rule="evenodd" clip-rule="evenodd" fill="#3C3C3C" d="M273.23,305.379L383.031,66.372V28.018
			c0-0.281-0.033-1.161-0.27-1.409L255.225,304.222L273.23,305.379z"/>
		<path fill-rule="evenodd" clip-rule="evenodd" fill="#3F3F3F" d="M266.152,304.925L383.031,50.507V28.018
			c0-0.288-0.033-1.206-0.289-1.425c-0.357-0.306-1.715-0.203-2.137-0.159l-5.297,0.53L248.146,303.766L266.152,304.925z"/>
		<path fill-rule="evenodd" clip-rule="evenodd" fill="#424242" d="M259.072,304.47L383.031,34.643v-6.625
			c0-0.29-0.033-1.208-0.289-1.426c-0.357-0.303-1.713-0.202-2.137-0.159l-12.938,1.3l-126.602,275.58L259.072,304.47z"/>
		<polygon fill-rule="evenodd" clip-rule="evenodd" fill="#454545" points="251.994,304.014 379.463,26.547 360.029,28.501 
			233.988,302.856 		"/>
		<polygon fill-rule="evenodd" clip-rule="evenodd" fill="#484848" points="244.916,303.559 371.822,27.315 352.389,29.268 
			226.908,302.402 		"/>
		<polygon fill-rule="evenodd" clip-rule="evenodd" fill="#4B4B4B" points="237.836,303.104 364.182,28.083 344.748,30.036 
			219.83,301.946 		"/>
		<polygon fill-rule="evenodd" clip-rule="evenodd" fill="#4D4D4D" points="230.758,302.649 356.541,28.851 337.105,30.804 
			212.752,301.492 		"/>
		<polygon fill-rule="evenodd" clip-rule="evenodd" fill="#505050" points="223.678,302.194 348.9,29.619 329.467,31.572 
			205.671,301.038 		"/>
		<polygon fill-rule="evenodd" clip-rule="evenodd" fill="#535353" points="216.6,301.739 341.26,30.386 321.826,32.34 
			198.594,300.582 		"/>
		<polygon fill-rule="evenodd" clip-rule="evenodd" fill="#565656" points="209.519,301.284 333.619,31.154 314.186,33.107 
			191.514,300.127 		"/>
		<polygon fill-rule="evenodd" clip-rule="evenodd" fill="#595959" points="202.441,300.83 325.979,31.922 306.543,33.876 
			184.437,299.671 		"/>
		<polygon fill-rule="evenodd" clip-rule="evenodd" fill="#5C5C5C" points="195.36,300.375 318.34,32.69 298.904,34.643 
			177.355,299.218 		"/>
		<polygon fill-rule="evenodd" clip-rule="evenodd" fill="#5F5F5F" points="188.283,299.92 310.697,33.457 291.264,35.411 
			170.277,298.764 		"/>
		<polygon fill-rule="evenodd" clip-rule="evenodd" fill="#626262" points="181.204,299.464 303.057,34.225 283.623,36.179 
			163.198,298.308 		"/>
		<polygon fill-rule="evenodd" clip-rule="evenodd" fill="#656565" points="174.125,299.01 295.416,34.994 275.982,36.945 
			156.12,297.852 		"/>
		<polygon fill-rule="evenodd" clip-rule="evenodd" fill="#686868" points="167.046,298.555 287.775,35.761 268.34,37.714 
			149.042,297.397 		"/>
		<polygon fill-rule="evenodd" clip-rule="evenodd" fill="#6B6B6B" points="159.967,298.101 280.137,36.529 260.699,38.481 
			141.962,296.943 		"/>
		<polygon fill-rule="evenodd" clip-rule="evenodd" fill="#6E6E6E" points="152.888,297.644 272.494,37.297 253.059,39.25 
			134.884,296.487 		"/>
		<polygon fill-rule="evenodd" clip-rule="evenodd" fill="#717171" points="145.81,297.189 264.854,38.064 245.42,40.018 
			127.804,296.033 		"/>
		<polygon fill-rule="evenodd" clip-rule="evenodd" fill="#747474" points="138.729,296.735 257.213,38.833 237.779,40.786 
			120.726,295.577 		"/>
		<polygon fill-rule="evenodd" clip-rule="evenodd" fill="#767676" points="131.651,296.28 249.572,39.601 230.137,41.554 
			113.647,295.122 		"/>
		<polygon fill-rule="evenodd" clip-rule="evenodd" fill="#797979" points="124.571,295.825 241.93,40.369 222.498,42.32 
			106.566,294.669 		"/>
		<polygon fill-rule="evenodd" clip-rule="evenodd" fill="#7C7C7C" points="117.494,295.369 234.289,41.136 214.855,43.088 
			99.487,294.213 		"/>
		<polygon fill-rule="evenodd" clip-rule="evenodd" fill="#7F7F7F" points="110.415,294.915 226.65,41.904 207.217,43.858 
			92.41,293.757 		"/>
		<polygon fill-rule="evenodd" clip-rule="evenodd" fill="#828282" points="103.337,294.46 219.01,42.671 199.574,44.624 
			85.332,293.303 		"/>
		<polygon fill-rule="evenodd" clip-rule="evenodd" fill="#858585" points="96.258,294.005 211.369,43.438 191.936,45.393 
			78.251,292.849 		"/>
		<polygon fill-rule="evenodd" clip-rule="evenodd" fill="#888888" points="89.179,293.552 203.727,44.207 184.293,46.161 
			71.171,292.393 		"/>
		<polygon fill-rule="evenodd" clip-rule="evenodd" fill="#8B8B8B" points="82.099,293.096 196.088,44.975 176.653,46.928 
			64.095,291.938 		"/>
		<polygon fill-rule="evenodd" clip-rule="evenodd" fill="#8E8E8E" points="75.021,292.64 188.447,45.742 169.013,47.695 
			57.014,291.482 		"/>
		<polygon fill-rule="evenodd" clip-rule="evenodd" fill="#919191" points="67.941,292.186 180.805,46.511 161.372,48.464 
			49.937,291.027 		"/>
		<polygon fill-rule="evenodd" clip-rule="evenodd" fill="#949494" points="60.864,291.73 173.165,47.279 153.73,49.231 
			42.857,290.574 		"/>
		<polygon fill-rule="evenodd" clip-rule="evenodd" fill="#979797" points="53.783,291.274 165.525,48.046 146.09,49.999 
			35.78,290.118 		"/>
		<polygon fill-rule="evenodd" clip-rule="evenodd" fill="#9A9A9A" points="46.705,290.82 157.885,48.813 138.451,50.766 
			28.7,289.664 		"/>
		<path fill-rule="evenodd" clip-rule="evenodd" fill="#9D9D9D" d="M39.625,290.364L150.243,49.582l-19.435,1.952L21.612,289.229
			c0.891,0.07,1.789,0.09,2.679,0.151L39.625,290.364z"/>
		<path fill-rule="evenodd" clip-rule="evenodd" fill="#A0A0A0" d="M32.548,289.911L142.603,50.351l-19.435,1.951L20.146,276.556
			v11.426c0,0.222,0.01,0.76,0.086,1.063c0.215,0.061,0.531,0.099,0.681,0.116c1.119,0.132,2.256,0.141,3.377,0.22L32.548,289.911z"
			/>
		<path fill-rule="evenodd" clip-rule="evenodd" fill="#A2A2A2" d="M25.467,289.457l109.494-238.34l-19.433,1.953L20.146,260.691
			v27.291c0,0.221,0.01,0.759,0.087,1.063c0.214,0.061,0.53,0.097,0.681,0.114c1.117,0.133,2.255,0.141,3.378,0.22L25.467,289.457z"
			/>
		<polygon fill-rule="evenodd" clip-rule="evenodd" fill="#A5A5A5" points="20.146,285.177 127.321,51.883 107.887,53.839 
			20.146,244.827 		"/>
		<polygon fill-rule="evenodd" clip-rule="evenodd" fill="#A8A8A8" points="20.146,269.313 119.682,52.653 100.248,54.606 
			20.146,228.963 		"/>
		<polygon fill-rule="evenodd" clip-rule="evenodd" fill="#ABABAB" points="20.146,253.45 112.041,53.421 92.605,55.374 
			20.146,213.1 		"/>
		<polygon fill-rule="evenodd" clip-rule="evenodd" fill="#AEAEAE" points="20.146,237.587 104.398,54.188 84.966,56.142 
			20.146,197.235 		"/>
		<polygon fill-rule="evenodd" clip-rule="evenodd" fill="#B1B1B1" points="20.146,221.723 96.76,54.956 77.325,56.908 
			20.146,181.372 		"/>
		<polygon fill-rule="evenodd" clip-rule="evenodd" fill="#B4B4B4" points="20.146,205.859 89.118,55.725 69.684,57.678 
			20.146,165.508 		"/>
		<polygon fill-rule="evenodd" clip-rule="evenodd" fill="#B7B7B7" points="20.146,189.995 81.479,56.493 62.044,58.445 
			20.146,149.644 		"/>
	</g>
	<g>
		<polyline stroke="#FFFFFF" stroke-miterlimit="10" points="157.051,166.553 157.133,193.796 145.484,194.164 145.455,184.401 
			125.477,185.033 125.506,194.796 114.045,195.158 113.963,167.916 125.424,167.553 125.457,178.689 145.436,178.057 
			145.402,166.921 157.051,166.553 		"/>
		<path stroke="#FFFFFF" stroke-miterlimit="10" d="M193.943,172.172l-32.081,1.015l0.024-6.786l35.428-1.121
			c2.103-0.066,3.919,0.575,5.428,1.925c1.521,1.349,2.284,3.02,2.29,5.002l0.039,12.916c0.006,1.997-0.747,3.711-2.26,5.147
			c-1.5,1.445-3.313,2.186-5.415,2.252l-35.428,1.121l-0.094-16.106l11.093-0.351l0.069,9.336l20.947-0.662L193.943,172.172"/>
		<path stroke="#FFFFFF" stroke-miterlimit="10" d="M261.75,165.348c1.5,1.34,2.259,3.011,2.265,4.994l0.061,20.083l-11.093,0.351
			l-0.062-20.449l-10.558,0.334l0.062,20.449l-11.037,0.349l-0.062-20.449l-10.567,0.334l0.062,20.449l-11.099,0.351l-0.082-27.254
			l46.697-1.477C258.449,163.346,260.25,163.988,261.75,165.348"/>
		<polyline stroke="#FFFFFF" stroke-miterlimit="10" points="280.183,180.14 280.212,189.903 268.766,190.265 268.684,163.022 
			280.13,162.661 280.163,173.796 280.139,177.465 280.183,180.14 		"/>
	</g>
</g>
<g>
</g>
<g>
</g>
<g>
</g>
<g>
</g>
<g>
</g>
<g>
</g>
</svg>
