<?xml version="1.0" encoding="utf-8"?>
<!-- Generator: Adobe Illustrator 19.0.0, SVG Export Plug-In . SVG Version: 6.00 Build 0)  -->
<svg version="1.1" id="Layer_1" xmlns="http://www.w3.org/2000/svg" xmlns:xlink="http://www.w3.org/1999/xlink" x="0px" y="0px"
	 viewBox="0 0 50.4 33.5" style="enable-background:new 0 0 50.4 33.5;" xml:space="preserve">
<style type="text/css">
	.st0{fill:#F1F0F1;}
</style>
<g>
	<path class="st0" d="M27.9,33.5c-0.3,0-0.5-0.1-0.8-0.2L0.8,18.1C0.3,17.8,0,17.3,0,16.7c0-0.6,0.3-1.1,0.8-1.4L27.1,0.2
		c0.5-0.3,1.1-0.3,1.6,0c0.5,0.3,0.8,0.8,0.8,1.4V11L48.1,0.2c0.5-0.3,1.1-0.3,1.6,0c0.5,0.3,0.8,0.8,0.8,1.4v30.4
		c0,0.6-0.3,1.1-0.8,1.4c-0.5,0.3-1.1,0.3-1.6,0L29.4,22.5v9.4c0,0.6-0.3,1.1-0.8,1.4C28.4,33.4,28.1,33.5,27.9,33.5z M27.9,18.3
		c0.3,0,0.5,0.1,0.8,0.2l18.6,10.8v-25L28.6,15c-0.5,0.3-1.1,0.3-1.6,0c-0.5-0.3-0.8-0.8-0.8-1.4V4.3L4.7,16.7l21.6,12.5v-9.4
		c0-0.6,0.3-1.1,0.8-1.4C27.3,18.3,27.6,18.3,27.9,18.3z"/>
</g>
</svg>
