<?xml version="1.0" encoding="utf-8"?>
<!-- Generator: Adobe Illustrator 19.0.0, SVG Export Plug-In . SVG Version: 6.00 Build 0)  -->
<svg version="1.1" id="Layer_1" xmlns="http://www.w3.org/2000/svg" xmlns:xlink="http://www.w3.org/1999/xlink" x="0px" y="0px"
	 viewBox="0 0 52 52" style="enable-background:new 0 0 52 52;" xml:space="preserve">
<style type="text/css">
	.st0{fill:#F1F0F1;}
</style>
<g>
	<path class="st0" d="M47.1,46.6c-0.3,0-0.5-0.1-0.8-0.2L20,31.2v13.5c0,0.9-0.7,1.6-1.6,1.6H4.9c-0.9,0-1.6-0.7-1.6-1.6V7.2
		c0-0.9,0.7-1.6,1.6-1.6h13.6c0.9,0,1.6,0.7,1.6,1.6v13.5L46.3,5.6c0.5-0.3,1.1-0.3,1.6,0c0.5,0.3,0.8,0.8,0.8,1.4v38.1
		c0,0.6-0.3,1.1-0.8,1.4C47.7,46.6,47.4,46.6,47.1,46.6z M6.4,43.2h10.5V28.5c0-0.6,0.3-1.1,0.8-1.4c0.5-0.3,1.1-0.3,1.6,0
		l26.3,15.2V9.6L19.2,24.8c-0.5,0.3-1.1,0.3-1.6,0s-0.8-0.8-0.8-1.4V8.8H6.4V43.2z"/>
</g>
</svg>
