<?xml version="1.0" encoding="utf-8"?>
<!-- Generator: Adobe Illustrator 19.0.0, SVG Export Plug-In . SVG Version: 6.00 Build 0)  -->
<svg version="1.1" id="Layer_1" xmlns="http://www.w3.org/2000/svg" xmlns:xlink="http://www.w3.org/1999/xlink" x="0px" y="0px"
	 viewBox="0 0 52 52" style="enable-background:new 0 0 52 52;" xml:space="preserve">
<style type="text/css">
	.st0{fill:#F1F0F1;}
</style>
<g>
	<path class="st0" d="M4.9,46.6c-0.3,0-0.5-0.1-0.8-0.2c-0.5-0.3-0.8-0.8-0.8-1.4V6.9c0-0.6,0.3-1.1,0.8-1.4c0.5-0.3,1.1-0.3,1.6,0
		L32,20.8V7.2c0-0.9,0.7-1.6,1.6-1.6h13.6c0.9,0,1.6,0.7,1.6,1.6v37.6c0,0.9-0.7,1.6-1.6,1.6H33.5c-0.9,0-1.6-0.7-1.6-1.6V31.2
		L5.7,46.4C5.4,46.6,5.2,46.6,4.9,46.6z M35.1,43.2h10.5V8.8H35.1v14.7c0,0.6-0.3,1.1-0.8,1.4c-0.5,0.3-1.1,0.3-1.6,0L6.4,9.6v32.7
		l26.3-15.2c0.5-0.3,1.1-0.3,1.6,0c0.5,0.3,0.8,0.8,0.8,1.4V43.2z"/>
</g>
</svg>
