<?xml version="1.0" encoding="utf-8"?>
<!-- Generator: Adobe Illustrator 19.0.0, SVG Export Plug-In . SVG Version: 6.00 Build 0)  -->
<svg version="1.1" id="Layer_1" xmlns="http://www.w3.org/2000/svg" xmlns:xlink="http://www.w3.org/1999/xlink" x="0px" y="0px"
	 viewBox="0 0 50 62" style="enable-background:new 0 0 50 62;" xml:space="preserve">
<style type="text/css">
	.st0{fill:#FFFFFF;}
</style>
<g>
	<path id="XMLID_2_" class="st0" d="M26.2,17.6c1.1-0.6,1.9-1.7,1.9-3c0-1.9-1.5-3.4-3.4-3.4c-1.9,0-3.4,1.5-3.4,3.4
		c0,1.3,0.8,2.5,1.9,3C19.4,48.4,8.5,59.8,8.4,59.9c-0.5,0.5-0.5,1.2,0,1.7c0.5,0.5,1.2,0.5,1.7,0c0.2-0.2,2.1-2.2,4.6-6.5
		c0.1,0.1,0.3,0.1,0.4,0.1h19.4c1.4,2.5,3,4.7,4.8,6.5c0.2,0.2,0.5,0.4,0.9,0.4c0.3,0,0.6-0.1,0.9-0.4c0.5-0.5,0.5-1.2,0-1.7
		C31.2,50.1,27.3,26.2,26.2,17.6L26.2,17.6z M24.7,23.8c0.7,4.6,1.9,10.4,3.6,16.2h-7.3C22.4,35.5,23.7,30.1,24.7,23.8L24.7,23.8z
		 M15.9,52.7c1.4-2.7,2.9-6.1,4.3-10.2h8.7c0.1,0,0.1,0,0.2,0c1.1,3.6,2.5,7.1,4.1,10.3H15.9z M30.9,19.2v-0.8
		c2.5,0,4.6-2.1,4.6-4.6c0-2.5-2.1-4.6-4.6-4.6V8.4c3,0,5.4,2.4,5.4,5.4C36.3,16.8,33.9,19.2,30.9,19.2L30.9,19.2z M33.4,5V4.2
		c5.4,0,9.8,4.4,9.8,9.8c0,5.4-4.4,9.8-9.8,9.8v-0.8c4.9,0,9-4,9-9C42.3,9,38.3,5,33.4,5L33.4,5z M49.4,14.1
		c0,7.8-6.3,14.1-14.1,14.1v-0.8c7.3,0,13.3-6,13.3-13.3c0-7.3-6-13.3-13.3-13.3V0C43.1,0,49.4,6.3,49.4,14.1L49.4,14.1z M14.5,13.9
		c0,2.5,2.1,4.6,4.6,4.6v0.8c-3,0-5.4-2.4-5.4-5.4c0-3,2.4-5.4,5.4-5.4v0.8C16.5,9.3,14.5,11.4,14.5,13.9L14.5,13.9z M16.6,4.3v0.8
		c-4.9,0-9,4-9,9c0,4.9,4,9,9,9v0.8c-5.4,0-9.8-4.4-9.8-9.8C6.9,8.7,11.2,4.3,16.6,4.3L16.6,4.3z M14.7,28.3
		C6.9,28.3,0.6,22,0.6,14.2c0-7.8,6.3-14.1,14.1-14.1v0.8c-7.3,0-13.3,6-13.3,13.3c0,7.3,6,13.3,13.3,13.3V28.3z M14.7,28.3"/>
</g>
</svg>
