<?xml version="1.0" encoding="utf-8"?>
<!-- Generator: Adobe Illustrator 19.0.0, SVG Export Plug-In . SVG Version: 6.00 Build 0)  -->
<svg version="1.1" id="Layer_1" xmlns="http://www.w3.org/2000/svg" xmlns:xlink="http://www.w3.org/1999/xlink" x="0px" y="0px"
	 viewBox="0 0 52 52" style="enable-background:new 0 0 52 52;" xml:space="preserve">
<style type="text/css">
	.st0{fill:#F1F0F1;}
</style>
<g>
	<path class="st0" d="M23.3,42.7c-0.3,0-0.5-0.1-0.8-0.2c-0.5-0.3-0.8-0.8-0.8-1.4v-9.4L3.1,42.5c-0.5,0.3-1.1,0.3-1.6,0
		c-0.5-0.3-0.8-0.8-0.8-1.4V10.8c0-0.6,0.3-1.1,0.8-1.4c0.5-0.3,1.1-0.3,1.6,0l18.6,10.8v-9.4c0-0.6,0.3-1.1,0.8-1.4
		c0.5-0.3,1.1-0.3,1.6,0l26.3,15.2c0.5,0.3,0.8,0.8,0.8,1.4c0,0.6-0.3,1.1-0.8,1.4L24.1,42.5C23.9,42.7,23.6,42.7,23.3,42.7z
		 M3.9,13.5v25l18.6-10.8c0.5-0.3,1.1-0.3,1.6,0c0.5,0.3,0.8,0.8,0.8,1.4v9.4L46.5,26L24.9,13.5v9.4c0,0.6-0.3,1.1-0.8,1.4
		c-0.5,0.3-1.1,0.3-1.6,0L3.9,13.5z"/>
</g>
</svg>
