<?xml version="1.0" encoding="utf-8"?>
<!-- Generator: Adobe Illustrator 19.0.0, SVG Export Plug-In . SVG Version: 6.00 Build 0)  -->
<svg version="1.1" id="Layer_1" xmlns="http://www.w3.org/2000/svg" xmlns:xlink="http://www.w3.org/1999/xlink" x="0px" y="0px"
	 viewBox="0 0 32 32" style="enable-background:new 0 0 32 32;" xml:space="preserve">
<style type="text/css">
	.st0{fill:#FFFFFF;}
</style>
<path id="XMLID_6_" class="st0" d="M31,12.2c-0.1-0.3-0.3-0.5-0.6-0.5l-9.5-1.1l-4.2-8.4c-0.1-0.3-0.4-0.4-0.7-0.4
	c-0.3,0-0.5,0.2-0.7,0.4l-4.2,8.4L1.6,12c-0.3,0-0.5,0.2-0.6,0.5c-0.1,0.3,0,0.6,0.2,0.8L8,20.1l-1.2,9.3c0,0.3,0.1,0.6,0.3,0.7
	c0.2,0.2,0.5,0.2,0.8,0l8.3-4.7l8.2,4.6c0.2,0.1,0.6,0.1,0.8,0c0.2-0.2,0.4-0.4,0.3-0.7l-1.2-9.4l6.5-6.9C31,12.7,31.1,12.4,31,12.2
	z"/>
</svg>
