<?xml version="1.0" encoding="utf-8"?>
<!-- Generator: Adobe Illustrator 19.0.0, SVG Export Plug-In . SVG Version: 6.00 Build 0)  -->
<svg version="1.1" id="Layer_1" xmlns="http://www.w3.org/2000/svg" xmlns:xlink="http://www.w3.org/1999/xlink" x="0px" y="0px"
	 viewBox="0 0 32 32" style="enable-background:new 0 0 32 32;" xml:space="preserve">
<style type="text/css">
	.st0{fill:#FFFFFF;}
</style>
<g>
	<path id="XMLID_4_" class="st0" d="M30.3,26.3l-6.9-6.9c-1,1.6-2.4,3-4,4l6.9,6.9c1.1,1.1,2.9,1.1,4,0
		C31.4,29.2,31.4,27.4,30.3,26.3z"/>
	<path class="st0" d="M23.5,12.2c0-6.3-5.1-11.3-11.3-11.3C6,0.9,0.9,6,0.9,12.2c0,6.3,5.1,11.3,11.3,11.3
		C18.5,23.5,23.5,18.5,23.5,12.2z M12.2,20.7c-4.7,0-8.5-3.8-8.5-8.5c0-4.7,3.8-8.5,8.5-8.5c4.7,0,8.5,3.8,8.5,8.5
		C20.7,16.9,16.9,20.7,12.2,20.7z"/>
	<path id="XMLID_1_" class="st0" d="M5.6,12.2h1.9c0-2.6,2.1-4.7,4.7-4.7V5.6C8.6,5.6,5.6,8.6,5.6,12.2z"/>
</g>
</svg>
