<?xml version="1.0" encoding="UTF-8" standalone="no"?>
<!-- Generator: Adobe Illustrator 19.0.0, SVG Export Plug-In . SVG Version: 6.00 Build 0)  -->

<svg
   xmlns:dc="http://purl.org/dc/elements/1.1/"
   xmlns:cc="http://creativecommons.org/ns#"
   xmlns:rdf="http://www.w3.org/1999/02/22-rdf-syntax-ns#"
   xmlns:svg="http://www.w3.org/2000/svg"
   xmlns="http://www.w3.org/2000/svg"
   xmlns:sodipodi="http://sodipodi.sourceforge.net/DTD/sodipodi-0.dtd"
   xmlns:inkscape="http://www.inkscape.org/namespaces/inkscape"
   version="1.1"
   id="Layer_1"
   x="0px"
   y="0px"
   viewBox="0 0 48 48"
   xml:space="preserve"
   sodipodi:docname="english.svg"
   width="48"
   height="48"
   inkscape:version="0.92.2 5c3e80d, 2017-08-06"><metadata
     id="metadata69"><rdf:RDF><cc:Work
         rdf:about=""><dc:format>image/svg+xml</dc:format><dc:type
           rdf:resource="http://purl.org/dc/dcmitype/StillImage" /><dc:title></dc:title></cc:Work></rdf:RDF></metadata><defs
     id="defs67" /><sodipodi:namedview
     pagecolor="#ffffff"
     bordercolor="#666666"
     borderopacity="1"
     objecttolerance="10"
     gridtolerance="10"
     guidetolerance="10"
     inkscape:pageopacity="0"
     inkscape:pageshadow="2"
     inkscape:window-width="1920"
     inkscape:window-height="1051"
     id="namedview65"
     showgrid="false"
     inkscape:zoom="0.64"
     inkscape:cx="413.91175"
     inkscape:cy="66.412936"
     inkscape:window-x="0"
     inkscape:window-y="0"
     inkscape:window-maximized="1"
     inkscape:current-layer="Layer_1" /><circle
     style="fill:#f0f0f0;stroke-width:0.09374999"
     cx="24"
     cy="24"
     r="23.999998"
     id="circle2" /><g
     id="g20"
     transform="scale(0.09375)"><path
       style="fill:#0052b4"
       d="M 52.92,100.142 C 32.811,126.305 17.648,156.46 8.819,189.219 h 133.178 z"
       id="path4"
       inkscape:connector-curvature="0" /><path
       style="fill:#0052b4"
       d="m 503.181,189.219 c -8.829,-32.758 -23.993,-62.913 -44.101,-89.076 l -89.075,89.076 z"
       id="path6"
       inkscape:connector-curvature="0" /><path
       style="fill:#0052b4"
       d="m 8.819,322.784 c 8.83,32.758 23.993,62.913 44.101,89.075 l 89.074,-89.075 z"
       id="path8"
       inkscape:connector-curvature="0" /><path
       style="fill:#0052b4"
       d="M 411.858,52.921 C 385.695,32.812 355.541,17.649 322.782,8.819 v 133.177 z"
       id="path10"
       inkscape:connector-curvature="0" /><path
       style="fill:#0052b4"
       d="m 100.142,459.079 c 26.163,20.109 56.318,35.272 89.076,44.102 V 370.005 Z"
       id="path12"
       inkscape:connector-curvature="0" /><path
       style="fill:#0052b4"
       d="m 189.217,8.819 c -32.758,8.83 -62.913,23.993 -89.075,44.101 l 89.075,89.075 z"
       id="path14"
       inkscape:connector-curvature="0" /><path
       style="fill:#0052b4"
       d="m 322.783,503.181 c 32.758,-8.83 62.913,-23.993 89.075,-44.101 l -89.075,-89.075 z"
       id="path16"
       inkscape:connector-curvature="0" /><path
       style="fill:#0052b4"
       d="m 370.005,322.784 89.075,89.076 c 20.108,-26.162 35.272,-56.318 44.101,-89.076 z"
       id="path18"
       inkscape:connector-curvature="0" /></g><g
     id="g32"
     transform="scale(0.09375)"><path
       style="fill:#d80027"
       d="m 509.833,222.609 h -220.44 -10e-4 V 2.167 C 278.461,0.744 267.317,0 256,0 244.681,0 233.539,0.744 222.609,2.167 v 220.44 0.001 H 2.167 C 0.744,233.539 0,244.683 0,256 c 0,11.319 0.744,22.461 2.167,33.391 h 220.44 0.001 V 509.833 C 233.539,511.256 244.681,512 256,512 c 11.317,0 22.461,-0.743 33.391,-2.167 v -220.44 -10e-4 H 509.833 C 511.256,278.461 512,267.319 512,256 c 0,-11.317 -0.744,-22.461 -2.167,-33.391 z"
       id="path22"
       inkscape:connector-curvature="0" /><path
       style="fill:#d80027"
       d="m 322.783,322.784 v 0 L 437.019,437.02 c 5.254,-5.252 10.266,-10.743 15.048,-16.435 l -97.802,-97.802 h -31.482 z"
       id="path24"
       inkscape:connector-curvature="0" /><path
       style="fill:#d80027"
       d="m 189.217,322.784 h -0.002 L 74.98,437.019 c 5.252,5.254 10.743,10.266 16.435,15.048 l 97.802,-97.804 z"
       id="path26"
       inkscape:connector-curvature="0" /><path
       style="fill:#d80027"
       d="m 189.217,189.219 v -0.002 L 74.981,74.98 C 69.727,80.232 64.715,85.723 59.933,91.415 l 97.803,97.803 h 31.481 z"
       id="path28"
       inkscape:connector-curvature="0" /><path
       style="fill:#d80027"
       d="m 322.783,189.219 v 0 L 437.02,74.981 C 431.768,69.727 426.277,64.715 420.585,59.934 l -97.802,97.803 z"
       id="path30"
       inkscape:connector-curvature="0" /></g><g
     id="g34"
     transform="translate(0,-464)" /><g
     id="g36"
     transform="translate(0,-464)" /><g
     id="g38"
     transform="translate(0,-464)" /><g
     id="g40"
     transform="translate(0,-464)" /><g
     id="g42"
     transform="translate(0,-464)" /><g
     id="g44"
     transform="translate(0,-464)" /><g
     id="g46"
     transform="translate(0,-464)" /><g
     id="g48"
     transform="translate(0,-464)" /><g
     id="g50"
     transform="translate(0,-464)" /><g
     id="g52"
     transform="translate(0,-464)" /><g
     id="g54"
     transform="translate(0,-464)" /><g
     id="g56"
     transform="translate(0,-464)" /><g
     id="g58"
     transform="translate(0,-464)" /><g
     id="g60"
     transform="translate(0,-464)" /><g
     id="g62"
     transform="translate(0,-464)" /></svg>