<?xml version="1.0" encoding="utf-8"?>
<!-- Generator: Adobe Illustrator 19.0.0, SVG Export Plug-In . SVG Version: 6.00 Build 0)  -->
<svg version="1.1" id="Layer_1" xmlns="http://www.w3.org/2000/svg" xmlns:xlink="http://www.w3.org/1999/xlink" x="0px" y="0px"
	 viewBox="0 0 50 50" style="enable-background:new 0 0 50 50;" xml:space="preserve">
<style type="text/css">
	.st0{fill-rule:evenodd;clip-rule:evenodd;fill:#919396;}
</style>
<g>
	<path id="XMLID_3_" class="st0" d="M40.7,45L40.7,45H9c-0.6,0-1.5-0.4-2.2-1.3c-0.6-0.5-1-1.9-1-3.3c0-1.4,0.3-2.4,1-3.3
		c0.6-1,1.5-1.4,2.2-1.4h31.7c0.9,0,1.6,0.4,2.2,1.4c0.6,0.9,1.3,1.9,1.3,3.3c0,1.4-0.6,2.7-1.3,3.3C42.3,44.6,41.6,45,40.7,45
		L40.7,45z"/>
	<path id="XMLID_2_" class="st0" d="M40.7,14.3L40.7,14.3H9c-0.6,0-1.5-0.5-2.2-1.4c-0.6-0.4-1-1.9-1-3.3c0-1.4,0.3-2.3,1-3.3
		C7.4,5.5,8.4,5,9,5h31.7c0.9,0,1.6,0.5,2.2,1.4c0.6,1,1.3,1.9,1.3,3.3c0,1.4-0.6,2.8-1.3,3.3C42.3,13.8,41.6,14.3,40.7,14.3
		L40.7,14.3z"/>
	<path id="XMLID_1_" class="st0" d="M40.7,30.2L40.7,30.2H9c-0.6,0-1.5-0.4-2.2-1.4c-0.6-1.4-1-2.3-1-3.7c0-1.4,0.3-2.8,1-3.3
		c0.6-0.9,1.5-1.4,2.2-1.4h31.7c0.9,0,1.6,0.5,2.2,1.4c0.6,0.4,1.3,1.9,1.3,3.3c0,1.4-0.6,2.3-1.3,3.3
		C42.3,29.7,41.6,30.2,40.7,30.2L40.7,30.2z"/>
</g>
</svg>
