<?xml version="1.0" encoding="UTF-8" standalone="no"?>
<!-- Generator: Adobe Illustrator 19.0.0, SVG Export Plug-In . SVG Version: 6.00 Build 0)  -->

<svg
   xmlns:dc="http://purl.org/dc/elements/1.1/"
   xmlns:cc="http://creativecommons.org/ns#"
   xmlns:rdf="http://www.w3.org/1999/02/22-rdf-syntax-ns#"
   xmlns:svg="http://www.w3.org/2000/svg"
   xmlns="http://www.w3.org/2000/svg"
   xmlns:sodipodi="http://sodipodi.sourceforge.net/DTD/sodipodi-0.dtd"
   xmlns:inkscape="http://www.inkscape.org/namespaces/inkscape"
   version="1.1"
   id="Capa_1"
   x="0px"
   y="0px"
   viewBox="0 0 294.842 294.842"
   style="enable-background:new 0 0 294.842 294.842;"
   xml:space="preserve"
   sodipodi:docname="note.svg"
   inkscape:version="0.92.2 5c3e80d, 2017-08-06"><metadata
     id="metadata53"><rdf:RDF><cc:Work
         rdf:about=""><dc:format>image/svg+xml</dc:format><dc:type
           rdf:resource="http://purl.org/dc/dcmitype/StillImage" /></cc:Work></rdf:RDF></metadata><defs
     id="defs51" /><sodipodi:namedview
     pagecolor="#ffffff"
     bordercolor="#666666"
     borderopacity="1"
     objecttolerance="10"
     gridtolerance="10"
     guidetolerance="10"
     inkscape:pageopacity="0"
     inkscape:pageshadow="2"
     inkscape:window-width="1920"
     inkscape:window-height="1051"
     id="namedview49"
     showgrid="false"
     inkscape:zoom="2.7327135"
     inkscape:cx="147.42101"
     inkscape:cy="147.42101"
     inkscape:window-x="0"
     inkscape:window-y="0"
     inkscape:window-maximized="1"
     inkscape:current-layer="Capa_1" /><g
     id="g16"
     style="fill:#d0d2d3;fill-opacity:1"><path
       d="M288.842,0H6C2.687,0,0,2.687,0,6v282.842c0,3.313,2.687,6,6,6h240.421c3.313,0,6-2.687,6-6s-2.687-6-6-6H12V12h270.842   v276.842c0,3.313,2.687,6,6,6s6-2.687,6-6V6C294.842,2.687,292.155,0,288.842,0z"
       id="path2"
       style="fill:#d0d2d3;fill-opacity:1" /><path
       d="M65.815,62.421c-12.683,0-23,10.317-23,23s10.317,23,23,23s23-10.317,23-23S78.498,62.421,65.815,62.421z M65.815,96.421   c-6.065,0-11-4.935-11-11s4.935-11,11-11s11,4.935,11,11S71.881,96.421,65.815,96.421z"
       id="path4"
       style="fill:#d0d2d3;fill-opacity:1" /><path
       d="M246.815,79.421h-140c-3.313,0-6,2.687-6,6s2.687,6,6,6h140c3.313,0,6-2.687,6-6S250.129,79.421,246.815,79.421z"
       id="path6"
       style="fill:#d0d2d3;fill-opacity:1" /><path
       d="M65.815,124.421c-3.313,0-6,2.687-6,6s2.687,6,6,6c6.065,0,11,4.935,11,11s-4.935,11-11,11s-11-4.935-11-11   c0-3.313-2.687-6-6-6s-6,2.687-6,6c0,12.683,10.317,23,23,23s23-10.317,23-23S78.498,124.421,65.815,124.421z"
       id="path8"
       style="fill:#d0d2d3;fill-opacity:1" /><path
       d="M246.815,141.421h-140c-3.313,0-6,2.687-6,6s2.687,6,6,6h140c3.313,0,6-2.687,6-6S250.129,141.421,246.815,141.421z"
       id="path10"
       style="fill:#d0d2d3;fill-opacity:1" /><path
       d="M65.815,186.421c-12.683,0-23,10.317-23,23s10.317,23,23,23s23-10.317,23-23S78.498,186.421,65.815,186.421z    M65.815,220.421c-6.065,0-11-4.935-11-11s4.935-11,11-11s11,4.935,11,11S71.881,220.421,65.815,220.421z"
       id="path12"
       style="fill:#d0d2d3;fill-opacity:1" /><path
       d="M246.815,203.421h-140c-3.313,0-6,2.687-6,6s2.687,6,6,6h140c3.313,0,6-2.687,6-6S250.129,203.421,246.815,203.421z"
       id="path14"
       style="fill:#d0d2d3;fill-opacity:1" /></g><g
     id="g18" /><g
     id="g20" /><g
     id="g22" /><g
     id="g24" /><g
     id="g26" /><g
     id="g28" /><g
     id="g30" /><g
     id="g32" /><g
     id="g34" /><g
     id="g36" /><g
     id="g38" /><g
     id="g40" /><g
     id="g42" /><g
     id="g44" /><g
     id="g46" /></svg>