<?xml version="1.0" encoding="utf-8"?>
<!-- Generator: Adobe Illustrator 19.0.0, SVG Export Plug-In . SVG Version: 6.00 Build 0)  -->
<svg version="1.1" id="Layer_1" xmlns="http://www.w3.org/2000/svg" xmlns:xlink="http://www.w3.org/1999/xlink" x="0px" y="0px"
	 viewBox="0 0 55 50" style="enable-background:new 0 0 55 50;" xml:space="preserve">
<style type="text/css">
	.st0{fill:#D0D2D3;}
	.st1{fill:#595A5C;}
	.st2{fill:#919396;}
</style>
<g id="XMLID_1_">
	<g id="XMLID_11_">
		<path id="XMLID_13_" class="st0" d="M33.4,4.9l18.8,16.1c2.5,2.2,2.5,5.7,0,7.8L33.4,45.1c-2.5,2.2-4.6,1.2-4.6-2.1V7
			C28.9,3.7,30.9,2.8,33.4,4.9z"/>
		<path id="XMLID_12_" class="st0" d="M5.4,4.9l18.8,16.1c2.5,2.2,2.5,5.7,0,7.8L5.4,45.1C3,47.2,0.9,46.3,0.9,43V7
			C0.9,3.7,3,2.8,5.4,4.9z"/>
	</g>
	<g id="XMLID_8_">
		<path id="XMLID_10_" class="st0" d="M33.4,3.7l18.8,16.1c2.5,2.2,2.5,5.7,0,7.8L33.4,43.8c-2.5,2.2-4.6,1.2-4.6-2.1v-36
			C28.9,2.4,30.9,1.5,33.4,3.7z"/>
		<path id="XMLID_9_" class="st0" d="M5.4,3.7l18.8,16.1c2.5,2.2,2.5,5.7,0,7.8L5.4,43.8C3,46,0.9,45,0.9,41.7v-36
			C0.9,2.4,3,1.5,5.4,3.7z"/>
	</g>
	<g id="XMLID_5_">
		<path id="XMLID_7_" class="st1" d="M33.4,6.2l18.8,16.2c2.5,2.1,2.5,5.7,0,7.8L33.4,46.3c-2.5,2.2-4.6,1.2-4.6-2.1V8.3
			C28.9,5,30.9,4.1,33.4,6.2z"/>
		<path id="XMLID_6_" class="st1" d="M5.4,6.2l18.8,16.2c2.5,2.1,2.5,5.7,0,7.8L5.4,46.3c-2.5,2.2-4.5,1.2-4.5-2.1V8.3
			C0.9,5,3,4.1,5.4,6.2z"/>
	</g>
	<g id="XMLID_2_">
		<path id="XMLID_4_" class="st2" d="M33.4,4.9l18.8,16.1c2.5,2.2,2.5,5.7,0,7.8L33.4,45.1c-2.5,2.2-4.6,1.2-4.6-2.1V7
			C28.9,3.7,30.9,2.8,33.4,4.9z"/>
		<path id="XMLID_3_" class="st2" d="M5.4,4.9l18.8,16.1c2.5,2.2,2.5,5.7,0,7.8L5.4,45.1C3,47.2,0.9,46.3,0.9,43V7
			C0.9,3.7,3,2.8,5.4,4.9z"/>
	</g>
</g>
</svg>
