<?xml version="1.0" encoding="utf-8"?>
<!-- Generator: Adobe Illustrator 19.0.0, SVG Export Plug-In . SVG Version: 6.00 Build 0)  -->
<svg version="1.1" id="Layer_1" xmlns="http://www.w3.org/2000/svg" xmlns:xlink="http://www.w3.org/1999/xlink" x="0px" y="0px"
	 viewBox="0 0 55 50" style="enable-background:new 0 0 55 50;" xml:space="preserve">
<style type="text/css">
	.st0{fill:#D0D2D3;}
	.st1{fill:#595A5C;}
	.st2{fill:#919396;}
</style>
<g id="XMLID_1_">
	<g id="XMLID_11_">
		<path id="XMLID_13_" class="st0" d="M18.8,4.2h-6.9C9,4.2,6.7,6.5,6.7,9.4v31.2c0,2.9,2.4,5.2,5.2,5.2h6.9c2.9,0,5.2-2.4,5.2-5.2
			V9.4C24,6.5,21.7,4.2,18.8,4.2z"/>
		<path id="XMLID_12_" class="st0" d="M43.1,4.2h-6.9c-2.9,0-5.2,2.3-5.2,5.2v31.2c0,2.9,2.4,5.2,5.2,5.2h6.9c2.9,0,5.2-2.4,5.2-5.2
			V9.4C48.3,6.5,46,4.2,43.1,4.2z"/>
	</g>
	<g id="XMLID_8_">
		<path id="XMLID_10_" class="st0" d="M18.8,3.1h-6.9C9,3.1,6.7,5.4,6.7,8.3v31.2c0,2.9,2.4,5.2,5.2,5.2h6.9c2.9,0,5.2-2.4,5.2-5.2
			V8.3C24,5.4,21.7,3.1,18.8,3.1z"/>
		<path id="XMLID_9_" class="st0" d="M43.1,3.1h-6.9c-2.9,0-5.2,2.4-5.2,5.2v31.2c0,2.9,2.4,5.2,5.2,5.2h6.9c2.9,0,5.2-2.4,5.2-5.2
			V8.3C48.3,5.4,46,3.1,43.1,3.1z"/>
	</g>
	<g id="XMLID_5_">
		<path id="XMLID_7_" class="st1" d="M18.8,5.3h-6.9c-2.9,0-5.2,2.4-5.2,5.2v31.2c0,2.9,2.4,5.2,5.2,5.2h6.9c2.9,0,5.2-2.3,5.2-5.2
			V10.5C24,7.6,21.7,5.3,18.8,5.3z"/>
		<path id="XMLID_6_" class="st1" d="M43.1,5.3h-6.9c-2.9,0-5.2,2.4-5.2,5.2v31.2c0,2.9,2.4,5.2,5.2,5.2h6.9c2.9,0,5.2-2.3,5.2-5.2
			V10.5C48.3,7.6,46,5.3,43.1,5.3z"/>
	</g>
	<g id="XMLID_2_">
		<path id="XMLID_4_" class="st2" d="M18.8,4.2h-6.9C9,4.2,6.7,6.5,6.7,9.4v31.2c0,2.9,2.4,5.2,5.2,5.2h6.9c2.9,0,5.2-2.4,5.2-5.2
			V9.4C24,6.5,21.7,4.2,18.8,4.2z"/>
		<path id="XMLID_3_" class="st2" d="M43.1,4.2h-6.9c-2.9,0-5.2,2.3-5.2,5.2v31.2c0,2.9,2.4,5.2,5.2,5.2h6.9c2.9,0,5.2-2.4,5.2-5.2
			V9.4C48.3,6.5,46,4.2,43.1,4.2z"/>
	</g>
</g>
</svg>
