<?xml version="1.0" encoding="utf-8"?>
<!-- Generator: Adobe Illustrator 19.0.0, SVG Export Plug-In . SVG Version: 6.00 Build 0)  -->
<svg version="1.1" id="Layer_1" xmlns="http://www.w3.org/2000/svg" xmlns:xlink="http://www.w3.org/1999/xlink" x="0px" y="0px"
	 viewBox="0 0 55 50" style="enable-background:new 0 0 55 50;" xml:space="preserve">
<style type="text/css">
	.st0{fill:#D0D2D3;}
	.st1{fill:#595A5C;}
	.st2{fill:#919396;}
</style>
<g id="XMLID_1_">
	<path id="XMLID_4_" class="st0" d="M19.5,4.2C17,2.1,15,3,15,6.3v35.6c0,3.3,2,4.2,4.5,2.1l18.6-16c2.5-2.1,2.5-5.6,0-7.8L19.5,4.2
		z"/>
	<path id="XMLID_3_" class="st1" d="M19.5,6C17,3.9,15,4.8,15,8.1v35.6c0,3.3,2,4.2,4.5,2.1l18.6-16c2.5-2.1,2.5-5.6,0-7.8L19.5,6z"
		/>
	<path id="XMLID_2_" class="st2" d="M19.5,5.1C17,3,15,3.9,15,7.2v35.6c0,3.3,2,4.2,4.5,2.1l18.6-16c2.5-2.1,2.5-5.6,0-7.8L19.5,5.1
		z"/>
</g>
</svg>
