<?xml version="1.0" encoding="utf-8"?>
<!-- Generator: Adobe Illustrator 19.0.0, SVG Export Plug-In . SVG Version: 6.00 Build 0)  -->
<svg version="1.1" id="Layer_1" xmlns="http://www.w3.org/2000/svg" xmlns:xlink="http://www.w3.org/1999/xlink" x="0px" y="0px"
	 viewBox="0 0 55 50" style="enable-background:new 0 0 55 50;" xml:space="preserve">
<style type="text/css">
	.st0{fill:#D0D2D3;}
	.st1{fill:#595A5C;}
	.st2{fill:#919396;}
</style>
<g id="XMLID_1_">
	<g>
		<path id="XMLID_9_" class="st0" d="M21.6,4.9L2.8,21.1c-2.5,2.2-2.5,5.7,0,7.8l18.8,16.2c2.5,2.1,4.6,1.2,4.6-2.1V7
			C26.2,3.7,24.1,2.8,21.6,4.9z"/>
		<path id="XMLID_8_" class="st0" d="M49.6,4.9L30.7,21.1c-2.5,2.2-2.5,5.7,0,7.8l18.8,16.2c2.5,2.1,4.5,1.2,4.5-2.1V7
			C54.1,3.7,52,2.8,49.6,4.9z"/>
	</g>
	<g>
		<path id="XMLID_7_" class="st0" d="M21.6,3.7L2.8,19.8c-2.5,2.2-2.5,5.7,0,7.8l18.8,16.2c2.5,2.2,4.6,1.2,4.6-2.1V5.7
			C26.2,2.4,24.1,1.5,21.6,3.7z"/>
		<path id="XMLID_6_" class="st0" d="M49.6,3.7L30.7,19.8c-2.5,2.2-2.5,5.7,0,7.8l18.8,16.2c2.5,2.2,4.5,1.2,4.5-2.1V5.7
			C54.1,2.4,52,1.5,49.6,3.7z"/>
	</g>
	<g>
		<path id="XMLID_5_" class="st1" d="M21.6,6.2L2.8,22.4c-2.5,2.1-2.5,5.7,0,7.8l18.8,16.1c2.5,2.2,4.6,1.2,4.6-2.1V8.3
			C26.2,5,24.1,4.1,21.6,6.2z"/>
		<path id="XMLID_4_" class="st1" d="M49.6,6.2L30.7,22.4c-2.5,2.1-2.5,5.7,0,7.8l18.8,16.1c2.5,2.2,4.5,1.2,4.5-2.1V8.3
			C54.1,5,52,4.1,49.6,6.2z"/>
	</g>
	<g>
		<path id="XMLID_3_" class="st2" d="M21.6,4.9L2.8,21.1c-2.5,2.2-2.5,5.7,0,7.8l18.8,16.2c2.5,2.1,4.6,1.2,4.6-2.1V7
			C26.2,3.7,24.1,2.8,21.6,4.9z"/>
		<path id="XMLID_2_" class="st2" d="M49.6,4.9L30.7,21.1c-2.5,2.2-2.5,5.7,0,7.8l18.8,16.2c2.5,2.1,4.5,1.2,4.5-2.1V7
			C54.1,3.7,52,2.8,49.6,4.9z"/>
	</g>
</g>
</svg>
