<?xml version="1.0" encoding="utf-8"?>
<!-- Generator: Adobe Illustrator 19.0.0, SVG Export Plug-In . SVG Version: 6.00 Build 0)  -->
<svg version="1.1" id="Layer_1" xmlns="http://www.w3.org/2000/svg" xmlns:xlink="http://www.w3.org/1999/xlink" x="0px" y="0px"
	 viewBox="0 0 50 50" style="enable-background:new 0 0 50 50;" xml:space="preserve">
<style type="text/css">
	.st0{fill:#D0D2D3;}
	.st1{fill:#595A5C;}
	.st2{fill:#919396;}
</style>
<g id="XMLID_1_">
	<g>
		<path id="XMLID_9_" class="st0" d="M40.5,7.1L23.7,21.5c-2.2,1.9-2.2,5.1,0,7l16.8,14.4c2.2,1.9,4.1,1.1,4.1-1.9V9
			C44.6,6.1,42.7,5.2,40.5,7.1z"/>
		<path id="XMLID_8_" class="st0" d="M14.3,3.7h-3.5C7.8,3.7,5.4,6.1,5.4,9v32c0,3,2.4,5.4,5.3,5.4h3.5c2.9,0,5.4-2.4,5.4-5.4V9
			C19.7,6.1,17.3,3.7,14.3,3.7z"/>
	</g>
	<g>
		<path id="XMLID_7_" class="st0" d="M40.5,6L23.7,20.4c-2.2,1.9-2.2,5.1,0,7l16.8,14.4c2.2,1.9,4.1,1.1,4.1-1.9v-32
			C44.6,4.9,42.7,4.1,40.5,6z"/>
		<path id="XMLID_6_" class="st0" d="M14.3,2.5h-3.5c-2.9,0-5.3,2.4-5.3,5.4v32c0,2.9,2.4,5.4,5.3,5.4h3.5c2.9,0,5.4-2.4,5.4-5.4
			v-32C19.7,4.9,17.3,2.5,14.3,2.5z"/>
	</g>
	<g>
		<path id="XMLID_5_" class="st1" d="M40.5,8.3L23.7,22.7c-2.2,1.9-2.2,5.1,0,7L40.5,44c2.2,1.9,4.1,1.1,4.1-1.9v-32
			C44.6,7.2,42.7,6.4,40.5,8.3z"/>
		<path id="XMLID_4_" class="st1" d="M14.3,4.8h-3.5c-2.9,0-5.3,2.4-5.3,5.4v32c0,2.9,2.4,5.3,5.3,5.3h3.5c2.9,0,5.4-2.4,5.4-5.3
			v-32C19.7,7.2,17.3,4.8,14.3,4.8z"/>
	</g>
	<g>
		<path id="XMLID_3_" class="st2" d="M40.5,7.1L23.7,21.5c-2.2,1.9-2.2,5.1,0,7l16.8,14.4c2.2,1.9,4.1,1.1,4.1-1.9V9
			C44.6,6.1,42.7,5.2,40.5,7.1z"/>
		<path id="XMLID_2_" class="st2" d="M14.3,3.7h-3.5C7.8,3.7,5.4,6.1,5.4,9v32c0,3,2.4,5.4,5.3,5.4h3.5c2.9,0,5.4-2.4,5.4-5.4V9
			C19.7,6.1,17.3,3.7,14.3,3.7z"/>
	</g>
</g>
</svg>
