<?xml version="1.0" encoding="utf-8"?>
<!-- Generator: Adobe Illustrator 19.0.0, SVG Export Plug-In . SVG Version: 6.00 Build 0)  -->
<svg version="1.1" id="Layer_1" xmlns="http://www.w3.org/2000/svg" xmlns:xlink="http://www.w3.org/1999/xlink" x="0px" y="0px"
	 viewBox="-33 391 545 11" style="enable-background:new -33 391 545 11;" xml:space="preserve">
<style type="text/css">
	.st0{fill:#BABCBE;}
	.st1{opacity:0.86;fill:url(#SVGID_1_);}
</style>
<g>
	<path class="st0" d="M503.4,391.1H-24.8c-4.5,0-8.2,2.4-8.2,5.4c0,3,3.7,5.4,8.2,5.4h528.2c4.5,0,8.2-2.4,8.2-5.4
		C511.6,393.5,507.9,391.1,503.4,391.1z"/>
	<linearGradient id="SVGID_1_" gradientUnits="userSpaceOnUse" x1="-32.6924" y1="394.7896" x2="512.0244" y2="394.7896">
		<stop  offset="3.030300e-002" style="stop-color:#808080"/>
		<stop  offset="0.497" style="stop-color:#808080"/>
		<stop  offset="1" style="stop-color:#CCCCCC"/>
	</linearGradient>
	<path class="st1" d="M-24.5,395h528.3c3.5,0,6.5,1.4,7.7,3.4c0.3-0.6,0.6-1.2,0.6-1.9c0-2.9-3.7-5.3-8.2-5.3H-24.5
		c-4.5,0-8.2,2.4-8.2,5.3c0,0.7,0.2,1.3,0.6,1.9C-31,396.4-28,395-24.5,395z"/>
</g>
</svg>
