<?xml version="1.0" encoding="utf-8"?>
<!-- Generator: Adobe Illustrator 19.0.0, SVG Export Plug-In . SVG Version: 6.00 Build 0)  -->
<svg version="1.1" id="Layer_1" xmlns="http://www.w3.org/2000/svg" xmlns:xlink="http://www.w3.org/1999/xlink" x="0px" y="0px"
	 viewBox="0 0 50 50" style="enable-background:new 0 0 50 50;" xml:space="preserve">
<style type="text/css">
	.st0{fill:#D0D2D3;}
	.st1{fill:#595A5C;}
	.st2{fill:#919396;}
</style>
<g>
	<path id="XMLID_3_" class="st0" d="M28.1,2.5c-11.6,0-21,9.1-21.4,20.7l0,0.4H3.1c-2.7,0-3.4,1.7-1.7,3.7l8,9.3
		c1.7,2,4.6,2.1,6.4,0l8.2-9.3c1.8-2,1-3.7-1.7-3.7h-3.8l0-0.4c0.4-5.1,4.6-8.9,9.6-8.9c5.3,0,9.7,4.4,9.7,9.7
		c0,5.4-4.3,9.7-9.7,9.7c-0.2,0-0.3,0-0.4,0v0c0,0,0,0,0,0c-2.5,0-4.6,2.2-4.6,4.9v2c0,2.7,2.1,4.9,4.6,4.9c0.1,0,0.1,0,0.1,0
		c0.1,0,0.3,0,0.3,0c11.8,0,21.4-9.6,21.4-21.5C49.5,12.1,39.9,2.5,28.1,2.5z"/>
	<path id="XMLID_2_" class="st1" d="M28.1,4.6c-11.6,0-21,9.1-21.4,20.7l0,0.4H3.1c-2.7,0-3.4,1.7-1.7,3.7l8,9.3c1.7,2,4.6,2,6.4,0
		l8.2-9.3c1.8-2,1-3.7-1.7-3.7h-3.8l0-0.4c0.4-5.1,4.6-8.9,9.6-8.9c5.3,0,9.7,4.4,9.7,9.7c0,5.4-4.3,9.7-9.7,9.7c-0.2,0-0.3,0-0.4,0
		v0c0,0,0,0,0,0c-2.5,0-4.6,2.2-4.6,4.9v2c0,2.7,2.1,4.9,4.6,4.9c0.1,0,0.1,0,0.1,0c0.1,0,0.3,0,0.3,0c11.8,0,21.4-9.6,21.4-21.5
		C49.5,14.2,39.9,4.6,28.1,4.6z"/>
	<path id="XMLID_1_" class="st2" d="M28.1,3.5c-11.6,0-21,9.1-21.4,20.7l0,0.4H3.1c-2.7,0-3.4,1.7-1.7,3.7l8,9.2c1.7,2,4.6,2,6.4,0
		l8.2-9.3c1.8-2,1-3.7-1.7-3.7h-3.8l0-0.4c0.4-5.1,4.6-8.9,9.6-8.9c5.3,0,9.7,4.4,9.7,9.7c0,5.3-4.3,9.7-9.7,9.7c-0.2,0-0.3,0-0.4,0
		v0c0,0,0,0,0,0c-2.5,0-4.6,2.2-4.6,4.9v2c0,2.7,2.1,4.9,4.6,4.9c0.1,0,0.1,0,0.1,0c0.1,0,0.3,0,0.3,0c11.8,0,21.4-9.6,21.4-21.4
		C49.5,13.2,39.9,3.5,28.1,3.5z"/>
</g>
</svg>
