<?xml version="1.0" encoding="utf-8"?>
<!-- Generator: Adobe Illustrator 19.0.0, SVG Export Plug-In . SVG Version: 6.00 Build 0)  -->
<svg version="1.1" id="Layer_1" xmlns="http://www.w3.org/2000/svg" xmlns:xlink="http://www.w3.org/1999/xlink" x="0px" y="0px"
	 viewBox="0 0 55 50" style="enable-background:new 0 0 55 50;" xml:space="preserve">
<style type="text/css">
	.st0{fill:#D0D2D3;}
	.st1{fill:#595A5C;}
	.st2{fill:#919396;}
</style>
<g id="XMLID_1_">
	<path id="XMLID_4_" class="st0" d="M42.9,3.1H11.7c-2.9,0-5.2,2.4-5.2,5.2v31.2c0,2.9,2.3,5.2,5.2,5.2h31.2c2.9,0,5.2-2.4,5.2-5.2
		V8.3C48.1,5.5,45.7,3.1,42.9,3.1z"/>
	<path id="XMLID_3_" class="st1" d="M42.9,5.3H11.7c-2.9,0-5.2,2.4-5.2,5.2v31.2c0,2.9,2.3,5.2,5.2,5.2h31.2c2.9,0,5.2-2.3,5.2-5.2
		V10.6C48.1,7.7,45.7,5.3,42.9,5.3z"/>
	<path id="XMLID_2_" class="st2" d="M43.1,4.2H11.9C9,4.2,6.7,6.5,6.7,9.4v31.2c0,2.9,2.3,5.2,5.2,5.2h31.2c2.9,0,5.2-2.3,5.2-5.2
		V9.4C48.3,6.5,46,4.2,43.1,4.2z"/>
</g>
</svg>
