<?xml version="1.0" encoding="utf-8"?>
<!-- Generator: Adobe Illustrator 19.0.0, SVG Export Plug-In . SVG Version: 6.00 Build 0)  -->
<svg version="1.1" id="Layer_1" xmlns="http://www.w3.org/2000/svg" xmlns:xlink="http://www.w3.org/1999/xlink" x="0px" y="0px"
	 viewBox="0 0 815 344" style="enable-background:new 0 0 815 344;" xml:space="preserve">
<style type="text/css">
	.st0{fill-rule:evenodd;clip-rule:evenodd;fill:#D0D2D3;}
	.st1{fill:#A6A7AA;}
	.st2{fill-rule:evenodd;clip-rule:evenodd;fill:#A6A7AA;}
	.st3{fill-rule:evenodd;clip-rule:evenodd;fill:#28AAE2;}
	.st4{fill-rule:evenodd;clip-rule:evenodd;fill:#EA2327;}
	.st5{fill:#EB2227;}
	.st6{fill:#FFFFFF;}
	.st7{fill:#414142;}
	.st8{fill:none;stroke:#FFFFFF;stroke-width:3.6666;stroke-miterlimit:10;}
	.st9{font-family:'CenturyGothic';}
	.st10{font-size:11.5081px;}
	.st11{fill:none;stroke:#FFFFFF;stroke-width:3.2143;stroke-miterlimit:10;}
	.st12{font-size:12.0803px;}
	.st13{font-size:72px;}
	.st14{letter-spacing:-3;}
	.st15{font-size:21px;}
	.st16{letter-spacing:-1;}
	.st17{font-family:'CenturyGothic-Bold';}
	.st18{font-size:24px;}
	.st19{font-size:18px;}
</style>
<g id="XMLID_1_">
	<g>
		<path id="XMLID_60_" class="st0" d="M29.7,201.7l20.1-20c1.9-1.9,1.9-5,0-6.9l-0.3-0.4c-2-1.9-5.1-1.9-6.9,0l-12.9,12.8
			c-1.9,1.9-5,1.9-6.9,0L9.9,174.4c-2-1.9-5.1-1.9-6.9,0l-0.3,0.4c-2,1.9-2,5,0,6.9l20.1,20C24.7,203.5,27.8,203.5,29.7,201.7
			L29.7,201.7z"/>
		<path id="XMLID_59_" class="st0" d="M29.7,1.7l20.1,20c1.9,1.9,1.9,5,0,6.9l-0.4,0.4c-1.9,1.9-5,1.9-6.9,0L29.7,16.1
			c-2-2-5.1-2-6.9,0L9.8,28.9c-1.9,1.9-5,1.9-6.9,0l-0.4-0.4c-1.9-1.9-1.9-5,0-6.9l20.1-20C24.6-0.2,27.7-0.2,29.7,1.7L29.7,1.7z"/>
		<path class="st1" d="M32.5,98.7c1-0.3,2-0.2,3.1,0.1c0.7,0.2,1.5,0.3,2.3,0.3c1.1,0,2.2-0.3,3.2-0.9c1.6-1,2.7-2.7,2.9-4.6
			c0.3-2.2-0.6-4.4-2.3-6.2c-1.8-1.8-4.1-2.7-6.6-2.7c-2.5,0-5,1-6.8,2.8c-2.3,2.3-3.7,5.9-3.8,9.2c-0.5-0.4-1-0.9-1.3-1.6
			c-0.4-1.1-0.2-2,0.1-3.1c0.3-1.5,0.7-3.3-0.6-5.5c-1.1-1.8-3.2-3-5.4-3c-1.9,0-3.8,0.8-5.4,2.4c-3.7,3.7-3.6,9.7,0.1,13.4
			c2.2,2.2,5.9,3.7,9.2,3.8c-0.4,0.5-0.9,1-1.6,1.2c-1,0.3-2,0.2-3.1-0.1c-0.7-0.2-1.5-0.3-2.3-0.3c-1.1,0-2.2,0.3-3.2,0.9
			c-1.6,1-2.7,2.7-2.9,4.6c-0.3,2.2,0.6,4.4,2.3,6.2c1.8,1.8,4.1,2.7,6.6,2.7c2.5,0,5-1,6.8-2.8c2.3-2.3,3.7-5.9,3.8-9.2
			c0.5,0.4,1,0.9,1.3,1.6c0.4,1.1,0.2,2-0.1,3.1c-0.3,1.5-0.7,3.3,0.6,5.5c1.1,1.8,3.2,3,5.4,3c1.9,0,3.8-0.8,5.4-2.4
			c3.7-3.7,3.6-9.6-0.1-13.4c-2.2-2.2-5.9-3.7-9.2-3.8C31.3,99.4,31.8,98.9,32.5,98.7L32.5,98.7z M27.6,103c-0.8,0.8-2.2,0.8-3.1,0
			c-0.8-0.8-0.8-2.2,0-3.1c0.4-0.4,1-0.6,1.5-0.6s1.1,0.2,1.5,0.6C28.4,100.8,28.4,102.2,27.6,103L27.6,103z M27.6,103"/>
	</g>
	<g>
		<path class="st1" d="M180.7,80.1c1.3-0.4,2.6-0.2,4,0.1c0.9,0.2,1.9,0.4,3,0.4c1.4,0,2.8-0.4,4.1-1.2c2.1-1.3,3.5-3.5,3.8-6
			c0.3-2.9-0.7-5.7-3-8c-2.3-2.3-5.3-3.5-8.6-3.5c-3.3,0-6.4,1.3-8.8,3.7c-2.9,2.9-4.9,7.6-4.9,12c-0.7-0.5-1.3-1.1-1.6-2
			c-0.5-1.4-0.2-2.6,0.1-4c0.4-1.9,0.9-4.3-0.8-7.1c-1.4-2.4-4.1-3.8-7-3.8c-2.5,0-5,1.1-7,3.1c-4.7,4.7-4.7,12.5,0.1,17.3
			c2.9,2.9,7.7,4.9,11.9,4.9c-0.5,0.7-1.1,1.3-2,1.6c-1.3,0.4-2.6,0.2-4-0.1c-0.9-0.2-1.9-0.4-3-0.4c-1.4,0-2.8,0.4-4.1,1.2
			c-2.1,1.3-3.5,3.5-3.8,6c-0.3,2.9,0.7,5.7,3,8c2.3,2.3,5.3,3.5,8.6,3.5c3.3,0,6.4-1.3,8.8-3.7c2.9-2.9,4.9-7.6,4.9-12
			c0.7,0.5,1.3,1.1,1.6,2c0.5,1.4,0.2,2.6-0.1,4c-0.4,1.9-0.9,4.3,0.8,7.1c1.4,2.4,4.1,3.8,7,3.8c2.5,0,5-1.1,7-3.1
			c4.7-4.7,4.7-12.5-0.1-17.3c-2.9-2.9-7.7-4.9-11.9-4.9C179.2,81,179.8,80.4,180.7,80.1L180.7,80.1z M174.4,85.8
			c-1.1,1.1-2.9,1.1-4,0c-1.1-1.1-1.1-2.9,0-4c0.5-0.5,1.2-0.8,2-0.8c0.8,0,1.5,0.3,2,0.8C175.5,82.9,175.5,84.7,174.4,85.8
			L174.4,85.8z M174.4,85.8"/>
		<g>
			<path id="XMLID_52_" class="st2" d="M206.4,157c0,1.2-1,2.2-2.2,2.2h-22.1c-1.2,0-2.2-1-2.2-2.2l0,0c0-1.2,1-2.2,2.2-2.2h22.1
				C205.5,154.8,206.4,155.8,206.4,157L206.4,157z"/>
			<path id="XMLID_51_" class="st2" d="M175.6,157c0,1.2-1,2.2-2.2,2.2h-22.1c-1.2,0-2.2-1-2.2-2.2l0,0c0-1.2,1-2.2,2.2-2.2h22.1
				C174.6,154.8,175.6,155.8,175.6,157L175.6,157z"/>
			<path id="XMLID_50_" class="st2" d="M237.3,157c0,1.2-1,2.2-2.2,2.2h-22.1c-1.2,0-2.2-1-2.2-2.2l0,0c0-1.2,1-2.2,2.2-2.2h22.1
				C236.3,154.8,237.3,155.8,237.3,157L237.3,157z"/>
			<path id="XMLID_49_" class="st2" d="M268.2,157c0,1.2-1,2.2-2.2,2.2h-22.1c-1.2,0-2.2-1-2.2-2.2l0,0c0-1.2,1-2.2,2.2-2.2H266
				C267.2,154.8,268.2,155.8,268.2,157L268.2,157z"/>
			<path id="XMLID_48_" class="st2" d="M299.1,157c0,1.2-1,2.2-2.2,2.2h-22.1c-1.2,0-2.2-1-2.2-2.2l0,0c0-1.2,1-2.2,2.2-2.2h22.1
				C298.1,154.8,299.1,155.8,299.1,157L299.1,157z"/>
		</g>
		<g>
			<path id="XMLID_47_" class="st2" d="M299.1,144.6c0,2.4-2,4.4-4.4,4.4H277c-2.4,0-4.4-2-4.4-4.4V65.2c0-2.4,2-4.4,4.4-4.4h17.6
				c2.4,0,4.4,2,4.4,4.4V144.6z"/>
			<path id="XMLID_46_" class="st2" d="M268.2,144.7c0,2.4-2,4.4-4.4,4.4h-17.6c-2.4,0-4.4-2-4.4-4.4V87.3c0-2.4,2-4.4,4.4-4.4h17.6
				c2.4,0,4.4,2,4.4,4.4V144.7z"/>
			<path id="XMLID_45_" class="st2" d="M237.3,144.7c0,2.4-2,4.4-4.4,4.4h-17.6c-2.4,0-4.4-2-4.4-4.4v-35.3c0-2.4,2-4.4,4.4-4.4
				h17.6c2.4,0,4.4,2,4.4,4.4V144.7z"/>
			<path id="XMLID_44_" class="st2" d="M206.4,144.7c0,2.4-2,4.4-4.4,4.4h-17.6c-2.4,0-4.4-2-4.4-4.4v-13.2c0-2.4,2-4.4,4.4-4.4H202
				c2.4,0,4.4,2,4.4,4.4V144.7z"/>
			<path id="XMLID_43_" class="st2" d="M175.6,144.6c0,2.4-2,4.4-4.4,4.4h-17.6c-2.4,0-4.4-2-4.4-4.4l0,0c0-2.4,2-4.4,4.4-4.4h17.6
				C173.6,140.1,175.6,142.1,175.6,144.6L175.6,144.6z"/>
		</g>
	</g>
	<g>
		<path id="XMLID_42_" class="st3" d="M793.5,201.7l20.1-20c1.9-1.9,1.9-5,0-6.9l-0.3-0.4c-2-1.9-5.1-1.9-6.9,0l-12.9,12.8
			c-1.9,1.9-5,1.9-6.9,0l-12.9-12.8c-2-1.9-5.1-1.9-6.9,0l-0.3,0.4c-2,1.9-2,5,0,6.9l20.1,20C788.5,203.5,791.6,203.5,793.5,201.7
			L793.5,201.7z"/>
		<path id="XMLID_41_" class="st4" d="M793.5,1.7l20.1,20c1.9,1.9,1.9,5,0,6.9l-0.4,0.4c-1.9,1.9-5,1.9-6.9,0l-12.9-12.8
			c-2-2-5.1-2-6.9,0l-12.9,12.8c-1.9,1.9-5,1.9-6.9,0l-0.4-0.4c-1.9-1.9-1.9-5,0-6.9l20.1-20C788.4-0.2,791.5-0.2,793.5,1.7
			L793.5,1.7z"/>
		<g>
			<path class="st1" d="M802.8,120.5c0-4.7-2.6-8.9-6.4-11.1V79.1c0-3.5-2.9-6.4-6.4-6.4c-3.5,0-6.4,2.9-6.4,6.4v30.3
				c-3.8,2.2-6.4,6.4-6.4,11.1c0,7.1,5.7,12.8,12.8,12.8S802.8,127.6,802.8,120.5z M780.7,120.5c0-3.9,2.4-7.2,5.7-8.6V79.1
				c0-2,1.6-3.6,3.6-3.6c2,0,3.6,1.6,3.6,3.6V112c3.4,1.4,5.7,4.7,5.7,8.6c0,5.1-4.1,9.3-9.3,9.3S780.7,125.6,780.7,120.5z"/>
			<path id="XMLID_38_" class="st5" d="M796.4,120.5c0-2.9-1.9-5.4-4.6-6.2V93.3h-3.8v21.1c-2.6,0.8-4.6,3.3-4.6,6.2
				c0,3.6,2.9,6.5,6.5,6.5S796.4,124.1,796.4,120.5z"/>
		</g>
	</g>
	<g>
		<g id="XMLID_37_">
			<path id="XMLID_62_" class="st6" d="M235.9,330.8c0,0-0.8-4.6,0-8c1.8-2.3,15.1-19.4,19.1-20.9c5-0.5,50.4,0,50.4,0
				s3.7,5.6,4.6,13.7c0.9,8.1,0.8,13.1-0.2,14.6c-1.3,0.3-5.1,0.5-5.1,0.5s-1,6.2-8,6.2c-7,0-8.4-6.1-8.4-6.1h-28.1
				c0,0-0.4,6.1-7.3,6.1c-6.9,0-8-6.1-8-6.1H235.9z"/>
		</g>
		<path id="back_1_" class="st7" d="M284.7,322.4c0,0.1-0.1,0.2-0.1,0.3l-8.6,6.6c-0.1,0-0.1,0.1-0.2,0.1c-0.1,0-0.1,0-0.2-0.1
			c-0.1-0.1-0.2-0.3-0.1-0.4l1.7-4.4v-0.2c-0.1,0-0.2,0-0.2,0v0h-3.6c-5.2,0-9.4-4.2-9.4-9.4v-1.2c0-5.2,4.2-9.4,9.4-9.4h9.4v4.3
			h-9.4c-2.8,0-5,2.3-5,5v1.2c0,2.8,2.3,5,5,5h3.7l-1.6-4.1c-0.1-0.1,0-0.3,0.1-0.4c0.1-0.1,0.3-0.1,0.4,0l8.6,6.6
			C284.6,322.2,284.7,322.3,284.7,322.4z"/>
	</g>
	<g>
		<g id="XMLID_36_">
			<g id="XMLID_66_">
				<path id="XMLID_70_" class="st6" d="M378.6,329.2c-0.4-2.6-0.6-5,0.7-7.2c1-1.7,2.6-3.2,3.8-4.8c3.2-4,6.5-8.3,10.4-11.6
					c2.1-1.7,4.1-1.4,7.2-1.4c4.8-0.1,9.6,0,14.4,0c5.1,0,10.1,0.1,15.2,0.1c3.2,0,6.9,0.6,10.1,0.1c2.1-0.4,0,0.3,0-0.5
					c0,0.7,1.1,2,1.4,2.7c0.7,1.7,1.3,3.4,1.8,5.2c1,4.1,1.4,8.5,1.2,12.7c-0.1,3.5-0.7,3.1-3.9,3.3c-0.7,0-1.5,0.5-1.6,1.2
					c-1.2,6-10.6,5.9-12,0.1c-0.2-0.7-0.9-1.2-1.6-1.2c-8.7,0-17.5,0-26.2,0c-1,0-1.6,0.8-1.7,1.7c-0.5,5.6-9.8,5-10.9-0.4
					c-0.1-0.7-0.9-1.2-1.6-1.2c-2.8,0-5.5,0-8.3,0c-2.2,0-2.2,3.4,0,3.4c2.8,0,5.5,0,8.3,0c-0.5-0.4-1.1-0.8-1.6-1.2
					c1.9,9.1,16.6,9.2,17.5-0.4c-0.6,0.6-1.1,1.1-1.7,1.7c8.7,0,17.5,0,26.2,0c-0.5-0.4-1.1-0.8-1.6-1.2c2.3,8.9,16.7,9.3,18.5-0.1
					c-0.5,0.4-1.1,0.8-1.6,1.2c3.9-0.2,6.4,0,7-4.2c0.9-5.9-0.1-13.2-2-18.9c-0.8-2.4-1.8-6.3-4.4-7.1c-1.9-0.6-4.7,0-6.6-0.1
					c-9.7-0.1-19.5-0.2-29.2-0.1c-3.3,0-6.7-0.2-10,0.1c-3,0.3-4.8,2.3-6.9,4.4c-4,4.1-7.6,8.6-11.1,13c-2.9,3.7-3.2,6.8-2.5,11.6
					C375.7,332.3,379,331.4,378.6,329.2z"/>
			</g>
		</g>
		<g>
			<g>
				<path id="back_2_" class="st6" d="M425.1,318.9c0,0.1-0.1,0.2-0.1,0.3l-8.8,6.7c-0.1,0-0.1,0.1-0.2,0.1c-0.1,0-0.2,0-0.2-0.1
					c-0.1-0.1-0.2-0.3-0.1-0.4l1.8-4.7c-0.1,0-0.1-4.4-0.1-4.4l-1.6-4.2c-0.1-0.1,0-0.3,0.1-0.4c0.1-0.1,0.3-0.1,0.4,0l8.8,6.7
					C425.1,318.6,425.1,318.7,425.1,318.9z"/>
				<path id="XMLID_35_" class="st8" d="M417.6,318.9c-15.5,0-22.2-10.7-46.1-10.7"/>
			</g>
			<path id="XMLID_34_" class="st7" d="M420.4,320"/>
		</g>
	</g>
	<g>
		<g>
			<g>
				<path class="st6" d="M54.6,320c0.6-0.6,0.6-1.5,0-2c-7.2-7.2-16.8-11.2-27.1-11.2c-10.2,0-19.8,4-27.1,11.2
					c-0.3,0.3-0.4,0.6-0.4,1c0,0.4,0.1,0.7,0.4,1L17,336.6c0.1,0.1,0.3,0.2,0.5,0.3c-0.1,1.8,0.5,3.6,2.4,5.3
					c0.3,0.2,0.6,0.4,0.9,0.4c0.4,0,0.8-0.2,1.1-0.5c0.5-0.6,0.5-1.5-0.1-2c-1.6-1.4-1.7-2.8-1.2-4.8c2-1.4,4.3-2.2,6.8-2.2
					c-1,2.9-1.7,6.2,1.6,9.1c0.3,0.2,0.6,0.4,0.9,0.4c0.4,0,0.8-0.2,1.1-0.5c0.5-0.6,0.5-1.5-0.1-2c-2.1-1.8-1.7-3.7-0.6-6.6
					c2,0.5,3.8,1.4,5.4,2.9c-0.2,2,0.2,4.1,2.4,5.9c0.3,0.2,0.6,0.4,0.9,0.4c0.4,0,0.8-0.2,1.1-0.5c0.5-0.6,0.5-1.5-0.1-2
					c-1.4-1.2-1.7-2.4-1.4-4L54.6,320z M31.2,330.6c0.7-2.2,0.9-4.5-0.7-6.7l1-0.9c0.2-0.2,0.4-0.5,0.3-0.8c0-0.3-0.2-0.6-0.5-0.7
					l-7-4c-0.3-0.2-0.8-0.2-1.1,0.1c-0.3,0.3-0.4,0.7-0.3,1.1l2.7,7.6c0.1,0.3,0.3,0.5,0.7,0.6c0.1,0,0.2,0,0.2,0
					c0.2,0,0.4-0.1,0.6-0.2l1-0.9c0.8,1.3,0.6,2.6,0,4.4c-0.3,0-0.6,0-0.9,0c-1.9,0-3.8,0.4-5.5,1.1c0.8-2.3,1.2-4.9-0.5-7.3l1-0.9
					c0.2-0.2,0.4-0.5,0.3-0.8c0-0.3-0.2-0.6-0.5-0.7l-7-4c-0.3-0.2-0.8-0.2-1.1,0.1c-0.3,0.3-0.4,0.7-0.3,1.1l2.7,7.6
					c0.1,0.3,0.3,0.5,0.6,0.6c0.1,0,0.2,0,0.2,0c0.2,0,0.4-0.1,0.6-0.2l1-0.9c1,1.6,0.4,3.4-0.6,6.1c-0.2,0.5-0.4,1.1-0.6,1.7
					c0,0-0.1,0-0.1,0.1L3.5,319c6.6-6.1,15-9.4,24-9.4c9,0,17.5,3.3,24,9.4l-11,11c0.5-2,0.6-4.1-0.8-6.1l1-0.9
					c0.2-0.2,0.4-0.5,0.3-0.8c0-0.3-0.2-0.6-0.5-0.7l-7-4c-0.3-0.2-0.8-0.2-1.1,0.1c-0.3,0.3-0.4,0.7-0.3,1.1l2.7,7.6
					c0.1,0.3,0.4,0.5,0.7,0.6c0.1,0,0.2,0,0.2,0c0.2,0,0.4-0.1,0.6-0.2l1-0.9c1,1.6,0.4,3.4-0.6,6.1c-0.2,0.4-0.3,0.8-0.5,1.3
					C34.9,332,33.1,331.1,31.2,330.6L31.2,330.6z M31.2,330.6"/>
			</g>
		</g>
		<text id="XMLID_30_" transform="matrix(1 0 0 1 10.363 301.9904)" class="st6 st9 st10">FRONT</text>
	</g>
	<g>
		<g>
			<g>
				<g>
					<path class="st6" d="M134.6,337.2c-0.1,2.1,0.6,4.2,2.8,6.1c0.3,0.3,0.7,0.4,1.1,0.4c0.5,0,0.9-0.2,1.2-0.6
						c0.6-0.7,0.5-1.7-0.2-2.3c-1.8-1.6-1.9-3.2-1.4-5.5c0.2-0.7,1.6-2.5,2-3.9c0.2-0.7-4.2,2.4-4.6,3.2
						C135.1,335.7,134.5,337.2,134.6,337.2z M139.8,332.7c0.9-2.7,1.4-5-0.6-7.8l1.2-1c0.3-0.2,0.4-0.6,0.4-0.9
						c0-0.4-0.2-0.7-0.5-0.9l-8.1-4.6c-0.4-0.2-0.9-0.2-1.3,0.1c-0.4,0.3-0.5,0.8-0.3,1.2l3.1,8.1c0.1,0.3,0.4,0.6,0.7,0.7
						c0.1,0,0.2,0,0.3,0c0.3,0,0.5-0.1,0.7-0.3l1.2-1c1.2,1.9,0.5,3.9-0.7,7c-0.2,0.6-0.5-0.7-0.7,0c0,0,0.4,1.7,0.3,1.7
						C135.7,335.1,139.2,332.7,139.8,332.7z"/>
				</g>
			</g>
			<g>
				<g>
					<path class="st6" d="M145,337.2c-0.1,2.1,0.6,4.2,2.8,6.1c0.3,0.3,0.7,0.4,1.1,0.4c0.5,0,0.9-0.2,1.2-0.6
						c0.6-0.7,0.5-1.7-0.2-2.3c-1.8-1.6-1.9-3.2-1.4-5.5c0.2-0.7,1.6-2.5,2-3.9c0.2-0.7-4.2,2.4-4.6,3.2
						C145.5,335.7,144.9,337.2,145,337.2z M150.2,332.7c0.9-2.7,1.4-5-0.6-7.8l1.2-1c0.3-0.2,0.4-0.6,0.4-0.9c0-0.4-0.2-0.7-0.5-0.9
						l-8.1-4.6c-0.4-0.2-0.9-0.2-1.3,0.1c-0.4,0.3-0.5,0.8-0.3,1.2l3.1,8.1c0.1,0.3,0.4,0.6,0.7,0.7c0.1,0,0.2,0,0.3,0
						c0.3,0,0.5-0.1,0.7-0.3l1.2-1c1.2,1.9,0.5,3.9-0.7,7c-0.2,0.6-0.5-0.7-0.7,0c0,0,0.4,1.7,0.3,1.7
						C146.1,335.1,149.6,332.7,150.2,332.7z"/>
				</g>
			</g>
			<g>
				<g>
					<path class="st6" d="M155.4,337.2c-0.1,2.1,0.6,4.2,2.8,6.1c0.3,0.3,0.7,0.4,1.1,0.4c0.5,0,0.9-0.2,1.2-0.6
						c0.6-0.7,0.5-1.7-0.2-2.3c-1.8-1.6-1.9-3.2-1.4-5.5c0.2-0.7,1.6-2.5,2-3.9c0.2-0.7-4.2,2.4-4.6,3.2
						C155.9,335.7,155.3,337.2,155.4,337.2z M160.6,332.7c0.9-2.7,1.4-5-0.6-7.8l1.2-1.6c0.3-0.2,0.4-0.6,0.4-0.9
						c0-0.4-0.2-0.7-0.5-0.9l-8.1-4c-0.4-0.2-0.9-0.2-1.3,0.1c-0.4,0.3-0.5,0.8-0.3,1.2l3.1,8.1c0.1,0.3,0.4,0.6,0.7,0.7
						c0.1,0,0.2,0,0.3,0c0.3,0,0.5-0.1,0.7-0.3l1.2-1c1.2,1.9,0.5,3.9-0.7,7c-0.2,0.6-0.5-0.7-0.7,0c0,0,0.4,1.7,0.3,1.7
						C156.5,335.1,160,332.7,160.6,332.7z"/>
				</g>
			</g>
			<path id="XMLID_23_" class="st11" d="M169,333.5c0,0.7-0.6,1.3-1.3,1.3h-42.4c-0.7,0-1.3-0.6-1.3-1.3v-23.1
				c0-0.7,0.6-1.3,1.3-1.3h42.4c0.7,0,1.3,0.6,1.3,1.3V333.5z"/>
		</g>
		<text id="XMLID_22_" transform="matrix(1 0 0 1 131.1809 302.258)" class="st6 st9 st12">REAR</text>
	</g>
	<text id="XMLID_21_" transform="matrix(1 0 0 1 641.8748 128.9845)" class="st6 st9 st13 st14">24°</text>
	<g>
		<g>
			<g>
				<path id="XMLID_20_" class="st6" d="M432.4,160.3c-1.8,0.4-3.7,0.2-5.5-0.7c-3.9-2.1-5.4-6.9-3.3-10.8l18.6-35.1
					c1.6-3,4.9-4.7,8.3-4.2l20.2,3c0.3,0,0.6,0.1,0.9,0.2c2.7,0.7,9.6,1.3,12.1-7l3.8-19.1c1.7-5.4,7.3-8.4,12.7-6.7
					c5.4,1.7,8.4,7.3,6.7,12.7l-7.9,17.8c-5.2,17.5-21.2,20.3-31,18l-14.2-2.1l-16,30.1C436.5,158.4,434.6,159.8,432.4,160.3z"/>
			</g>
			<circle id="XMLID_19_" class="st6" cx="496.5" cy="62.4" r="12.9"/>
		</g>
		<polygon id="XMLID_18_" class="st6" points="470.5,66.7 456,54.8 456,61.2 444.5,61.2 444.5,66.6 444.5,72.2 456,72.2 456,78.5 		
			"/>
		<polygon id="XMLID_17_" class="st6" points="414.2,129.6 426,115.2 419.6,115.2 419.6,103.7 414.2,103.7 408.7,103.7 408.7,115.2 
			402.3,115.2 		"/>
		<text id="XMLID_15_" transform="matrix(1 0 0 1 430.9587 36.6671)" class="st6 st9 st15 st16">MODE</text>
	</g>
	<text id="XMLID_10_" transform="matrix(1 0 0 1 507.1248 324.9484)" class="st6 st17 st18 st16">A/C</text>
	<text id="XMLID_8_" transform="matrix(1 0 0 1 755.5291 324.9484)" class="st6 st17 st18 st16">AUTO</text>
	<g>
		<path class="st6" d="M629,313.5c0.8-0.3,1.7-0.2,2.6,0.1c0.6,0.1,1.2,0.3,1.9,0.3c0.9,0,1.8-0.3,2.7-0.8c1.3-0.8,2.3-2.3,2.5-3.9
			c0.2-1.9-0.5-3.7-2-5.2c-1.5-1.5-3.5-2.3-5.6-2.3c-2.2,0-4.2,0.8-5.7,2.4c-1.9,1.9-3.2,5-3.2,7.8c-0.5-0.3-0.9-0.7-1.1-1.3
			c-0.3-0.9-0.1-1.7,0.1-2.6c0.3-1.2,0.6-2.8-0.5-4.6c-0.9-1.5-2.7-2.5-4.6-2.5c-1.6,0-3.2,0.7-4.5,2c-3.1,3.1-3.1,8.2,0.1,11.3
			c1.9,1.9,5,3.2,7.8,3.2c-0.3,0.5-0.7,0.9-1.3,1.1c-0.8,0.3-1.7,0.2-2.6,0c-0.6-0.1-1.2-0.3-1.9-0.3c-0.9,0-1.8,0.3-2.7,0.8
			c-1.3,0.8-2.3,2.3-2.5,3.9c-0.2,1.9,0.5,3.7,2,5.2c1.5,1.5,3.5,2.3,5.6,2.3c2.2,0,4.2-0.8,5.7-2.4c1.9-1.9,3.2-5,3.2-7.8
			c0.5,0.3,0.9,0.7,1.1,1.3c0.3,0.9,0.2,1.7,0,2.6c-0.3,1.2-0.6,2.8,0.5,4.6c0.9,1.5,2.7,2.5,4.6,2.5c1.6,0,3.2-0.7,4.5-2
			c3.1-3.1,3.1-8.2-0.1-11.3c-1.9-1.9-5-3.2-7.8-3.2C628,314.1,628.4,313.7,629,313.5L629,313.5z M624.8,317.1
			c-0.7,0.7-1.9,0.7-2.6,0c-0.7-0.7-0.7-1.9,0-2.6c0.3-0.3,0.8-0.5,1.3-0.5c0.5,0,1,0.2,1.3,0.5
			C625.5,315.3,625.5,316.4,624.8,317.1L624.8,317.1z M624.8,317.1"/>
		<text id="XMLID_2_" transform="matrix(1 0 0 1 641.1248 322.9543)" class="st6 st17 st19">ON/OFF</text>
	</g>
</g>
</svg>
