<?xml version="1.0" encoding="UTF-8" standalone="no"?>
<!-- Generator: Adobe Illustrator 16.0.0, SVG Export Plug-In . SVG Version: 6.00 Build 0)  -->

<svg
   xmlns:dc="http://purl.org/dc/elements/1.1/"
   xmlns:cc="http://creativecommons.org/ns#"
   xmlns:rdf="http://www.w3.org/1999/02/22-rdf-syntax-ns#"
   xmlns:svg="http://www.w3.org/2000/svg"
   xmlns="http://www.w3.org/2000/svg"
   xmlns:sodipodi="http://sodipodi.sourceforge.net/DTD/sodipodi-0.dtd"
   xmlns:inkscape="http://www.inkscape.org/namespaces/inkscape"
   version="1.0"
   id="tochpad"
   x="0px"
   y="0px"
   width="220.398px"
   height="326.49px"
   viewBox="0 0 220.398 326.49"
   enable-background="new 0 0 220.398 326.49"
   xml:space="preserve"
   sodipodi:docname="buzdolabi.svg"
   inkscape:version="0.92.2 5c3e80d, 2017-08-06"><metadata
     id="metadata60"><rdf:RDF><cc:Work
         rdf:about=""><dc:format>image/svg+xml</dc:format><dc:type
           rdf:resource="http://purl.org/dc/dcmitype/StillImage" /><dc:title></dc:title></cc:Work></rdf:RDF></metadata><defs
     id="defs58" /><sodipodi:namedview
     pagecolor="#ffffff"
     bordercolor="#666666"
     borderopacity="1"
     objecttolerance="10"
     gridtolerance="10"
     guidetolerance="10"
     inkscape:pageopacity="0"
     inkscape:pageshadow="2"
     inkscape:window-width="1920"
     inkscape:window-height="1051"
     id="namedview56"
     showgrid="false"
     inkscape:zoom="1.4456798"
     inkscape:cx="30.794188"
     inkscape:cy="177.20855"
     inkscape:window-x="0"
     inkscape:window-y="0"
     inkscape:window-maximized="1"
     inkscape:current-layer="tochpad" /><g
     id="buzdolabi"><path
       fill="#FFFFFF"
       d="M219.444,233.415c0,0-0.824,6.084-4.104,12.035c0-0.668,0-1.336,0-2.053V67.095   c3.426-6.292,4.046-11.414,4.046-11.414l1.013,2.032L219.444,233.415z"
       id="path2" /><path
       fill="#FFFFFF"
       d="M215.34,57.615l4.104-2.337c0,0-0.805,6.063-4.104,12.008c0,0,0.016,0.02,0,0.02   c-1.027,1.863-2.29,3.708-3.846,5.352c-5.196,5.502-48.229,31.325-73.779,44.125c-6.614,3.316-12.065,5.76-15.381,6.749   c-4.478,1.353-8.527,2.122-12.031,2.547c-9.125,1.095-14.646-0.187-14.646-0.187L215.34,57.615z"
       id="path4" /><path
       fill="#8D9091"
       d="M215.34,245.45c0,6.389,0,9.994,0,9.994l-77.625,44.814v-5.332c25.551-12.802,68.583-38.627,73.779-44.129   C213.05,249.157,214.313,247.312,215.34,245.45z"
       id="path6" /><path
       fill="#E6E4E5"
       d="M215.34,243.397c0,0.717,0,1.385,0,2.053c-1.027,1.861-2.29,3.707-3.846,5.348   c-5.196,5.502-48.229,31.327-73.779,44.129v-178.8c25.551-12.804,68.583-38.625,73.779-44.127c1.556-1.64,2.818-3.316,3.846-4.905   V243.397z"
       id="path8" /><path
       fill="#747C7D"
       d="M215.34,52.9c0,0,0,1.742,0,4.938L95.656,126.115l1.556,177.032c-1.008,0.58-1.556,0.887-1.556,0.887   s0.6,0.138,1.742,0.292c-2.751,1.59-4.53,2.611-5.11,2.938V123.946L215.34,52.9z"
       id="path10" /><path
       fill="#ECECEB"
       d="M92.288,124.094l-0.205,0.117L0,71.044l20.289-11.708C39.806,77.451,69.85,87.859,95.416,87.059   c36.745-0.858,70.925-19.227,97.844-42.727c0.922-0.805,1.829-1.625,2.697-2.426l19.383,11.144L92.288,124.094z"
       id="path12" /><path
       fill="#DDDDDD"
       d="M123.051,0l72.906,41.905c-0.868,0.801-1.775,1.621-2.697,2.426c-26.919,23.5-61.099,41.869-97.844,42.727   c-25.566,0.8-55.61-9.607-75.127-27.722L123.051,0z"
       id="path14" /><path
       fill="#8D9091"
       d="M137.715,294.927v5.332l-27.412,15.821v-11.858c3.504-0.427,7.554-1.199,12.031-2.549   C125.649,300.683,131.101,298.24,137.715,294.927z"
       id="path16" /><path
       fill="#EFEEEE"
       d="M113.379,221.913c1.247,0.618,3.451,1.709,5.432,2.703c0,0.016,0.021,0.016,0.021,0.016   c0.802,0.975,2.768,1.777,4.663,2.051c0.513,0.445,1.266,0.494,2.102,0.086c1.539-0.734,2.787-2.768,2.787-4.511   c0,0,0-44.966,0-58.896c0-0.237,0-0.479,0-0.717c0-10.424,0-19.704,0-19.704c0-0.633-0.171-1.147-0.463-1.504l-0.02-0.017   c-0.067-0.342-0.44-0.652-1.005-0.925l-0.155-0.068l-10.68-5.317l-0.054,0.068c-0.428-0.306-0.923-0.356-1.468-0.101   c-1.437,0.685-2.599,3.297-2.599,5.847h-1.639v-15.521c3.504-0.427,7.554-1.196,12.031-2.53c3.315-0.992,8.767-3.435,15.381-6.748   v178.8c-6.614,3.313-12.065,5.756-15.381,6.746c-4.478,1.35-8.527,2.122-12.031,2.549v-85.775h1.639   c0,1.813,0.599,3.093,1.454,3.419L113.379,221.913z"
       id="path18" /><path
       fill="#DDDDDD"
       d="M128.384,163.362c0,13.93,0,58.896,0,58.896c0,1.743-1.248,3.776-2.787,4.511   c-0.65,0.068-1.364,0.036-2.102-0.086c-0.425-0.341-0.684-0.939-0.684-1.727c0,0,0.136-48.484,0.136-60.941h-0.136   c0-9.88,0-18.376,0-18.376c0-1.741,1.248-3.754,2.785-4.509c0.959-0.464,1.812-0.327,2.305,0.292l0.02,0.017   c0.292,0.356,0.463,0.871,0.463,1.504c0,0,0,9.28,0,19.704C128.384,162.884,128.384,163.125,128.384,163.362z"
       id="path20" /><path
       fill="#BABABA"
       d="M122.812,164.015h0.136c0,12.457-0.136,60.941-0.136,60.941c0,0.787,0.259,1.386,0.684,1.727   c-1.896-0.273-3.861-1.076-4.663-2.051c0,0-0.021,0-0.021-0.016c-0.218-0.292-0.354-0.581-0.354-0.889c0,0,0-3.951,0-9.897   c0-13.84,0-38.555,0-49.815c0-0.924,0-1.765,0-2.5c0-6.115,0-11.567,0-14.592c0-1.591,0-2.495,0-2.495   c0-1.765,1.246-3.779,2.783-4.514c0.973-0.479,3.844-0.186,5.502,0.513l0.155,0.068c0.564,0.273,0.938,0.583,1.005,0.925   c-0.493-0.619-1.346-0.756-2.305-0.292c-1.537,0.755-2.785,2.769-2.785,4.509C122.812,145.638,122.812,154.134,122.812,164.015z"
       id="path22" /><path
       fill="#BABABA"
       d="M116.008,135.179l0.054-0.068l10.68,5.317c-1.658-0.699-4.529-0.992-5.502-0.513   c-1.537,0.735-2.783,2.75-2.783,4.514c0,0,0,0.903,0,2.495c-1.9-0.94-3.916-1.949-5.077-2.532l0.032-0.049   c-0.871-0.308-1.47-1.607-1.47-3.417c0-2.55,1.162-5.163,2.599-5.847C115.085,134.823,115.58,134.873,116.008,135.179z"
       id="path24" /><path
       fill="#BABABA"
       d="M116.008,212.702l0.054-0.068c0,0,1.009,0.498,2.395,1.196c0,5.946,0,9.897,0,9.897   c0,0.308,0.137,0.597,0.354,0.889c-1.98-0.994-4.185-2.085-5.432-2.703l0.017-0.048c-0.855-0.326-1.454-1.606-1.454-3.419   c0-2.549,1.162-5.16,2.599-5.846C115.085,212.346,115.58,212.398,116.008,212.702z"
       id="path26" /><path
       fill="#EFEEEE"
       d="M113.379,144.392c1.161,0.583,3.177,1.591,5.077,2.532c0,3.024,0,8.477,0,14.592c0,0.734,0,1.576,0,2.5   c0,11.261,0,35.976,0,49.815c-1.386-0.698-2.395-1.196-2.395-1.196l-0.054,0.068c-0.428-0.304-0.923-0.356-1.468-0.102   c-1.437,0.686-2.599,3.297-2.599,5.846h-1.639v-77.521h1.639c0,1.81,0.599,3.109,1.47,3.417L113.379,144.392z"
       id="path28" /><path
       fill="#8D9091"
       d="M110.303,304.222v11.858l-18.015,10.41v-19.228c0.58-0.326,2.359-1.348,5.11-2.938   C99.704,304.616,104.2,304.957,110.303,304.222z"
       id="path30" /><path
       fill="#E6E4E5"
       d="M97.398,304.325c-1.143-0.154-1.742-0.292-1.742-0.292s0.548-0.307,1.556-0.887l-1.556-177.254   c0.399,0.253,5.521,0.625,14.646-0.487v15.521v77.521v85.775C104.2,304.957,99.704,304.616,97.398,304.325z"
       id="path32" /><path
       fill="#9C9E9E"
       d="M74.311,297.129l17.772,10.254c0,0,0.069-0.033,0.205-0.12v19.228L5.265,275.306v-18.066L74.311,297.129z"
       id="path34" /><path
       fill="#C6C5C5"
       d="M92.288,109.426v194.997c-0.136,0.064,0,2.84,0,2.84l-17.978-10.298c-0.6-18.199-1.589-66.98-2.104-81.471   c-1.144-25.998-2.29-50.31-15.961-74.624c-5.691-10.904-13.675-20.968-25.055-28.93C23.806,106.847,11.196,98.998,0,95.765V71.044   l92.288,52.901V109.426z"
       id="path36" /><path
       fill="#BABABA"
       d="M5.265,257.239l-5.248-2.518l0,0L0,95.765c11.196,3.087,23.806,11.208,31.191,16.073   c11.38,7.604,21.692,20.398,27.884,33.539c12.848,27.267,11.988,49.014,13.132,73.842c0.515,13.841,1.504,60.43,2.104,77.812   L5.265,257.239z"
       id="path38" /><path
       opacity="0.5"
       fill="#00ACED"
       d="M203.396,141.899c-2.034,1.116-4.07,2.262-6.106,3.392c0.072-0.24,0.158-0.481,0.275-0.726   c1.142-2.384,2.683-4.338,3.403-6.916c0.608-2.175-1.25-2.079-1.823-0.026c-0.813,2.906-3.703,5.932-4.178,8.957   c-1.775,0.989-3.549,1.959-5.326,2.959c0.512-2.994,3.429-7.875,4.416-10.302c0.882-2.165-1.022-1.992-1.823-0.026   c-1.379,3.385-4.25,7.89-4.743,11.539c-0.966,0.547-1.931,1.081-2.896,1.631c-0.292-1.376-1.056-2.464-1.526-3.4   c-0.68-1.358-1.365-2.436-2.517-2.628c0.646-2.104,1.277-4.207,1.88-6.307c2.463-1.598,4.903-2.406,7.375-3.803   c1.24-0.7,2.053-4.026,0.643-3.229c-2.31,1.305-4.59,2.136-6.887,3.473c0.667-1.954,1.398-3.883,2.143-5.809   c2.24-1.185,4.457-2.038,6.708-3.432c1.291-0.799,1.583-3.83,0.101-2.913c-1.814,1.123-3.61,1.857-5.412,2.733   c0.881-2.293,1.736-4.592,2.478-6.93c0.694-2.19-1.175-2.071-1.823-0.026c-0.714,2.25-1.545,4.472-2.404,6.689   c-0.613-1.262-1.081-3.757-1.275-4.439c-0.436-1.53-2.494,0.957-2.108,2.31c0.571,2.008,1.204,3.94,1.984,5.714   c-0.818,2.101-1.619,4.21-2.328,6.349c-0.94-1.985-1.872-3.978-2.609-6.204c-0.487-1.471-2.54,1.008-2.108,2.309   c0.957,2.89,2.185,5.441,3.402,8.024c0.003,0.007,0.011,0.008,0.013,0.015c-0.606,1.972-1.211,3.944-1.819,5.912   c-1.181,0.609-2.461,1.712-3.608,2.251c-1.291,0.606-2.504,1.144-3.794,2.131c-0.014,0.009-0.026,0.024-0.039,0.036   c-0.611-0.914-1.219-1.833-1.812-2.773c-0.122-0.193-0.252-0.384-0.377-0.576c1.051-3.636,2.235-7.26,3.779-10.811   c0.893-2.053-0.542-3.003-1.452-0.911c-1.413,3.249-2.573,6.517-3.592,9.827c-0.842-1.227-1.699-2.459-2.514-3.749   c1.278-2.893,1.821-6.215,2.682-9.106c0.651-2.184-1.213-2.075-1.823-0.026c-0.704,2.363-1.231,4.718-1.975,7.083   c-0.011,0.035-0.021,0.065-0.031,0.1c-0.854-1.543-1.613-3.186-2.161-5.023c-0.45-1.514-2.507,0.971-2.107,2.308   c0.634,2.126,1.52,3.894,2.506,5.533c-0.063,0.033-0.121,0.071-0.191,0.104c-1.207,0.558-2.372,0.669-3.567,1.122   c-1.244,0.472-2.052,3.763-0.643,3.229c1.827-0.692,3.877-0.719,5.608-2.566c0.629,0.949,1.271,1.885,1.898,2.855   c0.133,0.205,0.263,0.412,0.395,0.616c-2.193,1.287-4.382,2.38-6.576,3.66c-1.238,0.723-2.051,4.05-0.645,3.231   c2.847-1.661,5.683-3.045,8.528-4.851c0.8,1.25,1.602,2.496,2.399,3.748c-0.84,3.047-2.14,6.232-2.798,9.259   c-1.672,1.129-3.344,2.258-5.017,3.37c-0.378-3.101-3.451-4.62-4.848-6.215c-0.819-0.937-2.683,1.981-1.923,2.85   c1.399,1.598,3.001,2.846,4.211,4.741c0.046,0.071,0.082,0.147,0.115,0.223c-1.535,0.994-3.069,1.966-4.604,2.876   c-0.436-2.223-2.533-3.313-3.542-4.547c-0.796-0.977-2.661,1.943-1.922,2.85c0.914,1.119,1.985,1.97,2.812,3.217   c-1.646,0.902-3.291,1.73-4.936,2.455c-1.249,0.552-2.059,3.854-0.644,3.23c1.917-0.846,3.829-1.844,5.739-2.926   c-0.631,2.521-2.266,6.123-2.825,7.523c-0.868,2.17,1.034,2.002,1.824,0.025c0.942-2.359,2.604-6.023,3.276-8.879   c1.489-0.9,2.979-1.855,4.467-2.83c-0.334,0.849-0.764,1.722-1.096,2.52c-1.021,2.455-1.591,5.034-2.534,7.521   c-0.828,2.181,1.065,2.022,1.823,0.025c1.15-3.031,1.904-6.041,3.173-9.043c0.366-0.865,0.747-1.739,1.031-2.605   c1.679-1.125,3.36-2.267,5.043-3.402c0.125,2.558,2.069,4.435,3.066,5.76c0.11,0.146,0.233,0.25,0.364,0.323   c-0.809,2.159-1.603,4.324-2.37,6.495c-2.303,0.1-5.525,3.302-7.859,4.91c-1.285,0.886-1.584,3.935-0.101,2.913   c2.149-1.481,4.278-3.39,6.437-4.322c0.127-0.056,0.233-0.07,0.345-0.095c-0.83,2.482-1.649,5.041-2.509,7.598   c-1.796,1.137-3.577,2.401-5.36,3.086c-1.246,0.478-2.053,3.77-0.643,3.229c1.574-0.604,3.151-1.628,4.733-2.652   c-0.913,2.532-1.894,5.02-2.997,7.371c-0.959,2.043,0.485,2.971,1.452,0.912c1.091-2.324,2.021-4.724,2.888-7.147   c0.241,0.787,0.506,1.547,0.872,2.183c0.386,0.67,0.521,1.859,1.072,2.276c0.638,0.478,1.577-1.022,1.825-2.021   c0.023-0.094,0.047-0.187,0.07-0.281c0.247-0.996-0.058-1.304-0.507-1.172c-0.321-0.556-0.557-1.683-0.827-2.152   c-0.472-0.82-0.724-2.029-1.032-3.104c0.678-2.018,1.346-4.031,2.053-6.01c0.125-0.354,0.253-0.702,0.38-1.053   c0.191,0.461,0.34,1.002,0.511,1.492c0.542,1.547,1.453,2.592,2.3,3.736c0.761,1.033,2.629-1.888,1.922-2.85   c-1.069-1.45-1.969-2.805-2.636-4.773c-0.194-0.58-0.429-1.045-0.73-1.392c0.917-2.523,1.837-5.043,2.761-7.563   c0.553-0.314,1.117-0.712,1.638-1.024c1.769-1.063,3.262-1.741,4.677-3.188c0.78,1.297,1.57,2.581,2.367,3.853   c-0.014,0.056-0.029,0.112-0.041,0.165c-0.706,3.543-1.235,7.416-2.909,10.928c-0.972,2.041,0.475,2.964,1.453,0.912   c1.519-3.188,2.286-6.496,2.939-9.76c0.839,1.268,1.701,2.49,2.578,3.698c-0.24,0.561-0.405,1.157-0.496,1.743   c-0.345,2.217-0.564,4.566-1.403,6.844c-0.807,2.188,1.083,2.035,1.823,0.025c0.806-2.186,1.148-4.373,1.464-6.52   c0.918,1.795,1.361,4.111,2.211,6.009c0.571,1.276,2.455-1.659,1.923-2.851c-0.827-1.847-1.217-4.09-2.092-5.869   c0.374-0.206,0.747-0.385,1.113-0.566c1.068-0.533,2.128-0.992,3.2-1.603c1.24-0.708,2.052-4.032,0.643-3.229   c-1.982,1.131-4.187,1.75-6.202,3.381c-0.821-1.126-1.728-2.15-2.485-3.338c-0.051-0.08-0.1-0.16-0.15-0.238   c2.264-1.203,4.5-2.197,6.734-2.876c1.233-0.375,2.038-3.653,0.645-3.23c-2.889,0.88-5.779,2.292-8.719,3.976   c-0.872-1.385-1.748-2.764-2.61-4.158c1.587-2.777,3.25-6.741,4.346-9.745c0.032-0.09,0.056-0.177,0.083-0.263   c1.051-0.598,2.099-1.183,3.148-1.77c0.598,3.004,2.787,4.66,4.317,6.328c0.834,0.909,2.695-2.008,1.923-2.852   c-1.332-1.453-2.859-2.78-3.779-4.85c1.673-0.926,3.344-1.84,5.015-2.755c0.471,2.549,1.951,4.313,3.333,5.551   c0.858,0.767,2.455-2.437,1.594-3.208c-0.694-0.621-2.049-1.925-2.617-3.608c1.799-0.982,3.598-1.963,5.393-2.947   C203.996,144.446,204.809,141.125,203.396,141.899z M175.38,151.71c0.717-0.428,1.366-0.867,1.963-1.202   c-0.712,2.27-1.436,4.542-2.189,6.812c-0.9-1.398-1.826-2.76-2.753-4.123C173.393,152.67,174.358,152.321,175.38,151.71z    M169.666,159.429c0.357-1.072,0.691-2.141,1.006-3.209c0.686,1.068,1.368,2.14,2.059,3.202c-1.279,0.821-2.559,1.666-3.839,2.523   C169.104,161.134,169.378,160.29,169.666,159.429z M171.118,168.626c-0.401-0.172-0.775-0.514-1.154-1.113   c-0.328-0.466-0.646-0.945-0.954-1.441c-0.228-0.355-0.352-0.76-0.416-1.196c1.302-0.865,2.606-1.717,3.913-2.54   c0.395-0.247,0.79-0.486,1.186-0.732C172.865,163.951,171.994,166.288,171.118,168.626z M174.508,167.585   c-0.537,0.322-1.005,0.589-1.429,0.791c0.65-1.781,1.308-3.563,1.948-5.348c0.633,1.021,1.257,2.053,1.88,3.086   C176.147,166.697,175.328,167.092,174.508,167.585z M181.816,157.165c-0.96,2.057-1.876,4.041-2.778,6.128   c-0.032,0.076-0.068,0.132-0.101,0.203c-0.757-1.239-1.517-2.47-2.26-3.727c1.785-1.079,3.573-2.127,5.361-3.161   C181.976,156.792,181.904,156.976,181.816,157.165z M177.236,156.644c0.752-2.22,1.477-4.445,2.185-6.669   c0.461,0.112,0.895,0.439,1.311,1.091c0.43,0.679,1.089,1.597,1.4,2.734C180.499,154.742,178.868,155.683,177.236,156.644z"
       id="path40" /></g><g
     id="g43" /><g
     id="g45" /><g
     id="g47" /><g
     id="g49" /><g
     id="g51" /><g
     id="g53" /></svg>