<?xml version="1.0" encoding="utf-8"?>
<!-- Generator: Adobe Illustrator 19.0.0, SVG Export Plug-In . SVG Version: 6.00 Build 0)  -->
<svg version="1.1" id="Layer_1" xmlns="http://www.w3.org/2000/svg" xmlns:xlink="http://www.w3.org/1999/xlink" x="0px" y="0px"
	 viewBox="-226.5 365 64 64" style="enable-background:new -226.5 365 64 64;" xml:space="preserve">
<style type="text/css">
	.st0{fill:#F0F0F1;}
</style>
<g id="Controls">
	<path id="XMLID_34_" class="st0" d="M-213.2,428.9c4.6,0,8.3-3.7,8.3-8.3c0-4.2-3.1-7.7-7.1-8.2v-37c0-0.7-0.5-1.2-1.2-1.2
		s-1.2,0.5-1.2,1.2v37c-4,0.6-7.1,4-7.1,8.2C-221.5,425.2-217.8,428.9-213.2,428.9z M-213.2,414.6c3.3,0,5.9,2.7,5.9,5.9
		c0,3.3-2.7,5.9-5.9,5.9c-3.3,0-5.9-2.7-5.9-5.9S-216.5,414.6-213.2,414.6z"/>
	<path id="XMLID_31_" class="st0" d="M-175.6,390.8v37c0,0.7,0.5,1.2,1.2,1.2c0.7,0,1.2-0.5,1.2-1.2v-37c4-0.6,7.1-4,7.1-8.2
		c0.1-4.7-3.7-8.4-8.3-8.4c-4.6,0-8.3,3.7-8.3,8.3C-182.7,386.7-179.6,390.2-175.6,390.8z M-174.4,376.6c3.3,0,5.9,2.7,5.9,5.9
		c0,3.3-2.7,5.9-5.9,5.9c-3.3,0-5.9-2.7-5.9-5.9C-180.3,379.2-177.6,376.6-174.4,376.6z"/>
	<path id="XMLID_28_" class="st0" d="M-195,408.6v19.1c0,0.7,0.5,1.2,1.2,1.2s1.2-0.5,1.2-1.2v-19.1c4-0.6,7.1-4,7.1-8.2
		c0-4.2-3.1-7.7-7.1-8.2v-16.8c0-0.7-0.5-1.2-1.2-1.2s-1.2,0.5-1.2,1.2v16.7c-4,0.6-7.1,4-7.1,8.2C-202.1,404.6-199,408-195,408.6z
		 M-193.8,394.4c3.3,0,5.9,2.7,5.9,5.9c0,3.3-2.7,5.9-5.9,5.9c-3.3,0-5.9-2.7-5.9-5.9C-199.7,397.1-197.1,394.4-193.8,394.4z"/>
</g>
</svg>
