<?xml version="1.0" encoding="utf-8"?>
<!-- Generator: Adobe Illustrator 18.0.0, SVG Export Plug-In . SVG Version: 6.00 Build 0)  -->
<!DOCTYPE svg PUBLIC "-//W3C//DTD SVG 1.1//EN" "http://www.w3.org/Graphics/SVG/1.1/DTD/svg11.dtd">
<svg version="1.1" id="Layer_1" xmlns="http://www.w3.org/2000/svg" xmlns:xlink="http://www.w3.org/1999/xlink" x="0px" y="0px"
	 viewBox="0 0 85 85" enable-background="new 0 0 85 85" xml:space="preserve">
<g>
	<g>
		
			<radialGradient id="SVGID_1_" cx="43.3333" cy="71.2443" r="27.8869" gradientTransform="matrix(1.3421 0 0 0.1342 -15.6579 60.3484)" gradientUnits="userSpaceOnUse">
			<stop  offset="0" style="stop-color:#414042"/>
			<stop  offset="0.5049" style="stop-color:#9F9FA0;stop-opacity:0.4951"/>
			<stop  offset="1" style="stop-color:#FFFFFF;stop-opacity:0"/>
		</radialGradient>
		<ellipse fill="url(#SVGID_1_)" cx="42.5" cy="69.9" rx="52" ry="5.6"/>
	</g>
	<g>
		<g>
			<g enable-background="new    ">
				<g enable-background="new    ">
					<defs>
						<path id="SVGID_2_" enable-background="new    " d="M72.6,46.3l-2.3-1.2c1.7-0.2,3.1-1.9,3.1-3.7l2.3,1.2
							C75.7,44.4,74.3,46.1,72.6,46.3z"/>
					</defs>
					<clipPath id="SVGID_3_">
						<use xlink:href="#SVGID_2_"  overflow="visible"/>
					</clipPath>
					<g clip-path="url(#SVGID_3_)" enable-background="new    ">
						<path fill="#A8A8A8" d="M72.6,46.3l-2.3-1.2c0.3,0,0.6-0.1,0.9-0.3l2.3,1.2C73.2,46.2,72.9,46.3,72.6,46.3"/>
						<path fill="#A3A3A3" d="M73.5,46l-2.3-1.2c0.2-0.1,0.3-0.2,0.5-0.3l2.3,1.2C73.9,45.8,73.7,45.9,73.5,46"/>
						<path fill="#9E9E9E" d="M74,45.7l-2.3-1.2c0.1-0.1,0.3-0.2,0.4-0.3l2.3,1.2C74.3,45.6,74.2,45.7,74,45.7"/>
						<path fill="#999999" d="M74.4,45.4l-2.3-1.2c0.1-0.1,0.2-0.2,0.3-0.3l2.3,1.2C74.6,45.2,74.5,45.3,74.4,45.4"/>
						<path fill="#949494" d="M74.7,45.1l-2.3-1.2c0.1-0.1,0.2-0.2,0.3-0.3l2.3,1.2C74.9,44.9,74.8,45,74.7,45.1"/>
						<path fill="#8F8F8F" d="M75,44.8l-2.3-1.2c0.1-0.1,0.2-0.3,0.2-0.4l2.3,1.2C75.2,44.5,75.1,44.7,75,44.8"/>
						<path fill="#8A8A8A" d="M75.2,44.4l-2.3-1.2c0.1-0.2,0.2-0.3,0.2-0.5l2.3,1.2C75.4,44,75.3,44.2,75.2,44.4"/>
						<path fill="#858585" d="M75.5,43.9l-2.3-1.2c0.2-0.4,0.2-0.8,0.2-1.3l2.3,1.2C75.7,43,75.6,43.5,75.5,43.9"/>
					</g>
				</g>
				<g>
					<polygon fill="#828282" points="75.7,42.6 73.4,41.3 73.4,36.8 75.7,38 					"/>
				</g>
				<g>
					<polygon fill="#B4B4B4" points="68.3,49.3 66,48 67,47.9 69.3,49.1 					"/>
				</g>
				<g>
					<polygon fill="#B4B4B4" points="69.3,46.8 67,45.5 70.4,45.1 72.6,46.3 					"/>
				</g>
				<g enable-background="new    ">
					<defs>
						<path id="SVGID_4_" enable-background="new    " d="M65.4,47.9c0.2,0.1,0.4,0.1,0.6,0.1l2.3,1.2c-0.2,0-0.4,0-0.6-0.1
							C67,48.8,66.1,48.3,65.4,47.9z"/>
					</defs>
					<clipPath id="SVGID_5_">
						<use xlink:href="#SVGID_4_"  overflow="visible"/>
					</clipPath>
					<g clip-path="url(#SVGID_5_)" enable-background="new    ">
						<path fill="#9E9E9E" d="M67.7,49.2l-2.3-1.2c0,0,0,0,0,0L67.7,49.2C67.7,49.2,67.7,49.2,67.7,49.2"/>
						<path fill="#A3A3A3" d="M67.7,49.2L65.4,48c0.1,0,0.1,0,0.2,0.1l2.3,1.2C67.8,49.2,67.8,49.2,67.7,49.2"/>
						<path fill="#A8A8A8" d="M67.9,49.3L65.6,48c0.1,0,0.2,0,0.4,0l2.3,1.2C68.1,49.3,68,49.3,67.9,49.3"/>
					</g>
				</g>
				<g>
					<polygon fill="#B4B4B4" points="68.3,46.9 66,45.7 67,45.5 69.3,46.8 					"/>
				</g>
				<g enable-background="new    ">
					<defs>
						<path id="SVGID_6_" enable-background="new    " d="M67.7,49.2l-2.3-1.2c-0.3-0.1-0.5-0.4-0.5-0.8l2.3,1.2
							C67.2,48.7,67.4,49,67.7,49.2z"/>
					</defs>
					<clipPath id="SVGID_7_">
						<use xlink:href="#SVGID_6_"  overflow="visible"/>
					</clipPath>
					<g clip-path="url(#SVGID_7_)" enable-background="new    ">
						<path fill="#858585" d="M67.7,49.2l-2.3-1.2c-0.3-0.1-0.5-0.4-0.5-0.8l2.3,1.2C67.2,48.7,67.4,49,67.7,49.2"/>
					</g>
				</g>
				<g enable-background="new    ">
					<defs>
						<path id="SVGID_8_" enable-background="new    " d="M67.2,48.4l-2.3-1.2c0.1-0.9,0.5-1.4,1.1-1.5l2.3,1.2
							C67.7,47,67.2,47.5,67.2,48.4z"/>
					</defs>
					<clipPath id="SVGID_9_">
						<use xlink:href="#SVGID_8_"  overflow="visible"/>
					</clipPath>
					<g clip-path="url(#SVGID_9_)" enable-background="new    ">
						<path fill="#858585" d="M67.2,48.4l-2.3-1.2c0-0.2,0.1-0.4,0.1-0.6l2.3,1.2C67.2,48,67.2,48.2,67.2,48.4"/>
						<path fill="#8A8A8A" d="M67.3,47.8L65,46.5c0-0.1,0.1-0.2,0.1-0.2l2.3,1.2C67.4,47.6,67.3,47.7,67.3,47.8"/>
						<path fill="#8F8F8F" d="M67.4,47.6l-2.3-1.2c0-0.1,0.1-0.1,0.1-0.2l2.3,1.2C67.5,47.5,67.4,47.5,67.4,47.6"/>
						<path fill="#949494" d="M67.5,47.4l-2.3-1.2c0,0,0.1-0.1,0.1-0.1l2.3,1.2C67.5,47.3,67.5,47.4,67.5,47.4"/>
						<path fill="#999999" d="M67.6,47.3L65.3,46c0,0,0.1-0.1,0.1-0.1l2.3,1.2C67.6,47.2,67.6,47.3,67.6,47.3"/>
						<path fill="#9E9E9E" d="M67.7,47.2l-2.3-1.2c0,0,0.1-0.1,0.1-0.1l2.3,1.2C67.8,47.1,67.7,47.2,67.7,47.2"/>
						<path fill="#A3A3A3" d="M67.8,47.1l-2.3-1.2c0.1,0,0.1-0.1,0.2-0.1L68,47C67.9,47,67.9,47.1,67.8,47.1"/>
						<path fill="#A8A8A8" d="M68,47l-2.3-1.2c0.1,0,0.2-0.1,0.3-0.1l2.3,1.2C68.2,46.9,68.1,47,68,47"/>
					</g>
				</g>
				<g enable-background="new    ">
					<defs>
						<path id="SVGID_10_" enable-background="new    " d="M75.7,38l-2.3-1.2c0-1.7-0.6-3.2-1.7-4.3l2.3,1.2
							C75.1,34.7,75.7,36.3,75.7,38z"/>
					</defs>
					<clipPath id="SVGID_11_">
						<use xlink:href="#SVGID_10_"  overflow="visible"/>
					</clipPath>
					<g clip-path="url(#SVGID_11_)" enable-background="new    ">
						<path fill="#858585" d="M75.7,38l-2.3-1.2c0-1.7-0.6-3.2-1.7-4.3l2.3,1.2C75.1,34.7,75.7,36.3,75.7,38"/>
					</g>
				</g>
				<g enable-background="new    ">
					<defs>
						<path id="SVGID_12_" enable-background="new    " d="M60,52.9c2.6-0.4,4.8-2.9,4.9-5.8l2.3,1.2c-0.1,2.8-2.2,5.4-4.9,5.8
							c-0.9,0.1-1.8,0-2.6-0.4l-2.3-1.2C58.2,52.9,59.1,53.1,60,52.9z"/>
					</defs>
					<clipPath id="SVGID_13_">
						<use xlink:href="#SVGID_12_"  overflow="visible"/>
					</clipPath>
					<g clip-path="url(#SVGID_13_)" enable-background="new    ">
						<path fill="#9E9E9E" d="M59.7,53.7l-2.3-1.2c0,0,0.1,0.1,0.1,0.1l2.3,1.2C59.8,53.8,59.8,53.7,59.7,53.7"/>
						<path fill="#A3A3A3" d="M59.9,53.8l-2.3-1.2c0.2,0.1,0.5,0.2,0.8,0.3l2.3,1.2C60.4,54,60.1,53.9,59.9,53.8"/>
						<path fill="#A8A8A8" d="M60.6,54.1l-2.3-1.2c0.5,0.1,1.1,0.2,1.7,0.1c0.5-0.1,1-0.2,1.4-0.4l2.3,1.2c-0.4,0.2-0.9,0.4-1.4,0.4
							C61.7,54.2,61.2,54.2,60.6,54.1"/>
						<path fill="#A3A3A3" d="M63.7,53.7l-2.3-1.2c0.3-0.1,0.5-0.3,0.8-0.5l2.3,1.2C64.3,53.5,64,53.6,63.7,53.7"/>
						<path fill="#9E9E9E" d="M64.5,53.3L62.2,52c0.2-0.1,0.4-0.3,0.6-0.5l2.3,1.2C64.9,53,64.7,53.1,64.5,53.3"/>
						<path fill="#999999" d="M65.1,52.8l-2.3-1.2c0.2-0.2,0.3-0.3,0.5-0.5l2.3,1.2C65.4,52.5,65.3,52.7,65.1,52.8"/>
						<path fill="#949494" d="M65.6,52.3l-2.3-1.2c0.2-0.2,0.3-0.4,0.4-0.6l2.3,1.2C65.9,51.9,65.8,52.1,65.6,52.3"/>
						<path fill="#8F8F8F" d="M66,51.8l-2.3-1.2c0.1-0.2,0.3-0.4,0.4-0.6l2.3,1.2C66.3,51.3,66.2,51.5,66,51.8"/>
						<path fill="#8A8A8A" d="M66.4,51.1l-2.3-1.2c0.1-0.3,0.3-0.5,0.4-0.8l2.3,1.2C66.7,50.6,66.6,50.8,66.4,51.1"/>
						<path fill="#858585" d="M66.8,50.3l-2.3-1.2c0.2-0.6,0.4-1.3,0.4-1.9l2.3,1.2C67.2,49,67,49.7,66.8,50.3"/>
					</g>
				</g>
				<g enable-background="new    ">
					<defs>
						<path id="SVGID_14_" enable-background="new    " d="M62.6,42.9l2.3,1.2c1.3,0.7,2.2,2.2,2.3,4l-2.3-1.2
							C64.9,45.1,64,43.6,62.6,42.9z"/>
					</defs>
					<clipPath id="SVGID_15_">
						<use xlink:href="#SVGID_14_"  overflow="visible"/>
					</clipPath>
					<g clip-path="url(#SVGID_15_)" enable-background="new    ">
						<path fill="#858585" d="M67.2,48.1l-2.3-1.2c0-1.8-0.9-3.3-2.3-4l2.3,1.2C66.2,44.9,67.1,46.3,67.2,48.1"/>
					</g>
				</g>
				<g>
					<polygon fill="#808080" points="74,33.7 71.7,32.5 66.8,27.9 69,29.1 					"/>
				</g>
				<g enable-background="new    ">
					<defs>
						<path id="SVGID_16_" enable-background="new    " d="M69,29.1l-2.3-1.2c-0.1-0.1-0.2-0.2-0.2-0.3l2.3,1.2
							C68.9,28.9,69,29,69,29.1z"/>
					</defs>
					<clipPath id="SVGID_17_">
						<use xlink:href="#SVGID_16_"  overflow="visible"/>
					</clipPath>
					<g clip-path="url(#SVGID_17_)" enable-background="new    ">
						<path fill="#858585" d="M69,29.1l-2.3-1.2c-0.1-0.1-0.2-0.2-0.2-0.3l2.3,1.2C68.9,28.9,69,29,69,29.1"/>
					</g>
				</g>
				<g enable-background="new    ">
					<defs>
						<path id="SVGID_18_" enable-background="new    " d="M56.4,50.9l-2.3-1.2c0.6-0.1,1-0.6,1.1-1.2l2.3,1.2
							C57.4,50.3,56.9,50.9,56.4,50.9z"/>
					</defs>
					<clipPath id="SVGID_19_">
						<use xlink:href="#SVGID_18_"  overflow="visible"/>
					</clipPath>
					<g clip-path="url(#SVGID_19_)" enable-background="new    ">
						<path fill="#A8A8A8" d="M56.4,50.9l-2.3-1.2c0.1,0,0.2,0,0.3-0.1l2.3,1.2C56.6,50.9,56.5,50.9,56.4,50.9"/>
						<path fill="#A3A3A3" d="M56.7,50.8l-2.3-1.2c0.1,0,0.1-0.1,0.2-0.1l2.3,1.2C56.8,50.8,56.8,50.8,56.7,50.8"/>
						<path fill="#9E9E9E" d="M56.9,50.7l-2.3-1.2c0,0,0.1-0.1,0.1-0.1l2.3,1.2C57,50.7,56.9,50.7,56.9,50.7"/>
						<path fill="#999999" d="M57,50.6l-2.3-1.2c0,0,0.1-0.1,0.1-0.1l2.3,1.2C57.1,50.6,57.1,50.6,57,50.6"/>
						<path fill="#949494" d="M57.1,50.5l-2.3-1.2c0,0,0.1-0.1,0.1-0.1l2.3,1.2C57.2,50.4,57.2,50.5,57.1,50.5"/>
						<path fill="#8F8F8F" d="M57.2,50.4l-2.3-1.2c0,0,0.1-0.1,0.1-0.1l2.3,1.2C57.3,50.3,57.3,50.4,57.2,50.4"/>
						<path fill="#8A8A8A" d="M57.3,50.3L55,49c0-0.1,0.1-0.1,0.1-0.2l2.3,1.2C57.4,50.1,57.3,50.2,57.3,50.3"/>
						<path fill="#858585" d="M57.4,50.1l-2.3-1.2c0-0.1,0.1-0.2,0.1-0.3l2.3,1.2C57.5,49.9,57.4,50,57.4,50.1"/>
					</g>
				</g>
				<g enable-background="new    ">
					<defs>
						<path id="SVGID_20_" enable-background="new    " d="M54.7,47.4l2.3,1.2c0.3,0.2,0.5,0.4,0.5,0.8l-2.3-1.2
							C55.2,47.9,55,47.6,54.7,47.4z"/>
					</defs>
					<clipPath id="SVGID_21_">
						<use xlink:href="#SVGID_20_"  overflow="visible"/>
					</clipPath>
					<g clip-path="url(#SVGID_21_)" enable-background="new    ">
						<path fill="#858585" d="M57.5,49.5l-2.3-1.2c0-0.4-0.2-0.7-0.5-0.8l2.3,1.2C57.2,48.8,57.4,49.1,57.5,49.5"/>
					</g>
				</g>
				<g enable-background="new    ">
					<defs>
						<path id="SVGID_22_" enable-background="new    " d="M58.5,55.9l-2.3-1.2c-1.7-0.9-2.9-2.6-3.2-4.8l2.3,1.2
							C55.7,53.2,56.9,55,58.5,55.9z"/>
					</defs>
					<clipPath id="SVGID_23_">
						<use xlink:href="#SVGID_22_"  overflow="visible"/>
					</clipPath>
					<g clip-path="url(#SVGID_23_)" enable-background="new    ">
						<path fill="#858585" d="M58.5,55.9l-2.3-1.2c-1.7-0.9-2.9-2.6-3.2-4.8l2.3,1.2C55.7,53.2,56.9,55,58.5,55.9"/>
					</g>
				</g>
				<g>
					<path fill="#DFDFDF" d="M67.2,48.4c0.1,0.6,0.5,1,1.1,0.9l1-0.1c-0.5,3.7-3.5,6.9-7,7.4c-3.5,0.5-6.4-1.9-6.9-5.4l1-0.1
						c0.6-0.1,1-0.6,1.1-1.2c0.1,2.8,2.2,4.8,4.8,4.4C64.9,53.8,67.1,51.2,67.2,48.4z"/>
				</g>
				<g>
					<polygon fill="#B4B4B4" points="55.4,51.1 53.1,49.9 54.1,49.7 56.4,50.9 					"/>
				</g>
				<g enable-background="new    ">
					<defs>
						<path id="SVGID_24_" enable-background="new    " d="M54.7,47.4l2.3,1.2c-0.2-0.1-0.4-0.1-0.6-0.1l-2.3-1.2
							C54.3,47.3,54.5,47.3,54.7,47.4z"/>
					</defs>
					<clipPath id="SVGID_25_">
						<use xlink:href="#SVGID_24_"  overflow="visible"/>
					</clipPath>
					<g clip-path="url(#SVGID_25_)" enable-background="new    ">
						<path fill="#A8A8A8" d="M56.4,48.6l-2.3-1.2c0.1,0,0.3,0,0.4,0l2.3,1.2C56.6,48.6,56.5,48.6,56.4,48.6"/>
						<path fill="#A3A3A3" d="M56.8,48.6l-2.3-1.2c0.1,0,0.1,0,0.2,0.1l2.3,1.2C56.9,48.6,56.8,48.6,56.8,48.6"/>
						<path fill="#9E9E9E" d="M56.9,48.7l-2.3-1.2c0,0,0,0,0,0L56.9,48.7C57,48.7,56.9,48.7,56.9,48.7"/>
					</g>
				</g>
				<g>
					<polygon fill="#B4B4B4" points="55.4,48.7 53.1,47.5 54.1,47.3 56.4,48.6 					"/>
				</g>
				<g enable-background="new    ">
					<defs>
						<path id="SVGID_26_" enable-background="new    " d="M63.8,40.7l2.3,1.2c-1.1-0.6-2.4-0.8-3.8-0.6c-3.5,0.5-6.4,3.7-7,7.4
							l-2.3-1.2c0.5-3.7,3.5-6.9,7-7.4C61.4,39.9,62.7,40.1,63.8,40.7z"/>
					</defs>
					<clipPath id="SVGID_27_">
						<use xlink:href="#SVGID_26_"  overflow="visible"/>
					</clipPath>
					<g clip-path="url(#SVGID_27_)" enable-background="new    ">
						<path fill="#858585" d="M55.4,48.7l-2.3-1.2c0.1-0.6,0.2-1.2,0.5-1.8l2.3,1.2C55.6,47.5,55.5,48.1,55.4,48.7"/>
						<path fill="#8A8A8A" d="M55.8,46.9l-2.3-1.2c0.1-0.4,0.3-0.8,0.5-1.2l2.3,1.2C56.1,46.1,56,46.5,55.8,46.9"/>
						<path fill="#8F8F8F" d="M56.4,45.8l-2.3-1.2c0.2-0.3,0.4-0.6,0.6-0.9l2.3,1.2C56.7,45.1,56.5,45.4,56.4,45.8"/>
						<path fill="#949494" d="M56.9,44.8l-2.3-1.2c0.2-0.3,0.4-0.6,0.6-0.8l2.3,1.2C57.3,44.3,57.1,44.5,56.9,44.8"/>
						<path fill="#999999" d="M57.6,44l-2.3-1.2c0.2-0.3,0.5-0.5,0.7-0.7l2.3,1.2C58,43.5,57.8,43.8,57.6,44"/>
						<path fill="#9E9E9E" d="M58.3,43.3L56,42c0.3-0.2,0.6-0.5,0.9-0.7l2.3,1.2C58.8,42.8,58.6,43,58.3,43.3"/>
						<path fill="#A3A3A3" d="M59.1,42.6l-2.3-1.2c0.4-0.2,0.7-0.5,1.1-0.7l2.3,1.2C59.9,42.1,59.5,42.4,59.1,42.6"/>
						<path fill="#A8A8A8" d="M60.3,41.9L58,40.7c0.7-0.3,1.3-0.5,2.1-0.6c0.9-0.1,1.7-0.1,2.4,0.1l2.3,1.2
							c-0.8-0.2-1.6-0.2-2.4-0.1C61.6,41.4,60.9,41.6,60.3,41.9"/>
						<path fill="#A3A3A3" d="M64.8,41.5l-2.3-1.2c0.4,0.1,0.8,0.2,1.1,0.4l2.3,1.2C65.5,41.7,65.2,41.6,64.8,41.5"/>
						<path fill="#9E9E9E" d="M65.9,41.9l-2.3-1.2c0.1,0,0.1,0.1,0.2,0.1l2.3,1.2C66,41.9,66,41.9,65.9,41.9"/>
					</g>
				</g>
				<g>
					<path fill="#DFDFDF" d="M57.5,49.5c-0.1-0.6-0.5-1-1.1-0.9l-1,0.1c0.5-3.7,3.5-6.9,7-7.4c3.5-0.5,6.4,1.9,7,5.4l-1,0.1
						c-0.6,0.1-1,0.6-1.1,1.2c-0.1-2.8-2.2-4.8-4.8-4.4C59.7,44.1,57.5,46.7,57.5,49.5z"/>
				</g>
				<g>
					<polygon fill="#B4B4B4" points="53.4,49 51.1,47.8 53.1,47.5 55.4,48.7 					"/>
				</g>
				<g enable-background="new    ">
					<defs>
						<path id="SVGID_28_" enable-background="new    " d="M61.1,30l2.3,1.2c-0.2-0.1-0.4-0.1-0.7-0.1l-2.3-1.2
							C60.7,29.9,60.9,29.9,61.1,30z"/>
					</defs>
					<clipPath id="SVGID_29_">
						<use xlink:href="#SVGID_28_"  overflow="visible"/>
					</clipPath>
					<g clip-path="url(#SVGID_29_)" enable-background="new    ">
						<path fill="#A8A8A8" d="M62.8,31.1l-2.3-1.2c0.1,0,0.3,0,0.4,0l2.3,1.2C63.1,31.1,62.9,31.1,62.8,31.1"/>
						<path fill="#A3A3A3" d="M63.2,31.2l-2.3-1.2c0.1,0,0.1,0,0.2,0.1l2.3,1.2C63.3,31.2,63.3,31.2,63.2,31.2"/>
						<path fill="#9E9E9E" d="M63.4,31.2L61.1,30c0,0,0,0,0,0L63.4,31.2C63.4,31.2,63.4,31.2,63.4,31.2"/>
					</g>
				</g>
				<g enable-background="new    ">
					<defs>
						<path id="SVGID_30_" enable-background="new    " d="M51.1,47.8c0.8,0.4,1.5,0.8,2.3,1.2c-0.9,1.2-2.2,2-3.6,2.2
							c-0.8-0.4-1.5-0.8-2.3-1.2C48.9,49.8,50.2,48.9,51.1,47.8z"/>
					</defs>
					<clipPath id="SVGID_31_">
						<use xlink:href="#SVGID_30_"  overflow="visible"/>
					</clipPath>
					<g clip-path="url(#SVGID_31_)" enable-background="new    ">
						<path fill="#A8A8A8" d="M49.8,51.2L47.5,50c0.5-0.1,1-0.2,1.4-0.4l2.3,1.2C50.7,51,50.3,51.1,49.8,51.2"/>
						<path fill="#A3A3A3" d="M51.2,50.8l-2.3-1.2c0.3-0.1,0.5-0.3,0.8-0.5l2.3,1.2C51.7,50.5,51.5,50.6,51.2,50.8"/>
						<path fill="#9E9E9E" d="M52,50.3l-2.3-1.2c0.2-0.1,0.4-0.3,0.6-0.5l2.3,1.2C52.4,50,52.2,50.2,52,50.3"/>
						<path fill="#999999" d="M52.6,49.8l-2.3-1.2c0.2-0.2,0.3-0.3,0.5-0.5l2.3,1.2C52.9,49.5,52.8,49.7,52.6,49.8"/>
						<path fill="#949494" d="M53.1,49.3l-2.3-1.2c0.1-0.1,0.2-0.2,0.3-0.3l2.3,1.2C53.3,49.1,53.2,49.2,53.1,49.3"/>
					</g>
				</g>
				<g enable-background="new    ">
					<defs>
						<path id="SVGID_32_" enable-background="new    " d="M49.8,48.5l-2.3-1.2c1.4-0.2,2.5-1.5,2.5-3l2.3,1.2
							C52.2,47,51.1,48.4,49.8,48.5z"/>
					</defs>
					<clipPath id="SVGID_33_">
						<use xlink:href="#SVGID_32_"  overflow="visible"/>
					</clipPath>
					<g clip-path="url(#SVGID_33_)" enable-background="new    ">
						<path fill="#A8A8A8" d="M49.8,48.5l-2.3-1.2c0.2,0,0.5-0.1,0.7-0.2l2.3,1.2C50.3,48.4,50,48.5,49.8,48.5"/>
						<path fill="#A3A3A3" d="M50.5,48.3l-2.3-1.2c0.1-0.1,0.3-0.1,0.4-0.2l2.3,1.2C50.8,48.2,50.6,48.3,50.5,48.3"/>
						<path fill="#9E9E9E" d="M50.9,48.1l-2.3-1.2c0.1-0.1,0.2-0.2,0.3-0.2l2.3,1.2C51.1,48,51,48,50.9,48.1"/>
						<path fill="#999999" d="M51.2,47.9l-2.3-1.2c0.1-0.1,0.2-0.2,0.3-0.3l2.3,1.2C51.4,47.7,51.3,47.8,51.2,47.9"/>
						<path fill="#949494" d="M51.4,47.6l-2.3-1.2c0.1-0.1,0.2-0.2,0.2-0.3l2.3,1.2C51.6,47.4,51.5,47.5,51.4,47.6"/>
						<path fill="#8F8F8F" d="M51.7,47.3l-2.3-1.2c0.1-0.1,0.1-0.2,0.2-0.3l2.3,1.2C51.8,47.1,51.7,47.2,51.7,47.3"/>
						<path fill="#8A8A8A" d="M51.9,47l-2.3-1.2c0.1-0.1,0.1-0.3,0.2-0.4l2.3,1.2C52,46.7,51.9,46.9,51.9,47"/>
						<path fill="#858585" d="M52,46.6l-2.3-1.2c0.1-0.3,0.2-0.7,0.2-1l2.3,1.2C52.2,45.9,52.2,46.3,52,46.6"/>
					</g>
				</g>
				<g enable-background="new    ">
					<defs>
						<path id="SVGID_34_" enable-background="new    " d="M51.8,40.3l2.3,1.2c-0.2-0.1-0.4-0.1-0.7-0.1l-2.3-1.2
							C51.4,40.1,51.7,40.2,51.8,40.3z"/>
					</defs>
					<clipPath id="SVGID_35_">
						<use xlink:href="#SVGID_34_"  overflow="visible"/>
					</clipPath>
					<g clip-path="url(#SVGID_35_)" enable-background="new    ">
						<path fill="#A8A8A8" d="M53.5,41.4l-2.3-1.2c0.1,0,0.3,0,0.4,0l2.3,1.2C53.8,41.4,53.6,41.4,53.5,41.4"/>
						<path fill="#A3A3A3" d="M53.9,41.4l-2.3-1.2c0.1,0,0.1,0,0.2,0.1l2.3,1.2C54,41.5,54,41.4,53.9,41.4"/>
						<path fill="#9E9E9E" d="M54.1,41.5l-2.3-1.2c0,0,0,0,0,0L54.1,41.5C54.1,41.5,54.1,41.5,54.1,41.5"/>
					</g>
				</g>
				<g>
					<polygon fill="#808080" points="68.8,28.8 66.5,27.6 62.5,18.7 64.8,20 					"/>
				</g>
				<g>
					<polygon fill="#828282" points="52.2,45.5 50,44.3 50,41.7 52.2,42.9 					"/>
				</g>
				<g enable-background="new    ">
					<defs>
						<path id="SVGID_36_" enable-background="new    " d="M52.2,42.9L50,41.7c0-0.7,0.5-1.4,1.2-1.5l2.3,1.2
							C52.8,41.5,52.2,42.2,52.2,42.9z"/>
					</defs>
					<clipPath id="SVGID_37_">
						<use xlink:href="#SVGID_36_"  overflow="visible"/>
					</clipPath>
					<g clip-path="url(#SVGID_37_)" enable-background="new    ">
						<path fill="#858585" d="M52.2,42.9L50,41.7c0-0.2,0-0.4,0.1-0.5l2.3,1.2C52.3,42.5,52.2,42.7,52.2,42.9"/>
						<path fill="#8A8A8A" d="M52.3,42.4l-2.3-1.2c0-0.1,0.1-0.1,0.1-0.2l2.3,1.2C52.4,42.2,52.4,42.3,52.3,42.4"/>
						<path fill="#8F8F8F" d="M52.4,42.2l-2.3-1.2c0-0.1,0.1-0.1,0.1-0.2l2.3,1.2C52.5,42.1,52.5,42.1,52.4,42.2"/>
						<path fill="#949494" d="M52.5,42l-2.3-1.2c0,0,0.1-0.1,0.1-0.1l2.3,1.2C52.6,41.9,52.6,42,52.5,42"/>
						<path fill="#999999" d="M52.6,41.9l-2.3-1.2c0,0,0.1-0.1,0.1-0.1l2.3,1.2C52.7,41.8,52.7,41.8,52.6,41.9"/>
						<path fill="#9E9E9E" d="M52.8,41.7l-2.3-1.2c0,0,0.1-0.1,0.1-0.1l2.3,1.2C52.9,41.7,52.8,41.7,52.8,41.7"/>
						<path fill="#A3A3A3" d="M52.9,41.6l-2.3-1.2c0.1,0,0.1-0.1,0.2-0.1l2.3,1.2C53,41.5,53,41.6,52.9,41.6"/>
						<path fill="#A8A8A8" d="M53.1,41.5l-2.3-1.2c0.1-0.1,0.2-0.1,0.4-0.1l2.3,1.2C53.3,41.4,53.2,41.5,53.1,41.5"/>
					</g>
				</g>
				<g enable-background="new    ">
					<defs>
						<path id="SVGID_38_" enable-background="new    " d="M60.7,16.7l2.3,1.2c0.8,0.4,1.4,1.1,1.9,2l-2.3-1.2
							C62.1,17.8,61.5,17.1,60.7,16.7z"/>
					</defs>
					<clipPath id="SVGID_39_">
						<use xlink:href="#SVGID_38_"  overflow="visible"/>
					</clipPath>
					<g clip-path="url(#SVGID_39_)" enable-background="new    ">
						<path fill="#858585" d="M64.8,20l-2.3-1.2c-0.4-0.9-1.1-1.6-1.9-2l2.3,1.2C63.7,18.4,64.4,19.1,64.8,20"/>
					</g>
				</g>
				<g enable-background="new    ">
					<defs>
						<path id="SVGID_40_" enable-background="new    " d="M48.4,40l-2.3-1.2c-0.1,0-0.1-0.1-0.2-0.2l2.3,1.2
							C48.3,39.9,48.4,39.9,48.4,40z"/>
					</defs>
					<clipPath id="SVGID_41_">
						<use xlink:href="#SVGID_40_"  overflow="visible"/>
					</clipPath>
					<g clip-path="url(#SVGID_41_)" enable-background="new    ">
						<path fill="#858585" d="M48.4,40l-2.3-1.2c-0.1,0-0.1-0.1-0.2-0.2l2.3,1.2C48.3,39.9,48.4,39.9,48.4,40"/>
					</g>
				</g>
				<g enable-background="new    ">
					<defs>
						<path id="SVGID_42_" enable-background="new    " d="M61.9,14.5l2.3,1.2c-1.1-0.6-2.5-0.9-3.8-0.7L58,13.9
							C59.4,13.7,60.7,13.9,61.9,14.5z"/>
					</defs>
					<clipPath id="SVGID_43_">
						<use xlink:href="#SVGID_42_"  overflow="visible"/>
					</clipPath>
					<g clip-path="url(#SVGID_43_)" enable-background="new    ">
						<path fill="#A8A8A8" d="M60.3,15.1L58,13.9c0.9-0.1,1.7-0.1,2.5,0.1l2.3,1.2C62,15,61.1,15,60.3,15.1"/>
						<path fill="#A3A3A3" d="M62.8,15.2L60.5,14c0.4,0.1,0.8,0.2,1.1,0.4l2.3,1.2C63.5,15.5,63.2,15.3,62.8,15.2"/>
						<path fill="#9E9E9E" d="M63.9,15.7l-2.3-1.2c0.1,0,0.1,0.1,0.2,0.1l2.3,1.2C64.1,15.7,64,15.7,63.9,15.7"/>
					</g>
				</g>
				<g>
					<polygon fill="#B4B4B4" points="37.4,52.9 35.1,51.7 47.5,50 49.8,51.2 					"/>
				</g>
				<g>
					<polygon fill="#B4B4B4" points="48,33.2 45.7,32 60.5,29.9 62.8,31.1 					"/>
				</g>
				<g enable-background="new    ">
					<defs>
						<path id="SVGID_44_" enable-background="new    " d="M52.8,25.9l-2.3-1.2c-0.3-0.2-0.6-0.6-0.6-1l2.3,1.2
							C52.3,25.3,52.5,25.7,52.8,25.9z"/>
					</defs>
					<clipPath id="SVGID_45_">
						<use xlink:href="#SVGID_44_"  overflow="visible"/>
					</clipPath>
					<g clip-path="url(#SVGID_45_)" enable-background="new    ">
						<path fill="#858585" d="M52.8,25.9l-2.3-1.2c-0.3-0.2-0.6-0.6-0.6-1l2.3,1.2C52.3,25.3,52.5,25.7,52.8,25.9"/>
					</g>
				</g>
				<g>
					<polygon fill="#808080" points="48.2,39.8 45.9,38.6 43.2,36 45.5,37.2 					"/>
				</g>
				<g>
					<polygon fill="#B4B4B4" points="37.4,50.3 35.1,49 47.5,47.3 49.8,48.5 					"/>
				</g>
				<g>
					<polygon fill="#828282" points="52.3,24.9 50,23.6 50,21 52.3,22.2 					"/>
				</g>
				<g enable-background="new    ">
					<defs>
						<path id="SVGID_46_" enable-background="new    " d="M47.5,27.6l2.3,1.2c-0.2-0.1-0.4-0.1-0.7-0.1c-0.3,0-0.6,0.2-0.9,0.5
							L46,28c0.2-0.3,0.6-0.5,0.9-0.5C47,27.4,47.3,27.4,47.5,27.6z"/>
					</defs>
					<clipPath id="SVGID_47_">
						<use xlink:href="#SVGID_46_"  overflow="visible"/>
					</clipPath>
					<g clip-path="url(#SVGID_47_)" enable-background="new    ">
						<path fill="#949494" d="M48.2,29.2L46,28c0,0,0,0,0-0.1L48.2,29.2C48.3,29.2,48.3,29.2,48.2,29.2"/>
						<path fill="#999999" d="M48.3,29.1L46,27.9c0,0,0.1-0.1,0.1-0.1l2.3,1.2C48.4,29.1,48.3,29.1,48.3,29.1"/>
						<path fill="#9E9E9E" d="M48.4,29l-2.3-1.2c0,0,0.1-0.1,0.1-0.1l2.3,1.2C48.5,28.9,48.4,29,48.4,29"/>
						<path fill="#A3A3A3" d="M48.5,28.9l-2.3-1.2c0.1,0,0.1-0.1,0.2-0.1l2.3,1.2C48.7,28.8,48.6,28.9,48.5,28.9"/>
						<path fill="#A8A8A8" d="M48.7,28.8l-2.3-1.2c0.1-0.1,0.2-0.1,0.4-0.1c0.1,0,0.3,0,0.4,0l2.3,1.2c-0.1,0-0.3,0-0.4,0
							C49,28.7,48.9,28.7,48.7,28.8"/>
						<path fill="#A3A3A3" d="M49.5,28.7l-2.3-1.2c0.1,0,0.1,0,0.2,0.1l2.3,1.2C49.7,28.7,49.6,28.7,49.5,28.7"/>
						<path fill="#9E9E9E" d="M49.7,28.8l-2.3-1.2c0,0,0,0,0,0L49.7,28.8C49.7,28.8,49.7,28.8,49.7,28.8"/>
					</g>
				</g>
				<g enable-background="new    ">
					<defs>
						<path id="SVGID_48_" enable-background="new    " d="M35.1,51.7c0.1,0,0.2,0.1,0.3,0.1c0,0,0.1,0.1,0.1,0.1
							c0.1,0,0.2,0.1,0.3,0.2c0.3,0.2,0.7,0.4,1,0.6c0.2,0.1,0.4,0.2,0.5,0.3c-1,0.1-1.9,0-2.6-0.5l-2.3-1.2
							C33.3,51.7,34.2,51.8,35.1,51.7z"/>
					</defs>
					<clipPath id="SVGID_49_">
						<use xlink:href="#SVGID_48_"  overflow="visible"/>
					</clipPath>
					<g clip-path="url(#SVGID_49_)" enable-background="new    ">
						<path fill="#9E9E9E" d="M34.8,52.5l-2.3-1.2c0,0,0.1,0.1,0.1,0.1l2.3,1.2C34.9,52.5,34.8,52.5,34.8,52.5"/>
						<path fill="#A3A3A3" d="M34.9,52.6l-2.3-1.2c0.2,0.1,0.5,0.2,0.8,0.3l2.3,1.2C35.4,52.8,35.2,52.7,34.9,52.6"/>
						<path fill="#A8A8A8" d="M35.7,52.8l-2.3-1.2c0.5,0.1,1.1,0.2,1.7,0.1l2.3,1.2C36.8,53,36.2,53,35.7,52.8"/>
					</g>
				</g>
				<g enable-background="new    ">
					<defs>
						<path id="SVGID_50_" enable-background="new    " d="M36.1,50.1l-2.3-1.2c0.4,0.2,0.8,0.3,1.3,0.2l2.3,1.2
							C36.9,50.4,36.5,50.3,36.1,50.1z"/>
					</defs>
					<clipPath id="SVGID_51_">
						<use xlink:href="#SVGID_50_"  overflow="visible"/>
					</clipPath>
					<g clip-path="url(#SVGID_51_)" enable-background="new    ">
						<path fill="#9E9E9E" d="M36.1,50.1l-2.3-1.2c0,0,0,0,0.1,0L36.1,50.1C36.2,50.1,36.1,50.1,36.1,50.1"/>
						<path fill="#A3A3A3" d="M36.2,50.1l-2.3-1.2c0.1,0.1,0.3,0.1,0.4,0.1l2.3,1.2C36.4,50.2,36.3,50.2,36.2,50.1"/>
						<path fill="#A8A8A8" d="M36.6,50.2L34.3,49c0.3,0.1,0.5,0.1,0.8,0l2.3,1.2C37.1,50.3,36.8,50.3,36.6,50.2"/>
					</g>
				</g>
				<g>
					<polygon fill="#A2A2A2" points="45.5,32.6 43.2,31.3 46,28 48.2,29.2 					"/>
				</g>
				<g enable-background="new    ">
					<defs>
						<path id="SVGID_52_" enable-background="new    " d="M45.5,37.2L43.2,36c-1.2-1.1-1.2-3.2,0-4.7l2.3,1.2
							C44.3,34,44.3,36.1,45.5,37.2z"/>
					</defs>
					<clipPath id="SVGID_53_">
						<use xlink:href="#SVGID_52_"  overflow="visible"/>
					</clipPath>
					<g clip-path="url(#SVGID_53_)" enable-background="new    ">
						<path fill="#858585" d="M45.5,37.2L43.2,36c-0.9-0.8-1.1-2.3-0.7-3.5l2.3,1.2C44.3,35,44.6,36.4,45.5,37.2"/>
						<path fill="#8A8A8A" d="M44.8,33.7l-2.3-1.2c0.1-0.2,0.1-0.3,0.2-0.5l2.3,1.2C44.9,33.4,44.9,33.5,44.8,33.7"/>
						<path fill="#8F8F8F" d="M45,33.2L42.8,32c0.1-0.1,0.2-0.3,0.2-0.4l2.3,1.2C45.2,32.9,45.1,33.1,45,33.2"/>
						<path fill="#949494" d="M45.3,32.8L43,31.6c0.1-0.1,0.1-0.2,0.2-0.3l2.3,1.2C45.4,32.6,45.3,32.7,45.3,32.8"/>
					</g>
				</g>
				<g>
					<path fill="#DFDFDF" d="M62.8,31.1c0.7-0.1,1.2,0.4,1.2,1.2c0,0.7-0.6,1.4-1.2,1.5L48,35.9l2,1.8c0.5,0.5,0.5,1.3,0,1.9
						c-0.2,0.3-0.6,0.5-0.9,0.5c-0.3,0-0.6,0-0.9-0.3l-2.8-2.6c-1.2-1.1-1.2-3.2,0-4.7l2.8-3.4c0.2-0.3,0.6-0.5,0.9-0.5
						c0.3,0,0.6,0,0.9,0.3c0.5,0.5,0.5,1.3,0,1.9l-2,2.4L62.8,31.1z"/>
				</g>
				<g enable-background="new    ">
					<defs>
						<path id="SVGID_54_" enable-background="new    " d="M48.9,18.9l2.3,1.2c0.7,0.4,1.1,1.1,1.1,2.1L50,21
							C50,20,49.5,19.3,48.9,18.9z"/>
					</defs>
					<clipPath id="SVGID_55_">
						<use xlink:href="#SVGID_54_"  overflow="visible"/>
					</clipPath>
					<g clip-path="url(#SVGID_55_)" enable-background="new    ">
						<path fill="#858585" d="M52.3,22.2L50,21c0-0.9-0.5-1.7-1.1-2.1l2.3,1.2C51.8,20.5,52.3,21.3,52.3,22.2"/>
					</g>
				</g>
				<g enable-background="new    ">
					<defs>
						<path id="SVGID_56_" enable-background="new    " d="M51.1,17.2c-0.3-0.3-0.6-0.5-1-0.7l2.3,1.2c0.4,0.2,0.7,0.4,1,0.7
							C52.7,18.1,51.8,17.6,51.1,17.2z"/>
					</defs>
					<clipPath id="SVGID_57_">
						<use xlink:href="#SVGID_56_"  overflow="visible"/>
					</clipPath>
					<g clip-path="url(#SVGID_57_)" enable-background="new    ">
						<path fill="#858585" d="M53.4,18.4l-2.3-1.2c-0.3-0.3-0.6-0.5-1-0.7l2.3,1.2C52.8,17.9,53.1,18.1,53.4,18.4"/>
					</g>
				</g>
				<g>
					<polygon fill="#B4B4B4" points="31.4,54.5 29.1,53.2 30.1,53.1 32.4,54.3 					"/>
				</g>
				<g enable-background="new    ">
					<defs>
						<path id="SVGID_58_" enable-background="new    " d="M34.8,52.5l-2.3-1.2c-0.4-0.2-0.7-0.4-1-0.7c-0.8-0.8-1.3-2-1.3-3.4
							l2.3,1.2c0,1.4,0.5,2.6,1.3,3.4C34.1,52,34.4,52.3,34.8,52.5z"/>
					</defs>
					<clipPath id="SVGID_59_">
						<use xlink:href="#SVGID_58_"  overflow="visible"/>
					</clipPath>
					<g clip-path="url(#SVGID_59_)" enable-background="new    ">
						<path fill="#858585" d="M34.8,52.5l-2.3-1.2c-0.4-0.2-0.7-0.4-1-0.7c-0.8-0.8-1.3-2-1.3-3.4l2.3,1.2c0,1.4,0.5,2.6,1.3,3.4
							C34.1,52,34.4,52.3,34.8,52.5"/>
					</g>
				</g>
				<g>
					<polygon fill="#B4B4B4" points="32.4,51.9 30.1,50.7 31.5,50.5 33.8,51.7 					"/>
				</g>
				<g>
					<polygon fill="#B4B4B4" points="31.4,52.1 29.1,50.8 30.1,50.7 32.4,51.9 					"/>
				</g>
				<g enable-background="new    ">
					<defs>
						<path id="SVGID_60_" enable-background="new    " d="M50.2,16.5l2.3,1.2c-0.8-0.4-1.7-0.6-2.6-0.5L47.5,16
							C48.5,15.9,49.4,16,50.2,16.5z"/>
					</defs>
					<clipPath id="SVGID_61_">
						<use xlink:href="#SVGID_60_"  overflow="visible"/>
					</clipPath>
					<g clip-path="url(#SVGID_61_)" enable-background="new    ">
						<path fill="#A8A8A8" d="M49.8,17.2L47.5,16c0.6-0.1,1.2,0,1.7,0.1l2.3,1.2C51,17.2,50.4,17.2,49.8,17.2"/>
						<path fill="#A3A3A3" d="M51.5,17.3l-2.3-1.2c0.3,0.1,0.5,0.2,0.8,0.3l2.3,1.2C52,17.5,51.8,17.4,51.5,17.3"/>
						<path fill="#9E9E9E" d="M52.3,17.6L50,16.4c0,0,0.1,0,0.1,0.1l2.3,1.2C52.4,17.7,52.3,17.6,52.3,17.6"/>
					</g>
				</g>
				<g enable-background="new    ">
					<defs>
						<path id="SVGID_62_" enable-background="new    " d="M30.8,54.4l-2.3-1.2C28.2,53,28,52.6,28,52.2c0-0.6,0.5-1.3,1.1-1.3
							l2.3,1.2c-0.6,0.1-1.1,0.7-1.1,1.3C30.3,53.8,30.5,54.2,30.8,54.4z"/>
					</defs>
					<clipPath id="SVGID_63_">
						<use xlink:href="#SVGID_62_"  overflow="visible"/>
					</clipPath>
					<g clip-path="url(#SVGID_63_)" enable-background="new    ">
						<path fill="#858585" d="M30.8,54.4l-2.3-1.2C28.2,53,28,52.6,28,52.2c0-0.2,0-0.3,0.1-0.5l2.3,1.2c-0.1,0.1-0.1,0.3-0.1,0.5
							C30.3,53.8,30.5,54.2,30.8,54.4"/>
						<path fill="#8A8A8A" d="M30.4,53l-2.3-1.2c0-0.1,0.1-0.1,0.1-0.2l2.3,1.2C30.4,52.8,30.4,52.9,30.4,53"/>
						<path fill="#8F8F8F" d="M30.5,52.8l-2.3-1.2c0-0.1,0.1-0.1,0.1-0.1l2.3,1.2C30.5,52.7,30.5,52.7,30.5,52.8"/>
						<path fill="#949494" d="M30.6,52.6l-2.3-1.2c0,0,0.1-0.1,0.1-0.1l2.3,1.2C30.6,52.5,30.6,52.6,30.6,52.6"/>
						<path fill="#999999" d="M30.7,52.5l-2.3-1.2c0,0,0.1-0.1,0.1-0.1l2.3,1.2C30.7,52.4,30.7,52.5,30.7,52.5"/>
						<path fill="#9E9E9E" d="M30.8,52.4l-2.3-1.2c0,0,0.1-0.1,0.1-0.1l2.3,1.2C30.9,52.3,30.8,52.4,30.8,52.4"/>
						<path fill="#A3A3A3" d="M30.9,52.3L28.6,51c0.1,0,0.1-0.1,0.2-0.1l2.3,1.2C31,52.2,31,52.2,30.9,52.3"/>
						<path fill="#A8A8A8" d="M31.1,52.2l-2.3-1.2c0.1,0,0.2-0.1,0.3-0.1l2.3,1.2C31.3,52.1,31.2,52.1,31.1,52.2"/>
					</g>
				</g>
				<g>
					<path fill="#DFDFDF" d="M56.4,48.6c0.6-0.1,1,0.3,1.1,0.9c0,0,0,0.1,0,0.1c0,0,0,0.1,0,0.1c-0.1,0.6-0.5,1.1-1.1,1.2l-1,0.1
						l-23,3.2l-1,0.1c-0.6,0.1-1.1-0.4-1.1-1c0-0.6,0.5-1.3,1.1-1.3l1-0.1l1.4-0.2c0.9,0.9,2.2,1.4,3.6,1.2l12.4-1.7
						c1.4-0.2,2.7-1,3.6-2.2l2-0.3L56.4,48.6z"/>
				</g>
				<g enable-background="new    ">
					<defs>
						<path id="SVGID_64_" enable-background="new    " d="M22.9,58.9l-2.3-1.2c0.7,0.4,1.6,0.6,2.6,0.4l2.3,1.2
							C24.5,59.5,23.6,59.3,22.9,58.9z"/>
					</defs>
					<clipPath id="SVGID_65_">
						<use xlink:href="#SVGID_64_"  overflow="visible"/>
					</clipPath>
					<g clip-path="url(#SVGID_65_)" enable-background="new    ">
						<path fill="#9E9E9E" d="M22.9,58.9l-2.3-1.2c0,0,0.1,0.1,0.1,0.1L23,59C23,58.9,22.9,58.9,22.9,58.9"/>
						<path fill="#A3A3A3" d="M23,59l-2.3-1.2c0.2,0.1,0.5,0.2,0.8,0.3l2.3,1.2C23.5,59.2,23.3,59.1,23,59"/>
						<path fill="#A8A8A8" d="M23.8,59.3L21.5,58c0.5,0.1,1.1,0.2,1.7,0.1l2.3,1.2C24.9,59.4,24.3,59.4,23.8,59.3"/>
					</g>
				</g>
				<g enable-background="new    ">
					<defs>
						<path id="SVGID_66_" enable-background="new    " d="M25.8,48.1l2.3,1.2c1.4,0.7,2.3,2.2,2.3,4.1c0,2.9-2.2,5.5-4.9,5.9
							l-2.3-1.2c2.7-0.4,4.9-3,4.9-5.9C28,50.3,27.1,48.8,25.8,48.1z"/>
					</defs>
					<clipPath id="SVGID_67_">
						<use xlink:href="#SVGID_66_"  overflow="visible"/>
					</clipPath>
					<g clip-path="url(#SVGID_67_)" enable-background="new    ">
						<path fill="#A8A8A8" d="M25.4,59.3l-2.3-1.2c0.5-0.1,1-0.2,1.4-0.4l2.3,1.2C26.4,59.1,25.9,59.3,25.4,59.3"/>
						<path fill="#A3A3A3" d="M26.9,58.9l-2.3-1.2c0.3-0.1,0.5-0.3,0.8-0.5l2.3,1.2C27.4,58.6,27.1,58.8,26.9,58.9"/>
						<path fill="#9E9E9E" d="M27.6,58.5l-2.3-1.2c0.2-0.1,0.4-0.3,0.6-0.5l2.3,1.2C28,58.2,27.9,58.3,27.6,58.5"/>
						<path fill="#999999" d="M28.2,58L26,56.8c0.2-0.2,0.3-0.3,0.5-0.5l2.3,1.2C28.6,57.7,28.4,57.8,28.2,58"/>
						<path fill="#949494" d="M28.7,57.5l-2.3-1.2c0.2-0.2,0.3-0.4,0.4-0.6l2.3,1.2C29,57.1,28.9,57.3,28.7,57.5"/>
						<path fill="#8F8F8F" d="M29.2,56.9l-2.3-1.2c0.1-0.2,0.3-0.4,0.4-0.6l2.3,1.2C29.4,56.5,29.3,56.7,29.2,56.9"/>
						<path fill="#8A8A8A" d="M29.6,56.3l-2.3-1.2c0.1-0.3,0.3-0.5,0.4-0.8l2.3,1.2C29.8,55.8,29.7,56,29.6,56.3"/>
						<path fill="#858585" d="M29.9,55.5l-2.3-1.2c0.2-0.7,0.4-1.3,0.4-2.1c0-1.9-0.9-3.4-2.3-4.1l2.3,1.2c1.4,0.7,2.3,2.2,2.3,4.1
							C30.3,54.1,30.2,54.8,29.9,55.5"/>
					</g>
				</g>
				<g enable-background="new    ">
					<defs>
						<path id="SVGID_68_" enable-background="new    " d="M17.8,52.6l2.3,1.2c0.3,0.2,0.5,0.5,0.5,0.9c0,0.6-0.5,1.3-1.1,1.3
							l-2.3-1.2c0.6-0.1,1.1-0.7,1.1-1.3C18.3,53.1,18.1,52.8,17.8,52.6z"/>
					</defs>
					<clipPath id="SVGID_69_">
						<use xlink:href="#SVGID_68_"  overflow="visible"/>
					</clipPath>
					<g clip-path="url(#SVGID_69_)" enable-background="new    ">
						<path fill="#A8A8A8" d="M19.5,56.1l-2.3-1.2c0.1,0,0.2,0,0.3-0.1l2.3,1.2C19.7,56.1,19.6,56.1,19.5,56.1"/>
						<path fill="#A3A3A3" d="M19.8,56l-2.3-1.2c0.1,0,0.1-0.1,0.2-0.1l2.3,1.2C19.9,56,19.9,56,19.8,56"/>
						<path fill="#9E9E9E" d="M20,55.9l-2.3-1.2c0,0,0.1-0.1,0.1-0.1l2.3,1.2C20.1,55.9,20,55.9,20,55.9"/>
						<path fill="#999999" d="M20.1,55.8l-2.3-1.2c0,0,0.1-0.1,0.1-0.1l2.3,1.2C20.2,55.8,20.2,55.8,20.1,55.8"/>
						<path fill="#949494" d="M20.2,55.7L18,54.5c0,0,0.1-0.1,0.1-0.1l2.3,1.2C20.3,55.6,20.3,55.7,20.2,55.7"/>
						<path fill="#8F8F8F" d="M20.3,55.6l-2.3-1.2c0,0,0.1-0.1,0.1-0.1l2.3,1.2C20.4,55.5,20.4,55.5,20.3,55.6"/>
						<path fill="#8A8A8A" d="M20.4,55.4l-2.3-1.2c0-0.1,0.1-0.1,0.1-0.2l2.3,1.2C20.5,55.3,20.5,55.4,20.4,55.4"/>
						<path fill="#858585" d="M20.5,55.3L18.2,54c0.1-0.1,0.1-0.3,0.1-0.5c0-0.4-0.2-0.8-0.5-0.9l2.3,1.2c0.3,0.2,0.5,0.5,0.5,0.9
							C20.6,55,20.6,55.1,20.5,55.3"/>
					</g>
				</g>
				<g enable-background="new    ">
					<defs>
						<path id="SVGID_70_" enable-background="new    " d="M21.7,61.1l-2.3-1.2c-1.7-0.9-2.9-2.6-3.2-4.8l2.3,1.2
							C18.8,58.4,20,60.2,21.7,61.1z"/>
					</defs>
					<clipPath id="SVGID_71_">
						<use xlink:href="#SVGID_70_"  overflow="visible"/>
					</clipPath>
					<g clip-path="url(#SVGID_71_)" enable-background="new    ">
						<path fill="#858585" d="M21.7,61.1l-2.3-1.2c-1.7-0.9-2.9-2.6-3.2-4.8l2.3,1.2C18.8,58.4,20,60.2,21.7,61.1"/>
					</g>
				</g>
				<g>
					<polygon fill="#B4B4B4" points="18.5,56.3 16.2,55 17.2,54.9 19.5,56.1 					"/>
				</g>
				<g enable-background="new    ">
					<defs>
						<path id="SVGID_72_" enable-background="new    " d="M17.8,52.6l2.3,1.2c-0.2-0.1-0.4-0.1-0.6-0.1l-2.3-1.2
							C17.4,52.5,17.6,52.5,17.8,52.6z"/>
					</defs>
					<clipPath id="SVGID_73_">
						<use xlink:href="#SVGID_72_"  overflow="visible"/>
					</clipPath>
					<g clip-path="url(#SVGID_73_)" enable-background="new    ">
						<path fill="#A8A8A8" d="M19.5,53.8l-2.3-1.2c0.1,0,0.3,0,0.4,0l2.3,1.2C19.8,53.8,19.6,53.8,19.5,53.8"/>
						<path fill="#A3A3A3" d="M19.9,53.8l-2.3-1.2c0.1,0,0.1,0,0.2,0.1l2.3,1.2C20,53.8,19.9,53.8,19.9,53.8"/>
						<path fill="#9E9E9E" d="M20.1,53.9l-2.3-1.2c0,0,0,0,0,0L20.1,53.9C20.1,53.9,20.1,53.9,20.1,53.9"/>
					</g>
				</g>
				<g>
					<polygon fill="#B4B4B4" points="18.5,53.9 16.2,52.7 17.2,52.5 19.5,53.8 					"/>
				</g>
				<g>
					<polygon fill="#B4B4B4" points="37.5,19 35.2,17.7 47.5,16 49.8,17.2 					"/>
				</g>
				<g enable-background="new    ">
					<defs>
						<path id="SVGID_74_" enable-background="new    " d="M26.9,45.9l2.3,1.2c-1.1-0.6-2.4-0.8-3.8-0.6c-3.5,0.5-6.4,3.7-7,7.4
							l-2.3-1.2c0.5-3.7,3.5-6.9,7-7.4C24.6,45.1,25.9,45.3,26.9,45.9z"/>
					</defs>
					<clipPath id="SVGID_75_">
						<use xlink:href="#SVGID_74_"  overflow="visible"/>
					</clipPath>
					<g clip-path="url(#SVGID_75_)" enable-background="new    ">
						<path fill="#858585" d="M18.5,53.9l-2.3-1.2c0.1-0.6,0.2-1.2,0.5-1.8l2.3,1.2C18.7,52.7,18.6,53.3,18.5,53.9"/>
						<path fill="#8A8A8A" d="M19,52.1l-2.3-1.2c0.1-0.4,0.3-0.8,0.5-1.2l2.3,1.2C19.3,51.3,19.1,51.7,19,52.1"/>
						<path fill="#8F8F8F" d="M19.5,50.9l-2.3-1.2c0.2-0.3,0.4-0.6,0.6-0.9l2.3,1.2C19.9,50.3,19.7,50.6,19.5,50.9"/>
						<path fill="#949494" d="M20.1,50l-2.3-1.2c0.2-0.3,0.4-0.6,0.6-0.8l2.3,1.2C20.5,49.4,20.3,49.7,20.1,50"/>
						<path fill="#999999" d="M20.7,49.2l-2.3-1.2c0.2-0.3,0.5-0.5,0.7-0.7l2.3,1.2C21.2,48.7,20.9,48.9,20.7,49.2"/>
						<path fill="#9E9E9E" d="M21.4,48.5l-2.3-1.2c0.3-0.2,0.6-0.5,0.9-0.7l2.3,1.2C22,48,21.7,48.2,21.4,48.5"/>
						<path fill="#A3A3A3" d="M22.3,47.8L20,46.5c0.4-0.2,0.7-0.5,1.1-0.7l2.3,1.2C23,47.3,22.6,47.5,22.3,47.8"/>
						<path fill="#A8A8A8" d="M23.4,47.1l-2.3-1.2c0.7-0.3,1.3-0.5,2.1-0.6c0.9-0.1,1.7-0.1,2.4,0.1l2.3,1.2
							c-0.8-0.2-1.6-0.2-2.4-0.1C24.7,46.6,24.1,46.8,23.4,47.1"/>
						<path fill="#A3A3A3" d="M27.9,46.6l-2.3-1.2c0.4,0.1,0.8,0.2,1.1,0.4L29,47C28.7,46.9,28.3,46.7,27.9,46.6"/>
						<path fill="#9E9E9E" d="M29,47l-2.3-1.2c0.1,0,0.1,0.1,0.2,0.1l2.3,1.2C29.2,47.1,29.1,47.1,29,47"/>
					</g>
				</g>
				<g enable-background="new    ">
					<defs>
						<path id="SVGID_76_" enable-background="new    " d="M32.5,25l-2.3-1.2c0-1.4,0.5-2.7,1.3-3.8c0.9-1.2,2.2-2,3.6-2.2l2.3,1.2
							c-1.4,0.2-2.7,1-3.6,2.2C33.1,22.2,32.5,23.6,32.5,25z"/>
					</defs>
					<clipPath id="SVGID_77_">
						<use xlink:href="#SVGID_76_"  overflow="visible"/>
					</clipPath>
					<g clip-path="url(#SVGID_77_)" enable-background="new    ">
						<path fill="#858585" d="M32.5,25l-2.3-1.2c0-0.7,0.1-1.4,0.4-2.1l2.3,1.2C32.7,23.6,32.5,24.3,32.5,25"/>
						<path fill="#8A8A8A" d="M32.9,22.9l-2.3-1.2c0.1-0.3,0.2-0.6,0.4-0.8l2.3,1.2C33.2,22.3,33,22.6,32.9,22.9"/>
						<path fill="#8F8F8F" d="M33.3,22.1L31,20.8c0.1-0.2,0.3-0.4,0.4-0.7l2.3,1.2C33.6,21.6,33.4,21.8,33.3,22.1"/>
						<path fill="#949494" d="M33.7,21.4l-2.3-1.2c0.1-0.1,0.1-0.2,0.2-0.2c0.1-0.1,0.2-0.2,0.3-0.3l2.3,1.2
							c-0.1,0.1-0.2,0.2-0.3,0.3C33.8,21.3,33.8,21.3,33.7,21.4"/>
						<path fill="#999999" d="M34.1,20.9l-2.3-1.2c0.2-0.2,0.3-0.3,0.5-0.5l2.3,1.2C34.5,20.5,34.3,20.7,34.1,20.9"/>
						<path fill="#9E9E9E" d="M34.6,20.3l-2.3-1.2c0.2-0.2,0.4-0.3,0.6-0.5l2.3,1.2C35,20,34.8,20.2,34.6,20.3"/>
						<path fill="#A3A3A3" d="M35.2,19.9L33,18.6c0.3-0.2,0.5-0.3,0.8-0.5l2.3,1.2C35.8,19.5,35.5,19.7,35.2,19.9"/>
						<path fill="#A8A8A8" d="M36,19.4l-2.3-1.2c0.5-0.2,0.9-0.4,1.4-0.4l2.3,1.2C37,19,36.5,19.2,36,19.4"/>
					</g>
				</g>
				<g enable-background="new    ">
					<defs>
						<path id="SVGID_78_" enable-background="new    " d="M11.8,56.3l-2.3-1.2c-1.5-0.8-2.4-2.4-2.4-4.4l2.3,1.2
							C9.3,53.9,10.3,55.5,11.8,56.3z"/>
					</defs>
					<clipPath id="SVGID_79_">
						<use xlink:href="#SVGID_78_"  overflow="visible"/>
					</clipPath>
					<g clip-path="url(#SVGID_79_)" enable-background="new    ">
						<path fill="#858585" d="M11.8,56.3l-2.3-1.2c-1.5-0.8-2.4-2.4-2.4-4.4l2.3,1.2C9.3,53.9,10.3,55.5,11.8,56.3"/>
					</g>
				</g>
				<g>
					<path fill="#DFDFDF" d="M60.3,15.1c2.8-0.4,5.4,1,6.5,3.6l3.9,8.7l4.8,4.5c1.5,1.4,2.4,3.6,2.4,5.9l0,4.6c0,3.1-2.4,6-5.3,6.4
						l-3.4,0.5l-1,0.1c-0.6,0.1-1-0.3-1.1-0.9c0.1-0.9,0.5-1.4,1.1-1.5l1-0.1l3.4-0.5c1.7-0.2,3.1-1.9,3.1-3.7l0-4.6
						c0-1.7-0.6-3.2-1.7-4.3L69,29.1c-0.1-0.1-0.2-0.2-0.2-0.3l-4-8.9c-0.8-1.8-2.6-2.8-4.5-2.5l-6.9,1c-0.9-0.9-2.2-1.4-3.6-1.2
						L37.5,19c-1.4,0.2-2.7,1-3.6,2.2l-18.8,2.6c-1.9,0.3-3.5,2.2-3.5,4.2l0,23.5c0,1.8,1.4,3.1,3,2.9l3.9-0.5l1-0.1
						c0.6-0.1,1.1,0.4,1.1,1c0,0.6-0.5,1.3-1.1,1.3l-1,0.1l-3.9,0.5c-2.9,0.4-5.2-1.8-5.2-4.9l0-23.5c0-3.4,2.6-6.5,5.7-6.9
						L60.3,15.1z"/>
				</g>
				<g>
					<path fill="#DFDFDF" d="M30.3,53.4c0,0.7,0.5,1.1,1.1,1l1-0.1c-0.5,3.7-3.5,6.9-7,7.4c-3.5,0.5-6.4-1.9-6.9-5.4l1-0.1
						c0.6-0.1,1.1-0.7,1.1-1.3c0-0.7-0.5-1.1-1.1-1l-1,0.1c0.5-3.7,3.5-6.9,7-7.4c3.5-0.5,6.4,1.9,6.9,5.4l-1,0.1
						C30.8,52.2,30.3,52.8,30.3,53.4z M25.4,59.3c2.7-0.4,4.9-3,4.9-5.9c0-2.9-2.2-4.9-4.8-4.5c-2.7,0.4-4.9,3-4.9,5.9
						C20.6,57.7,22.8,59.7,25.4,59.3"/>
				</g>
				<g>
					<polygon fill="#828282" points="32.5,48.3 30.2,47.1 30.3,23.7 32.5,25 					"/>
				</g>
				<g>
					<path fill="#DFDFDF" d="M53.5,41.4c0.7-0.1,1.2,0.4,1.2,1.2l0,2.7c0,1.4-0.5,2.7-1.3,3.8c-0.9,1.2-2.2,2-3.6,2.2l-12.4,1.7
						c-1.4,0.2-2.7-0.3-3.6-1.2c-0.8-0.8-1.3-2-1.3-3.4l0-23.3c0-1.4,0.5-2.7,1.3-3.8c0.9-1.2,2.2-2,3.6-2.2l12.4-1.7
						c1.4-0.2,2.7,0.3,3.6,1.2c0.8,0.8,1.3,2,1.3,3.4l0,2.7c0,0.7-0.5,1.4-1.2,1.5s-1.2-0.4-1.2-1.2l0-2.7c0-1.5-1.1-2.5-2.5-2.3
						l-12.4,1.7c-1.4,0.2-2.5,1.5-2.5,3L35,48c0,1.5,1.1,2.5,2.5,2.3l12.4-1.7c1.4-0.2,2.5-1.5,2.5-3l0-2.7
						C52.2,42.2,52.8,41.5,53.5,41.4z"/>
				</g>
				<g>
					<polygon fill="#B4B4B4" points="14.6,54.5 12.3,53.2 16.2,52.7 18.5,53.9 					"/>
				</g>
				<g enable-background="new    ">
					<defs>
						<path id="SVGID_80_" enable-background="new    " d="M13,54.2l-2.3-1.2c0.5,0.3,1,0.4,1.6,0.3l2.3,1.2
							C14,54.5,13.4,54.4,13,54.2z"/>
					</defs>
					<clipPath id="SVGID_81_">
						<use xlink:href="#SVGID_80_"  overflow="visible"/>
					</clipPath>
					<g clip-path="url(#SVGID_81_)" enable-background="new    ">
						<path fill="#9E9E9E" d="M13,54.2l-2.3-1.2c0,0,0.1,0,0.1,0L13,54.2C13,54.2,13,54.2,13,54.2"/>
						<path fill="#A3A3A3" d="M13.1,54.2L10.8,53c0.2,0.1,0.3,0.1,0.5,0.2l2.3,1.2C13.4,54.4,13.2,54.3,13.1,54.2"/>
						<path fill="#A8A8A8" d="M13.5,54.4l-2.3-1.2c0.3,0.1,0.7,0.1,1.1,0.1l2.3,1.2C14.2,54.5,13.9,54.5,13.5,54.4"/>
					</g>
				</g>
				<g>
					<polygon fill="#B4B4B4" points="15.1,21.5 12.8,20.2 58,13.9 60.3,15.1 					"/>
				</g>
				<g>
					<polygon fill="#828282" points="9.4,51.9 7.1,50.7 7.1,27.1 9.4,28.4 					"/>
				</g>
				<g enable-background="new    ">
					<defs>
						<path id="SVGID_82_" enable-background="new    " d="M9.4,28.4l-2.3-1.2c0-3.4,2.6-6.5,5.7-6.9l2.3,1.2
							C12,21.9,9.4,25,9.4,28.4z"/>
					</defs>
					<clipPath id="SVGID_83_">
						<use xlink:href="#SVGID_82_"  overflow="visible"/>
					</clipPath>
					<g clip-path="url(#SVGID_83_)" enable-background="new    ">
						<path fill="#858585" d="M9.4,28.4l-2.3-1.2c0-0.8,0.2-1.6,0.4-2.4L9.8,26C9.6,26.7,9.4,27.5,9.4,28.4"/>
						<path fill="#8A8A8A" d="M9.8,26l-2.3-1.2c0.1-0.3,0.3-0.6,0.4-1l2.3,1.2C10.1,25.3,10,25.6,9.8,26"/>
						<path fill="#8F8F8F" d="M10.3,25L8,23.8c0.1-0.3,0.3-0.5,0.5-0.8l2.3,1.2C10.6,24.5,10.4,24.7,10.3,25"/>
						<path fill="#949494" d="M10.7,24.3L8.4,23c0.2-0.2,0.3-0.4,0.5-0.6l2.3,1.2C11.1,23.8,10.9,24,10.7,24.3"/>
						<path fill="#999999" d="M11.2,23.6L9,22.4c0.2-0.2,0.4-0.4,0.6-0.6l2.3,1.2C11.6,23.2,11.4,23.4,11.2,23.6"/>
						<path fill="#9E9E9E" d="M11.8,23l-2.3-1.2c0.2-0.2,0.4-0.4,0.7-0.5l2.3,1.2C12.3,22.6,12,22.8,11.8,23"/>
						<path fill="#A3A3A3" d="M12.5,22.5l-2.3-1.2c0.3-0.2,0.6-0.4,0.9-0.5l2.3,1.2C13.1,22.1,12.8,22.3,12.5,22.5"/>
						<path fill="#A8A8A8" d="M13.4,21.9l-2.3-1.2c0.5-0.2,1.1-0.4,1.7-0.5l2.3,1.2C14.5,21.5,13.9,21.7,13.4,21.9"/>
					</g>
				</g>
			</g>
		</g>
	</g>
</g>
</svg>
