<?xml version="1.0" encoding="utf-8"?>
<!-- Generator: Adobe Illustrator 18.0.0, SVG Export Plug-In . SVG Version: 6.00 Build 0)  -->
<!DOCTYPE svg PUBLIC "-//W3C//DTD SVG 1.1//EN" "http://www.w3.org/Graphics/SVG/1.1/DTD/svg11.dtd">
<svg version="1.1" id="Layer_1" xmlns="http://www.w3.org/2000/svg" xmlns:xlink="http://www.w3.org/1999/xlink" x="0px" y="0px"
	 viewBox="0 0 85 85" enable-background="new 0 0 85 85" xml:space="preserve">
<g>
	<g>
		
			<radialGradient id="SVGID_1_" cx="43.3333" cy="70.3881" r="27.8869" gradientTransform="matrix(1.3421 0 0 0.1342 -15.6579 59.8182)" gradientUnits="userSpaceOnUse">
			<stop  offset="0" style="stop-color:#414042"/>
			<stop  offset="0.5049" style="stop-color:#9F9FA0;stop-opacity:0.4951"/>
			<stop  offset="1" style="stop-color:#FFFFFF;stop-opacity:0"/>
		</radialGradient>
		<ellipse fill="url(#SVGID_1_)" cx="42.5" cy="69.3" rx="52" ry="5.6"/>
	</g>
	<g>
		<g>
			<g enable-background="new    ">
				<g enable-background="new    ">
					<defs>
						<path id="SVGID_2_" enable-background="new    " d="M74.2,47.3L71.9,46c1.8-0.2,3.2-2,3.2-3.9l2.3,1.2
							C77.4,45.3,75.9,47,74.2,47.3z"/>
					</defs>
					<clipPath id="SVGID_3_">
						<use xlink:href="#SVGID_2_"  overflow="visible"/>
					</clipPath>
					<g clip-path="url(#SVGID_3_)" enable-background="new    ">
						<path fill="#A8A8A8" d="M74.2,47.3L71.9,46c0.3,0,0.6-0.1,0.9-0.3l2.3,1.2C74.8,47.1,74.5,47.2,74.2,47.3"/>
						<path fill="#A3A3A3" d="M75.1,47l-2.3-1.2c0.2-0.1,0.4-0.2,0.5-0.3l2.3,1.2C75.5,46.8,75.3,46.9,75.1,47"/>
						<path fill="#9E9E9E" d="M75.6,46.7l-2.3-1.2c0.1-0.1,0.3-0.2,0.4-0.3l2.3,1.2C75.9,46.5,75.8,46.6,75.6,46.7"/>
						<path fill="#999999" d="M76,46.4l-2.3-1.2c0.1-0.1,0.2-0.2,0.3-0.3l2.3,1.2C76.2,46.2,76.1,46.3,76,46.4"/>
						<path fill="#949494" d="M76.3,46.1l-2.3-1.2c0.1-0.1,0.2-0.2,0.3-0.4l2.3,1.2C76.5,45.8,76.4,45.9,76.3,46.1"/>
						<path fill="#8F8F8F" d="M76.6,45.7l-2.3-1.2c0.1-0.1,0.2-0.3,0.3-0.4l2.3,1.2C76.8,45.4,76.7,45.6,76.6,45.7"/>
						<path fill="#8A8A8A" d="M76.9,45.3L74.6,44c0.1-0.2,0.2-0.4,0.2-0.5l2.3,1.2C77.1,44.9,77,45.1,76.9,45.3"/>
						<path fill="#858585" d="M77.1,44.7l-2.3-1.2c0.2-0.4,0.2-0.9,0.2-1.3l2.3,1.2C77.4,43.9,77.3,44.3,77.1,44.7"/>
					</g>
				</g>
				<g>
					<polygon fill="#828282" points="77.4,43.4 75.1,42.2 75.1,37.4 77.4,38.6 					"/>
				</g>
				<g>
					<polygon fill="#B4B4B4" points="69.6,50.4 67.3,49.2 68.4,49 70.7,50.2 					"/>
				</g>
				<g>
					<polygon fill="#B4B4B4" points="70.7,47.8 68.4,46.5 71.9,46 74.2,47.3 					"/>
				</g>
				<g enable-background="new    ">
					<defs>
						<path id="SVGID_4_" enable-background="new    " d="M69,50.3L66.7,49c0.2,0.1,0.4,0.1,0.6,0.1l2.3,1.2
							C69.4,50.4,69.2,50.4,69,50.3z"/>
					</defs>
					<clipPath id="SVGID_5_">
						<use xlink:href="#SVGID_4_"  overflow="visible"/>
					</clipPath>
					<g clip-path="url(#SVGID_5_)" enable-background="new    ">
						<path fill="#9E9E9E" d="M69,50.3L66.7,49c0,0,0,0,0,0L69,50.3C69,50.3,69,50.3,69,50.3"/>
						<path fill="#A3A3A3" d="M69,50.3l-2.3-1.2c0.1,0,0.1,0.1,0.2,0.1l2.3,1.2C69.2,50.4,69.1,50.3,69,50.3"/>
						<path fill="#A8A8A8" d="M69.2,50.4l-2.3-1.2c0.1,0,0.3,0,0.4,0l2.3,1.2C69.5,50.4,69.3,50.4,69.2,50.4"/>
					</g>
				</g>
				<g>
					<polygon fill="#B4B4B4" points="69.6,47.9 67.3,46.7 68.4,46.5 70.7,47.8 					"/>
				</g>
				<g enable-background="new    ">
					<defs>
						<path id="SVGID_6_" enable-background="new    " d="M69,50.3L66.7,49c-0.3-0.2-0.5-0.5-0.5-0.8l2.3,1.2
							C68.5,49.8,68.7,50.1,69,50.3z"/>
					</defs>
					<clipPath id="SVGID_7_">
						<use xlink:href="#SVGID_6_"  overflow="visible"/>
					</clipPath>
					<g clip-path="url(#SVGID_7_)" enable-background="new    ">
						<path fill="#858585" d="M69,50.3L66.7,49c-0.3-0.2-0.5-0.5-0.5-0.8l2.3,1.2C68.5,49.8,68.7,50.1,69,50.3"/>
					</g>
				</g>
				<g enable-background="new    ">
					<defs>
						<path id="SVGID_8_" enable-background="new    " d="M68.5,49.4l-2.3-1.2c0.1-0.9,0.5-1.4,1.1-1.5l2.3,1.2
							C69,48,68.5,48.6,68.5,49.4z"/>
					</defs>
					<clipPath id="SVGID_9_">
						<use xlink:href="#SVGID_8_"  overflow="visible"/>
					</clipPath>
					<g clip-path="url(#SVGID_9_)" enable-background="new    ">
						<path fill="#858585" d="M68.5,49.4l-2.3-1.2c0-0.2,0.1-0.4,0.1-0.6l2.3,1.2C68.5,49,68.5,49.2,68.5,49.4"/>
						<path fill="#8A8A8A" d="M68.6,48.8l-2.3-1.2c0-0.1,0.1-0.2,0.1-0.2l2.3,1.2C68.7,48.7,68.6,48.7,68.6,48.8"/>
						<path fill="#8F8F8F" d="M68.7,48.6l-2.3-1.2c0-0.1,0.1-0.1,0.1-0.2l2.3,1.2C68.8,48.5,68.7,48.5,68.7,48.6"/>
						<path fill="#949494" d="M68.8,48.4l-2.3-1.2c0,0,0.1-0.1,0.1-0.1l2.3,1.2C68.9,48.4,68.8,48.4,68.8,48.4"/>
						<path fill="#999999" d="M68.9,48.3l-2.3-1.2c0,0,0.1-0.1,0.1-0.1l2.3,1.2C69,48.2,68.9,48.3,68.9,48.3"/>
						<path fill="#9E9E9E" d="M69,48.2L66.7,47c0,0,0.1-0.1,0.1-0.1l2.3,1.2C69.1,48.1,69.1,48.2,69,48.2"/>
						<path fill="#A3A3A3" d="M69.1,48.1l-2.3-1.2c0.1,0,0.1-0.1,0.2-0.1l2.3,1.2C69.2,48,69.2,48.1,69.1,48.1"/>
						<path fill="#A8A8A8" d="M69.3,48L67,46.8c0.1,0,0.2-0.1,0.3-0.1l2.3,1.2C69.5,47.9,69.4,48,69.3,48"/>
					</g>
				</g>
				<g enable-background="new    ">
					<defs>
						<path id="SVGID_10_" enable-background="new    " d="M77.4,38.6l-2.3-1.2c0-1.8-0.7-3.4-1.8-4.5l2.3,1.2
							C76.7,35.2,77.4,36.9,77.4,38.6z"/>
					</defs>
					<clipPath id="SVGID_11_">
						<use xlink:href="#SVGID_10_"  overflow="visible"/>
					</clipPath>
					<g clip-path="url(#SVGID_11_)" enable-background="new    ">
						<path fill="#858585" d="M77.4,38.6l-2.3-1.2c0-1.8-0.7-3.4-1.8-4.5l2.3,1.2C76.7,35.2,77.4,36.9,77.4,38.6"/>
					</g>
				</g>
				<g enable-background="new    ">
					<defs>
						<path id="SVGID_12_" enable-background="new    " d="M61.1,54.2c2.7-0.4,5-3.1,5.1-6l2.3,1.2c-0.1,3-2.3,5.6-5.1,6
							c-1,0.1-1.9,0-2.7-0.5l-2.3-1.2C59.2,54.2,60.2,54.4,61.1,54.2z"/>
					</defs>
					<clipPath id="SVGID_13_">
						<use xlink:href="#SVGID_12_"  overflow="visible"/>
					</clipPath>
					<g clip-path="url(#SVGID_13_)" enable-background="new    ">
						<path fill="#9E9E9E" d="M60.7,55l-2.3-1.2c0.1,0,0.1,0.1,0.2,0.1l2.3,1.2C60.8,55.1,60.8,55,60.7,55"/>
						<path fill="#A3A3A3" d="M60.9,55.1l-2.3-1.2c0.3,0.1,0.5,0.2,0.8,0.3l2.3,1.2C61.4,55.3,61.1,55.2,60.9,55.1"/>
						<path fill="#A8A8A8" d="M61.7,55.4l-2.3-1.2c0.5,0.1,1.1,0.2,1.7,0.1c0.5-0.1,1-0.2,1.5-0.4l2.3,1.2c-0.5,0.2-1,0.4-1.5,0.4
							C62.8,55.6,62.2,55.5,61.7,55.4"/>
						<path fill="#A3A3A3" d="M64.9,55l-2.3-1.2c0.3-0.1,0.6-0.3,0.8-0.5l2.3,1.2C65.5,54.7,65.2,54.9,64.9,55"/>
						<path fill="#9E9E9E" d="M65.7,54.6l-2.3-1.2c0.2-0.1,0.4-0.3,0.6-0.5l2.3,1.2C66.1,54.3,65.9,54.4,65.7,54.6"/>
						<path fill="#999999" d="M66.3,54.1l-2.3-1.2c0.2-0.2,0.4-0.3,0.5-0.5l2.3,1.2C66.7,53.7,66.5,53.9,66.3,54.1"/>
						<path fill="#949494" d="M66.8,53.6l-2.3-1.2c0.2-0.2,0.3-0.4,0.5-0.6l2.3,1.2C67.2,53.2,67,53.4,66.8,53.6"/>
						<path fill="#8F8F8F" d="M67.3,53L65,51.7c0.2-0.2,0.3-0.4,0.4-0.7l2.3,1.2C67.6,52.5,67.5,52.8,67.3,53"/>
						<path fill="#8A8A8A" d="M67.7,52.3l-2.3-1.2c0.1-0.3,0.3-0.6,0.4-0.9l2.3,1.2C68,51.7,67.9,52,67.7,52.3"/>
						<path fill="#858585" d="M68.1,51.5l-2.3-1.2c0.2-0.6,0.4-1.3,0.4-2l2.3,1.2C68.5,50.1,68.3,50.8,68.1,51.5"/>
					</g>
				</g>
				<g enable-background="new    ">
					<defs>
						<path id="SVGID_14_" enable-background="new    " d="M66.2,47.9c0-1.9-1-3.4-2.3-4.1l2.3,1.2c1.4,0.8,2.3,2.3,2.3,4.1
							C67.8,48.8,66.9,48.3,66.2,47.9z"/>
					</defs>
					<clipPath id="SVGID_15_">
						<use xlink:href="#SVGID_14_"  overflow="visible"/>
					</clipPath>
					<g clip-path="url(#SVGID_15_)" enable-background="new    ">
						<path fill="#858585" d="M68.5,49.2l-2.3-1.2c0-1.9-1-3.4-2.3-4.1l2.3,1.2C67.5,45.8,68.4,47.3,68.5,49.2"/>
					</g>
				</g>
				<g>
					<polygon fill="#808080" points="75.6,34.2 73.3,32.9 68.2,28.1 70.4,29.4 					"/>
				</g>
				<g enable-background="new    ">
					<defs>
						<path id="SVGID_16_" enable-background="new    " d="M70.4,29.4l-2.3-1.2c-0.1-0.1-0.2-0.2-0.2-0.3l2.3,1.2
							C70.3,29.2,70.4,29.3,70.4,29.4z"/>
					</defs>
					<clipPath id="SVGID_17_">
						<use xlink:href="#SVGID_16_"  overflow="visible"/>
					</clipPath>
					<g clip-path="url(#SVGID_17_)" enable-background="new    ">
						<path fill="#858585" d="M70.4,29.4l-2.3-1.2c-0.1-0.1-0.2-0.2-0.2-0.3l2.3,1.2C70.3,29.2,70.4,29.3,70.4,29.4"/>
					</g>
				</g>
				<g enable-background="new    ">
					<defs>
						<path id="SVGID_18_" enable-background="new    " d="M57.2,52.1L55,50.9c0.6-0.1,1.1-0.6,1.1-1.3l2.3,1.2
							C58.3,51.5,57.8,52,57.2,52.1z"/>
					</defs>
					<clipPath id="SVGID_19_">
						<use xlink:href="#SVGID_18_"  overflow="visible"/>
					</clipPath>
					<g clip-path="url(#SVGID_19_)" enable-background="new    ">
						<path fill="#A8A8A8" d="M57.2,52.1L55,50.9c0.1,0,0.2-0.1,0.3-0.1l2.3,1.2C57.5,52.1,57.4,52.1,57.2,52.1"/>
						<path fill="#A3A3A3" d="M57.6,52l-2.3-1.2c0.1,0,0.1-0.1,0.2-0.1l2.3,1.2C57.7,52,57.6,52,57.6,52"/>
						<path fill="#9E9E9E" d="M57.8,51.9l-2.3-1.2c0,0,0.1-0.1,0.1-0.1l2.3,1.2C57.9,51.9,57.8,51.9,57.8,51.9"/>
						<path fill="#999999" d="M57.9,51.8l-2.3-1.2c0,0,0.1-0.1,0.1-0.1l2.3,1.2C58,51.7,57.9,51.8,57.9,51.8"/>
						<path fill="#949494" d="M58,51.7l-2.3-1.2c0,0,0.1-0.1,0.1-0.1l2.3,1.2C58.1,51.6,58.1,51.7,58,51.7"/>
						<path fill="#8F8F8F" d="M58.1,51.6l-2.3-1.2c0,0,0.1-0.1,0.1-0.2l2.3,1.2C58.2,51.5,58.2,51.5,58.1,51.6"/>
						<path fill="#8A8A8A" d="M58.2,51.4l-2.3-1.2C56,50.1,56,50,56,50l2.3,1.2C58.3,51.3,58.2,51.4,58.2,51.4"/>
						<path fill="#858585" d="M58.3,51.2L56,50c0-0.1,0.1-0.2,0.1-0.4l2.3,1.2C58.4,51,58.3,51.1,58.3,51.2"/>
					</g>
				</g>
				<g enable-background="new    ">
					<defs>
						<path id="SVGID_20_" enable-background="new    " d="M55.6,48.5l2.3,1.2c0.3,0.2,0.5,0.5,0.5,0.8l-2.3-1.2
							C56.1,49,55.9,48.7,55.6,48.5z"/>
					</defs>
					<clipPath id="SVGID_21_">
						<use xlink:href="#SVGID_20_"  overflow="visible"/>
					</clipPath>
					<g clip-path="url(#SVGID_21_)" enable-background="new    ">
						<path fill="#858585" d="M58.4,50.6l-2.3-1.2c0-0.4-0.2-0.7-0.5-0.8l2.3,1.2C58.1,49.9,58.3,50.2,58.4,50.6"/>
					</g>
				</g>
				<g enable-background="new    ">
					<defs>
						<path id="SVGID_22_" enable-background="new    " d="M59.5,57.3L57.2,56c-1.7-0.9-3-2.7-3.3-5l2.3,1.2
							C56.5,54.5,57.8,56.3,59.5,57.3z"/>
					</defs>
					<clipPath id="SVGID_23_">
						<use xlink:href="#SVGID_22_"  overflow="visible"/>
					</clipPath>
					<g clip-path="url(#SVGID_23_)" enable-background="new    ">
						<path fill="#858585" d="M59.5,57.3L57.2,56c-1.7-0.9-3-2.7-3.3-5l2.3,1.2C56.5,54.5,57.8,56.3,59.5,57.3"/>
					</g>
				</g>
				<g>
					<path fill="#DFDFDF" d="M68.5,49.4c0.1,0.6,0.5,1,1.1,0.9l1.1-0.1c-0.6,3.9-3.6,7.2-7.3,7.7c-3.7,0.5-6.7-2-7.2-5.7l1.1-0.1
						c0.6-0.1,1.1-0.6,1.1-1.3c0.1,2.9,2.3,5,5,4.6C66.2,55.1,68.4,52.4,68.5,49.4z"/>
				</g>
				<g>
					<polygon fill="#B4B4B4" points="56.2,52.3 53.9,51 55,50.9 57.2,52.1 					"/>
				</g>
				<g enable-background="new    ">
					<defs>
						<path id="SVGID_24_" enable-background="new    " d="M55.6,48.5l2.3,1.2c-0.2-0.1-0.4-0.1-0.6-0.1L55,48.4
							C55.2,48.4,55.4,48.4,55.6,48.5z"/>
					</defs>
					<clipPath id="SVGID_25_">
						<use xlink:href="#SVGID_24_"  overflow="visible"/>
					</clipPath>
					<g clip-path="url(#SVGID_25_)" enable-background="new    ">
						<path fill="#A8A8A8" d="M57.2,49.7L55,48.4c0.1,0,0.3,0,0.4,0l2.3,1.2C57.5,49.6,57.4,49.6,57.2,49.7"/>
						<path fill="#A3A3A3" d="M57.6,49.7l-2.3-1.2c0.1,0,0.1,0,0.2,0.1l2.3,1.2C57.8,49.7,57.7,49.7,57.6,49.7"/>
						<path fill="#9E9E9E" d="M57.8,49.7l-2.3-1.2c0,0,0,0,0,0L57.8,49.7C57.8,49.8,57.8,49.8,57.8,49.7"/>
					</g>
				</g>
				<g>
					<polygon fill="#B4B4B4" points="56.2,49.8 53.9,48.6 55,48.4 57.2,49.7 					"/>
				</g>
				<g enable-background="new    ">
					<defs>
						<path id="SVGID_26_" enable-background="new    " d="M65.1,41.5l2.3,1.2c-1.1-0.6-2.5-0.9-3.9-0.7c-3.7,0.5-6.7,3.8-7.3,7.7
							l-2.3-1.2c0.6-3.9,3.6-7.2,7.3-7.7C62.6,40.7,64,40.9,65.1,41.5z"/>
					</defs>
					<clipPath id="SVGID_27_">
						<use xlink:href="#SVGID_26_"  overflow="visible"/>
					</clipPath>
					<g clip-path="url(#SVGID_27_)" enable-background="new    ">
						<path fill="#858585" d="M56.2,49.8l-2.3-1.2c0.1-0.6,0.3-1.3,0.5-1.9l2.3,1.2C56.4,48.5,56.3,49.2,56.2,49.8"/>
						<path fill="#8A8A8A" d="M56.7,47.9l-2.3-1.2c0.2-0.4,0.3-0.8,0.6-1.2l2.3,1.2C57,47.1,56.8,47.5,56.7,47.9"/>
						<path fill="#8F8F8F" d="M57.2,46.7l-2.3-1.2c0.2-0.3,0.4-0.7,0.6-1l2.3,1.2C57.6,46,57.4,46.4,57.2,46.7"/>
						<path fill="#949494" d="M57.8,45.7l-2.3-1.2c0.2-0.3,0.4-0.6,0.7-0.8l2.3,1.2C58.2,45.2,58,45.4,57.8,45.7"/>
						<path fill="#999999" d="M58.5,44.9l-2.3-1.2c0.2-0.3,0.5-0.5,0.8-0.8l2.3,1.2C59,44.4,58.7,44.6,58.5,44.9"/>
						<path fill="#9E9E9E" d="M59.2,44.1l-2.3-1.2c0.3-0.3,0.6-0.5,0.9-0.7l2.3,1.2C59.8,43.6,59.5,43.9,59.2,44.1"/>
						<path fill="#A3A3A3" d="M60.1,43.4l-2.3-1.2c0.4-0.3,0.8-0.5,1.2-0.7l2.3,1.2C60.9,42.9,60.5,43.2,60.1,43.4"/>
						<path fill="#A8A8A8" d="M61.3,42.7L59,41.5c0.7-0.3,1.4-0.5,2.1-0.6c0.9-0.1,1.8-0.1,2.5,0.1l2.3,1.2
							c-0.8-0.2-1.6-0.3-2.5-0.1C62.7,42.2,62,42.4,61.3,42.7"/>
						<path fill="#A3A3A3" d="M66,42.2L63.7,41c0.4,0.1,0.8,0.2,1.2,0.4l2.3,1.2C66.8,42.5,66.4,42.3,66,42.2"/>
						<path fill="#9E9E9E" d="M67.1,42.7l-2.3-1.2c0.1,0,0.1,0.1,0.2,0.1l2.3,1.2C67.3,42.7,67.2,42.7,67.1,42.7"/>
					</g>
				</g>
				<g>
					<path fill="#DFDFDF" d="M58.4,50.6c-0.1-0.6-0.5-1-1.1-0.9l-1.1,0.1c0.6-3.9,3.6-7.2,7.3-7.7c3.7-0.5,6.7,2,7.2,5.7l-1.1,0.1
						c-0.6,0.1-1.1,0.6-1.1,1.3c-0.1-2.9-2.3-5-5-4.6C60.7,45,58.4,47.6,58.4,50.6z"/>
				</g>
				<g>
					<polygon fill="#B4B4B4" points="54.1,50.1 51.8,48.9 53.9,48.6 56.2,49.8 					"/>
				</g>
				<g>
					<polygon fill="#A1A1A1" points="59.5,37.1 57.3,35.8 59.3,33.3 61.6,34.6 					"/>
				</g>
				<g enable-background="new    ">
					<defs>
						<path id="SVGID_28_" enable-background="new    " d="M59.8,39.2l-2.3-1.2c-0.1,0-0.2-0.1-0.2-0.2c-0.5-0.5-0.5-1.3,0-2
							l2.3,1.2c-0.5,0.6-0.5,1.5,0,2C59.6,39.1,59.7,39.1,59.8,39.2z"/>
					</defs>
					<clipPath id="SVGID_29_">
						<use xlink:href="#SVGID_28_"  overflow="visible"/>
					</clipPath>
					<g clip-path="url(#SVGID_29_)" enable-background="new    ">
						<path fill="#858585" d="M59.8,39.2l-2.3-1.2c-0.1,0-0.2-0.1-0.2-0.2c-0.4-0.4-0.5-0.9-0.3-1.5l2.3,1.2
							c-0.2,0.5-0.1,1.1,0.3,1.5C59.6,39.1,59.7,39.1,59.8,39.2"/>
						<path fill="#8A8A8A" d="M59.3,37.5L57,36.3c0-0.1,0.1-0.1,0.1-0.2l2.3,1.2C59.3,37.4,59.3,37.5,59.3,37.5"/>
						<path fill="#8F8F8F" d="M59.4,37.3l-2.3-1.2c0-0.1,0.1-0.1,0.1-0.2l2.3,1.2C59.4,37.2,59.4,37.3,59.4,37.3"/>
						<path fill="#949494" d="M59.5,37.2l-2.3-1.2c0,0,0.1-0.1,0.1-0.1l2.3,1.2C59.5,37.1,59.5,37.1,59.5,37.2"/>
					</g>
				</g>
				<g enable-background="new    ">
					<defs>
						<path id="SVGID_30_" enable-background="new    " d="M51.8,48.9c0.8,0.4,1.5,0.8,2.3,1.2c-0.9,1.2-2.3,2.1-3.8,2.3
							c-0.8-0.4-1.5-0.8-2.3-1.2C49.5,50.9,50.9,50.1,51.8,48.9z"/>
					</defs>
					<clipPath id="SVGID_31_">
						<use xlink:href="#SVGID_30_"  overflow="visible"/>
					</clipPath>
					<g clip-path="url(#SVGID_31_)" enable-background="new    ">
						<path fill="#A8A8A8" d="M50.3,52.4l-2.3-1.2c0.5-0.1,1-0.2,1.5-0.5l2.3,1.2C51.4,52.2,50.9,52.3,50.3,52.4"/>
						<path fill="#A3A3A3" d="M51.8,51.9l-2.3-1.2c0.3-0.1,0.6-0.3,0.8-0.5l2.3,1.2C52.4,51.6,52.1,51.8,51.8,51.9"/>
						<path fill="#9E9E9E" d="M52.7,51.5l-2.3-1.2c0.2-0.1,0.4-0.3,0.6-0.5l2.3,1.2C53.1,51.1,52.9,51.3,52.7,51.5"/>
						<path fill="#999999" d="M53.3,51L51,49.7c0.2-0.2,0.4-0.3,0.5-0.5l2.3,1.2C53.6,50.6,53.5,50.8,53.3,51"/>
						<path fill="#949494" d="M53.8,50.4l-2.3-1.2c0.1-0.1,0.2-0.2,0.3-0.3l2.3,1.2C54,50.2,53.9,50.3,53.8,50.4"/>
					</g>
				</g>
				<g enable-background="new    ">
					<defs>
						<path id="SVGID_32_" enable-background="new    " d="M50.3,49.6l-2.3-1.2c1.4-0.2,2.6-1.6,2.6-3.1l2.3,1.2
							C52.9,48,51.8,49.4,50.3,49.6z"/>
					</defs>
					<clipPath id="SVGID_33_">
						<use xlink:href="#SVGID_32_"  overflow="visible"/>
					</clipPath>
					<g clip-path="url(#SVGID_33_)" enable-background="new    ">
						<path fill="#A8A8A8" d="M50.3,49.6l-2.3-1.2c0.3,0,0.5-0.1,0.7-0.2l2.3,1.2C50.9,49.5,50.6,49.6,50.3,49.6"/>
						<path fill="#A3A3A3" d="M51.1,49.4l-2.3-1.2c0.1-0.1,0.3-0.1,0.4-0.2l2.3,1.2C51.4,49.3,51.2,49.3,51.1,49.4"/>
						<path fill="#9E9E9E" d="M51.5,49.2l-2.3-1.2c0.1-0.1,0.2-0.2,0.3-0.2l2.3,1.2C51.7,49,51.6,49.1,51.5,49.2"/>
						<path fill="#999999" d="M51.8,48.9l-2.3-1.2c0.1-0.1,0.2-0.2,0.3-0.3l2.3,1.2C52,48.7,51.9,48.8,51.8,48.9"/>
						<path fill="#949494" d="M52.1,48.7l-2.3-1.2c0.1-0.1,0.2-0.2,0.2-0.3l2.3,1.2C52.2,48.5,52.2,48.6,52.1,48.7"/>
						<path fill="#8F8F8F" d="M52.3,48.4L50,47.1c0.1-0.1,0.1-0.2,0.2-0.3l2.3,1.2C52.5,48.1,52.4,48.2,52.3,48.4"/>
						<path fill="#8A8A8A" d="M52.5,48l-2.3-1.2c0.1-0.1,0.1-0.3,0.2-0.4l2.3,1.2C52.7,47.7,52.6,47.9,52.5,48"/>
						<path fill="#858585" d="M52.7,47.6l-2.3-1.2c0.1-0.3,0.2-0.7,0.2-1.1l2.3,1.2C52.9,46.9,52.8,47.2,52.7,47.6"/>
					</g>
				</g>
				<g enable-background="new    ">
					<defs>
						<path id="SVGID_34_" enable-background="new    " d="M52.6,41l2.3,1.2c-0.2-0.1-0.4-0.2-0.7-0.1l-2.3-1.2
							C52.2,40.9,52.4,40.9,52.6,41z"/>
					</defs>
					<clipPath id="SVGID_35_">
						<use xlink:href="#SVGID_34_"  overflow="visible"/>
					</clipPath>
					<g clip-path="url(#SVGID_35_)" enable-background="new    ">
						<path fill="#A8A8A8" d="M54.2,42.2l-2.3-1.2c0.2,0,0.3,0,0.4,0l2.3,1.2C54.5,42.2,54.4,42.1,54.2,42.2"/>
						<path fill="#A3A3A3" d="M54.6,42.2L52.4,41c0.1,0,0.1,0,0.2,0.1l2.3,1.2C54.8,42.2,54.7,42.2,54.6,42.2"/>
						<path fill="#9E9E9E" d="M54.8,42.3L52.6,41c0,0,0,0,0,0L54.8,42.3C54.9,42.3,54.9,42.3,54.8,42.3"/>
					</g>
				</g>
				<g>
					<polygon fill="#808080" points="70.2,29.1 67.9,27.8 63.7,18.6 66,19.8 					"/>
				</g>
				<g>
					<polygon fill="#828282" points="52.9,46.5 50.6,45.3 50.6,42.5 52.9,43.7 					"/>
				</g>
				<g enable-background="new    ">
					<defs>
						<path id="SVGID_36_" enable-background="new    " d="M52.9,43.7l-2.3-1.2c0-0.8,0.6-1.5,1.3-1.6l2.3,1.2
							C53.5,42.3,52.9,43,52.9,43.7z"/>
					</defs>
					<clipPath id="SVGID_37_">
						<use xlink:href="#SVGID_36_"  overflow="visible"/>
					</clipPath>
					<g clip-path="url(#SVGID_37_)" enable-background="new    ">
						<path fill="#858585" d="M52.9,43.7l-2.3-1.2c0-0.2,0-0.4,0.1-0.5l2.3,1.2C52.9,43.4,52.9,43.5,52.9,43.7"/>
						<path fill="#8A8A8A" d="M53,43.2L50.7,42c0-0.1,0.1-0.1,0.1-0.2l2.3,1.2C53.1,43,53,43.1,53,43.2"/>
						<path fill="#8F8F8F" d="M53.1,43l-2.3-1.2c0-0.1,0.1-0.1,0.1-0.2l2.3,1.2C53.2,42.9,53.1,42.9,53.1,43"/>
						<path fill="#949494" d="M53.2,42.8l-2.3-1.2c0-0.1,0.1-0.1,0.1-0.1l2.3,1.2C53.3,42.7,53.2,42.8,53.2,42.8"/>
						<path fill="#999999" d="M53.3,42.7l-2.3-1.2c0,0,0.1-0.1,0.1-0.1l2.3,1.2C53.4,42.6,53.4,42.6,53.3,42.7"/>
						<path fill="#9E9E9E" d="M53.5,42.5l-2.3-1.2c0,0,0.1-0.1,0.2-0.1l2.3,1.2C53.6,42.4,53.5,42.5,53.5,42.5"/>
						<path fill="#A3A3A3" d="M53.6,42.4l-2.3-1.2c0.1,0,0.1-0.1,0.2-0.1l2.3,1.2C53.8,42.3,53.7,42.4,53.6,42.4"/>
						<path fill="#A8A8A8" d="M53.8,42.3L51.5,41c0.1-0.1,0.2-0.1,0.4-0.1l2.3,1.2C54.1,42.2,53.9,42.2,53.8,42.3"/>
					</g>
				</g>
				<g>
					<polygon fill="#808080" points="61.6,31.8 59.3,30.6 57.3,28.6 59.6,29.9 					"/>
				</g>
				<g enable-background="new    ">
					<defs>
						<path id="SVGID_38_" enable-background="new    " d="M58.9,26.3l2.3,1.2c-0.2-0.1-0.5-0.2-0.7-0.1c-0.3,0-0.7,0.2-0.9,0.5
							c-0.5,0.6-0.5,1.5,0,2l-2.3-1.2c-0.5-0.5-0.5-1.3,0-2c0.2-0.3,0.6-0.5,0.9-0.5C58.4,26.1,58.7,26.2,58.9,26.3z"/>
					</defs>
					<clipPath id="SVGID_39_">
						<use xlink:href="#SVGID_38_"  overflow="visible"/>
					</clipPath>
					<g clip-path="url(#SVGID_39_)" enable-background="new    ">
						<path fill="#858585" d="M59.6,29.9l-2.3-1.2c-0.4-0.4-0.5-0.9-0.3-1.5l2.3,1.2C59.1,28.9,59.2,29.5,59.6,29.9"/>
						<path fill="#8A8A8A" d="M59.3,28.4L57,27.2c0-0.1,0.1-0.1,0.1-0.2l2.3,1.2C59.3,28.3,59.3,28.3,59.3,28.4"/>
						<path fill="#8F8F8F" d="M59.4,28.2L57.1,27c0-0.1,0.1-0.1,0.1-0.2l2.3,1.2C59.4,28.1,59.4,28.1,59.4,28.2"/>
						<path fill="#949494" d="M59.5,28l-2.3-1.2c0,0,0.1-0.1,0.1-0.1c0,0,0,0,0,0l2.3,1.2c0,0,0,0,0,0C59.5,28,59.5,28,59.5,28"/>
						<path fill="#999999" d="M59.6,27.9l-2.3-1.2c0,0,0.1-0.1,0.1-0.1l2.3,1.2C59.7,27.8,59.6,27.8,59.6,27.9"/>
						<path fill="#9E9E9E" d="M59.7,27.7l-2.3-1.2c0,0,0.1-0.1,0.2-0.1l2.3,1.2C59.8,27.7,59.8,27.7,59.7,27.7"/>
						<path fill="#A3A3A3" d="M59.9,27.6l-2.3-1.2c0.1,0,0.1-0.1,0.2-0.1l2.3,1.2C60,27.5,60,27.6,59.9,27.6"/>
						<path fill="#A8A8A8" d="M60.1,27.5l-2.3-1.2c0.1-0.1,0.2-0.1,0.4-0.1c0.2,0,0.3,0,0.4,0l2.3,1.2c-0.1,0-0.3,0-0.4,0
							C60.3,27.4,60.2,27.4,60.1,27.5"/>
						<path fill="#A3A3A3" d="M60.9,27.4l-2.3-1.2c0.1,0,0.1,0,0.2,0.1l2.3,1.2C61.1,27.5,61,27.4,60.9,27.4"/>
						<path fill="#9E9E9E" d="M61.1,27.5l-2.3-1.2c0,0,0,0,0,0L61.1,27.5C61.1,27.5,61.1,27.5,61.1,27.5"/>
					</g>
				</g>
				<g enable-background="new    ">
					<defs>
						<path id="SVGID_40_" enable-background="new    " d="M61.8,16.5l2.3,1.2c0.8,0.5,1.5,1.2,1.9,2.1l-2.3-1.2
							C63.3,17.6,62.6,16.9,61.8,16.5z"/>
					</defs>
					<clipPath id="SVGID_41_">
						<use xlink:href="#SVGID_40_"  overflow="visible"/>
					</clipPath>
					<g clip-path="url(#SVGID_41_)" enable-background="new    ">
						<path fill="#858585" d="M66,19.8l-2.3-1.2c-0.4-0.9-1.1-1.7-1.9-2.1l2.3,1.2C64.9,18.1,65.6,18.9,66,19.8"/>
					</g>
				</g>
				<g enable-background="new    ">
					<defs>
						<path id="SVGID_42_" enable-background="new    " d="M63,14.2l2.3,1.2c-1.2-0.6-2.6-0.9-4-0.7L59,13.5
							C60.5,13.3,61.9,13.6,63,14.2z"/>
					</defs>
					<clipPath id="SVGID_43_">
						<use xlink:href="#SVGID_42_"  overflow="visible"/>
					</clipPath>
					<g clip-path="url(#SVGID_43_)" enable-background="new    ">
						<path fill="#A8A8A8" d="M61.3,14.7L59,13.5c0.9-0.1,1.8-0.1,2.6,0.1l2.3,1.2C63.1,14.7,62.2,14.6,61.3,14.7"/>
						<path fill="#A3A3A3" d="M63.9,14.9l-2.3-1.2c0.4,0.1,0.8,0.3,1.2,0.4l2.3,1.2C64.7,15.1,64.3,15,63.9,14.9"/>
						<path fill="#9E9E9E" d="M65.1,15.3l-2.3-1.2c0.1,0,0.2,0.1,0.2,0.1l2.3,1.2C65.2,15.4,65.2,15.4,65.1,15.3"/>
					</g>
				</g>
				<g>
					<polygon fill="#B4B4B4" points="37.5,54.2 35.2,53 48.1,51.2 50.3,52.4 					"/>
				</g>
				<g enable-background="new    ">
					<defs>
						<path id="SVGID_44_" enable-background="new    " d="M53.5,26l-2.3-1.2c-0.4-0.2-0.6-0.6-0.6-1.1l2.3,1.2
							C52.9,25.4,53.2,25.8,53.5,26z"/>
					</defs>
					<clipPath id="SVGID_45_">
						<use xlink:href="#SVGID_44_"  overflow="visible"/>
					</clipPath>
					<g clip-path="url(#SVGID_45_)" enable-background="new    ">
						<path fill="#858585" d="M53.5,26l-2.3-1.2c-0.4-0.2-0.6-0.6-0.6-1.1l2.3,1.2C52.9,25.4,53.2,25.8,53.5,26"/>
					</g>
				</g>
				<g>
					<polygon fill="#B4B4B4" points="37.5,51.4 35.2,50.2 48.1,48.4 50.3,49.6 					"/>
				</g>
				<g>
					<polygon fill="#828282" points="52.9,24.9 50.7,23.7 50.7,20.9 53,22.2 					"/>
				</g>
				<g>
					<polygon fill="#B4B4B4" points="46.2,34 43.9,32.7 59.3,30.6 61.6,31.8 					"/>
				</g>
				<g enable-background="new    ">
					<defs>
						<path id="SVGID_46_" enable-background="new    " d="M35.2,53c0.1,0,0.2,0.1,0.3,0.1c0.1,0,0.2,0.1,0.3,0.2
							c0.1,0.1,0.3,0.2,0.4,0.2c0.4,0.2,0.9,0.5,1.3,0.7c-1,0.1-1.9,0-2.7-0.5l-2.3-1.2C33.2,52.9,34.2,53.1,35.2,53z"/>
					</defs>
					<clipPath id="SVGID_47_">
						<use xlink:href="#SVGID_46_"  overflow="visible"/>
					</clipPath>
					<g clip-path="url(#SVGID_47_)" enable-background="new    ">
						<path fill="#9E9E9E" d="M34.7,53.7l-2.3-1.2c0.1,0,0.1,0.1,0.2,0.1l2.3,1.2C34.8,53.8,34.8,53.8,34.7,53.7"/>
						<path fill="#A3A3A3" d="M34.9,53.8l-2.3-1.2c0.3,0.1,0.5,0.2,0.8,0.3l2.3,1.2C35.4,54,35.1,53.9,34.9,53.8"/>
						<path fill="#A8A8A8" d="M35.7,54.1l-2.3-1.2C34,53,34.6,53,35.2,53l2.3,1.2C36.8,54.3,36.2,54.3,35.7,54.1"/>
					</g>
				</g>
				<g enable-background="new    ">
					<defs>
						<path id="SVGID_48_" enable-background="new    " d="M36.1,51.2L33.8,50c0.4,0.2,0.9,0.3,1.4,0.2l2.3,1.2
							C37,51.5,36.5,51.4,36.1,51.2z"/>
					</defs>
					<clipPath id="SVGID_49_">
						<use xlink:href="#SVGID_48_"  overflow="visible"/>
					</clipPath>
					<g clip-path="url(#SVGID_49_)" enable-background="new    ">
						<path fill="#9E9E9E" d="M36.1,51.2L33.8,50c0,0,0.1,0,0.1,0L36.1,51.2C36.2,51.2,36.1,51.2,36.1,51.2"/>
						<path fill="#A3A3A3" d="M36.2,51.2L33.9,50c0.1,0.1,0.3,0.1,0.4,0.1l2.3,1.2C36.4,51.4,36.3,51.3,36.2,51.2"/>
						<path fill="#A8A8A8" d="M36.6,51.4l-2.3-1.2c0.3,0.1,0.6,0.1,0.9,0l2.3,1.2C37.2,51.5,36.9,51.5,36.6,51.4"/>
					</g>
				</g>
				<g enable-background="new    ">
					<defs>
						<path id="SVGID_50_" enable-background="new    " d="M45.5,36.6l-2.3-1.2c-0.4-0.2-0.6-0.6-0.6-1.1c0-0.8,0.6-1.5,1.3-1.6
							l2.3,1.2c-0.7,0.1-1.3,0.8-1.3,1.6C44.9,36,45.2,36.4,45.5,36.6z"/>
					</defs>
					<clipPath id="SVGID_51_">
						<use xlink:href="#SVGID_50_"  overflow="visible"/>
					</clipPath>
					<g clip-path="url(#SVGID_51_)" enable-background="new    ">
						<path fill="#858585" d="M45.5,36.6l-2.3-1.2c-0.4-0.2-0.6-0.6-0.6-1.1c0-0.2,0-0.4,0.1-0.5L45,35c-0.1,0.2-0.1,0.4-0.1,0.5
							C44.9,36,45.2,36.4,45.5,36.6"/>
						<path fill="#8A8A8A" d="M45,35l-2.3-1.2c0-0.1,0.1-0.1,0.1-0.2l2.3,1.2C45.1,34.8,45.1,34.9,45,35"/>
						<path fill="#8F8F8F" d="M45.1,34.8l-2.3-1.2c0-0.1,0.1-0.1,0.1-0.2l2.3,1.2C45.2,34.6,45.2,34.7,45.1,34.8"/>
						<path fill="#949494" d="M45.2,34.6l-2.3-1.2c0-0.1,0.1-0.1,0.1-0.1l2.3,1.2C45.3,34.5,45.3,34.5,45.2,34.6"/>
						<path fill="#999999" d="M45.3,34.4l-2.3-1.2c0,0,0.1-0.1,0.1-0.1l2.3,1.2C45.4,34.4,45.4,34.4,45.3,34.4"/>
						<path fill="#9E9E9E" d="M45.5,34.3l-2.3-1.2c0,0,0.1-0.1,0.2-0.1l2.3,1.2C45.6,34.2,45.5,34.3,45.5,34.3"/>
						<path fill="#A3A3A3" d="M45.6,34.2l-2.3-1.2c0.1,0,0.1-0.1,0.2-0.1l2.3,1.2C45.8,34.1,45.7,34.1,45.6,34.2"/>
						<path fill="#A8A8A8" d="M45.8,34.1l-2.3-1.2c0.1-0.1,0.2-0.1,0.4-0.1l2.3,1.2C46.1,34,46,34,45.8,34.1"/>
					</g>
				</g>
				<g>
					<path fill="#DFDFDF" d="M64.2,30.4c1.2,1.2,1.2,3.4,0,4.9l-2.9,3.5c-0.2,0.3-0.6,0.5-0.9,0.5c-0.3,0-0.7,0-0.9-0.3
						c-0.5-0.5-0.5-1.3,0-2l2-2.5l-15.4,2.2c-0.7,0.1-1.3-0.4-1.3-1.2c0-0.8,0.6-1.5,1.3-1.6l15.4-2.2l-2-1.9c-0.5-0.5-0.5-1.3,0-2
						c0.2-0.3,0.6-0.5,0.9-0.5s0.7,0,0.9,0.3L64.2,30.4z"/>
				</g>
				<g enable-background="new    ">
					<defs>
						<path id="SVGID_52_" enable-background="new    " d="M49.5,18.7l2.3,1.2c0.7,0.4,1.2,1.2,1.2,2.2l-2.3-1.2
							C50.7,19.9,50.2,19.1,49.5,18.7z"/>
					</defs>
					<clipPath id="SVGID_53_">
						<use xlink:href="#SVGID_52_"  overflow="visible"/>
					</clipPath>
					<g clip-path="url(#SVGID_53_)" enable-background="new    ">
						<path fill="#858585" d="M53,22.2l-2.3-1.2c0-1-0.5-1.8-1.2-2.2l2.3,1.2C52.5,20.4,53,21.2,53,22.2"/>
					</g>
				</g>
				<g enable-background="new    ">
					<defs>
						<path id="SVGID_54_" enable-background="new    " d="M51.9,17c-0.3-0.3-0.6-0.6-1-0.8l2.3,1.2c0.4,0.2,0.7,0.5,1,0.8
							C53.5,17.8,52.5,17.4,51.9,17z"/>
					</defs>
					<clipPath id="SVGID_55_">
						<use xlink:href="#SVGID_54_"  overflow="visible"/>
					</clipPath>
					<g clip-path="url(#SVGID_55_)" enable-background="new    ">
						<path fill="#858585" d="M54.1,18.2L51.9,17c-0.3-0.3-0.6-0.6-1-0.8l2.3,1.2C53.5,17.7,53.8,17.9,54.1,18.2"/>
					</g>
				</g>
				<g>
					<polygon fill="#B4B4B4" points="31.2,55.8 28.9,54.6 30,54.4 32.2,55.6 					"/>
				</g>
				<g>
					<polygon fill="#B4B4B4" points="32.2,53.2 30,51.9 31.4,51.7 33.7,53 					"/>
				</g>
				<g>
					<polygon fill="#B4B4B4" points="31.2,53.3 28.9,52.1 30,51.9 32.2,53.2 					"/>
				</g>
				<g enable-background="new    ">
					<defs>
						<path id="SVGID_56_" enable-background="new    " d="M50.9,16.2l2.3,1.2c-0.8-0.4-1.7-0.6-2.7-0.5l-2.3-1.2
							C49.1,15.6,50.1,15.8,50.9,16.2z"/>
					</defs>
					<clipPath id="SVGID_57_">
						<use xlink:href="#SVGID_56_"  overflow="visible"/>
					</clipPath>
					<g clip-path="url(#SVGID_57_)" enable-background="new    ">
						<path fill="#A8A8A8" d="M50.4,17l-2.3-1.2c0.6-0.1,1.2-0.1,1.8,0.1l2.3,1.2C51.6,16.9,51,16.9,50.4,17"/>
						<path fill="#A3A3A3" d="M52.2,17.1l-2.3-1.2c0.3,0.1,0.6,0.2,0.8,0.3l2.3,1.2C52.7,17.2,52.5,17.1,52.2,17.1"/>
						<path fill="#9E9E9E" d="M53,17.4l-2.3-1.2c0.1,0,0.1,0.1,0.2,0.1l2.3,1.2C53.1,17.4,53,17.4,53,17.4"/>
					</g>
				</g>
				<g enable-background="new    ">
					<defs>
						<path id="SVGID_58_" enable-background="new    " d="M30.6,55.7l-2.3-1.2c-0.3-0.2-0.5-0.5-0.5-1c0-0.7,0.5-1.3,1.1-1.4
							l2.3,1.2C30.6,53.4,30,54,30,54.7C30,55.2,30.3,55.5,30.6,55.7z"/>
					</defs>
					<clipPath id="SVGID_59_">
						<use xlink:href="#SVGID_58_"  overflow="visible"/>
					</clipPath>
					<g clip-path="url(#SVGID_59_)" enable-background="new    ">
						<path fill="#858585" d="M30.6,55.7l-2.3-1.2c-0.3-0.2-0.5-0.5-0.5-1c0-0.2,0-0.3,0.1-0.5l2.3,1.2c-0.1,0.2-0.1,0.3-0.1,0.5
							C30,55.2,30.3,55.5,30.6,55.7"/>
						<path fill="#8A8A8A" d="M30.1,54.2L27.9,53c0-0.1,0.1-0.1,0.1-0.2l2.3,1.2C30.2,54.1,30.2,54.2,30.1,54.2"/>
						<path fill="#8F8F8F" d="M30.2,54l-2.3-1.2c0-0.1,0.1-0.1,0.1-0.2l2.3,1.2C30.3,53.9,30.2,54,30.2,54"/>
						<path fill="#949494" d="M30.3,53.9L28,52.6c0,0,0.1-0.1,0.1-0.1l2.3,1.2C30.4,53.8,30.3,53.8,30.3,53.9"/>
						<path fill="#999999" d="M30.4,53.8l-2.3-1.2c0,0,0.1-0.1,0.1-0.1l2.3,1.2C30.5,53.7,30.5,53.7,30.4,53.8"/>
						<path fill="#9E9E9E" d="M30.5,53.6l-2.3-1.2c0,0,0.1-0.1,0.1-0.1l2.3,1.2C30.6,53.6,30.6,53.6,30.5,53.6"/>
						<path fill="#A3A3A3" d="M30.7,53.5l-2.3-1.2c0.1,0,0.1-0.1,0.2-0.1l2.3,1.2C30.8,53.5,30.7,53.5,30.7,53.5"/>
						<path fill="#A8A8A8" d="M30.9,53.4l-2.3-1.2c0.1,0,0.2-0.1,0.3-0.1l2.3,1.2C31.1,53.3,31,53.4,30.9,53.4"/>
					</g>
				</g>
				<g>
					<path fill="#DFDFDF" d="M57.2,49.7c0.6-0.1,1.1,0.3,1.1,0.9c0,0,0,0.1,0,0.1c0,0,0,0.1,0,0.1c-0.1,0.6-0.5,1.2-1.1,1.3
						l-1.1,0.1l-23.9,3.4l-1.1,0.1c-0.6,0.1-1.1-0.4-1.1-1.1c0-0.7,0.5-1.3,1.1-1.4l1.1-0.1l1.5-0.2c0.9,1,2.3,1.4,3.7,1.2l12.9-1.8
						c1.5-0.2,2.8-1.1,3.8-2.3l2.1-0.3L57.2,49.7z"/>
				</g>
				<g enable-background="new    ">
					<defs>
						<path id="SVGID_60_" enable-background="new    " d="M34.7,53.7l-2.3-1.2c-0.4-0.2-0.7-0.5-1-0.8c-0.9-0.9-1.4-2.1-1.4-3.6
							l2.3,1.2c0,1.5,0.5,2.7,1.4,3.6C34,53.3,34.4,53.5,34.7,53.7z"/>
					</defs>
					<clipPath id="SVGID_61_">
						<use xlink:href="#SVGID_60_"  overflow="visible"/>
					</clipPath>
					<g clip-path="url(#SVGID_61_)" enable-background="new    ">
						<path fill="#858585" d="M34.7,53.7l-2.3-1.2c-0.4-0.2-0.7-0.5-1-0.8c-0.9-0.9-1.4-2.1-1.4-3.6l2.3,1.2c0,1.5,0.5,2.7,1.4,3.6
							C34,53.3,34.4,53.5,34.7,53.7"/>
					</g>
				</g>
				<g enable-background="new    ">
					<defs>
						<path id="SVGID_62_" enable-background="new    " d="M22.3,60.4L20,59.2c0.8,0.4,1.7,0.6,2.7,0.5c2.8-0.4,5.1-3.2,5.1-6.2
							l2.3,1.2c0,3-2.3,5.8-5.1,6.2C24,61,23.1,60.8,22.3,60.4z"/>
					</defs>
					<clipPath id="SVGID_63_">
						<use xlink:href="#SVGID_62_"  overflow="visible"/>
					</clipPath>
					<g clip-path="url(#SVGID_63_)" enable-background="new    ">
						<path fill="#9E9E9E" d="M22.3,60.4L20,59.2c0.1,0,0.1,0.1,0.2,0.1l2.3,1.2C22.4,60.5,22.3,60.4,22.3,60.4"/>
						<path fill="#A3A3A3" d="M22.4,60.5l-2.3-1.2c0.3,0.1,0.5,0.2,0.8,0.3l2.3,1.2C23,60.7,22.7,60.6,22.4,60.5"/>
						<path fill="#A8A8A8" d="M23.2,60.8L21,59.6c0.5,0.1,1.1,0.2,1.7,0.1c0.5-0.1,1-0.2,1.5-0.4l2.3,1.2c-0.5,0.2-1,0.4-1.5,0.4
							C24.4,61,23.8,60.9,23.2,60.8"/>
						<path fill="#A3A3A3" d="M26.5,60.4l-2.3-1.2c0.3-0.1,0.6-0.3,0.8-0.5l2.3,1.2C27,60.1,26.7,60.3,26.5,60.4"/>
						<path fill="#9E9E9E" d="M27.3,60L25,58.7c0.2-0.1,0.4-0.3,0.6-0.5l2.3,1.2C27.7,59.7,27.5,59.8,27.3,60"/>
						<path fill="#999999" d="M27.9,59.5l-2.3-1.2c0.2-0.2,0.4-0.3,0.5-0.5l2.3,1.2C28.2,59.1,28.1,59.3,27.9,59.5"/>
						<path fill="#949494" d="M28.4,59l-2.3-1.2c0.2-0.2,0.3-0.4,0.5-0.6l2.3,1.2C28.7,58.6,28.6,58.8,28.4,59"/>
						<path fill="#8F8F8F" d="M28.9,58.4l-2.3-1.2c0.2-0.2,0.3-0.4,0.4-0.7l2.3,1.2C29.1,57.9,29,58.2,28.9,58.4"/>
						<path fill="#8A8A8A" d="M29.3,57.7L27,56.5c0.1-0.3,0.3-0.6,0.4-0.9l2.3,1.2C29.5,57.2,29.4,57.4,29.3,57.7"/>
						<path fill="#858585" d="M29.7,56.9l-2.3-1.2c0.2-0.7,0.4-1.4,0.4-2.1l2.3,1.2C30,55.5,29.9,56.2,29.7,56.9"/>
					</g>
				</g>
				<g enable-background="new    ">
					<defs>
						<path id="SVGID_64_" enable-background="new    " d="M25.4,49.2l2.3,1.2c1.4,0.8,2.4,2.3,2.3,4.3l-2.3-1.2
							C27.8,51.5,26.8,50,25.4,49.2z"/>
					</defs>
					<clipPath id="SVGID_65_">
						<use xlink:href="#SVGID_64_"  overflow="visible"/>
					</clipPath>
					<g clip-path="url(#SVGID_65_)" enable-background="new    ">
						<path fill="#858585" d="M30,54.7l-2.3-1.2c0-1.9-0.9-3.5-2.3-4.3l2.3,1.2C29.1,51.2,30,52.8,30,54.7"/>
					</g>
				</g>
				<g enable-background="new    ">
					<defs>
						<path id="SVGID_66_" enable-background="new    " d="M17.1,53.9l2.3,1.2c0.3,0.2,0.5,0.5,0.5,1c0,0.7-0.5,1.3-1.1,1.4
							l-2.3-1.2c0.6-0.1,1.1-0.7,1.1-1.4C17.6,54.5,17.4,54.1,17.1,53.9z"/>
					</defs>
					<clipPath id="SVGID_67_">
						<use xlink:href="#SVGID_66_"  overflow="visible"/>
					</clipPath>
					<g clip-path="url(#SVGID_67_)" enable-background="new    ">
						<path fill="#A8A8A8" d="M18.8,57.5l-2.3-1.2c0.1,0,0.2-0.1,0.3-0.1l2.3,1.2C19,57.5,18.9,57.5,18.8,57.5"/>
						<path fill="#A3A3A3" d="M19.1,57.4l-2.3-1.2c0.1,0,0.1-0.1,0.2-0.1l2.3,1.2C19.2,57.4,19.2,57.4,19.1,57.4"/>
						<path fill="#9E9E9E" d="M19.3,57.3L17,56.1c0,0,0.1-0.1,0.1-0.1l2.3,1.2C19.4,57.3,19.3,57.3,19.3,57.3"/>
						<path fill="#999999" d="M19.4,57.2L17.2,56c0,0,0.1-0.1,0.1-0.1l2.3,1.2C19.5,57.1,19.5,57.2,19.4,57.2"/>
						<path fill="#949494" d="M19.6,57.1l-2.3-1.2c0,0,0.1-0.1,0.1-0.1l2.3,1.2C19.6,57,19.6,57.1,19.6,57.1"/>
						<path fill="#8F8F8F" d="M19.7,57l-2.3-1.2c0,0,0.1-0.1,0.1-0.2l2.3,1.2C19.7,56.9,19.7,56.9,19.7,57"/>
						<path fill="#8A8A8A" d="M19.8,56.8l-2.3-1.2c0-0.1,0.1-0.1,0.1-0.2l2.3,1.2C19.8,56.7,19.8,56.8,19.8,56.8"/>
						<path fill="#858585" d="M19.8,56.6l-2.3-1.2c0.1-0.2,0.1-0.3,0.1-0.5c0-0.4-0.2-0.8-0.5-1l2.3,1.2c0.3,0.2,0.5,0.5,0.5,1
							C19.9,56.3,19.9,56.5,19.8,56.6"/>
					</g>
				</g>
				<g>
					<polygon fill="#B4B4B4" points="17.7,57.7 15.5,56.4 16.5,56.3 18.8,57.5 					"/>
				</g>
				<g enable-background="new    ">
					<defs>
						<path id="SVGID_68_" enable-background="new    " d="M21.1,62.7l-2.3-1.2c-1.7-0.9-3-2.7-3.3-5l2.3,1.2
							C18.1,59.9,19.3,61.7,21.1,62.7z"/>
					</defs>
					<clipPath id="SVGID_69_">
						<use xlink:href="#SVGID_68_"  overflow="visible"/>
					</clipPath>
					<g clip-path="url(#SVGID_69_)" enable-background="new    ">
						<path fill="#858585" d="M21.1,62.7l-2.3-1.2c-1.7-0.9-3-2.7-3.3-5l2.3,1.2C18.1,59.9,19.3,61.7,21.1,62.7"/>
					</g>
				</g>
				<g enable-background="new    ">
					<defs>
						<path id="SVGID_70_" enable-background="new    " d="M17.1,53.9l2.3,1.2c-0.2-0.1-0.4-0.1-0.6-0.1l-2.3-1.2
							C16.7,53.8,16.9,53.8,17.1,53.9z"/>
					</defs>
					<clipPath id="SVGID_71_">
						<use xlink:href="#SVGID_70_"  overflow="visible"/>
					</clipPath>
					<g clip-path="url(#SVGID_71_)" enable-background="new    ">
						<path fill="#A8A8A8" d="M18.8,55.1l-2.3-1.2c0.1,0,0.3,0,0.4,0l2.3,1.2C19.1,55.1,18.9,55,18.8,55.1"/>
						<path fill="#A3A3A3" d="M19.2,55.1l-2.3-1.2c0.1,0,0.1,0,0.2,0.1l2.3,1.2C19.3,55.1,19.2,55.1,19.2,55.1"/>
						<path fill="#9E9E9E" d="M19.4,55.2l-2.3-1.2c0,0,0,0,0,0L19.4,55.2C19.4,55.2,19.4,55.2,19.4,55.2"/>
					</g>
				</g>
				<g>
					<polygon fill="#B4B4B4" points="17.7,55.2 15.5,54 16.5,53.8 18.8,55.1 					"/>
				</g>
				<g>
					<polygon fill="#B4B4B4" points="37.5,18.8 35.2,17.5 48.1,15.7 50.4,17 					"/>
				</g>
				<g enable-background="new    ">
					<defs>
						<path id="SVGID_72_" enable-background="new    " d="M26.6,46.9l2.3,1.2c-1.1-0.6-2.5-0.9-3.9-0.7c-3.7,0.5-6.7,3.8-7.3,7.7
							L15.5,54c0.6-3.9,3.6-7.2,7.3-7.7C24.2,46.1,25.5,46.3,26.6,46.9z"/>
					</defs>
					<clipPath id="SVGID_73_">
						<use xlink:href="#SVGID_72_"  overflow="visible"/>
					</clipPath>
					<g clip-path="url(#SVGID_73_)" enable-background="new    ">
						<path fill="#858585" d="M17.7,55.2L15.5,54c0.1-0.6,0.3-1.3,0.5-1.9l2.3,1.2C18,54,17.8,54.6,17.7,55.2"/>
						<path fill="#8A8A8A" d="M18.2,53.4l-2.3-1.2c0.2-0.4,0.3-0.8,0.6-1.2l2.3,1.2C18.6,52.5,18.4,52.9,18.2,53.4"/>
						<path fill="#8F8F8F" d="M18.8,52.1l-2.3-1.2c0.2-0.3,0.4-0.7,0.6-1l2.3,1.2C19.1,51.4,18.9,51.8,18.8,52.1"/>
						<path fill="#949494" d="M19.4,51.1l-2.3-1.2c0.2-0.3,0.4-0.6,0.7-0.8l2.3,1.2C19.8,50.6,19.6,50.8,19.4,51.1"/>
						<path fill="#999999" d="M20,50.3l-2.3-1.2c0.2-0.3,0.5-0.5,0.8-0.8l2.3,1.2C20.5,49.8,20.3,50,20,50.3"/>
						<path fill="#9E9E9E" d="M20.8,49.5l-2.3-1.2c0.3-0.3,0.6-0.5,0.9-0.7l2.3,1.2C21.4,49,21.1,49.3,20.8,49.5"/>
						<path fill="#A3A3A3" d="M21.7,48.8l-2.3-1.2c0.4-0.3,0.8-0.5,1.2-0.7l2.3,1.2C22.4,48.3,22.1,48.6,21.7,48.8"/>
						<path fill="#A8A8A8" d="M22.9,48.1l-2.3-1.2c0.7-0.3,1.4-0.5,2.1-0.6c0.9-0.1,1.8-0.1,2.5,0.1l2.3,1.2
							c-0.8-0.2-1.6-0.3-2.5-0.1C24.3,47.6,23.5,47.8,22.9,48.1"/>
						<path fill="#A3A3A3" d="M27.5,47.6l-2.3-1.2c0.4,0.1,0.8,0.2,1.2,0.4l2.3,1.2C28.3,47.9,28,47.7,27.5,47.6"/>
						<path fill="#9E9E9E" d="M28.7,48.1l-2.3-1.2c0.1,0,0.1,0.1,0.2,0.1l2.3,1.2C28.9,48.1,28.8,48.1,28.7,48.1"/>
					</g>
				</g>
				<g>
					<path fill="#DFDFDF" d="M30,54.7c0,0.7,0.5,1.2,1.1,1.1l1.1-0.1c-0.6,3.9-3.6,7.2-7.3,7.7c-3.7,0.5-6.7-2-7.2-5.7l1-0.1
						c0.6-0.1,1.1-0.7,1.1-1.4s-0.5-1.2-1.1-1.1l-1,0.1c0.6-3.9,3.6-7.2,7.3-7.7c3.7-0.5,6.7,2,7.2,5.7l-1.1,0.1
						C30.6,53.4,30,54,30,54.7c0-3-2.3-5.1-5-4.7c-2.8,0.4-5.1,3.2-5.1,6.2c0,3,2.3,5.1,5,4.7C27.8,60.5,30,57.7,30,54.7z"/>
				</g>
				<g>
					<polygon fill="#828282" points="32.3,49.4 30.1,48.1 30.1,23.8 32.4,25 					"/>
				</g>
				<g>
					<path fill="#DFDFDF" d="M54.2,42.2c0.7-0.1,1.3,0.4,1.3,1.2l0,2.8c0,1.5-0.5,2.9-1.4,4c-0.9,1.2-2.3,2.1-3.8,2.3l-12.9,1.8
						c-1.5,0.2-2.8-0.3-3.7-1.2c-0.9-0.9-1.4-2.1-1.4-3.6l0-24.3c0-1.5,0.5-2.9,1.4-4c0.9-1.2,2.3-2.1,3.8-2.3L50.4,17
						c1.5-0.2,2.8,0.3,3.7,1.2c0.9,0.9,1.4,2.1,1.4,3.6l0,2.8c0,0.8-0.6,1.5-1.3,1.6c-0.7,0.1-1.3-0.4-1.3-1.2l0-2.8
						c0-1.5-1.1-2.6-2.6-2.4l-12.9,1.8c-1.4,0.2-2.6,1.6-2.6,3.1l0,24.3c0,1.5,1.1,2.6,2.6,2.4l12.9-1.8c1.4-0.2,2.6-1.6,2.6-3.1
						l0-2.8C52.9,43,53.5,42.3,54.2,42.2z"/>
				</g>
				<g enable-background="new    ">
					<defs>
						<path id="SVGID_74_" enable-background="new    " d="M32.4,25l-2.3-1.2c0-1.5,0.5-2.9,1.4-4c0.9-1.2,2.3-2.1,3.8-2.3l2.3,1.2
							c-1.5,0.2-2.8,1.1-3.8,2.3C32.9,22.2,32.4,23.6,32.4,25z"/>
					</defs>
					<clipPath id="SVGID_75_">
						<use xlink:href="#SVGID_74_"  overflow="visible"/>
					</clipPath>
					<g clip-path="url(#SVGID_75_)" enable-background="new    ">
						<path fill="#858585" d="M32.4,25l-2.3-1.2c0-0.7,0.1-1.5,0.4-2.2l2.3,1.2C32.5,23.6,32.4,24.3,32.4,25"/>
						<path fill="#8A8A8A" d="M32.8,22.9l-2.3-1.2c0.1-0.3,0.2-0.6,0.4-0.9l2.3,1.2C33,22.3,32.9,22.6,32.8,22.9"/>
						<path fill="#8F8F8F" d="M33.2,22l-2.3-1.2c0.1-0.2,0.3-0.5,0.4-0.7l2.3,1.2C33.4,21.5,33.3,21.8,33.2,22"/>
						<path fill="#949494" d="M33.6,21.3l-2.3-1.2c0.1-0.1,0.1-0.2,0.2-0.2c0.1-0.1,0.2-0.2,0.3-0.3l2.3,1.2
							c-0.1,0.1-0.2,0.2-0.3,0.3C33.7,21.2,33.7,21.2,33.6,21.3"/>
						<path fill="#999999" d="M34.1,20.7l-2.3-1.2c0.2-0.2,0.3-0.4,0.5-0.5l2.3,1.2C34.4,20.4,34.2,20.6,34.1,20.7"/>
						<path fill="#9E9E9E" d="M34.6,20.2L32.3,19c0.2-0.2,0.4-0.3,0.6-0.5l2.3,1.2C35,19.9,34.8,20,34.6,20.2"/>
						<path fill="#A3A3A3" d="M35.2,19.7l-2.3-1.2c0.3-0.2,0.5-0.3,0.8-0.5l2.3,1.2C35.7,19.4,35.5,19.5,35.2,19.7"/>
						<path fill="#A8A8A8" d="M36,19.2L33.7,18c0.5-0.2,1-0.4,1.5-0.5l2.3,1.2C37,18.9,36.5,19,36,19.2"/>
					</g>
				</g>
				<g>
					<polygon fill="#B4B4B4" points="13.7,55.8 11.4,54.5 15.5,54 17.7,55.2 					"/>
				</g>
				<g enable-background="new    ">
					<defs>
						<path id="SVGID_76_" enable-background="new    " d="M12,55.5l-2.3-1.2c0.5,0.3,1.1,0.4,1.7,0.3l2.3,1.2
							C13,55.9,12.5,55.8,12,55.5z"/>
					</defs>
					<clipPath id="SVGID_77_">
						<use xlink:href="#SVGID_76_"  overflow="visible"/>
					</clipPath>
					<g clip-path="url(#SVGID_77_)" enable-background="new    ">
						<path fill="#9E9E9E" d="M12,55.5l-2.3-1.2c0,0,0.1,0,0.1,0.1L12,55.5C12,55.5,12,55.5,12,55.5"/>
						<path fill="#A3A3A3" d="M12.1,55.5l-2.3-1.2c0.2,0.1,0.3,0.1,0.5,0.2l2.3,1.2C12.4,55.7,12.2,55.6,12.1,55.5"/>
						<path fill="#A8A8A8" d="M12.6,55.7l-2.3-1.2c0.3,0.1,0.7,0.1,1.1,0.1l2.3,1.2C13.3,55.8,12.9,55.8,12.6,55.7"/>
					</g>
				</g>
				<g enable-background="new    ">
					<defs>
						<path id="SVGID_78_" enable-background="new    " d="M10.7,57.8l-2.3-1.2c-1.5-0.8-2.5-2.5-2.5-4.6l2.3,1.2
							C8.2,55.2,9.2,56.9,10.7,57.8z"/>
					</defs>
					<clipPath id="SVGID_79_">
						<use xlink:href="#SVGID_78_"  overflow="visible"/>
					</clipPath>
					<g clip-path="url(#SVGID_79_)" enable-background="new    ">
						<path fill="#858585" d="M10.7,57.8l-2.3-1.2c-1.5-0.8-2.5-2.5-2.5-4.6l2.3,1.2C8.2,55.2,9.2,56.9,10.7,57.8"/>
					</g>
				</g>
				<g>
					<polygon fill="#B4B4B4" points="14.2,21.4 11.9,20.1 59,13.5 61.3,14.7 					"/>
				</g>
				<g>
					<polygon fill="#828282" points="8.2,53.1 5.9,51.9 6,27.3 8.2,28.6 					"/>
				</g>
				<g>
					<path fill="#DFDFDF" d="M61.3,14.7c2.9-0.4,5.6,1.1,6.8,3.7l4.1,9.1l5,4.7c1.6,1.5,2.5,3.7,2.5,6.1l0,4.8
						c0,3.3-2.5,6.3-5.5,6.7l-3.5,0.5l-1.1,0.1c-0.6,0.1-1.1-0.3-1.1-0.9c0.1-0.9,0.5-1.4,1.1-1.5l1.1-0.1l3.5-0.5
						c1.8-0.2,3.2-2,3.2-3.9l0-4.8c0-1.8-0.7-3.4-1.8-4.5l-5.1-4.8c-0.1-0.1-0.2-0.2-0.2-0.3L66,19.8c-0.8-1.9-2.7-2.9-4.7-2.6
						l-7.2,1c-0.9-1-2.3-1.4-3.7-1.2l-12.9,1.8c-1.5,0.2-2.8,1.1-3.8,2.3l-19.6,2.8c-2,0.3-3.6,2.3-3.6,4.4l0,24.5
						c0,1.9,1.4,3.2,3.2,3l4.1-0.6l1-0.1c0.6-0.1,1.1,0.4,1.1,1.1c0,0.7-0.5,1.3-1.1,1.4l-1,0.1l-4.1,0.6c-3,0.4-5.5-1.9-5.5-5.1
						l0-24.5c0-3.5,2.7-6.8,5.9-7.2L61.3,14.7z"/>
				</g>
				<g enable-background="new    ">
					<defs>
						<path id="SVGID_80_" enable-background="new    " d="M8.2,28.6L6,27.3c0-3.5,2.7-6.8,5.9-7.2l2.3,1.2
							C10.9,21.8,8.3,25.1,8.2,28.6z"/>
					</defs>
					<clipPath id="SVGID_81_">
						<use xlink:href="#SVGID_80_"  overflow="visible"/>
					</clipPath>
					<g clip-path="url(#SVGID_81_)" enable-background="new    ">
						<path fill="#858585" d="M8.2,28.6L6,27.3c0-0.9,0.2-1.7,0.5-2.5l2.3,1.2C8.4,26.9,8.2,27.7,8.2,28.6"/>
						<path fill="#8A8A8A" d="M8.7,26.1l-2.3-1.2c0.1-0.3,0.3-0.7,0.4-1l2.3,1.2C9,25.4,8.8,25.7,8.7,26.1"/>
						<path fill="#8F8F8F" d="M9.2,25.1l-2.3-1.2c0.1-0.3,0.3-0.5,0.5-0.8l2.3,1.2C9.5,24.5,9.3,24.8,9.2,25.1"/>
						<path fill="#949494" d="M9.6,24.3l-2.3-1.2c0.2-0.2,0.3-0.5,0.5-0.7l2.3,1.2C10,23.8,9.8,24.1,9.6,24.3"/>
						<path fill="#999999" d="M10.2,23.6l-2.3-1.2c0.2-0.2,0.4-0.4,0.6-0.6l2.3,1.2C10.6,23.2,10.4,23.4,10.2,23.6"/>
						<path fill="#9E9E9E" d="M10.8,23l-2.3-1.2c0.2-0.2,0.5-0.4,0.7-0.6l2.3,1.2C11.2,22.6,11,22.8,10.8,23"/>
						<path fill="#A3A3A3" d="M11.5,22.4l-2.3-1.2c0.3-0.2,0.6-0.4,1-0.6l2.3,1.2C12.1,22,11.8,22.2,11.5,22.4"/>
						<path fill="#A8A8A8" d="M12.5,21.9l-2.3-1.2c0.5-0.3,1.1-0.4,1.7-0.5l2.3,1.2C13.6,21.4,13,21.6,12.5,21.9"/>
					</g>
				</g>
			</g>
		</g>
	</g>
</g>
</svg>
