<?xml version="1.0" encoding="utf-8"?>
<!-- Generator: Adobe Illustrator 19.0.0, SVG Export Plug-In . SVG Version: 6.00 Build 0)  -->
<svg version="1.1" id="Layer_1" xmlns="http://www.w3.org/2000/svg" xmlns:xlink="http://www.w3.org/1999/xlink" x="0px" y="0px"
	 viewBox="0 0 110 64" style="enable-background:new 0 0 110 64;" xml:space="preserve">
<style type="text/css">
	.st0{fill:#F4ED64;}
</style>
<g id="Door">
	<g id="XMLID_8_">
		<g id="XMLID_11_">
			<path id="XMLID_15_" class="st0" d="M100.9,55.6c0.5-3.4,1.2-7.9-0.4-11c-1.6-2.9-4.3-5.5-6.5-8.2c-3.3-3.9-6.5-7.9-10.1-11.6
				c-1.8-2-4.1-4.8-6.8-5.5c-1.8-0.5-4.3-0.2-6.2-0.2c-4.1,0-8,0-12.1,0c-9.5,0-18.8,0-28.2,0.1c-3.6,0-7.1,0.1-10.7,0.1
				c-1.1,0-3-0.3-4,0c-2,0.9-2.8,4.2-3.6,6.1C9.7,31.9,8.8,39,8.6,46.1C8.5,48.3,8,53.8,10,55.5c1,0.8,3.8,0.8,4.9,0.8
				c1.3,0,1.8,0.7,0.9-0.5c0.2,0.2,0.3,1.1,0.4,1.4c2,7.5,12.8,8.7,18,4.1c1.2-1,2.6-2.7,3-4.2c0.5-2-0.5-0.5-0.1-0.4
				c3.5,0.2,7.1,0,10.5,0c7.6,0,15.2,0,22.8,0c-0.3-0.3-0.8-0.8-1.1-1.1c0.7,7.6,9.8,10.7,16,6.8c1.5-0.9,2.6-2.2,3.5-3.7
				c0.3-0.5,1.7-3.3,0.7-2.5c-0.9,0.5,3.8,0.3,4.8,0.3c1.7,0,3.6,0,5.3,0c1.4,0,1.4-2.2,0-2.2c-3.6,0-7.2,0-10.8,0
				c-0.4,0-1,0.3-1.1,0.8c-1.6,7.9-15.5,9.1-16.3,0.3c0-0.5-0.4-1.1-1.1-1.1c-11.3,0-22.6,0-33.9,0c-0.4,0-1,0.3-1.1,0.8
				c-2.1,8.5-16,8.8-17.7-0.1c-0.1-0.5-0.7-0.8-1.1-0.8c-2-0.1-4.8,0.2-5.8-1.5c-1.3-2.3-0.3-7.3-0.1-9.8c0.7-6.8,1.5-16,5.9-21.5
				c-0.1,0.1-1.2,0.1,0.2,0.2c1.2,0.1,2.4,0,3.6,0c4,0,8-0.1,12.1-0.1c10.3-0.2,20.5-0.2,30.8-0.2c3.7,0,7.5-0.1,11.2,0.1
				c3.3,0.2,5,2.3,7.4,4.7c4.2,4.3,8,9,11.8,13.7c1.4,1.7,3.2,3.5,4.3,5.4c1.6,2.8,1.2,6.6,0.7,9.8C98.5,56.4,100.7,57,100.9,55.6z"
				/>
		</g>
	</g>
	<polygon id="XMLID_7_" class="st0" points="71.1,38 62,44 62,40.6 54.6,40.6 54.6,35.3 62,35.3 62,32 	"/>
	<path id="XMLID_3_" class="st0" d="M40.2,38l9.1-6v3.4h7.4v5.3h-7.4v3.4L40.2,38z M37,55.3h17.7V20.2H37V55.3z"/>
</g>
</svg>
