<svg width="46" height="46" xmlns="http://www.w3.org/2000/svg">
 <metadata id="metadata41">image/svg+xml</metadata>

 <g>
  <title>background</title>
  <rect fill="none" id="canvas_background" height="48" width="48" y="-1" x="-1"/>
 </g>
 <g>
  <title>Layer 1</title>
  <g stroke="null" id="g4">
   <path stroke="null" fill="#d0d2d3" id="path2" d="m22.940497,0.305344c-12.499924,0 -22.635153,10.135229 -22.635153,22.635153s10.135229,22.63707 22.635153,22.63707s22.63707,-10.137145 22.63707,-22.63707s-10.137145,-22.635153 -22.63707,-22.635153zm4.712144,35.081422c-1.165101,0.459908 -2.092583,0.808672 -2.788194,1.050124c-0.693695,0.241452 -1.500451,0.362178 -2.418351,0.362178c-1.410385,0 -2.508417,-0.344931 -3.290261,-1.032877s-1.17085,-1.559856 -1.17085,-2.619561c0,-0.412001 0.028744,-0.833584 0.086233,-1.262832c0.059405,-0.429248 0.153303,-0.912151 0.281694,-1.45446l1.458293,-5.150973c0.128391,-0.494401 0.239536,-0.963891 0.327685,-1.400804c0.088149,-0.440745 0.130307,-0.845081 0.130307,-1.213008c0,-0.655369 -0.136056,-1.115278 -0.406252,-1.373976c-0.274029,-0.258698 -0.789509,-0.385173 -1.557939,-0.385173c-0.375592,0 -0.762681,0.055572 -1.159352,0.172466c-0.392838,0.120726 -0.733937,0.229954 -1.013715,0.337266l0.385173,-1.586684c0.95431,-0.389006 1.868377,-0.722439 2.740287,-0.998384c0.871909,-0.279778 1.695912,-0.41775 2.472007,-0.41775c1.400804,0 2.481589,0.341099 3.242354,1.015631c0.756932,0.676448 1.138273,1.556023 1.138273,2.636808c0,0.224205 -0.026828,0.61896 -0.078568,1.182348c-0.05174,0.565304 -0.14947,1.080785 -0.291275,1.554107l-1.450627,5.135643c-0.11881,0.412001 -0.224205,0.883407 -0.32002,1.410385c-0.093898,0.526978 -0.139889,0.929398 -0.139889,1.199594c0,0.682197 0.151386,1.147854 0.457992,1.395055c0.302773,0.247201 0.833584,0.371759 1.584767,0.371759c0.354513,0 0.751184,-0.063237 1.199594,-0.18588c0.444578,-0.122642 0.766514,-0.23187 0.96964,-0.325768l-0.389006,1.584767zm-0.256782,-20.845344c-0.676448,0.628541 -1.490869,0.942812 -2.443263,0.942812c-0.950477,0 -1.770647,-0.314271 -2.452844,-0.942812c-0.678365,-0.628541 -1.02138,-1.393139 -1.02138,-2.286128c0,-0.891072 0.344931,-1.657586 1.02138,-2.291876c0.682197,-0.636206 1.502367,-0.952393 2.452844,-0.952393c0.952393,0 1.768731,0.316187 2.443263,0.952393c0.676448,0.63429 1.015631,1.400804 1.015631,2.291876c0,0.894905 -0.339182,1.657586 -1.015631,2.286128z"/>
  </g>
  <g id="g6"/>
  <g id="g8"/>
  <g id="g10"/>
  <g id="g12"/>
  <g id="g14"/>
  <g id="g16"/>
  <g id="g18"/>
  <g id="g20"/>
  <g id="g22"/>
  <g id="g24"/>
  <g id="g26"/>
  <g id="g28"/>
  <g id="g30"/>
  <g id="g32"/>
  <g id="g34"/>
 </g>
</svg>