<?xml version="1.0" encoding="UTF-8" standalone="no"?>
<!-- Generator: Adobe Illustrator 19.0.0, SVG Export Plug-In . SVG Version: 6.00 Build 0)  -->

<svg
   xmlns:dc="http://purl.org/dc/elements/1.1/"
   xmlns:cc="http://creativecommons.org/ns#"
   xmlns:rdf="http://www.w3.org/1999/02/22-rdf-syntax-ns#"
   xmlns:svg="http://www.w3.org/2000/svg"
   xmlns="http://www.w3.org/2000/svg"
   xmlns:sodipodi="http://sodipodi.sourceforge.net/DTD/sodipodi-0.dtd"
   xmlns:inkscape="http://www.inkscape.org/namespaces/inkscape"
   version="1.1"
   id="Layer_1"
   x="0px"
   y="0px"
   viewBox="0 0 47 46"
   xml:space="preserve"
   sodipodi:docname="Intercom.svg"
   width="47"
   height="46"
   inkscape:version="0.92.3 (2405546, 2018-03-11)"><metadata
   id="metadata94"><rdf:RDF><cc:Work
       rdf:about=""><dc:format>image/svg+xml</dc:format><dc:type
         rdf:resource="http://purl.org/dc/dcmitype/StillImage" /><dc:title></dc:title></cc:Work></rdf:RDF></metadata><defs
   id="defs92" /><sodipodi:namedview
   pagecolor="#ffffff"
   bordercolor="#666666"
   borderopacity="1"
   objecttolerance="10"
   gridtolerance="10"
   guidetolerance="10"
   inkscape:pageopacity="0"
   inkscape:pageshadow="2"
   inkscape:window-width="2560"
   inkscape:window-height="1475"
   id="namedview90"
   showgrid="false"
   inkscape:pagecheckerboard="true"
   inkscape:zoom="3.6875"
   inkscape:cx="60.423729"
   inkscape:cy="32"
   inkscape:window-x="-13"
   inkscape:window-y="-13"
   inkscape:window-maximized="1"
   inkscape:current-layer="Layer_1" />
<style
   type="text/css"
   id="style79">
	.st0{fill:#FFFFFF;}
</style>
<g
   id="Intercom"
   transform="translate(-31.65,-18.1)">
	<g
   id="XMLID_3_">
		<path
   id="XMLID_11_"
   class="st0"
   d="M 50,24.3 H 37.7 V 20.5 C 37.7,19.6 37,19 36.2,19 c -0.9,0 -1.5,0.7 -1.5,1.5 v 3.9 C 33.2,24.8 32,26.3 32,27.9 v 11.8 c 0,2 1.6,3.7 3.7,3.7 H 36 v 6.4 c 0,2 1.6,3.7 3.7,3.7 H 46 c 2,0 3.7,-1.6 3.7,-3.7 V 43.4 H 50 c 2,0 3.7,-1.6 3.7,-3.7 V 28 c 0,-2 -1.6,-3.7 -3.7,-3.7 z m 0.5,15.4 c 0,0.3 -0.3,0.5 -0.5,0.5 h -1.9 c -0.9,0 -1.5,0.7 -1.5,1.5 v 7.9 c 0,0.3 -0.3,0.5 -0.5,0.5 h -6.4 c -0.3,0 -0.5,-0.3 -0.5,-0.5 v -7.9 c 0,-0.9 -0.7,-1.5 -1.5,-1.5 h -1.9 c -0.3,0 -0.5,-0.3 -0.5,-0.5 V 28 c 0,-0.3 0.3,-0.5 0.5,-0.5 h 14.4 c 0.3,0 0.5,0.3 0.5,0.5 v 11.7 z"
   inkscape:connector-curvature="0"
   style="fill:#ffffff" />
		<path
   id="XMLID_10_"
   class="st0"
   d="m 46.8,29.6 h -7.9 c -0.9,0 -1.5,0.7 -1.5,1.5 0,0.9 0.7,1.5 1.5,1.5 h 7.9 c 0.9,0 1.5,-0.7 1.5,-1.5 0,-0.8 -0.6,-1.5 -1.5,-1.5 z"
   inkscape:connector-curvature="0"
   style="fill:#ffffff" />
		<path
   id="XMLID_9_"
   class="st0"
   d="m 46.8,35 h -7.9 c -0.9,0 -1.5,0.7 -1.5,1.5 0,0.9 0.7,1.5 1.5,1.5 h 7.9 c 0.9,0 1.5,-0.7 1.5,-1.5 0,-0.8 -0.6,-1.5 -1.5,-1.5 z"
   inkscape:connector-curvature="0"
   style="fill:#ffffff" />
		<path
   id="XMLID_6_"
   class="st0"
   d="M 74.2,35 H 62 v -3.7 c 0,-0.9 -0.7,-1.5 -1.5,-1.5 -0.9,0 -1.5,0.7 -1.5,1.5 V 35 c -1.5,0.4 -2.7,1.9 -2.7,3.5 v 11.8 c 0,2 1.6,3.7 3.7,3.7 h 0.4 v 6.4 c 0,2 1.6,3.7 3.7,3.7 h 6.4 c 2,0 3.7,-1.6 3.7,-3.7 V 54 h 0.4 c 2,0 3.7,-1.6 3.7,-3.7 V 38.6 C 77.9,36.6 76.2,35 74.2,35 Z m 0.6,15.4 c 0,0.3 -0.3,0.5 -0.5,0.5 h -1.9 c -0.9,0 -1.5,0.7 -1.5,1.5 v 7.9 c 0,0.3 -0.3,0.5 -0.5,0.5 h -6.5 c -0.3,0 -0.5,-0.3 -0.5,-0.5 v -7.9 c 0,-0.9 -0.7,-1.5 -1.5,-1.5 H 60 c -0.3,0 -0.5,-0.3 -0.5,-0.5 V 38.6 c 0,-0.3 0.3,-0.5 0.5,-0.5 h 14.4 c 0.3,0 0.5,0.3 0.5,0.5 z"
   inkscape:connector-curvature="0"
   style="fill:#ffffff" />
		<path
   id="XMLID_5_"
   class="st0"
   d="m 71,40.2 h -7.9 c -0.9,0 -1.5,0.7 -1.5,1.5 0,0.9 0.7,1.5 1.5,1.5 H 71 c 0.9,0 1.5,-0.7 1.5,-1.5 0.1,-0.8 -0.7,-1.5 -1.5,-1.5 z"
   inkscape:connector-curvature="0"
   style="fill:#ffffff" />
		<path
   id="XMLID_4_"
   class="st0"
   d="m 71,45.6 h -7.9 c -0.9,0 -1.5,0.7 -1.5,1.5 0,0.9 0.7,1.5 1.5,1.5 H 71 c 0.9,0 1.5,-0.7 1.5,-1.5 0.1,-0.8 -0.7,-1.5 -1.5,-1.5 z"
   inkscape:connector-curvature="0"
   style="fill:#ffffff" />
	</g>
</g>
</svg>