<?xml version="1.0" encoding="utf-8"?>
<!-- Generator: Adobe Illustrator 19.0.0, SVG Export Plug-In . SVG Version: 6.00 Build 0)  -->
<svg version="1.1" id="Layer_1" xmlns="http://www.w3.org/2000/svg" xmlns:xlink="http://www.w3.org/1999/xlink" x="0px" y="0px"
	 viewBox="0 0 110 64" style="enable-background:new 0 0 110 64;" xml:space="preserve">
<style type="text/css">
	.st0{fill:#F4ED64;}
</style>
<g id="Intercom">
	<g id="XMLID_3_">
		<path id="XMLID_11_" class="st0" d="M50,24.3H37.7v-3.8c0-0.9-0.7-1.5-1.5-1.5c-0.9,0-1.5,0.7-1.5,1.5v3.9
			c-1.5,0.4-2.7,1.9-2.7,3.5v11.8c0,2,1.6,3.7,3.7,3.7H36v6.4c0,2,1.6,3.7,3.7,3.7H46c2,0,3.7-1.6,3.7-3.7v-6.4H50
			c2,0,3.7-1.6,3.7-3.7V28C53.7,26,52.1,24.3,50,24.3z M50.5,39.7c0,0.3-0.3,0.5-0.5,0.5h-1.9c-0.9,0-1.5,0.7-1.5,1.5v7.9
			c0,0.3-0.3,0.5-0.5,0.5h-6.4c-0.3,0-0.5-0.3-0.5-0.5v-7.9c0-0.9-0.7-1.5-1.5-1.5h-1.9c-0.3,0-0.5-0.3-0.5-0.5V28
			c0-0.3,0.3-0.5,0.5-0.5h14.4c0.3,0,0.5,0.3,0.5,0.5v11.7H50.5z"/>
		<path id="XMLID_10_" class="st0" d="M46.8,29.6h-7.9c-0.9,0-1.5,0.7-1.5,1.5c0,0.9,0.7,1.5,1.5,1.5h7.9c0.9,0,1.5-0.7,1.5-1.5
			C48.3,30.3,47.7,29.6,46.8,29.6z"/>
		<path id="XMLID_9_" class="st0" d="M46.8,35h-7.9c-0.9,0-1.5,0.7-1.5,1.5c0,0.9,0.7,1.5,1.5,1.5h7.9c0.9,0,1.5-0.7,1.5-1.5
			C48.3,35.7,47.7,35,46.8,35z"/>
		<path id="XMLID_6_" class="st0" d="M74.2,35H62v-3.7c0-0.9-0.7-1.5-1.5-1.5c-0.9,0-1.5,0.7-1.5,1.5V35c-1.5,0.4-2.7,1.9-2.7,3.5
			v11.8c0,2,1.6,3.7,3.7,3.7h0.4v6.4c0,2,1.6,3.7,3.7,3.7h6.4c2,0,3.7-1.6,3.7-3.7v-6.4h0.4c2,0,3.7-1.6,3.7-3.7V38.6
			C77.9,36.6,76.2,35,74.2,35z M74.8,50.4c0,0.3-0.3,0.5-0.5,0.5h-1.9c-0.9,0-1.5,0.7-1.5,1.5v7.9c0,0.3-0.3,0.5-0.5,0.5h-6.5
			c-0.3,0-0.5-0.3-0.5-0.5v-7.9c0-0.9-0.7-1.5-1.5-1.5h-1.9c-0.3,0-0.5-0.3-0.5-0.5V38.6c0-0.3,0.3-0.5,0.5-0.5h14.4
			c0.3,0,0.5,0.3,0.5,0.5L74.8,50.4L74.8,50.4z"/>
		<path id="XMLID_5_" class="st0" d="M71,40.2h-7.9c-0.9,0-1.5,0.7-1.5,1.5c0,0.9,0.7,1.5,1.5,1.5H71c0.9,0,1.5-0.7,1.5-1.5
			C72.6,40.9,71.8,40.2,71,40.2z"/>
		<path id="XMLID_4_" class="st0" d="M71,45.6h-7.9c-0.9,0-1.5,0.7-1.5,1.5c0,0.9,0.7,1.5,1.5,1.5H71c0.9,0,1.5-0.7,1.5-1.5
			C72.6,46.3,71.8,45.6,71,45.6z"/>
	</g>
</g>
</svg>
