<?xml version="1.0" encoding="utf-8"?>
<!-- Generator: Adobe Illustrator 19.0.0, SVG Export Plug-In . SVG Version: 6.00 Build 0)  -->
<svg version="1.1" id="Layer_1" xmlns="http://www.w3.org/2000/svg" xmlns:xlink="http://www.w3.org/1999/xlink" x="0px" y="0px"
	 viewBox="-270.5 365 64 64" style="enable-background:new -270.5 365 64 64;" xml:space="preserve">
<style type="text/css">
	.st0{fill:#F4ED64;}
</style>
<g id="Lights">
	<g id="XMLID_2_">
		<g id="XMLID_21_">
			<g id="XMLID_22_">
				<path id="XMLID_23_" class="st0" d="M-225.8,416.7v-0.3c0-1.7-1.4-3.1-3.1-3.1h-5v-14.9c1.9-0.4,3.3-2.1,3.3-4.1
					s-1.4-3.7-3.3-4.1v-14.5c0-0.4-0.4-0.8-0.8-0.8c-0.1,0-0.2,0-0.3,0l0,0c-3.2,0-6.3,0.9-9,2.5c-2.6,1.5-4.9,3.7-6.5,6.3
					c-0.2,0.4-0.1,0.9,0.3,1.1c0.4,0.2,0.9,0.1,1.1-0.3c3-4.8,8-7.8,13.6-8v13.8c-1.9,0.4-3.3,2.1-3.3,4.1s1.4,3.7,3.3,4.1v14.9
					h-4.4c-0.6,0-1.1-0.2-1.5-0.6c-0.4-0.4-0.6-0.9-0.6-1.5c0-1.5-0.7-2.8-1.9-3.6c-4.9-3.1-7.7-8.5-7.7-14.3c0-2.2,0.4-4.4,1.3-6.4
					c0.2-0.4,0-0.9-0.4-1.1c-0.4-0.2-0.9,0-1.1,0.4c-0.9,2.2-1.4,4.6-1.4,7.1c0,6.3,3.2,12.2,8.5,15.6c0.7,0.5,1.2,1.3,1.2,2.2
					c0,1,0.4,1.9,1.1,2.6l0.1,0.1c-0.7,0.6-1.2,1.4-1.2,2.4v0.3c0,0.9,0.4,1.7,1,2.2c-0.6,0.6-1,1.4-1,2.2v0.3
					c0,1.7,1.4,3.1,3.1,3.1h0.4c0.4,2.6,2.6,4.6,5.3,4.6s4.9-2,5.3-4.6h0.5c1.7,0,3.1-1.4,3.1-3.1V421c0-0.9-0.4-1.7-1-2.2
					C-226.2,418.4-225.8,417.6-225.8,416.7z M-233.9,392c1,0.3,1.7,1.3,1.7,2.4s-0.7,2.1-1.7,2.4V392z M-235.5,396.7
					c-1-0.3-1.7-1.3-1.7-2.4c0-1.1,0.7-2.1,1.7-2.4V396.7z M-234.7,427.6c-1.8,0-3.3-1.3-3.7-2.9h7.3
					C-231.4,426.3-232.9,427.6-234.7,427.6z M-227.5,416.7c0,0.8-0.6,1.4-1.4,1.4h-1.9c-0.4,0-0.8,0.4-0.8,0.8s0.4,0.8,0.8,0.8h1.9
					c0.8,0,1.4,0.6,1.4,1.4v0.3c0,0.8-0.6,1.4-1.4,1.4h-11.7c-0.8,0-1.4-0.6-1.4-1.4v-0.3c0-0.8,0.6-1.4,1.4-1.4h7.1
					c0.4,0,0.8-0.4,0.8-0.8s-0.4-0.8-0.8-0.8h-7.1c-0.8,0-1.4-0.6-1.4-1.4v-0.3c0-0.8,0.6-1.4,1.4-1.4h0.6l0,0h5.2l0,0h5.8
					c0.8,0,1.4,0.6,1.4,1.4v0.3H-227.5z"/>
			</g>
		</g>
		<g id="XMLID_18_">
			<g id="XMLID_19_">
				<path id="XMLID_20_" class="st0" d="M-216.9,389.7l-4.3-0.8c-0.5-1.3-1.2-2.5-2.1-3.6l1.5-4.2c0.1-0.4,0-0.8-0.4-1l-6.6-3.8
					c-0.3-0.2-0.8-0.1-1,0.2l-3.2,3.8c-0.3,0.3-0.2,0.8,0.1,1.1c0.3,0.3,0.8,0.2,1.1-0.1l2.8-3.2l5.5,3.1l-1.4,4
					c-0.1,0.3,0,0.6,0.1,0.8c1,1.2,1.7,2.5,2.3,3.9c0.1,0.3,0.3,0.5,0.6,0.5l4.2,0.7v6.3l-4.3,0.8c-0.3,0.1-0.5,0.2-0.6,0.5
					c-0.5,1.4-1.3,2.7-2.3,3.9c-0.1,0.3-0.2,0.6-0.1,0.8l1.4,4l-5.4,3.2l-2.7-3.2c-0.3-0.3-0.8-0.4-1.1-0.1
					c-0.3,0.3-0.4,0.8-0.1,1.1l3.2,3.7c0.2,0.2,0.4,0.3,0.6,0.3c0.1,0,0.3,0,0.4-0.1l6.6-3.8c0.3-0.2,0.5-0.6,0.4-1l-1.5-4.2
					c0.9-1.1,1.6-2.3,2.1-3.6l4.4-0.8c0.4-0.1,0.7-0.4,0.7-0.8v-7.6C-216.2,390.1-216.5,389.8-216.9,389.7z"/>
			</g>
		</g>
		<g id="XMLID_15_">
			<g id="XMLID_16_">
				<path id="XMLID_17_" class="st0" d="M-232.1,386.7c-0.4-0.1-0.9,0.1-1,0.5c-0.1,0.4,0.1,0.9,0.5,1c2.6,0.9,4.3,3.4,4.3,6.1
					c0,2.7-1.7,5.2-4.3,6.1c-0.4,0.1-0.6,0.6-0.5,1c0.1,0.3,0.4,0.5,0.8,0.5c0.1,0,0.2,0,0.3,0c3.2-1.1,5.4-4.2,5.4-7.6
					C-226.7,390.9-228.8,387.9-232.1,386.7z"/>
			</g>
		</g>
		<g id="XMLID_12_">
			<g id="XMLID_13_">
				<path id="XMLID_14_" class="st0" d="M-256.1,389.3l-5.9-1.2c-0.4-0.1-0.9,0.2-0.9,0.6c-0.1,0.4,0.2,0.9,0.6,0.9l5.9,1.2
					c0.1,0,0.1,0,0.2,0c0.4,0,0.7-0.3,0.8-0.6C-255.4,389.8-255.7,389.4-256.1,389.3z"/>
			</g>
		</g>
		<g id="XMLID_9_">
			<g id="XMLID_10_">
				<path id="XMLID_11_" class="st0" d="M-250.7,379.3l-4.5-4c-0.3-0.3-0.8-0.3-1.1,0.1c-0.3,0.3-0.3,0.8,0.1,1.1l4.5,4
					c0.2,0.1,0.3,0.2,0.5,0.2s0.4-0.1,0.6-0.3C-250.3,380.1-250.4,379.6-250.7,379.3z"/>
			</g>
		</g>
		<g id="XMLID_6_">
			<g id="XMLID_7_">
				<path id="XMLID_8_" class="st0" d="M-248.7,410.2c-0.3-0.3-0.8-0.3-1.1,0.1l-4,4.5c-0.3,0.3-0.3,0.8,0.1,1.1
					c0.2,0.1,0.3,0.2,0.5,0.2s0.4-0.1,0.6-0.3l4-4.5C-248.3,411-248.3,410.5-248.7,410.2z"/>
			</g>
		</g>
		<g id="XMLID_3_">
			<g id="XMLID_4_">
				<path id="XMLID_5_" class="st0" d="M-254.7,401.1c-0.1-0.4-0.6-0.6-1-0.5l-5.7,1.9c-0.4,0.1-0.6,0.6-0.5,1
					c0.1,0.3,0.4,0.5,0.8,0.5c0.1,0,0.2,0,0.3,0l5.7-1.9C-254.8,402-254.6,401.6-254.7,401.1z"/>
			</g>
		</g>
	</g>
</g>
</svg>
