<?xml version="1.0" encoding="utf-8"?>
<!-- Generator: Adobe Illustrator 19.0.0, SVG Export Plug-In . SVG Version: 6.00 Build 0)  -->
<svg version="1.1" id="Layer_1" xmlns="http://www.w3.org/2000/svg" xmlns:xlink="http://www.w3.org/1999/xlink" x="0px" y="0px"
	 viewBox="0 0 210 130" style="enable-background:new 0 0 210 130;" xml:space="preserve">
<style type="text/css">
	.st0{fill:#6E6D6E;}
	.st1{fill:#FFFFFF;}
	.st2{enable-background:new    ;}
	.st3{clip-path:url(#XMLID_41_);enable-background:new    ;}
	.st4{display:none;}
	.st5{fill:url(#XMLID_42_);}
	.st6{fill:url(#XMLID_43_);}
	.st7{fill:url(#XMLID_44_);}
	.st8{fill:url(#XMLID_45_);}
	.st9{fill:url(#XMLID_46_);}
	.st10{fill:url(#XMLID_47_);}
	.st11{fill:url(#XMLID_48_);}
	.st12{fill:url(#XMLID_49_);}
	.st13{fill:url(#XMLID_50_);}
	.st14{fill:#DDDDDC;}
	.st15{opacity:0.5;}
	.st16{fill:#FFFFFF;stroke:#FFFFFF;stroke-miterlimit:10;}
</style>
<g id="XMLID_81_">
	<path id="XMLID_257_" class="st0" d="M192.1,75.4v3.2c0,0,10.2,0,10.6,0c0.4,0,1.8,0.1,2.4,1.3c0.5,0.9,0.4,2.7,0.1,3.3
		c-0.4,0.7-1.3,1.4-2.1,1.4c-0.4,0-11,0-11,0v9.3h3.4v-6.1h7.5c0,0,3.4-0.2,5.1-3.1c1.8-3,0.4-5.7-0.9-7.1c-1.4-1.4-2.9-2.2-4.5-2.2
		C201.2,75.4,192.1,75.4,192.1,75.4z"/>
	<rect id="XMLID_256_" x="179.2" y="75.4" class="st0" width="3.2" height="3.2"/>
	<rect id="XMLID_255_" x="179.2" y="80.3" class="st0" width="3.2" height="13.6"/>
	<polygon id="V_2_" class="st0" points="169.5,75.4 165.8,75.4 159.3,87 152.9,75.4 149,75.4 159.3,93.8 	"/>
	<polygon id="XMLID_254_" class="st1" points="136.1,75.4 136.1,86.5 122.7,75.4 122.7,93.9 125.9,93.9 125.9,83 139.5,93.9 
		139.5,75.4 	"/>
	<polygon id="XMLID_253_" class="st1" points="103.9,82.2 98,75.4 93.6,75.4 102,85.1 102,93.9 105.4,93.9 105.4,85.1 113.8,75.4 
		109.7,75.4 	"/>
	<polygon id="XMLID_252_" class="st1" points="79.3,75.4 69.2,93.7 73,93.7 79.3,82.4 85.7,93.7 89.5,93.7 	"/>
	<rect id="XMLID_251_" x="74.2" y="87.6" class="st1" width="10" height="3.2"/>
	<polyline id="XMLID_250_" class="st1" points="41.4,75.4 41.4,78.7 54.5,78.7 41.4,93.7 61.7,93.7 61.7,90.7 48.4,90.7 62.1,75.4 	
		"/>
	<g id="XMLID_82_" class="st2">
		<path id="XMLID_83_" class="st1" d="M28.5,80.1h3.4v13.7h-3.4V80.1z"/>
	</g>
	<g id="XMLID_85_" class="st2">
		<path id="XMLID_86_" class="st1" d="M28.5,75.5h3.4v3.2h-3.4V75.5z"/>
	</g>
	<g id="XMLID_88_">
		<defs>
			<rect id="XMLID_92_" x="1.9" y="68.6" width="19.9" height="32.3"/>
		</defs>
		<clipPath id="XMLID_41_">
			<use xlink:href="#XMLID_92_"  style="overflow:visible;"/>
		</clipPath>
		<g id="XMLID_89_" class="st3">
			<path id="XMLID_90_" class="st1" d="M-9.6,78.5v-3H6.3c2.2,0,3.8,0.1,4.9,0.4c1.1,0.2,2,0.5,2.7,0.9c0.7,0.3,1.4,0.8,2,1.3
				c1.9,1.7,2.9,3.9,2.9,6.6c0,2.8-0.9,5-2.8,6.6c-0.6,0.5-1.2,0.9-2,1.3c-0.7,0.3-1.6,0.6-2.7,0.9c-1.1,0.2-2.7,0.3-5,0.3H-9.6v-3
				H6.3c2.6,0,4.5-0.2,5.5-0.7c1-0.5,1.9-1.1,2.5-2.1c0.6-0.9,0.9-2,0.9-3.3c0-1.8-0.6-3.3-1.9-4.4c-0.7-0.6-1.5-1-2.4-1.3
				c-0.9-0.3-2.5-0.4-4.7-0.4H-9.6z"/>
		</g>
	</g>
</g>
<g id="guides" class="st4">
</g>
<g id="XMLID_93_">
	
		<linearGradient id="XMLID_42_" gradientUnits="userSpaceOnUse" x1="-196.1436" y1="105.9558" x2="-138.4644" y2="105.9558" gradientTransform="matrix(1 0 0 -1 244 142)">
		<stop  offset="0" style="stop-color:#DDDDDC"/>
		<stop  offset="0.2672" style="stop-color:#D9D9D8"/>
		<stop  offset="0.4478" style="stop-color:#D0D1D1"/>
		<stop  offset="0.6029" style="stop-color:#C2C1C1"/>
		<stop  offset="0.7435" style="stop-color:#ADADAD"/>
		<stop  offset="0.873" style="stop-color:#919090"/>
		<stop  offset="0.9951" style="stop-color:#6F7070"/>
		<stop  offset="1" style="stop-color:#6E6D6E"/>
	</linearGradient>
	<polygon id="XMLID_237_" class="st5" points="99,62.9 105.5,60.7 57.5,12.1 47.9,9.2 	"/>
	
		<linearGradient id="XMLID_43_" gradientUnits="userSpaceOnUse" x1="-186.5229" y1="107.0324" x2="-138.4644" y2="107.0324" gradientTransform="matrix(1 0 0 -1 244 142)">
		<stop  offset="0" style="stop-color:#6E6D6E"/>
		<stop  offset="1.280000e-002" style="stop-color:#747474"/>
		<stop  offset="0.1042" style="stop-color:#989798"/>
		<stop  offset="0.2034" style="stop-color:#B9B9B9"/>
		<stop  offset="0.3101" style="stop-color:#D2D3D3"/>
		<stop  offset="0.4272" style="stop-color:#E6E6E5"/>
		<stop  offset="0.5604" style="stop-color:#F4F4F4"/>
		<stop  offset="0.723" style="stop-color:#FFFFFF"/>
		<stop  offset="1" style="stop-color:#FFFFFF"/>
	</linearGradient>
	<polygon id="XMLID_236_" class="st6" points="64.7,9.2 57.5,12.1 105.4,60.7 105.5,51.9 	"/>
	
		<linearGradient id="XMLID_44_" gradientUnits="userSpaceOnUse" x1="-196.1436" y1="131.342" x2="-179.2793" y2="131.342" gradientTransform="matrix(1 0 0 -1 244 142)">
		<stop  offset="0" style="stop-color:#DDDDDC"/>
		<stop  offset="0.1546" style="stop-color:#D6D5D5"/>
		<stop  offset="0.378" style="stop-color:#C2C2C2"/>
		<stop  offset="0.6433" style="stop-color:#A2A2A1"/>
		<stop  offset="0.9385" style="stop-color:#787878"/>
		<stop  offset="1" style="stop-color:#6E6D6E"/>
	</linearGradient>
	<polygon id="XMLID_235_" class="st7" points="64.7,9.2 47.9,9.2 57.5,12.1 	"/>
	
		<linearGradient id="XMLID_45_" gradientUnits="userSpaceOnUse" x1="1646.3735" y1="105.9558" x2="1704.0537" y2="105.9558" gradientTransform="matrix(-1 0 0 -1 1809.5 142)">
		<stop  offset="0" style="stop-color:#818181"/>
		<stop  offset="0.2183" style="stop-color:#9B9B9B"/>
		<stop  offset="0.7483" style="stop-color:#DBDADA"/>
		<stop  offset="1" style="stop-color:#F3F3F3"/>
	</linearGradient>
	<polygon id="XMLID_234_" class="st8" points="112,62.9 105.4,60.7 153.4,12.1 163.1,9.2 	"/>
	
		<linearGradient id="XMLID_46_" gradientUnits="userSpaceOnUse" x1="1656.062" y1="107.0324" x2="1704.0537" y2="107.0324" gradientTransform="matrix(-1 0 0 -1 1809.5 142)">
		<stop  offset="0" style="stop-color:#FFFFFF"/>
		<stop  offset="0.2863" style="stop-color:#FFFFFF"/>
		<stop  offset="0.4486" style="stop-color:#F4F4F4"/>
		<stop  offset="0.5799" style="stop-color:#E7E7E7"/>
		<stop  offset="0.6946" style="stop-color:#D3D3D3"/>
		<stop  offset="0.7985" style="stop-color:#BABABA"/>
		<stop  offset="0.8945" style="stop-color:#9A9A9A"/>
		<stop  offset="0.9828" style="stop-color:#767677"/>
		<stop  offset="1" style="stop-color:#6E6D6E"/>
	</linearGradient>
	<polygon id="XMLID_233_" class="st9" points="146.3,9.2 153.4,12.1 105.4,60.7 105.5,51.9 	"/>
	
		<linearGradient id="XMLID_47_" gradientUnits="userSpaceOnUse" x1="1646.3735" y1="131.342" x2="1663.2388" y2="131.342" gradientTransform="matrix(-1 0 0 -1 1809.5 142)">
		<stop  offset="0" style="stop-color:#6E6D6E"/>
		<stop  offset="0.1286" style="stop-color:#757575"/>
		<stop  offset="0.3145" style="stop-color:#878787"/>
		<stop  offset="0.5353" style="stop-color:#A8A7A8"/>
		<stop  offset="0.7806" style="stop-color:#D2D3D3"/>
		<stop  offset="1" style="stop-color:#FFFFFF"/>
	</linearGradient>
	<polygon id="XMLID_232_" class="st10" points="146.3,9.2 163.1,9.2 153.4,12.1 	"/>
	
		<linearGradient id="XMLID_48_" gradientUnits="userSpaceOnUse" x1="-145.0132" y1="80.211" x2="-132.0054" y2="80.211" gradientTransform="matrix(1 0 0 -1 244 142)">
		<stop  offset="0" style="stop-color:#676767"/>
		<stop  offset="6.600000e-002" style="stop-color:#767677"/>
		<stop  offset="0.2803" style="stop-color:#A2A2A1"/>
		<stop  offset="0.4867" style="stop-color:#C6C5C5"/>
		<stop  offset="0.6806" style="stop-color:#DFDFDE"/>
		<stop  offset="0.8569" style="stop-color:#EDEDED"/>
		<stop  offset="1" style="stop-color:#F3F3F3"/>
	</linearGradient>
	<polygon id="XMLID_231_" class="st11" points="112,62.9 105.4,60.7 99,62.9 	"/>
	
		<linearGradient id="XMLID_49_" gradientUnits="userSpaceOnUse" x1="-192.4578" y1="105.1484" x2="-89.0105" y2="105.1484" gradientTransform="matrix(1 0 0 -1 244 142)">
		<stop  offset="0" style="stop-color:#FFFFFF"/>
		<stop  offset="0.1822" style="stop-color:#FBFCFC"/>
		<stop  offset="0.347" style="stop-color:#F1F0F0"/>
		<stop  offset="0.5052" style="stop-color:#DFDFDE"/>
		<stop  offset="0.6592" style="stop-color:#C4C4C4"/>
		<stop  offset="0.8103" style="stop-color:#A3A3A2"/>
		<stop  offset="0.9572" style="stop-color:#7B7B7B"/>
		<stop  offset="1" style="stop-color:#6E6D6E"/>
	</linearGradient>
	<path id="XMLID_230_" class="st12" d="M131.8,58.6c-4.8,0-79.1,0-79.1,0l-1.5-2.1c0,0,71.3-0.1,73.9-0.1c6-0.1,21.1-3.4,21.8-19.5
		c-1.4-17.7-19.6-19.6-20.8-19.6c-1.2,0-70.5,0.1-70.5,0.1l-2.1-2.2c0,0,75.8,0,78.3,0c2.5,0,21.6,1.5,22.9,21.7
		C154.7,57.1,136.3,58.4,131.8,58.6z"/>
	
		<linearGradient id="XMLID_50_" gradientUnits="userSpaceOnUse" x1="-192.0828" y1="105.0591" x2="-80.4686" y2="105.0591" gradientTransform="matrix(1 0 0 -1 244 142)">
		<stop  offset="0" style="stop-color:#676767"/>
		<stop  offset="7.940000e-002" style="stop-color:#828282"/>
		<stop  offset="0.2138" style="stop-color:#A8A7A8"/>
		<stop  offset="0.3536" style="stop-color:#C8C7C7"/>
		<stop  offset="0.4979" style="stop-color:#E0E1E0"/>
		<stop  offset="0.6486" style="stop-color:#F2F2F2"/>
		<stop  offset="0.8098" style="stop-color:#FDFEFF"/>
		<stop  offset="1" style="stop-color:#FFFFFF"/>
	</linearGradient>
	<path id="XMLID_229_" class="st13" d="M54.3,60.7l-1.5-2.2c0,0,52.4,0,79.1,0c23.8-2.2,22.7-18.9,22.8-21.6
		c0.1-6.7-4.8-19.8-22.8-21.8c-24.1,0-78.3,0-78.3,0l-1.9-2c0,0,47.9,0,80.2,0c33.2,1.2,31.4,21.9,31.4,23.8
		c0,1.9-0.9,23.8-31.4,23.8C101.3,60.7,54.3,60.7,54.3,60.7z"/>
	<path id="XMLID_228_" class="st14" d="M105.4,24.4c0,0-0.4,0.4-0.8,1c-0.4,0.6-1,1.7-1.1,2c-0.1,0.3,0.2,1.1,1.3,3
		c0.1,1.8,0.1,1.9-0.1,2.2c-0.2,0.3-0.4,0.9-0.9,0.8c-0.5-0.1-1.3-0.5-1.3-1.7c0.1-1.3,0.7-2,0.6-2.4c-0.1-0.4-1.1-1.8-1.3-1.9
		c-0.1-0.1-0.6,0.6-0.7,1c-0.2,0.4-0.5,1.3-0.4,1.6c0.1,0.3,0.9,1.4,1,1.7c0,0.3,0.1,1.3-0.1,1.6c-0.2,0.2-0.4,0.6-0.9,0.7
		c-0.5,0-0.9,0.1-1.1-1.6c-0.2-1.6-0.4-1.9-0.9-1.9c-0.5-0.1-0.7,0.4-0.7,0.6c0,0.2,1.1,5.1,1.1,5.1s2.5-0.7,6.3-0.7
		c3.8,0,6.2,0.7,6.2,0.7l1.1-5.2c0,0-0.3-0.5-0.7-0.6c-0.4-0.1-0.6,0.1-0.8,1c-0.3,1.3-0.2,2.5-1.1,2.6c-0.6,0.1-0.9-0.3-1.2-0.7
		c-0.2-0.3-0.2-1.5,0-1.8c0.3-0.3,0.9-1.5,1-1.8c0.1-0.5-0.7-2.2-1.1-2.2c-0.3,0-1.4,1.4-1.4,1.8c0,0.3,0.6,1.5,0.6,1.8
		c0,0.2,0.1,1.2-0.1,1.6c-0.2,0.5-0.3,0.9-1.1,0.8c-0.7-0.1-0.8-0.3-0.9-1.3c-0.1-1.3,0.1-2.1,0.6-2.8c0.5-0.6,0.7-1.5,0.7-1.7
		C107.4,27.3,105.5,24.4,105.4,24.4"/>
</g>
<g id="XMLID_94_" class="st15">
	<g id="XMLID_95_">
		<path id="XMLID_96_" class="st1" d="M7.5,117.3l-3.4-9.9C4.1,107.2,4,107.1,4,107c0-0.1-0.1-0.2-0.1-0.2c-0.1-0.2-0.3-0.3-0.4-0.3
			c-0.2-0.1-0.4-0.1-0.8-0.1l0-0.4c0.3,0,0.7,0.1,1,0.1c0.3,0,0.7,0,1,0c0.3,0,0.7,0,1,0c0.3,0,0.7-0.1,1-0.1l0,0.4
			c-0.2,0-0.4,0-0.6,0.1c-0.2,0-0.3,0.1-0.4,0.1c-0.1,0.1-0.1,0.1-0.2,0.2c0,0.1,0,0.1,0,0.2c0,0.1,0,0.2,0,0.3
			c0,0.1,0.1,0.2,0.1,0.2l2.6,7.6l2.6-7.4c0.1-0.2,0.1-0.3,0.1-0.4c0-0.1,0-0.2,0-0.3c0-0.2-0.1-0.3-0.3-0.4
			c-0.2-0.1-0.5-0.1-0.8-0.1l0-0.4c0.2,0,0.5,0.1,0.7,0.1c0.3,0,0.5,0,0.7,0c0.3,0,0.5,0,0.8,0c0.3,0,0.5,0,0.8-0.1v0.4
			c-0.3,0-0.6,0.1-0.8,0.1c-0.2,0.1-0.3,0.2-0.5,0.3c-0.1,0.1-0.1,0.1-0.1,0.2c0,0.1-0.1,0.1-0.1,0.2L8,117.3H7.5z"/>
		<path id="XMLID_98_" class="st1" d="M20.5,117.1c-0.3,0.1-0.5,0.1-0.6,0.1c-0.1,0-0.2,0-0.4,0c0,0-0.1,0-0.2,0
			c-0.1,0-0.2,0-0.3-0.1c-0.3-0.1-0.5-0.3-0.6-0.5c-0.1-0.3-0.2-0.5-0.2-0.8c-0.1,0.2-0.2,0.3-0.3,0.5c-0.2,0.2-0.3,0.4-0.5,0.5
			c-0.2,0.1-0.4,0.2-0.5,0.3c-0.2,0.1-0.3,0.1-0.5,0.1c-0.2,0-0.3,0-0.4,0c-0.1,0-0.2,0-0.4,0c-0.2,0-0.4,0-0.5-0.1
			c-0.1,0-0.3-0.1-0.4-0.2c-0.2-0.1-0.3-0.2-0.5-0.4c-0.2-0.2-0.3-0.4-0.4-0.6c-0.1-0.2-0.2-0.5-0.2-0.9c0-0.1,0-0.3,0-0.4
			c0-0.2,0.1-0.3,0.2-0.5c0.1-0.2,0.2-0.3,0.4-0.5c0.2-0.2,0.4-0.3,0.6-0.5c0.1-0.1,0.3-0.2,0.5-0.3c0.2-0.1,0.4-0.2,0.7-0.3
			c0.3-0.1,0.6-0.2,0.9-0.3c0.3-0.1,0.7-0.1,1.1-0.2v-1c0-0.1,0-0.1,0-0.2c0-0.1,0-0.1,0-0.2c0,0,0-0.1,0-0.2c0-0.1,0-0.2-0.1-0.3
			c0-0.1-0.1-0.2-0.2-0.3c-0.1-0.1-0.2-0.2-0.3-0.3c-0.2-0.1-0.3-0.1-0.5-0.2c-0.1,0-0.2,0-0.3,0c-0.1,0-0.2,0-0.4,0
			c-0.1,0-0.3,0.1-0.4,0.1c-0.1,0.1-0.2,0.1-0.3,0.2c-0.1,0.1-0.2,0.2-0.2,0.3c0,0.1-0.1,0.2-0.1,0.3c0,0.1,0,0.2,0,0.4
			c0,0.2,0,0.4-0.1,0.5c-0.1,0.1-0.1,0.2-0.2,0.2c0,0-0.1,0-0.1,0.1c-0.1,0-0.1,0-0.2,0c-0.1,0-0.1,0-0.2,0c-0.1,0-0.1,0-0.2-0.1
			s-0.1-0.1-0.1-0.2c0-0.1-0.1-0.2-0.1-0.3c0-0.1,0-0.2,0-0.3c0-0.1,0.1-0.3,0.2-0.4c0.1-0.2,0.3-0.4,0.5-0.6
			c0.2-0.2,0.4-0.3,0.6-0.4c0.2-0.1,0.5-0.2,0.7-0.2c0.2-0.1,0.5-0.1,0.7-0.1c0.2,0,0.5,0,0.7,0.1c0.2,0.1,0.5,0.1,0.7,0.2
			c0.2,0.1,0.4,0.3,0.6,0.4c0.2,0.2,0.3,0.4,0.4,0.6c0.1,0.2,0.1,0.4,0.1,0.7c0,0.2,0,0.5,0,0.7v3.4c0,0.3,0,0.6,0,0.8
			c0,0.2,0.1,0.4,0.1,0.5c0.1,0.1,0.2,0.2,0.3,0.2c0.1,0,0.2,0,0.2,0c0.1,0,0.1,0,0.2,0c0,0,0.1,0,0.2,0V117.1z M18.1,112.6
			c-0.2,0-0.4,0.1-0.6,0.1c-0.2,0.1-0.5,0.1-0.7,0.2c-0.2,0.1-0.4,0.2-0.6,0.3c-0.2,0.1-0.4,0.2-0.5,0.4c-0.1,0.1-0.2,0.3-0.4,0.5
			c-0.1,0.2-0.2,0.5-0.2,0.9c0,0.4,0.1,0.8,0.3,1.1c0.2,0.3,0.6,0.4,1,0.4c0.3,0,0.5,0,0.6-0.1c0.2-0.1,0.3-0.1,0.4-0.2
			c0.2-0.1,0.3-0.3,0.4-0.4c0.1-0.2,0.1-0.4,0.2-0.5s0.1-0.4,0.1-0.6c0-0.2,0-0.4,0-0.6V112.6z"/>
		<path id="XMLID_101_" class="st1" d="M21.3,109.4c0.6-0.1,1-0.2,1.3-0.3c0.3-0.1,0.6-0.2,0.9-0.3c0,0.2,0.1,0.4,0.1,0.6
			c0,0.2,0,0.5,0.1,0.9c0.1-0.2,0.2-0.3,0.3-0.4c0.1-0.1,0.2-0.2,0.2-0.2c0.1-0.1,0.1-0.1,0.3-0.2c0.1-0.1,0.2-0.1,0.4-0.2
			c0.1-0.1,0.3-0.1,0.5-0.2c0.2,0,0.4-0.1,0.6-0.1c0.4,0,0.7,0.1,1.1,0.2c0.3,0.1,0.6,0.4,0.9,0.7c0.2,0.3,0.4,0.6,0.4,0.9
			c0,0.3,0.1,0.7,0.1,1v4v0.2c0,0.1,0,0.2,0,0.3c0.1,0.1,0.2,0.2,0.4,0.3c0.2,0,0.4,0.1,0.7,0.1v0.3c-0.3,0-0.6,0-0.9-0.1
			c-0.3,0-0.6,0-0.9,0c-0.3,0-0.6,0-0.9,0c-0.3,0-0.6,0-0.9,0.1v-0.3c0.1,0,0.3,0,0.6-0.1c0.2,0,0.4-0.1,0.5-0.3
			c0.1-0.1,0.1-0.3,0.1-0.5v-4.1c0-0.2,0-0.3,0-0.4c0-0.1,0-0.2,0-0.3c0-0.1,0-0.2-0.1-0.3c-0.1-0.2-0.2-0.4-0.3-0.5
			c-0.1-0.1-0.3-0.2-0.4-0.3c-0.1-0.1-0.3-0.1-0.4-0.1c-0.1,0-0.2,0-0.3,0c-0.1,0-0.2,0-0.4,0c-0.2,0-0.4,0.1-0.6,0.3
			c-0.3,0.2-0.5,0.5-0.6,0.8c-0.1,0.3-0.1,0.6-0.1,1v4c0,0.1,0,0.2,0,0.3c0,0.1,0,0.2,0.1,0.3c0.1,0.2,0.2,0.3,0.5,0.3
			c0.2,0,0.4,0.1,0.5,0.1v0.3c-0.3,0-0.6,0-0.9-0.1c-0.3,0-0.6,0-0.9,0c-0.3,0-0.6,0-0.9,0c-0.3,0-0.6,0-0.9,0.1v-0.3
			c0.3,0,0.5-0.1,0.7-0.1c0.2,0,0.3-0.1,0.4-0.3c0.1-0.1,0.1-0.2,0.1-0.3c0-0.1,0-0.2,0-0.3v-5.2c0-0.1,0-0.3,0-0.4
			c0-0.1,0-0.2,0-0.2c0-0.2-0.2-0.4-0.3-0.4c-0.2,0-0.5-0.1-0.8-0.1V109.4z"/>
		<path id="XMLID_103_" class="st1" d="M33.2,115.6c0,0.1,0,0.3,0,0.4c0,0.1,0,0.2,0,0.2c0,0.1,0.1,0.2,0.2,0.3
			c0.1,0.1,0.2,0.1,0.4,0.2c0.1,0,0.3,0.1,0.4,0.1c0.1,0,0.3,0,0.3,0l0,0.4c-0.3,0-0.7-0.1-1-0.1c-0.3,0-0.7,0-1.1,0
			c-0.3,0-0.7,0-1,0c-0.3,0-0.7,0.1-1,0.1v-0.4c0.3,0,0.6-0.1,0.8-0.1c0.2,0,0.4-0.1,0.4-0.3c0.1-0.1,0.1-0.2,0.1-0.3
			c0-0.1,0-0.3,0-0.4v-8.1c0-0.2,0-0.3,0-0.4c0-0.1,0-0.2-0.1-0.3c-0.1-0.1-0.1-0.2-0.2-0.2c-0.1-0.1-0.2-0.1-0.3-0.1
			c-0.1,0-0.3,0-0.4-0.1c-0.1,0-0.2,0-0.3,0V106h4.4c0.1,0,0.2,0,0.4,0c0.1,0,0.2,0,0.4,0c0.4,0,0.7,0.1,0.9,0.2
			c0.3,0.1,0.5,0.2,0.7,0.3c0.2,0.1,0.4,0.3,0.5,0.4c0.1,0.1,0.2,0.3,0.3,0.4c0.1,0.1,0.2,0.4,0.3,0.7c0.1,0.3,0.2,0.7,0.2,1.1
			c0,0.7-0.2,1.3-0.6,1.8s-0.9,0.9-1.6,1.1c-0.1,0-0.3,0.1-0.4,0.1c-0.1,0-0.3,0-0.4,0c-0.1,0-0.3,0-0.3,0c-0.1,0-0.2,0-0.2,0h-1.8
			V115.6z M34.6,111.6c0.3,0,0.6-0.1,0.9-0.1c0.3,0,0.5-0.2,0.8-0.4c0.2-0.1,0.4-0.4,0.6-0.7c0.2-0.3,0.3-0.8,0.3-1.4
			c0,0,0-0.1,0-0.3c0-0.1,0-0.3-0.1-0.5c0-0.2-0.1-0.4-0.2-0.6c-0.1-0.2-0.2-0.4-0.4-0.6c-0.1-0.1-0.2-0.1-0.2-0.2
			c-0.1,0-0.1-0.1-0.2-0.1c-0.2-0.1-0.4-0.2-0.5-0.2c-0.2,0-0.5-0.1-0.8-0.1h-1.4v5.1H34.6z"/>
		<path id="XMLID_106_" class="st1" d="M46.4,117.1c-0.3,0.1-0.5,0.1-0.6,0.1c-0.1,0-0.2,0-0.4,0c0,0-0.1,0-0.2,0
			c-0.1,0-0.2,0-0.3-0.1c-0.3-0.1-0.5-0.3-0.6-0.5c-0.1-0.3-0.2-0.5-0.2-0.8c-0.1,0.2-0.2,0.3-0.3,0.5c-0.2,0.2-0.3,0.4-0.5,0.5
			c-0.2,0.1-0.4,0.2-0.5,0.3c-0.2,0.1-0.3,0.1-0.5,0.1c-0.2,0-0.3,0-0.4,0c-0.1,0-0.2,0-0.4,0c-0.2,0-0.4,0-0.5-0.1
			c-0.1,0-0.3-0.1-0.4-0.2c-0.2-0.1-0.3-0.2-0.5-0.4c-0.2-0.2-0.3-0.4-0.4-0.6c-0.1-0.2-0.2-0.5-0.2-0.9c0-0.1,0-0.3,0-0.4
			c0-0.2,0.1-0.3,0.2-0.5c0.1-0.2,0.2-0.3,0.4-0.5c0.2-0.2,0.4-0.3,0.6-0.5c0.1-0.1,0.3-0.2,0.5-0.3c0.2-0.1,0.4-0.2,0.7-0.3
			c0.3-0.1,0.6-0.2,0.9-0.3c0.3-0.1,0.7-0.1,1.1-0.2v-1c0-0.1,0-0.1,0-0.2c0-0.1,0-0.1,0-0.2c0,0,0-0.1,0-0.2c0-0.1,0-0.2-0.1-0.3
			c0-0.1-0.1-0.2-0.2-0.3c-0.1-0.1-0.2-0.2-0.3-0.3c-0.2-0.1-0.3-0.1-0.5-0.2c-0.1,0-0.2,0-0.3,0c-0.1,0-0.2,0-0.4,0
			c-0.1,0-0.3,0.1-0.4,0.1c-0.1,0.1-0.2,0.1-0.3,0.2c-0.1,0.1-0.2,0.2-0.2,0.3c0,0.1-0.1,0.2-0.1,0.3c0,0.1,0,0.2,0,0.4
			c0,0.2,0,0.4-0.1,0.5c-0.1,0.1-0.1,0.2-0.2,0.2c0,0-0.1,0-0.1,0.1c-0.1,0-0.1,0-0.2,0c-0.1,0-0.1,0-0.2,0c-0.1,0-0.1,0-0.2-0.1
			c-0.1,0-0.1-0.1-0.1-0.2c0-0.1-0.1-0.2-0.1-0.3c0-0.1,0-0.2,0-0.3c0-0.1,0.1-0.3,0.2-0.4c0.1-0.2,0.3-0.4,0.5-0.6
			c0.2-0.2,0.4-0.3,0.6-0.4c0.2-0.1,0.5-0.2,0.7-0.2c0.2-0.1,0.5-0.1,0.7-0.1c0.2,0,0.5,0,0.7,0.1c0.2,0.1,0.5,0.1,0.7,0.2
			c0.2,0.1,0.4,0.3,0.6,0.4c0.2,0.2,0.3,0.4,0.4,0.6c0.1,0.2,0.1,0.4,0.1,0.7c0,0.2,0,0.5,0,0.7v3.4c0,0.3,0,0.6,0,0.8
			c0,0.2,0.1,0.4,0.1,0.5c0.1,0.1,0.2,0.2,0.3,0.2c0.1,0,0.2,0,0.2,0c0.1,0,0.1,0,0.2,0c0,0,0.1,0,0.2,0V117.1z M43.9,112.6
			c-0.2,0-0.4,0.1-0.6,0.1c-0.2,0.1-0.5,0.1-0.7,0.2c-0.2,0.1-0.4,0.2-0.6,0.3c-0.2,0.1-0.4,0.2-0.5,0.4c-0.1,0.1-0.2,0.3-0.4,0.5
			c-0.1,0.2-0.2,0.5-0.2,0.9c0,0.4,0.1,0.8,0.3,1.1c0.2,0.3,0.6,0.4,1,0.4c0.3,0,0.5,0,0.6-0.1c0.2-0.1,0.3-0.1,0.4-0.2
			c0.2-0.1,0.3-0.3,0.4-0.4c0.1-0.2,0.1-0.4,0.2-0.5s0.1-0.4,0.1-0.6c0-0.2,0-0.4,0-0.6V112.6z"/>
		<path id="XMLID_109_" class="st1" d="M47.2,109.3c0.2,0,0.5-0.1,0.9-0.1c0.3,0,0.8-0.1,1.3-0.3c0,0.1,0,0.3,0.1,0.4
			c0,0.1,0,0.3,0.1,0.4c0,0.1,0,0.2,0,0.3c0,0.1,0,0.2,0,0.3c0-0.1,0.1-0.2,0.1-0.2c0-0.1,0.1-0.1,0.1-0.2c0.2-0.3,0.4-0.6,0.7-0.8
			c0.3-0.2,0.6-0.3,1-0.3c0.3,0,0.5,0.1,0.7,0.2c0.2,0.1,0.3,0.2,0.4,0.4c0.1,0.1,0.2,0.3,0.2,0.4c0,0.2,0.1,0.3,0.1,0.4
			c0,0.2,0,0.3-0.1,0.4c0,0.1-0.1,0.2-0.2,0.3c-0.1,0.1-0.2,0.1-0.2,0.1c-0.1,0-0.2,0-0.2,0c-0.2,0-0.3,0-0.5-0.1
			c-0.1-0.1-0.2-0.2-0.2-0.4c0-0.1,0-0.2,0-0.3c0,0,0-0.1,0-0.1c0-0.1-0.1-0.2-0.2-0.3c-0.1-0.1-0.2-0.1-0.3-0.1c-0.1,0-0.2,0-0.3,0
			c-0.1,0-0.3,0.1-0.4,0.3c-0.2,0.1-0.3,0.3-0.4,0.5c-0.1,0.2-0.2,0.4-0.2,0.6c0,0.2-0.1,0.4-0.1,0.6c0,0.2,0,0.4,0,0.6v3.5
			c0,0.1,0,0.2,0,0.3c0,0.1,0,0.1,0.1,0.2c0.1,0.1,0.2,0.2,0.4,0.3c0.2,0,0.4,0.1,0.7,0.1l0,0.3c-0.3,0-0.6,0-0.9-0.1
			c-0.3,0-0.6,0-0.9,0c-0.3,0-0.6,0-0.9,0c-0.3,0-0.6,0-0.9,0.1v-0.3c0.3,0,0.5-0.1,0.7-0.1c0.2,0,0.3-0.1,0.4-0.2
			c0-0.1,0.1-0.1,0.1-0.2c0-0.1,0-0.2,0-0.3v-5.5c0-0.1,0-0.2,0-0.4c0-0.1-0.1-0.2-0.1-0.3c-0.1-0.1-0.2-0.1-0.4-0.1
			c-0.2,0-0.4,0-0.6,0L47.2,109.3z"/>
		<path id="XMLID_111_" class="st1" d="M58,116.7c-0.2,0.1-0.4,0.2-0.6,0.3c-0.3,0.1-0.6,0.2-1,0.2c-0.1,0-0.2,0-0.5,0
			c-0.2,0-0.4-0.1-0.7-0.3c-0.2-0.1-0.3-0.3-0.4-0.5c-0.1-0.2-0.2-0.4-0.2-0.6c0-0.2-0.1-0.4-0.1-0.7c0-0.2,0-0.4,0-0.6l0.1-4.7
			h-1.1l0-0.5c0.1,0,0.2,0,0.3,0c0.1,0,0.3-0.1,0.4-0.1c0.2-0.1,0.4-0.2,0.5-0.4c0.1-0.2,0.3-0.4,0.4-0.6c0.1-0.2,0.2-0.4,0.2-0.7
			c0.1-0.2,0.1-0.4,0.2-0.6h0.4v2.4h1.9v0.6h-1.9v4.9c0,0.1,0,0.3,0,0.4c0,0.1,0,0.2,0,0.4c0,0.1,0,0.2,0,0.3c0,0.1,0,0.1,0.1,0.2
			c0,0.1,0.1,0.2,0.1,0.3c0.1,0.1,0.2,0.2,0.3,0.2c0.1,0.1,0.3,0.1,0.4,0.1c0.2,0,0.4,0,0.6-0.1c0.2-0.1,0.3-0.1,0.5-0.2L58,116.7z"
			/>
		<path id="XMLID_113_" class="st1" d="M58.7,109.4c0.6-0.1,1-0.2,1.3-0.3c0.3-0.1,0.6-0.2,0.9-0.3c0,0.2,0.1,0.4,0.1,0.6
			c0,0.2,0,0.5,0.1,0.9c0.1-0.2,0.2-0.3,0.3-0.4c0.1-0.1,0.2-0.2,0.2-0.2c0.1-0.1,0.1-0.1,0.3-0.2c0.1-0.1,0.2-0.1,0.4-0.2
			c0.1-0.1,0.3-0.1,0.5-0.2c0.2,0,0.4-0.1,0.6-0.1c0.4,0,0.7,0.1,1.1,0.2c0.3,0.1,0.6,0.4,0.9,0.7c0.2,0.3,0.4,0.6,0.4,0.9
			c0,0.3,0.1,0.7,0.1,1v4v0.2c0,0.1,0,0.2,0,0.3c0.1,0.1,0.2,0.2,0.4,0.3c0.2,0,0.4,0.1,0.7,0.1v0.3c-0.3,0-0.6,0-0.9-0.1
			c-0.3,0-0.6,0-0.9,0c-0.3,0-0.6,0-0.9,0c-0.3,0-0.6,0-0.9,0.1v-0.3c0.1,0,0.3,0,0.6-0.1c0.2,0,0.4-0.1,0.5-0.3
			c0.1-0.1,0.1-0.3,0.1-0.5v-4.1c0-0.2,0-0.3,0-0.4c0-0.1,0-0.2,0-0.3c0-0.1,0-0.2-0.1-0.3c-0.1-0.2-0.2-0.4-0.3-0.5
			c-0.1-0.1-0.3-0.2-0.4-0.3c-0.1-0.1-0.3-0.1-0.4-0.1c-0.1,0-0.2,0-0.3,0c-0.1,0-0.2,0-0.4,0c-0.2,0-0.4,0.1-0.6,0.3
			c-0.3,0.2-0.5,0.5-0.6,0.8c-0.1,0.3-0.1,0.6-0.1,1v4c0,0.1,0,0.2,0,0.3c0,0.1,0,0.2,0.1,0.3c0.1,0.2,0.2,0.3,0.5,0.3
			c0.2,0,0.4,0.1,0.5,0.1v0.3c-0.3,0-0.6,0-0.9-0.1c-0.3,0-0.6,0-0.9,0c-0.3,0-0.6,0-0.9,0c-0.3,0-0.6,0-0.9,0.1v-0.3
			c0.3,0,0.5-0.1,0.7-0.1c0.2,0,0.3-0.1,0.4-0.3c0.1-0.1,0.1-0.2,0.1-0.3c0-0.1,0-0.2,0-0.3v-5.2c0-0.1,0-0.3,0-0.4
			c0-0.1,0-0.2,0-0.2c0-0.2-0.2-0.4-0.3-0.4c-0.2,0-0.5-0.1-0.8-0.1V109.4z"/>
		<path id="XMLID_115_" class="st1" d="M74.3,114.5c-0.1,0.5-0.2,1-0.4,1.3c-0.2,0.3-0.4,0.6-0.5,0.7c-0.2,0.2-0.4,0.3-0.6,0.4
			c-0.2,0.1-0.4,0.2-0.5,0.2c-0.2,0-0.3,0.1-0.5,0.1c-0.1,0-0.3,0-0.3,0c-0.3,0-0.6,0-0.9-0.1c-0.2-0.1-0.5-0.1-0.6-0.2
			c-0.2-0.1-0.3-0.2-0.5-0.3c-0.1-0.1-0.3-0.2-0.4-0.3c-0.3-0.3-0.5-0.7-0.8-1.2c-0.2-0.5-0.3-1.2-0.3-2c0-0.6,0.1-1.1,0.2-1.6
			c0.1-0.5,0.4-1,0.8-1.5c0.3-0.4,0.6-0.6,1-0.8c0.4-0.2,0.8-0.3,1.3-0.3c0.4,0,0.7,0,0.9,0.1c0.3,0.1,0.5,0.2,0.7,0.3
			c0.2,0.1,0.4,0.3,0.5,0.4c0.1,0.1,0.2,0.3,0.3,0.4c0.1,0.2,0.3,0.6,0.4,1c0.1,0.4,0.2,1,0.2,1.7l-5,0c0,0,0,0.1,0,0.3
			c0,0.2,0,0.5,0,0.8c0,0.3,0.1,0.6,0.2,0.9c0.1,0.3,0.2,0.6,0.4,0.8c0.1,0.2,0.3,0.4,0.4,0.5c0.2,0.1,0.3,0.2,0.4,0.3
			c0.1,0.1,0.3,0.1,0.4,0.1c0.1,0,0.2,0,0.3,0c0.1,0,0.3,0,0.5,0c0.2,0,0.4-0.1,0.7-0.3c0.2-0.1,0.4-0.4,0.6-0.6
			c0.2-0.3,0.3-0.7,0.4-1.2H74.3z M72.9,112.3c0-0.3-0.1-0.7-0.1-1c0-0.3-0.1-0.6-0.3-0.9c-0.1-0.2-0.2-0.4-0.3-0.5
			c-0.1-0.1-0.2-0.2-0.4-0.3c-0.1-0.1-0.2-0.1-0.4-0.1c-0.1,0-0.2,0-0.3,0c-0.1,0-0.3,0-0.5,0.1c-0.2,0.1-0.4,0.2-0.6,0.5
			c-0.3,0.3-0.4,0.7-0.5,1.1c-0.1,0.4-0.2,0.8-0.2,1.2H72.9z"/>
		<path id="XMLID_118_" class="st1" d="M75.4,109.3c0.2,0,0.5-0.1,0.9-0.1c0.3,0,0.8-0.1,1.3-0.3c0,0.1,0,0.3,0.1,0.4
			c0,0.1,0,0.3,0.1,0.4c0,0.1,0,0.2,0,0.3c0,0.1,0,0.2,0,0.3c0-0.1,0.1-0.2,0.1-0.2c0-0.1,0.1-0.1,0.1-0.2c0.2-0.3,0.4-0.6,0.7-0.8
			c0.3-0.2,0.6-0.3,1-0.3c0.3,0,0.5,0.1,0.7,0.2c0.2,0.1,0.3,0.2,0.4,0.4c0.1,0.1,0.2,0.3,0.2,0.4c0,0.2,0.1,0.3,0.1,0.4
			c0,0.2,0,0.3-0.1,0.4c0,0.1-0.1,0.2-0.2,0.3c-0.1,0.1-0.2,0.1-0.2,0.1c-0.1,0-0.2,0-0.2,0c-0.2,0-0.3,0-0.5-0.1
			c-0.1-0.1-0.2-0.2-0.2-0.4c0-0.1,0-0.2,0-0.3c0,0,0-0.1,0-0.1c0-0.1-0.1-0.2-0.2-0.3c-0.1-0.1-0.2-0.1-0.3-0.1c-0.1,0-0.2,0-0.3,0
			c-0.1,0-0.3,0.1-0.4,0.3c-0.2,0.1-0.3,0.3-0.4,0.5c-0.1,0.2-0.2,0.4-0.2,0.6c0,0.2-0.1,0.4-0.1,0.6c0,0.2,0,0.4,0,0.6v3.5
			c0,0.1,0,0.2,0,0.3c0,0.1,0,0.1,0.1,0.2c0.1,0.1,0.2,0.2,0.4,0.3c0.2,0,0.4,0.1,0.7,0.1l0,0.3c-0.3,0-0.6,0-0.9-0.1
			c-0.3,0-0.6,0-0.9,0c-0.3,0-0.6,0-0.9,0c-0.3,0-0.6,0-0.9,0.1v-0.3c0.3,0,0.5-0.1,0.7-0.1c0.2,0,0.3-0.1,0.4-0.2
			c0-0.1,0.1-0.1,0.1-0.2c0-0.1,0-0.2,0-0.3v-5.5c0-0.1,0-0.2,0-0.4c0-0.1-0.1-0.2-0.1-0.3c-0.1-0.1-0.2-0.1-0.4-0.1
			c-0.2,0-0.4,0-0.6,0L75.4,109.3z"/>
		<path id="XMLID_120_" class="st1" d="M86.6,107.2c0-0.2-0.1-0.4-0.1-0.4c-0.1-0.1-0.2-0.1-0.3-0.2c-0.1,0-0.2,0-0.3,0
			c-0.1,0-0.3,0-0.5,0v-0.3c0.1,0,0.2,0,0.4,0c0.2,0,0.4,0,0.6-0.1c0.2,0,0.5-0.1,0.7-0.1c0.3-0.1,0.5-0.1,0.8-0.2v4.6
			c0.1-0.1,0.2-0.3,0.3-0.4c0.1-0.1,0.2-0.3,0.3-0.4c0.1-0.1,0.3-0.2,0.5-0.3c0.2-0.1,0.5-0.2,0.9-0.2c0.1,0,0.3,0,0.6,0.1
			c0.2,0,0.5,0.1,0.8,0.3c0.2,0.1,0.4,0.3,0.6,0.5c0.2,0.2,0.4,0.5,0.6,0.8c0.2,0.3,0.3,0.7,0.4,1.1c0.1,0.4,0.2,0.9,0.2,1.4
			c0,0.2,0,0.5-0.1,0.9c0,0.4-0.2,0.9-0.4,1.4c-0.1,0.1-0.2,0.3-0.3,0.5c-0.1,0.2-0.3,0.4-0.5,0.6c-0.2,0.2-0.5,0.4-0.8,0.5
			c-0.3,0.1-0.7,0.2-1.1,0.2c-0.3,0-0.5,0-0.7-0.1c-0.2-0.1-0.4-0.1-0.5-0.2c-0.1-0.1-0.3-0.2-0.4-0.3c-0.1-0.1-0.2-0.2-0.2-0.3
			c-0.1-0.1-0.1-0.2-0.2-0.3c-0.1-0.1-0.1-0.2-0.2-0.4l-0.7,1.5h-0.4V107.2z M87.9,113.1c0,0.1,0,0.1,0,0.3c0,0.1,0,0.3,0,0.5
			c0,0.2,0,0.4,0.1,0.6c0,0.2,0.1,0.4,0.1,0.6c0,0.1,0,0.2,0.1,0.3c0,0.1,0.1,0.2,0.2,0.4c0.1,0.3,0.3,0.6,0.6,0.7
			c0.2,0.2,0.5,0.3,0.9,0.3c0.1,0,0.1,0,0.2,0c0.1,0,0.2,0,0.3-0.1c0.2-0.1,0.5-0.3,0.7-0.6c0.2-0.3,0.4-0.7,0.5-1.2
			c0-0.1,0-0.4,0.1-0.7c0-0.3,0.1-0.7,0.1-1.1c0-0.2,0-0.4,0-0.6c0-0.2,0-0.4,0-0.6c-0.1-0.8-0.3-1.4-0.6-1.8
			c-0.3-0.4-0.7-0.5-1.2-0.5c-0.3,0-0.6,0.1-0.8,0.2c-0.2,0.2-0.3,0.3-0.4,0.4c-0.1,0.2-0.3,0.4-0.4,0.7c-0.1,0.3-0.2,0.5-0.2,0.8
			c0,0.3-0.1,0.5-0.1,0.8C87.9,112.7,87.9,112.9,87.9,113.1z"/>
		<path id="XMLID_123_" class="st1" d="M95.1,110.2c0,0,0-0.1-0.1-0.1c0-0.1-0.1-0.2-0.1-0.2c-0.1-0.2-0.3-0.3-0.5-0.3
			c-0.2,0-0.4-0.1-0.6-0.1v-0.3c0.3,0,0.6,0,0.8,0.1c0.3,0,0.6,0,0.8,0c0.3,0,0.6,0,0.8,0c0.3,0,0.6,0,0.8-0.1v0.3
			c-0.2,0-0.3,0-0.4,0c-0.1,0-0.2,0-0.3,0.1c0,0-0.1,0-0.1,0.1c0,0-0.1,0.1-0.1,0.2s0,0.2,0.1,0.4l1.7,4.8l1.8-4.8
			c0-0.1,0.1-0.2,0.1-0.3c0-0.1,0-0.1,0-0.2c0-0.1,0-0.1,0-0.2c0,0,0-0.1-0.1-0.1c0,0-0.1-0.1-0.2-0.1c-0.1,0-0.2,0-0.2,0
			c-0.1,0-0.2,0-0.2,0c-0.1,0-0.1,0-0.2,0v-0.3c0.2,0,0.4,0,0.6,0c0.2,0,0.4,0,0.6,0c0.2,0,0.5,0,0.7,0c0.2,0,0.5,0,0.7,0v0.3
			c0,0-0.1,0-0.2,0c-0.1,0-0.2,0-0.3,0.1c-0.1,0-0.2,0.1-0.3,0.1c-0.1,0.1-0.2,0.1-0.3,0.2c-0.1,0.1-0.1,0.2-0.2,0.4l-3.1,8.1
			c-0.1,0.2-0.2,0.4-0.3,0.6c-0.1,0.2-0.2,0.4-0.4,0.5c-0.2,0.2-0.3,0.3-0.5,0.4c-0.2,0.1-0.3,0.2-0.5,0.2c-0.2,0-0.3,0.1-0.4,0.1
			c-0.1,0-0.2,0-0.3,0h-0.3l0-0.8c0.1,0,0.2,0,0.3,0c0.1,0,0.3,0,0.4,0c0.2,0,0.3-0.1,0.5-0.2c0.2-0.1,0.3-0.2,0.5-0.4
			c0.1-0.1,0.2-0.3,0.3-0.4c0.1-0.2,0.2-0.3,0.2-0.4l0.5-1.2L95.1,110.2z"/>
		<path id="XMLID_125_" class="st1" d="M108.3,115.6c0,0.1,0,0.2,0,0.3c0,0.1,0,0.2,0,0.3c0,0.1,0.1,0.2,0.2,0.3
			c0.1,0.1,0.2,0.1,0.4,0.1c0.1,0,0.3,0.1,0.4,0.1c0.1,0,0.3,0,0.3,0l0,0.4c-0.3,0-0.5,0-0.8-0.1c-0.3,0-0.5,0-0.8,0
			c-0.3,0-0.6,0-0.8,0c-0.3,0-0.6,0-0.8,0.1v-0.4c0.3,0,0.5,0,0.7-0.1c0.2,0,0.3-0.1,0.4-0.2c0.1-0.1,0.2-0.2,0.2-0.4
			c0-0.1,0-0.3,0-0.4l0.3-8.2c0-0.2,0-0.3,0-0.4c0-0.1,0-0.2-0.1-0.3c-0.1-0.1-0.1-0.2-0.2-0.2c-0.1-0.1-0.2-0.1-0.4-0.1
			c-0.1,0-0.3-0.1-0.4-0.1c-0.1,0-0.2,0-0.3,0v-0.4c0.2,0,0.5,0,0.7,0c0.2,0,0.5,0,0.7,0c0.3,0,0.5,0,0.8,0c0.3,0,0.5,0,0.8-0.1
			l3.1,8.4l3.1-8.4c0.3,0,0.5,0,0.8,0.1c0.3,0,0.5,0,0.8,0c0.2,0,0.4,0,0.7,0c0.2,0,0.4,0,0.7,0v0.4c-0.3,0-0.6,0.1-0.7,0.1
			c-0.2,0-0.3,0.1-0.4,0.2c-0.1,0.1-0.2,0.2-0.2,0.3c0,0.1,0,0.3,0,0.5l0.2,8.2c0,0.1,0,0.2,0,0.3c0,0.1,0,0.2,0.1,0.3
			c0.1,0.1,0.1,0.2,0.2,0.2c0.1,0.1,0.2,0.1,0.3,0.1c0.1,0,0.3,0.1,0.4,0.1c0.1,0,0.2,0,0.3,0v0.4c-0.3,0-0.7-0.1-1-0.1
			c-0.3,0-0.7,0-1,0c-0.3,0-0.7,0-1,0c-0.3,0-0.7,0.1-1,0.1v-0.4c0.3,0,0.6,0,0.8-0.1c0.2-0.1,0.4-0.2,0.4-0.3
			c0-0.1,0.1-0.2,0.1-0.3c0-0.1,0-0.2,0-0.4L116,107l-2.8,7.4c-0.1,0.2-0.1,0.4-0.2,0.5c-0.1,0.2-0.1,0.3-0.2,0.5
			c-0.1,0.2-0.2,0.4-0.2,0.6c-0.1,0.2-0.1,0.4-0.2,0.6h-0.3c-0.1-0.2-0.2-0.4-0.2-0.6c-0.1-0.2-0.1-0.4-0.2-0.6
			c-0.1-0.2-0.1-0.4-0.2-0.6c-0.1-0.2-0.1-0.4-0.2-0.6l-2.7-7.4L108.3,115.6z"/>
		<path id="XMLID_127_" class="st1" d="M126.5,114.5c-0.1,0.5-0.2,1-0.4,1.3c-0.2,0.3-0.4,0.6-0.5,0.7c-0.2,0.2-0.4,0.3-0.6,0.4
			c-0.2,0.1-0.4,0.2-0.5,0.2c-0.2,0-0.3,0.1-0.5,0.1c-0.1,0-0.3,0-0.3,0c-0.3,0-0.6,0-0.9-0.1c-0.2-0.1-0.5-0.1-0.6-0.2
			c-0.2-0.1-0.3-0.2-0.5-0.3c-0.1-0.1-0.3-0.2-0.4-0.3c-0.3-0.3-0.5-0.7-0.8-1.2c-0.2-0.5-0.3-1.2-0.3-2c0-0.6,0.1-1.1,0.2-1.6
			c0.1-0.5,0.4-1,0.8-1.5c0.3-0.4,0.6-0.6,1-0.8c0.4-0.2,0.8-0.3,1.3-0.3c0.4,0,0.7,0,0.9,0.1c0.3,0.1,0.5,0.2,0.7,0.3
			c0.2,0.1,0.4,0.3,0.5,0.4c0.1,0.1,0.2,0.3,0.3,0.4c0.1,0.2,0.3,0.6,0.4,1c0.1,0.4,0.2,1,0.2,1.7l-5,0c0,0,0,0.1,0,0.3
			c0,0.2,0,0.5,0,0.8c0,0.3,0.1,0.6,0.2,0.9c0.1,0.3,0.2,0.6,0.4,0.8c0.1,0.2,0.3,0.4,0.4,0.5c0.2,0.1,0.3,0.2,0.4,0.3
			c0.1,0.1,0.3,0.1,0.4,0.1c0.1,0,0.2,0,0.3,0c0.1,0,0.3,0,0.5,0c0.2,0,0.4-0.1,0.7-0.3c0.2-0.1,0.4-0.4,0.6-0.6
			c0.2-0.3,0.3-0.7,0.4-1.2H126.5z M125.1,112.3c0-0.3-0.1-0.7-0.1-1c0-0.3-0.1-0.6-0.3-0.9c-0.1-0.2-0.2-0.4-0.3-0.5
			c-0.1-0.1-0.2-0.2-0.4-0.3c-0.1-0.1-0.2-0.1-0.4-0.1c-0.1,0-0.2,0-0.3,0c-0.1,0-0.3,0-0.5,0.1c-0.2,0.1-0.4,0.2-0.6,0.5
			c-0.3,0.3-0.4,0.7-0.5,1.1c-0.1,0.4-0.2,0.8-0.2,1.2H125.1z"/>
		<path id="XMLID_130_" class="st1" d="M127.6,109.3c0.2,0,0.5-0.1,0.9-0.1c0.3,0,0.8-0.1,1.3-0.3c0,0.1,0,0.3,0.1,0.4
			c0,0.1,0,0.3,0.1,0.4c0,0.1,0,0.2,0,0.3c0,0.1,0,0.2,0,0.3c0-0.1,0.1-0.2,0.1-0.2c0-0.1,0.1-0.1,0.1-0.2c0.2-0.3,0.4-0.6,0.7-0.8
			c0.3-0.2,0.6-0.3,1-0.3c0.3,0,0.5,0.1,0.7,0.2c0.2,0.1,0.3,0.2,0.4,0.4c0.1,0.1,0.2,0.3,0.2,0.4c0,0.2,0.1,0.3,0.1,0.4
			c0,0.2,0,0.3-0.1,0.4c0,0.1-0.1,0.2-0.2,0.3c-0.1,0.1-0.2,0.1-0.2,0.1c-0.1,0-0.2,0-0.2,0c-0.2,0-0.3,0-0.5-0.1
			c-0.1-0.1-0.2-0.2-0.2-0.4c0-0.1,0-0.2,0-0.3c0,0,0-0.1,0-0.1c0-0.1-0.1-0.2-0.2-0.3c-0.1-0.1-0.2-0.1-0.3-0.1c-0.1,0-0.2,0-0.3,0
			c-0.1,0-0.3,0.1-0.4,0.3c-0.2,0.1-0.3,0.3-0.4,0.5c-0.1,0.2-0.2,0.4-0.2,0.6c0,0.2-0.1,0.4-0.1,0.6c0,0.2,0,0.4,0,0.6v3.5
			c0,0.1,0,0.2,0,0.3c0,0.1,0,0.1,0.1,0.2c0.1,0.1,0.2,0.2,0.4,0.3c0.2,0,0.4,0.1,0.7,0.1l0,0.3c-0.3,0-0.6,0-0.9-0.1
			c-0.3,0-0.6,0-0.9,0c-0.3,0-0.6,0-0.9,0c-0.3,0-0.6,0-0.9,0.1v-0.3c0.3,0,0.5-0.1,0.7-0.1c0.2,0,0.3-0.1,0.4-0.2
			c0-0.1,0.1-0.1,0.1-0.2c0-0.1,0-0.2,0-0.3v-5.5c0-0.1,0-0.2,0-0.4c0-0.1-0.1-0.2-0.1-0.3c-0.1-0.1-0.2-0.1-0.4-0.1
			c-0.2,0-0.4,0-0.6,0L127.6,109.3z"/>
		<path id="XMLID_132_" class="st1" d="M139.9,111.6h-0.4c-0.1-0.4-0.2-0.7-0.3-1.1c-0.1-0.3-0.4-0.6-0.7-0.8
			c-0.1,0-0.2-0.1-0.3-0.1c-0.2-0.1-0.3-0.1-0.6-0.1c-0.5,0-0.9,0.2-1.2,0.5c-0.2,0.3-0.4,0.7-0.6,1.2c-0.1,0.5-0.2,1.2-0.2,2
			c0,0.3,0,0.5,0,0.7c0,0.2,0,0.4,0,0.5c0.1,0.4,0.2,0.8,0.3,1.1c0.1,0.3,0.3,0.5,0.4,0.7c0.2,0.2,0.4,0.3,0.5,0.4
			c0.2,0.1,0.4,0.1,0.6,0.1c0.4,0,0.7-0.1,1-0.3c0.2-0.2,0.4-0.4,0.5-0.7c0.1-0.3,0.2-0.5,0.2-0.7c0-0.2,0.1-0.4,0.1-0.4h0.7
			c0,0.1,0,0.2-0.1,0.4c0,0.2-0.1,0.4-0.2,0.6c-0.1,0.1-0.1,0.3-0.2,0.5c-0.1,0.2-0.3,0.4-0.4,0.6c-0.2,0.2-0.4,0.3-0.7,0.4
			c-0.3,0.1-0.6,0.2-1,0.2c-0.1,0-0.3,0-0.5,0c-0.2,0-0.5-0.1-0.7-0.2c-0.2-0.1-0.5-0.3-0.7-0.4c-0.2-0.2-0.5-0.4-0.6-0.7
			c-0.2-0.3-0.4-0.7-0.5-1.1c-0.1-0.4-0.2-0.9-0.2-1.5c0-0.5,0-0.9,0.1-1.2c0.1-0.4,0.2-0.7,0.3-1c0.1-0.3,0.3-0.5,0.4-0.7
			c0.2-0.2,0.3-0.4,0.5-0.5c0.2-0.2,0.4-0.3,0.6-0.4c0.2-0.1,0.4-0.2,0.6-0.2c0.2-0.1,0.3-0.1,0.5-0.1c0.1,0,0.3,0,0.4,0
			c0.2,0,0.5,0,0.6,0.1c0.2,0,0.3,0.1,0.5,0.2c0.1,0.1,0.2,0.1,0.3,0.2c0.1,0.1,0.2,0.2,0.3,0.2l0.4-0.8h0.3V111.6z"/>
		<path id="XMLID_134_" class="st1" d="M147.7,114.5c-0.1,0.5-0.2,1-0.4,1.3c-0.2,0.3-0.4,0.6-0.5,0.7c-0.2,0.2-0.4,0.3-0.6,0.4
			c-0.2,0.1-0.4,0.2-0.5,0.2c-0.2,0-0.3,0.1-0.5,0.1c-0.1,0-0.3,0-0.3,0c-0.3,0-0.6,0-0.9-0.1c-0.2-0.1-0.5-0.1-0.6-0.2
			c-0.2-0.1-0.3-0.2-0.5-0.3c-0.1-0.1-0.3-0.2-0.4-0.3c-0.3-0.3-0.5-0.7-0.8-1.2c-0.2-0.5-0.3-1.2-0.3-2c0-0.6,0.1-1.1,0.2-1.6
			c0.1-0.5,0.4-1,0.8-1.5c0.3-0.4,0.6-0.6,1-0.8c0.4-0.2,0.8-0.3,1.3-0.3c0.4,0,0.7,0,0.9,0.1c0.3,0.1,0.5,0.2,0.7,0.3
			c0.2,0.1,0.4,0.3,0.5,0.4c0.1,0.1,0.2,0.3,0.3,0.4c0.1,0.2,0.3,0.6,0.4,1c0.1,0.4,0.2,1,0.2,1.7l-5,0c0,0,0,0.1,0,0.3
			c0,0.2,0,0.5,0,0.8c0,0.3,0.1,0.6,0.2,0.9c0.1,0.3,0.2,0.6,0.4,0.8c0.1,0.2,0.3,0.4,0.4,0.5c0.2,0.1,0.3,0.2,0.4,0.3
			c0.1,0.1,0.3,0.1,0.4,0.1c0.1,0,0.2,0,0.3,0c0.1,0,0.3,0,0.5,0c0.2,0,0.4-0.1,0.7-0.3c0.2-0.1,0.4-0.4,0.6-0.6
			c0.2-0.3,0.3-0.7,0.4-1.2H147.7z M146.4,112.3c0-0.3-0.1-0.7-0.1-1c0-0.3-0.1-0.6-0.3-0.9c-0.1-0.2-0.2-0.4-0.3-0.5
			c-0.1-0.1-0.2-0.2-0.4-0.3c-0.1-0.1-0.2-0.1-0.4-0.1c-0.1,0-0.2,0-0.3,0c-0.1,0-0.3,0-0.5,0.1c-0.2,0.1-0.4,0.2-0.6,0.5
			c-0.3,0.3-0.4,0.7-0.5,1.1c-0.1,0.4-0.2,0.8-0.2,1.2H146.4z"/>
		<path id="XMLID_137_" class="st1" d="M156.6,116.8c-0.3,0-0.5,0.1-0.6,0.1c-0.2,0-0.3,0-0.5,0.1c-0.2,0-0.3,0.1-0.5,0.1
			c-0.2,0-0.4,0.1-0.6,0.2c0-0.1-0.1-0.3-0.1-0.4c0-0.1,0-0.2-0.1-0.3c0-0.1,0-0.2,0-0.3c0-0.1,0-0.2,0-0.4
			c-0.1,0.1-0.1,0.2-0.2,0.4c-0.1,0.2-0.2,0.3-0.4,0.5c-0.2,0.1-0.4,0.3-0.6,0.4c-0.2,0.1-0.5,0.2-0.9,0.2c-0.1,0-0.3,0-0.4,0
			c-0.2,0-0.3-0.1-0.5-0.1c-0.2-0.1-0.4-0.2-0.6-0.3s-0.4-0.3-0.6-0.6c-0.1-0.1-0.2-0.3-0.3-0.5c-0.1-0.2-0.2-0.4-0.3-0.7
			c-0.1-0.3-0.2-0.5-0.2-0.9c-0.1-0.3-0.1-0.7-0.1-1.1c0-0.4,0-0.8,0.1-1.2c0.1-0.4,0.2-0.8,0.4-1.2c0.1-0.1,0.2-0.3,0.3-0.4
			c0.1-0.2,0.3-0.4,0.5-0.6c0.2-0.2,0.5-0.3,0.7-0.5c0.3-0.1,0.6-0.2,1-0.2c0.4,0,0.8,0.1,1,0.3c0.2,0.2,0.4,0.3,0.5,0.4
			c0.1,0.1,0.1,0.1,0.2,0.2c0.1,0.1,0.2,0.2,0.3,0.4v-2.9c0-0.2,0-0.4,0-0.5c0-0.1-0.1-0.2-0.2-0.3c-0.1-0.1-0.2-0.1-0.4-0.2
			c-0.2,0-0.4,0-0.6,0v-0.3c0.1,0,0.2,0,0.4,0c0.2,0,0.4,0,0.6-0.1c0.2,0,0.5-0.1,0.7-0.1c0.3-0.1,0.5-0.1,0.8-0.2v9.6
			c0,0.1,0,0.2,0,0.3c0,0.1,0,0.2,0,0.3c0,0.1,0,0.2,0.1,0.3c0,0.1,0.1,0.1,0.2,0.2c0.1,0.1,0.2,0.1,0.4,0.1c0.2,0,0.4,0,0.6,0
			L156.6,116.8z M154.1,113.2c0,0,0-0.1,0-0.3c0-0.1,0-0.3,0-0.5c0-0.2,0-0.4-0.1-0.6c0-0.2-0.1-0.4-0.1-0.6
			c-0.1-0.2-0.1-0.4-0.2-0.5c-0.1-0.1-0.1-0.2-0.2-0.3c0-0.1-0.1-0.1-0.1-0.2c-0.1-0.1-0.2-0.2-0.3-0.3c-0.1-0.1-0.2-0.1-0.4-0.2
			c-0.1-0.1-0.3-0.1-0.5-0.1c-0.1,0-0.3,0-0.5,0.1c-0.2,0-0.3,0.1-0.4,0.2c-0.1,0.1-0.3,0.3-0.4,0.5c-0.1,0.2-0.2,0.4-0.3,0.8
			c0,0.2-0.1,0.4-0.1,0.8c-0.1,0.4-0.1,0.8-0.1,1.3c0,1.9,0.4,3,1.2,3.4c0.1,0,0.1,0.1,0.3,0.1c0.1,0.1,0.3,0.1,0.4,0.1
			c0.2,0,0.3,0,0.5-0.1c0.2-0.1,0.3-0.2,0.5-0.3c0.1-0.1,0.3-0.3,0.4-0.6c0.1-0.2,0.2-0.5,0.3-0.9c0-0.1,0-0.4,0.1-0.7
			C154.1,113.9,154.1,113.6,154.1,113.2z"/>
		<path id="XMLID_140_" class="st1" d="M163.9,114.5c-0.1,0.5-0.2,1-0.4,1.3c-0.2,0.3-0.4,0.6-0.5,0.7c-0.2,0.2-0.4,0.3-0.6,0.4
			c-0.2,0.1-0.4,0.2-0.5,0.2c-0.2,0-0.3,0.1-0.5,0.1c-0.1,0-0.3,0-0.3,0c-0.3,0-0.6,0-0.9-0.1c-0.2-0.1-0.5-0.1-0.6-0.2
			c-0.2-0.1-0.3-0.2-0.5-0.3c-0.1-0.1-0.3-0.2-0.4-0.3c-0.3-0.3-0.5-0.7-0.8-1.2c-0.2-0.5-0.3-1.2-0.3-2c0-0.6,0.1-1.1,0.2-1.6
			c0.1-0.5,0.4-1,0.8-1.5c0.3-0.4,0.6-0.6,1-0.8c0.4-0.2,0.8-0.3,1.3-0.3c0.4,0,0.7,0,0.9,0.1c0.3,0.1,0.5,0.2,0.7,0.3
			c0.2,0.1,0.4,0.3,0.5,0.4c0.1,0.1,0.2,0.3,0.3,0.4c0.1,0.2,0.3,0.6,0.4,1c0.1,0.4,0.2,1,0.2,1.7l-5,0c0,0,0,0.1,0,0.3
			c0,0.2,0,0.5,0,0.8c0,0.3,0.1,0.6,0.2,0.9c0.1,0.3,0.2,0.6,0.4,0.8c0.1,0.2,0.3,0.4,0.4,0.5c0.2,0.1,0.3,0.2,0.4,0.3
			c0.1,0.1,0.3,0.1,0.4,0.1c0.1,0,0.2,0,0.3,0c0.1,0,0.3,0,0.5,0c0.2,0,0.4-0.1,0.7-0.3c0.2-0.1,0.4-0.4,0.6-0.6
			c0.2-0.3,0.3-0.7,0.4-1.2H163.9z M162.5,112.3c0-0.3-0.1-0.7-0.1-1c0-0.3-0.1-0.6-0.3-0.9c-0.1-0.2-0.2-0.4-0.3-0.5
			c-0.1-0.1-0.2-0.2-0.4-0.3c-0.1-0.1-0.2-0.1-0.4-0.1c-0.1,0-0.2,0-0.3,0c-0.1,0-0.3,0-0.5,0.1c-0.2,0.1-0.4,0.2-0.6,0.5
			c-0.3,0.3-0.4,0.7-0.5,1.1c-0.1,0.4-0.2,0.8-0.2,1.2H162.5z"/>
		<path id="XMLID_143_" class="st1" d="M165.4,114.5h0.4c0,0.1,0,0.2,0.1,0.4c0,0.2,0.1,0.4,0.2,0.6c0.1,0.3,0.3,0.5,0.4,0.7
			c0.2,0.2,0.3,0.3,0.5,0.4c0.2,0.1,0.4,0.2,0.5,0.2c0.2,0,0.3,0,0.4,0c0.3,0,0.6-0.1,0.9-0.2s0.5-0.3,0.7-0.6
			c0-0.1,0.1-0.1,0.1-0.3c0-0.1,0.1-0.3,0.1-0.5c0-0.2,0-0.3-0.1-0.5c-0.1-0.2-0.3-0.4-0.6-0.5c-0.1-0.1-0.4-0.2-0.7-0.3
			c-0.3-0.1-0.7-0.3-1.1-0.5c-0.1-0.1-0.2-0.1-0.3-0.1c-0.1,0-0.2-0.1-0.3-0.1c-0.1,0-0.2-0.1-0.2-0.1c-0.2-0.1-0.4-0.3-0.5-0.4
			c-0.1-0.1-0.2-0.3-0.3-0.4s-0.1-0.3-0.1-0.4c0-0.1,0-0.2,0-0.3c0-0.2,0-0.4,0.1-0.5c0-0.1,0.1-0.3,0.1-0.3
			c0.1-0.2,0.2-0.4,0.4-0.6c0.2-0.2,0.4-0.3,0.6-0.4c0.2-0.1,0.4-0.2,0.7-0.3c0.2-0.1,0.5-0.1,0.7-0.1c0.4,0,0.8,0.1,1.1,0.2
			c0.3,0.1,0.5,0.2,0.6,0.3l0.3-0.7h0.3v2.6h-0.4c0-0.1,0-0.2-0.1-0.4c0-0.2-0.1-0.4-0.2-0.6c0-0.1-0.1-0.2-0.2-0.3
			c-0.1-0.1-0.2-0.2-0.3-0.3c-0.1-0.1-0.3-0.2-0.4-0.3c-0.2-0.1-0.4-0.1-0.6-0.1c-0.2,0-0.4,0-0.6,0.1c-0.2,0.1-0.4,0.2-0.5,0.3
			c-0.1,0.1-0.3,0.3-0.4,0.4c-0.1,0.2-0.1,0.4-0.1,0.6c0,0.1,0,0.1,0,0.2c0,0.1,0,0.2,0.1,0.3c0.1,0.2,0.3,0.3,0.4,0.4
			c0.2,0.1,0.5,0.3,0.8,0.4c0.1,0.1,0.3,0.1,0.4,0.2c0.1,0.1,0.3,0.1,0.4,0.2c0.1,0.1,0.3,0.1,0.4,0.2c0.1,0.1,0.3,0.1,0.4,0.2
			c0.4,0.2,0.7,0.5,1,0.7c0.2,0.3,0.3,0.7,0.3,1.1c0,0.3,0,0.5-0.1,0.7c-0.1,0.2-0.1,0.3-0.2,0.4c-0.1,0.1-0.2,0.3-0.3,0.4
			c-0.1,0.2-0.3,0.3-0.5,0.4c-0.2,0.1-0.4,0.2-0.7,0.3c-0.3,0.1-0.6,0.1-1,0.1c-0.3,0-0.5,0-0.7-0.1c-0.2,0-0.4-0.1-0.6-0.2
			c-0.2-0.1-0.3-0.1-0.4-0.2c-0.1-0.1-0.2-0.1-0.3-0.2l-0.4,0.7h-0.3V114.5z"/>
		<path id="XMLID_145_" class="st1" d="M171.6,112.2h4.3v0.8h-4.3V112.2z"/>
		<path id="XMLID_147_" class="st1" d="M176.5,117.1v-0.4c0.1,0,0.2,0,0.3,0c0.1,0,0.2,0,0.4-0.1c0.1,0,0.2-0.1,0.3-0.1
			c0.1,0,0.2-0.1,0.3-0.2c0.1-0.1,0.1-0.2,0.1-0.3c0-0.1,0-0.3,0-0.4v-8.1c0-0.1,0-0.2,0-0.3c0-0.1,0-0.2,0-0.3
			c0-0.1-0.1-0.2-0.2-0.3c-0.1-0.1-0.2-0.1-0.4-0.1c-0.1,0-0.3-0.1-0.4-0.1c-0.1,0-0.2,0-0.3,0V106h4.8c0.1,0,0.3,0,0.4,0
			c0.2,0,0.4,0.1,0.6,0.1c0.2,0.1,0.5,0.2,0.7,0.4c0.2,0.2,0.5,0.4,0.6,0.7c0.1,0.1,0.2,0.3,0.3,0.6c0.1,0.2,0.2,0.6,0.2,1
			c0,0.3,0,0.6-0.1,0.8c-0.1,0.2-0.2,0.5-0.3,0.6c-0.1,0.2-0.3,0.3-0.4,0.4c-0.1,0.1-0.3,0.2-0.4,0.3c-0.1,0-0.2,0.1-0.2,0.1
			c-0.1,0-0.2,0.1-0.4,0.1c0.3,0.1,0.6,0.2,0.8,0.2c0.2,0.1,0.3,0.2,0.5,0.3c0.1,0.1,0.2,0.2,0.3,0.3c0.1,0.1,0.3,0.3,0.4,0.5
			c0.1,0.2,0.2,0.4,0.3,0.7c0.1,0.3,0.1,0.5,0.1,0.9c0,0.5-0.1,1-0.4,1.5c-0.2,0.5-0.6,0.8-1,1.1c-0.4,0.3-0.8,0.4-1.2,0.5
			c-0.4,0.1-0.9,0.1-1.3,0.1H176.5z M179.2,115.7c0,0.1,0,0.2,0,0.3c0,0.1,0.1,0.2,0.1,0.3c0.1,0.1,0.2,0.2,0.3,0.2
			c0.1,0,0.3,0,0.6,0h0.6c0.3,0,0.5,0,0.6-0.1c0.1,0,0.3-0.1,0.4-0.1c0.3-0.1,0.6-0.3,0.7-0.6c0.2-0.2,0.3-0.5,0.4-0.7
			c0.1-0.3,0.1-0.5,0.1-0.7c0-0.2,0-0.4,0-0.4c0,0,0-0.1,0-0.3c0-0.1,0-0.3-0.1-0.5c0-0.2-0.1-0.4-0.2-0.6c-0.1-0.2-0.2-0.4-0.4-0.5
			c-0.3-0.2-0.5-0.4-0.8-0.4c-0.3-0.1-0.6-0.1-0.9-0.1h-1.6V115.7z M180.4,111c0.1,0,0.2,0,0.4,0c0.2,0,0.4,0,0.6-0.1
			c0.2,0,0.3-0.1,0.5-0.2c0.2-0.1,0.3-0.2,0.4-0.4c0.1-0.2,0.2-0.4,0.3-0.6c0.1-0.3,0.1-0.6,0.1-0.9c0,0,0-0.1,0-0.2
			c0-0.1,0-0.2,0-0.4c0-0.2-0.1-0.3-0.1-0.5c-0.1-0.2-0.1-0.3-0.2-0.5c0,0-0.1-0.1-0.1-0.1c-0.1-0.1-0.1-0.1-0.2-0.2
			c-0.2-0.2-0.4-0.3-0.6-0.3c-0.2,0-0.4-0.1-0.7-0.1h-1.4v4.5H180.4z"/>
		<path id="XMLID_151_" class="st1" d="M192.4,114.5c-0.1,0.5-0.2,1-0.4,1.3c-0.2,0.3-0.4,0.6-0.5,0.7c-0.2,0.2-0.4,0.3-0.6,0.4
			c-0.2,0.1-0.4,0.2-0.5,0.2c-0.2,0-0.3,0.1-0.5,0.1c-0.1,0-0.3,0-0.3,0c-0.3,0-0.6,0-0.9-0.1c-0.2-0.1-0.5-0.1-0.6-0.2
			c-0.2-0.1-0.3-0.2-0.5-0.3c-0.1-0.1-0.3-0.2-0.4-0.3c-0.3-0.3-0.5-0.7-0.8-1.2c-0.2-0.5-0.3-1.2-0.3-2c0-0.6,0.1-1.1,0.2-1.6
			c0.1-0.5,0.4-1,0.8-1.5c0.3-0.4,0.6-0.6,1-0.8c0.4-0.2,0.8-0.3,1.3-0.3c0.4,0,0.7,0,0.9,0.1c0.3,0.1,0.5,0.2,0.7,0.3
			c0.2,0.1,0.4,0.3,0.5,0.4c0.1,0.1,0.2,0.3,0.3,0.4c0.1,0.2,0.3,0.6,0.4,1c0.1,0.4,0.2,1,0.2,1.7l-5,0c0,0,0,0.1,0,0.3
			c0,0.2,0,0.5,0,0.8c0,0.3,0.1,0.6,0.2,0.9c0.1,0.3,0.2,0.6,0.4,0.8c0.1,0.2,0.3,0.4,0.4,0.5c0.2,0.1,0.3,0.2,0.4,0.3
			c0.1,0.1,0.3,0.1,0.4,0.1c0.1,0,0.2,0,0.3,0c0.1,0,0.3,0,0.5,0c0.2,0,0.4-0.1,0.7-0.3c0.2-0.1,0.4-0.4,0.6-0.6
			c0.2-0.3,0.3-0.7,0.4-1.2H192.4z M191.1,112.3c0-0.3-0.1-0.7-0.1-1c0-0.3-0.1-0.6-0.3-0.9c-0.1-0.2-0.2-0.4-0.3-0.5
			c-0.1-0.1-0.2-0.2-0.4-0.3c-0.1-0.1-0.2-0.1-0.4-0.1c-0.1,0-0.2,0-0.3,0c-0.1,0-0.3,0-0.5,0.1c-0.2,0.1-0.4,0.2-0.6,0.5
			c-0.3,0.3-0.4,0.7-0.5,1.1c-0.1,0.4-0.2,0.8-0.2,1.2H191.1z"/>
		<path id="XMLID_154_" class="st1" d="M193.6,109.4c0.6-0.1,1-0.2,1.3-0.3c0.3-0.1,0.6-0.2,0.9-0.3c0,0.2,0.1,0.4,0.1,0.6
			c0,0.2,0,0.5,0.1,0.9c0.1-0.2,0.2-0.3,0.3-0.4c0.1-0.1,0.2-0.2,0.2-0.2c0.1-0.1,0.1-0.1,0.3-0.2c0.1-0.1,0.2-0.1,0.4-0.2
			c0.1-0.1,0.3-0.1,0.5-0.2c0.2,0,0.4-0.1,0.6-0.1c0.4,0,0.7,0.1,1.1,0.2c0.3,0.1,0.6,0.4,0.9,0.7c0.2,0.3,0.4,0.6,0.4,0.9
			c0,0.3,0.1,0.7,0.1,1v4v0.2c0,0.1,0,0.2,0,0.3c0.1,0.1,0.2,0.2,0.4,0.3c0.2,0,0.4,0.1,0.7,0.1v0.3c-0.3,0-0.6,0-0.9-0.1
			c-0.3,0-0.6,0-0.9,0c-0.3,0-0.6,0-0.9,0c-0.3,0-0.6,0-0.9,0.1v-0.3c0.1,0,0.3,0,0.6-0.1c0.2,0,0.4-0.1,0.5-0.3
			c0.1-0.1,0.1-0.3,0.1-0.5v-4.1c0-0.2,0-0.3,0-0.4c0-0.1,0-0.2,0-0.3c0-0.1,0-0.2-0.1-0.3c-0.1-0.2-0.2-0.4-0.3-0.5
			c-0.1-0.1-0.3-0.2-0.4-0.3c-0.1-0.1-0.3-0.1-0.4-0.1c-0.1,0-0.2,0-0.3,0c-0.1,0-0.2,0-0.4,0c-0.2,0-0.4,0.1-0.6,0.3
			c-0.3,0.2-0.5,0.5-0.6,0.8c-0.1,0.3-0.1,0.6-0.1,1v4c0,0.1,0,0.2,0,0.3c0,0.1,0,0.2,0.1,0.3c0.1,0.2,0.2,0.3,0.5,0.3
			c0.2,0,0.4,0.1,0.5,0.1v0.3c-0.3,0-0.6,0-0.9-0.1c-0.3,0-0.6,0-0.9,0c-0.3,0-0.6,0-0.9,0c-0.3,0-0.6,0-0.9,0.1v-0.3
			c0.3,0,0.5-0.1,0.7-0.1c0.2,0,0.3-0.1,0.4-0.3c0.1-0.1,0.1-0.2,0.1-0.3c0-0.1,0-0.2,0-0.3v-5.2c0-0.1,0-0.3,0-0.4
			c0-0.1,0-0.2,0-0.2c0-0.2-0.2-0.4-0.3-0.4c-0.2,0-0.5-0.1-0.8-0.1V109.4z"/>
		<path id="XMLID_156_" class="st1" d="M207.2,109.6h-1.9c-0.2,0-0.4,0-0.6,0.1c-0.2,0-0.4,0.1-0.5,0.2c-0.2,0.1-0.3,0.3-0.4,0.5
			c-0.1,0.2-0.3,0.5-0.4,0.9h-0.3l0.4-2.2h5.5l-4.5,7.4h2c0,0,0.1,0,0.3,0c0.1,0,0.3,0,0.4,0c0.2,0,0.3-0.1,0.4-0.2
			c0.1-0.1,0.2-0.2,0.3-0.3c0.1-0.1,0.2-0.2,0.2-0.3c0.1-0.1,0.1-0.2,0.1-0.2c0.1-0.1,0.1-0.2,0.1-0.3c0-0.1,0.1-0.2,0.1-0.3
			l0.1-0.4h0.3l-0.4,2.4h-5.7L207.2,109.6z"/>
	</g>
	<line id="XMLID_158_" class="st16" x1="2" y1="103.5" x2="209" y2="103.5"/>
	<line id="XMLID_159_" class="st16" x1="2" y1="121.5" x2="209" y2="121.5"/>
</g>
</svg>
