<?xml version="1.0" encoding="utf-8"?>
<!-- Generator: Adobe Illustrator 19.0.0, SVG Export Plug-In . SVG Version: 6.00 Build 0)  -->
<svg version="1.1" id="Layer_1" xmlns="http://www.w3.org/2000/svg" xmlns:xlink="http://www.w3.org/1999/xlink" x="0px" y="0px"
	 viewBox="0 0 45 80" style="enable-background:new 0 0 45 80;" xml:space="preserve">
<style type="text/css">
	.st0{fill:#FFFFFF;}
	.st1{fill:#404041;}
</style>
<g id="microphone">
	<g>
		<path class="st0" d="M35.7,79.2H9.9c-1.3,0-2.4-1.1-2.4-2.4c0-1.3,1.1-2.4,2.4-2.4h25.7c1.3,0,2.4,1.1,2.4,2.4
			C38,78.2,37,79.2,35.7,79.2z"/>
	</g>
	<g>
		<path class="st0" d="M22.8,79.2c-1.3,0-2.4-1.1-2.4-2.4V57.5c0-1.3,1.1-2.4,2.4-2.4c1.3,0,2.4,1.1,2.4,2.4v19.3
			C25.2,78.2,24.1,79.2,22.8,79.2z"/>
	</g>
	<path class="st0" d="M22.9,49.1h-0.3c-7,0-12.7-5.7-12.7-12.7V13.9c0-7,5.7-12.7,12.7-12.7h0.3c7,0,12.7,5.7,12.7,12.7v22.5
		C35.7,43.4,30,49.1,22.9,49.1z"/>
	<g>
		<path class="st0" d="M22.9,58.5h-0.3c-5.9,0-11.5-2.3-15.6-6.5c-4.2-4.2-6.5-9.7-6.5-15.6c0-1.3,1.1-2.4,2.4-2.4s2.4,1.1,2.4,2.4
			c0,4.6,1.8,9,5.1,12.3c3.3,3.3,7.7,5.1,12.3,5.1h0.3c4.6,0,9-1.8,12.3-5.1c3.3-3.3,5.1-7.7,5.1-12.3c0-1.3,1.1-2.4,2.4-2.4
			c1.3,0,2.4,1.1,2.4,2.4c0,5.9-2.3,11.5-6.5,15.6C34.4,56.2,28.8,58.5,22.9,58.5z"/>
	</g>
	<g>
		<path class="st1" d="M32.7,14.8c-0.5,0-0.9-0.4-0.9-0.9c0-4.9-4-8.8-8.8-8.8C22.4,5,22,4.6,22,4.1c0-0.5,0.4-0.9,0.9-0.9
			c5.9,0,10.7,4.8,10.7,10.7C33.7,14.4,33.2,14.8,32.7,14.8z"/>
	</g>
</g>
</svg>
