<?xml version="1.0" encoding="utf-8"?>
<!-- Generator: Adobe Illustrator 19.0.0, SVG Export Plug-In . SVG Version: 6.00 Build 0)  -->
<svg version="1.1" id="Layer_1" xmlns="http://www.w3.org/2000/svg" xmlns:xlink="http://www.w3.org/1999/xlink" x="0px" y="0px"
	 viewBox="0 0 110 64" style="enable-background:new 0 0 110 64;" xml:space="preserve">
<style type="text/css">
	.st0{fill:#FFFFFF;}
</style>
<g id="XMLID_2_">
	<g id="XMLID_3_">
		<path id="XMLID_9_" class="st0" d="M66,31.1c-0.7-0.7-1.8-0.7-2.5,0c-0.7,0.7-0.7,1.8,0,2.5c2.3,2.3,3.4,5.2,3.4,8.2
			c0,3-1.1,5.9-3.4,8.2c-0.7,0.7-0.7,1.8,0,2.5c0.3,0.3,0.8,0.6,1.3,0.6c0.5,0,0.9-0.1,1.3-0.6c3-3,4.5-6.8,4.5-10.7
			S68.9,34.1,66,31.1z"/>
		<path id="XMLID_8_" class="st0" d="M70.7,25.5c-0.7-0.7-1.8-0.7-2.5,0c-0.7,0.7-0.7,1.8,0,2.5c3.8,3.8,5.7,8.8,5.7,13.8
			s-1.9,10-5.7,13.8c-0.7,0.7-0.7,1.8,0,2.5c0.3,0.3,0.8,0.6,1.3,0.6c0.5,0,0.9-0.2,1.3-0.6c4.5-4.6,6.7-10.4,6.7-16.3
			C77.5,35.9,75.2,30,70.7,25.5z"/>
		<path id="XMLID_7_" class="st0" d="M55.8,19c-0.5,0-1.1,0.1-1.8,0.5c0,0-11.8,10.2-12.2,10.7h-6.4c-1.6,0-2.9,1.3-2.9,2.9v17.2
			c0,1.6,1.3,2.9,2.9,2.9h6.4C42.2,53.6,54,63.5,54,63.5c0.7,0.5,1.3,0.6,1.8,0.5c1-0.1,1.7-0.9,1.9-1.9c0-0.1,0-41.1,0-41.1
			C57.6,19.9,56.8,19.1,55.8,19z"/>
	</g>
</g>
</svg>
