<?xml version="1.0" encoding="UTF-8" standalone="no"?>
<svg
   xmlns:dc="http://purl.org/dc/elements/1.1/"
   xmlns:cc="http://creativecommons.org/ns#"
   xmlns:rdf="http://www.w3.org/1999/02/22-rdf-syntax-ns#"
   xmlns:svg="http://www.w3.org/2000/svg"
   xmlns="http://www.w3.org/2000/svg"
   width="46"
   height="46"
   viewBox="0 0 12.170834 12.170834"
   version="1.1"
   id="svg8">
  <defs
     id="defs2" />
  <metadata
     id="metadata5">
    <rdf:RDF>
      <cc:Work
         rdf:about="">
        <dc:format>image/svg+xml</dc:format>
        <dc:type
           rdf:resource="http://purl.org/dc/dcmitype/StillImage" />
        <dc:title></dc:title>
      </cc:Work>
    </rdf:RDF>
  </metadata>
  <g
     id="layer1"
     style="display:inline;opacity:0.86600001"
     transform="translate(-65.668961,-62.16834)">
    <g
       transform="matrix(0.26458333,0,0,0.26458333,57.221471,57.346133)"
       id="XMLID_2_">
      <g
         id="XMLID_3_">
        <path
           style="fill:#ffffff"
           d="m 66,31.1 c -0.7,-0.7 -1.8,-0.7 -2.5,0 -0.7,0.7 -0.7,1.8 0,2.5 2.3,2.3 3.4,5.2 3.4,8.2 0,3 -1.1,5.9 -3.4,8.2 -0.7,0.7 -0.7,1.8 0,2.5 0.3,0.3 0.8,0.6 1.3,0.6 0.5,0 0.9,-0.1 1.3,-0.6 3,-3 4.5,-6.8 4.5,-10.7 0,-3.9 -1.7,-7.7 -4.6,-10.7 z"
           class="st0"
           id="XMLID_9_" />
        <path
           style="fill:#ffffff"
           d="m 70.7,25.5 c -0.7,-0.7 -1.8,-0.7 -2.5,0 -0.7,0.7 -0.7,1.8 0,2.5 3.8,3.8 5.7,8.8 5.7,13.8 0,5 -1.9,10 -5.7,13.8 -0.7,0.7 -0.7,1.8 0,2.5 0.3,0.3 0.8,0.6 1.3,0.6 0.5,0 0.9,-0.2 1.3,-0.6 4.5,-4.6 6.7,-10.4 6.7,-16.3 0,-5.9 -2.3,-11.8 -6.8,-16.3 z"
           class="st0"
           id="XMLID_8_" />
        <path
           style="fill:#ffffff"
           d="m 55.8,19 c -0.5,0 -1.1,0.1 -1.8,0.5 0,0 -11.8,10.2 -12.2,10.7 h -6.4 c -1.6,0 -2.9,1.3 -2.9,2.9 v 17.2 c 0,1.6 1.3,2.9 2.9,2.9 h 6.4 c 0.4,0.4 12.2,10.3 12.2,10.3 0.7,0.5 1.3,0.6 1.8,0.5 1,-0.1 1.7,-0.9 1.9,-1.9 0,-0.1 0,-41.1 0,-41.1 -0.1,-1.1 -0.9,-1.9 -1.9,-2 z"
           class="st0"
           id="XMLID_7_" />
        <g
           id="XMLID_4_">
          <path
             style="fill:#a5a7aa"
             d="M 76,62 H 71.1 L 56.8,44.8 42.4,62 H 37.7 L 54.5,42.1 38.8,23.3 h 4.9 L 56.8,39.6 70,23.3 h 4.8 L 59.1,42.2 Z"
             class="st1"
             id="XMLID_5_" />
        </g>
      </g>
    </g>
    <path
       style="fill:#000000;fill-opacity:0;stroke-width:0.08928572"
       d="m 254.13234,278.64476 c 0,-0.0253 3.75285,-4.49122 8.33966,-9.92424 l 8.33967,-9.87821 -6.493,-7.77665 c -3.57114,-4.27716 -7.08263,-8.47978 -7.80331,-9.33916 -0.72068,-0.85937 -1.31061,-1.59263 -1.31096,-1.62946 -3.5e-4,-0.0368 1.0609,-0.067 2.35833,-0.067 h 2.35897 l 6.00571,7.47768 c 7.60887,9.47377 7.14323,8.91257 7.26124,8.75148 0.0525,-0.0717 3.02813,-3.75257 6.61248,-8.17975 l 6.51702,-8.04941 h 2.35553 c 1.87343,0 2.3369,0.0229 2.26452,0.11161 -0.273,0.33481 -6.16205,7.4299 -10.49013,12.63844 -2.7384,3.29547 -4.99843,6.04383 -5.02229,6.10747 -0.0239,0.0636 1.1921,1.56331 2.70213,3.33261 1.51002,1.7693 5.19639,6.08774 8.19193,9.59652 2.99553,3.50878 5.5404,6.49086 5.65525,6.62683 l 0.20884,0.24724 h -2.40704 -2.40704 l -7.1274,-8.57301 c -3.92008,-4.71516 -7.15651,-8.56226 -7.19207,-8.54911 -0.0356,0.0131 -2.38511,2.79623 -5.22121,6.18462 -2.83609,3.38839 -6.05649,7.23549 -7.15644,8.54911 l -1.9999,2.38839 h -2.27025 c -1.24863,0 -2.27024,-0.0207 -2.27024,-0.046 z"
       id="path3733"
       transform="scale(0.26458333)" />
    <path
       style="fill:#000000;fill-opacity:0;stroke-width:0.08928572"
       d="m 254.13234,278.64476 c 0,-0.0253 3.75285,-4.49122 8.33966,-9.92424 l 8.33967,-9.87821 -6.493,-7.77665 c -3.57114,-4.27716 -7.08263,-8.47978 -7.80331,-9.33916 -0.72068,-0.85937 -1.31061,-1.59263 -1.31096,-1.62946 -3.5e-4,-0.0368 1.0609,-0.067 2.35833,-0.067 h 2.35897 l 6.00571,7.47768 c 7.60887,9.47377 7.14323,8.91257 7.26124,8.75148 0.0525,-0.0717 3.02813,-3.75257 6.61248,-8.17975 l 6.51702,-8.04941 h 2.35553 c 1.87343,0 2.3369,0.0229 2.26452,0.11161 -0.273,0.33481 -6.16205,7.4299 -10.49013,12.63844 -2.7384,3.29547 -4.99843,6.04383 -5.02229,6.10747 -0.0239,0.0636 1.1921,1.56331 2.70213,3.33261 1.51002,1.7693 5.19639,6.08774 8.19193,9.59652 2.99553,3.50878 5.5404,6.49086 5.65525,6.62683 l 0.20884,0.24724 h -2.40704 -2.40704 l -7.1274,-8.57301 c -3.92008,-4.71516 -7.15651,-8.56226 -7.19207,-8.54911 -0.0356,0.0131 -2.38511,2.79623 -5.22121,6.18462 -2.83609,3.38839 -6.05649,7.23549 -7.15644,8.54911 l -1.9999,2.38839 h -2.27025 c -1.24863,0 -2.27024,-0.0207 -2.27024,-0.046 z"
       id="path3735"
       transform="scale(0.26458333)" />
    <path
       style="fill:#000000;fill-opacity:0;stroke-width:0.08928572"
       d="m 253.95377,278.72935 c 0,-0.0279 0.46571,-0.60044 1.03491,-1.27232 0.5692,-0.67188 1.52344,-1.80096 2.12054,-2.50907 2.08865,-2.47701 2.72154,-3.2099 2.98807,-3.46024 0.30185,-0.28351 10.38384,-12.22518 10.56142,-12.50954 0.10474,-0.16771 -0.31548,-0.69745 -5.26823,-6.64107 -2.96013,-3.55235 -5.51189,-6.57936 -5.67057,-6.72668 -0.15867,-0.14732 -1.22506,-1.39286 -2.36974,-2.76786 -1.14469,-1.375 -2.14289,-2.57095 -2.21823,-2.65766 -0.13057,-0.15028 -0.0184,-0.15656 2.3943,-0.13393 l 2.53129,0.0237 1.18919,1.47319 c 0.65405,0.81025 1.18919,1.50378 1.18919,1.54118 0,0.0737 10.49529,13.15546 10.61262,13.22798 0.0728,0.045 0.45743,-0.42267 1.17309,-1.42626 0.51707,-0.72509 4.91056,-6.13395 5.05447,-6.22258 0.13305,-0.082 1.01696,-1.18418 1.01696,-1.26815 0,-0.0506 1.24255,-1.60618 3.37054,-4.21978 0.25781,-0.31664 0.46875,-0.54922 0.46875,-0.51684 0,0.0773 0.36909,-0.38846 0.5192,-0.6552 0.0646,-0.11477 0.44452,-0.6068 0.84432,-1.09342 l 0.72689,-0.88477 h 2.44787 c 2.31842,0 2.44139,0.008 2.32544,0.15625 -0.54711,0.69829 -2.59205,3.13698 -2.71707,3.24025 -0.24238,0.20021 -2.31525,2.69029 -2.44973,2.94279 -0.12907,0.24236 -2.28273,2.82533 -2.3953,2.87279 -0.0975,0.0411 -2.17727,2.56311 -2.38006,2.88614 -0.0925,0.14732 -0.75519,0.97098 -1.47269,1.83036 -3.22396,3.86145 -4.11157,4.94892 -4.08907,5.00975 0.0248,0.067 0.25301,0.33747 2.7027,3.20319 2.42939,2.84196 2.67719,3.13825 2.72321,3.25614 0.0612,0.15683 2.33944,2.81663 2.41254,2.81663 0.0323,0 0.45593,0.4721 0.94145,1.04911 0.48553,0.57701 0.99405,1.16964 1.13005,1.31696 0.136,0.14732 0.24746,0.30141 0.24769,0.34243 5.4e-4,0.10024 1.885,2.32132 2.40176,2.83079 0.6116,0.60299 4.2058,4.82954 4.2058,4.94576 0,0.0279 -1.11496,0.0473 -2.47768,0.0432 l -2.47768,-0.007 -1.26258,-1.53273 c -0.69442,-0.843 -2.78139,-3.36086 -4.63771,-5.59523 -6.55831,-7.89395 -7.22967,-8.70889 -7.46586,-9.0625 -0.41864,-0.62675 -0.85403,-1.07878 -0.94601,-0.98215 -0.30334,0.31871 -10.31599,12.36752 -10.62449,12.78507 -0.21069,0.28518 -0.53212,0.68654 -0.71428,0.89191 -0.18217,0.20537 -0.9138,1.07801 -1.62586,1.93918 l -1.29464,1.56578 -2.38839,0.003 c -1.31362,0.002 -2.38839,-0.0201 -2.38839,-0.048 z"
       id="path3737"
       transform="scale(0.26458333)" />
    <path
       style="fill:#ff0000;fill-opacity:0.86666667;stroke-width:0.08928572"
       d="m 254.13234,278.64476 c 0,-0.0253 3.75285,-4.49122 8.33966,-9.92424 l 8.33967,-9.87821 -6.493,-7.77665 c -3.57114,-4.27716 -7.08263,-8.47978 -7.80331,-9.33916 -0.72068,-0.85937 -1.31061,-1.59263 -1.31096,-1.62946 -3.5e-4,-0.0368 1.0609,-0.067 2.35833,-0.067 h 2.35897 l 6.00571,7.47768 c 7.60887,9.47377 7.14323,8.91257 7.26124,8.75148 0.0525,-0.0717 3.02813,-3.75257 6.61248,-8.17975 l 6.51702,-8.04941 h 2.35553 c 1.87343,0 2.3369,0.0229 2.26452,0.11161 -0.273,0.33481 -6.16205,7.4299 -10.49013,12.63844 -2.7384,3.29547 -4.99843,6.04383 -5.02229,6.10747 -0.0239,0.0636 1.1921,1.56331 2.70213,3.33261 1.51002,1.7693 5.19639,6.08774 8.19193,9.59652 2.99553,3.50878 5.5404,6.49086 5.65525,6.62683 l 0.20884,0.24724 h -2.40704 -2.40704 l -7.1274,-8.57301 c -3.92008,-4.71516 -7.15651,-8.56226 -7.19207,-8.54911 -0.0356,0.0131 -2.38511,2.79623 -5.22121,6.18462 -2.83609,3.38839 -6.05649,7.23549 -7.15644,8.54911 l -1.9999,2.38839 h -2.27025 c -1.24863,0 -2.27024,-0.0207 -2.27024,-0.046 z"
       id="path3739"
       transform="scale(0.26458333)" />
  </g>
  <style
     id="style26"
     type="text/css">
	.st0{fill:#FFFFFF;}
	.st1{fill:#A5A7AA;}
</style>
</svg>
