<?xml version="1.0" encoding="UTF-8" standalone="no"?>
<!-- Generator: Adobe Illustrator 19.0.0, SVG Export Plug-In . SVG Version: 6.00 Build 0)  -->

<svg
   xmlns:dc="http://purl.org/dc/elements/1.1/"
   xmlns:cc="http://creativecommons.org/ns#"
   xmlns:rdf="http://www.w3.org/1999/02/22-rdf-syntax-ns#"
   xmlns:svg="http://www.w3.org/2000/svg"
   xmlns="http://www.w3.org/2000/svg"
   xmlns:sodipodi="http://sodipodi.sourceforge.net/DTD/sodipodi-0.dtd"
   xmlns:inkscape="http://www.inkscape.org/namespaces/inkscape"
   version="1.1"
   id="Layer_1"
   x="0px"
   y="0px"
   viewBox="0 0 46 46"
   xml:space="preserve"
   sodipodi:docname="Mute.svg"
   inkscape:version="0.92.3 (2405546, 2018-03-11)"
   width="46"
   height="46"><metadata
   id="metadata40"><rdf:RDF><cc:Work
       rdf:about=""><dc:format>image/svg+xml</dc:format><dc:type
         rdf:resource="http://purl.org/dc/dcmitype/StillImage" /><dc:title></dc:title></cc:Work></rdf:RDF></metadata><defs
   id="defs38" /><sodipodi:namedview
   pagecolor="#ffffff"
   bordercolor="#666666"
   borderopacity="1"
   objecttolerance="10"
   gridtolerance="10"
   guidetolerance="10"
   inkscape:pageopacity="0"
   inkscape:pageshadow="2"
   inkscape:window-width="2560"
   inkscape:window-height="1475"
   id="namedview36"
   showgrid="false"
   inkscape:pagecheckerboard="true"
   inkscape:zoom="17.8"
   inkscape:cx="55"
   inkscape:cy="32"
   inkscape:window-x="-13"
   inkscape:window-y="-13"
   inkscape:window-maximized="1"
   inkscape:current-layer="Layer_1"
   inkscape:snap-page="false" />
<style
   type="text/css"
   id="style26">
	.st0{fill:#FFFFFF;}
	.st1{fill:#A5A7AA;}
</style>
<g
   id="XMLID_2_"
   transform="translate(-32,-18.034847)">
	<g
   id="XMLID_3_">
		<path
   id="XMLID_9_"
   class="st0"
   d="m 66,31.1 c -0.7,-0.7 -1.8,-0.7 -2.5,0 -0.7,0.7 -0.7,1.8 0,2.5 2.3,2.3 3.4,5.2 3.4,8.2 0,3 -1.1,5.9 -3.4,8.2 -0.7,0.7 -0.7,1.8 0,2.5 0.3,0.3 0.8,0.6 1.3,0.6 0.5,0 0.9,-0.1 1.3,-0.6 3,-3 4.5,-6.8 4.5,-10.7 0,-3.9 -1.7,-7.7 -4.6,-10.7 z"
   inkscape:connector-curvature="0"
   style="fill:#ffffff" />
		<path
   id="XMLID_8_"
   class="st0"
   d="m 70.7,25.5 c -0.7,-0.7 -1.8,-0.7 -2.5,0 -0.7,0.7 -0.7,1.8 0,2.5 3.8,3.8 5.7,8.8 5.7,13.8 0,5 -1.9,10 -5.7,13.8 -0.7,0.7 -0.7,1.8 0,2.5 0.3,0.3 0.8,0.6 1.3,0.6 0.5,0 0.9,-0.2 1.3,-0.6 4.5,-4.6 6.7,-10.4 6.7,-16.3 0,-5.9 -2.3,-11.8 -6.8,-16.3 z"
   inkscape:connector-curvature="0"
   style="fill:#ffffff" />
		<path
   id="XMLID_7_"
   class="st0"
   d="m 55.8,19 c -0.5,0 -1.1,0.1 -1.8,0.5 0,0 -11.8,10.2 -12.2,10.7 h -6.4 c -1.6,0 -2.9,1.3 -2.9,2.9 v 17.2 c 0,1.6 1.3,2.9 2.9,2.9 h 6.4 c 0.4,0.4 12.2,10.3 12.2,10.3 0.7,0.5 1.3,0.6 1.8,0.5 1,-0.1 1.7,-0.9 1.9,-1.9 0,-0.1 0,-41.1 0,-41.1 -0.1,-1.1 -0.9,-1.9 -1.9,-2 z"
   inkscape:connector-curvature="0"
   style="fill:#ffffff" />
		<g
   id="XMLID_4_">
			<path
   id="XMLID_5_"
   class="st1"
   d="M 76,62 H 71.1 L 56.8,44.8 42.4,62 H 37.7 L 54.5,42.1 38.8,23.3 h 4.9 L 56.8,39.6 70,23.3 h 4.8 L 59.1,42.2 Z"
   inkscape:connector-curvature="0"
   style="fill:#a5a7aa" />
		</g>
	</g>
</g>
</svg>