<?xml version="1.0" encoding="UTF-8" standalone="no"?>
<svg
   xmlns:dc="http://purl.org/dc/elements/1.1/"
   xmlns:cc="http://creativecommons.org/ns#"
   xmlns:rdf="http://www.w3.org/1999/02/22-rdf-syntax-ns#"
   xmlns:svg="http://www.w3.org/2000/svg"
   xmlns="http://www.w3.org/2000/svg"
   width="46"
   height="46"
   viewBox="0 0 12.170834 12.170834"
   version="1.1"
   id="svg8">
  <defs
     id="defs2" />
  <metadata
     id="metadata5">
    <rdf:RDF>
      <cc:Work
         rdf:about="">
        <dc:format>image/svg+xml</dc:format>
        <dc:type
           rdf:resource="http://purl.org/dc/dcmitype/StillImage" />
        <dc:title></dc:title>
      </cc:Work>
    </rdf:RDF>
  </metadata>
  <style
     id="style26"
     type="text/css">
	.st0{fill:#FFFFFF;}
	.st1{fill:#A5A7AA;}
</style>
  <style
     type="text/css"
     id="style26-3">
	.st0{fill:#FFFFFF;}
	.st1{fill:#A5A7AA;}
</style>
  <style
     type="text/css"
     id="style3763">
	.st0{fill:#FFFFFF;}
</style>
  <g
     transform="matrix(0.26458335,0,0,0.26458335,-8.4474911,-4.8222078)"
     id="XMLID_2_">
	<g
   id="XMLID_3_">
		<path
   style="fill:#ffffff"
   id="XMLID_9_"
   class="st0"
   d="m 66,31.1 c -0.7,-0.7 -1.8,-0.7 -2.5,0 -0.7,0.7 -0.7,1.8 0,2.5 2.3,2.3 3.4,5.2 3.4,8.2 0,3 -1.1,5.9 -3.4,8.2 -0.7,0.7 -0.7,1.8 0,2.5 0.3,0.3 0.8,0.6 1.3,0.6 0.5,0 0.9,-0.1 1.3,-0.6 3,-3 4.5,-6.8 4.5,-10.7 0,-3.9 -1.7,-7.7 -4.6,-10.7 z" />

		<path
   style="fill:#ffffff"
   id="XMLID_8_"
   class="st0"
   d="m 70.7,25.5 c -0.7,-0.7 -1.8,-0.7 -2.5,0 -0.7,0.7 -0.7,1.8 0,2.5 3.8,3.8 5.7,8.8 5.7,13.8 0,5 -1.9,10 -5.7,13.8 -0.7,0.7 -0.7,1.8 0,2.5 0.3,0.3 0.8,0.6 1.3,0.6 0.5,0 0.9,-0.2 1.3,-0.6 4.5,-4.6 6.7,-10.4 6.7,-16.3 0,-5.9 -2.3,-11.8 -6.8,-16.3 z" />

		<path
   style="fill:#ffffff"
   id="XMLID_7_"
   class="st0"
   d="m 55.8,19 c -0.5,0 -1.1,0.1 -1.8,0.5 0,0 -11.8,10.2 -12.2,10.7 h -6.4 c -1.6,0 -2.9,1.3 -2.9,2.9 v 17.2 c 0,1.6 1.3,2.9 2.9,2.9 h 6.4 c 0.4,0.4 12.2,10.3 12.2,10.3 0.7,0.5 1.3,0.6 1.8,0.5 1,-0.1 1.7,-0.9 1.9,-1.9 0,-0.1 0,-41.1 0,-41.1 -0.1,-1.1 -0.9,-1.9 -1.9,-2 z" />

	</g>

</g>
</svg>
