<?xml version="1.0" encoding="utf-8"?>
<!-- Generator: Adobe Illustrator 19.0.0, SVG Export Plug-In . SVG Version: 6.00 Build 0)  -->
<svg version="1.1" id="Layer_1" xmlns="http://www.w3.org/2000/svg" xmlns:xlink="http://www.w3.org/1999/xlink" x="0px" y="0px"
	 viewBox="0 0 60 60" style="enable-background:new 0 0 60 60;" xml:space="preserve">
<style type="text/css">
	.st0{fill:#4E4E4E;}
	.st1{fill:url(#XMLID_6_);}
	.st2{opacity:0.8;fill:url(#XMLID_7_);}
	.st3{fill:url(#XMLID_8_);}
</style>
<g>
	<path id="XMLID_4_" class="st0" d="M12.2,53c-5.3,0-9.7-4.3-9.7-9.7V16.6c0-5.3,4.3-9.7,9.7-9.7h35.7c5.3,0,9.7,4.3,9.7,9.7v26.7
		c0,5.3-4.3,9.7-9.7,9.7H12.2z"/>
	<linearGradient id="XMLID_6_" gradientUnits="userSpaceOnUse" x1="30" y1="52.5948" x2="30" y2="7.2584">
		<stop  offset="0" style="stop-color:#3E3E3E"/>
		<stop  offset="5.537539e-002" style="stop-color:#3B3C3C"/>
		<stop  offset="0.2251" style="stop-color:#383838"/>
		<stop  offset="0.4946" style="stop-color:#373636"/>
		<stop  offset="0.5714" style="stop-color:#3A3939"/>
		<stop  offset="0.6675" style="stop-color:#424242"/>
		<stop  offset="0.7741" style="stop-color:#515150"/>
		<stop  offset="0.8873" style="stop-color:#676666"/>
		<stop  offset="1" style="stop-color:#838383"/>
	</linearGradient>
	<path id="XMLID_3_" class="st1" d="M57.1,43.4c0,5.1-4.1,9.2-9.2,9.2H12.2c-5.1,0-9.2-4.1-9.2-9.2V16.6c0-5.1,4.1-9.2,9.2-9.2h35.7
		c5.1,0,9.2,4.1,9.2,9.2V43.4z"/>
	<linearGradient id="XMLID_7_" gradientUnits="userSpaceOnUse" x1="30" y1="-30.1112" x2="30" y2="88.824">
		<stop  offset="0" style="stop-color:#FFFFFF"/>
		<stop  offset="1" style="stop-color:#FFFFFF"/>
	</linearGradient>
	<path id="XMLID_2_" class="st2" d="M12.2,50.1c-4.1,0-7.5-3.4-7.5-7.5V15.9c0-4.1,3.4-7.5,7.5-7.5h35.6c4.1,0,7.5,3.4,7.5,7.5v26.7
		c0,4.1-3.4,7.5-7.5,7.5H12.2z"/>
	<linearGradient id="XMLID_8_" gradientUnits="userSpaceOnUse" x1="4.627" y1="30" x2="55.3726" y2="30">
		<stop  offset="0" style="stop-color:#535353"/>
		<stop  offset="1" style="stop-color:#7B7B7B"/>
	</linearGradient>
	<path id="XMLID_1_" class="st3" d="M12.2,50.9c-4.2,0-7.5-3.4-7.5-7.5V16.6c0-4.2,3.4-7.5,7.5-7.5h35.7c4.2,0,7.5,3.4,7.5,7.5v26.7
		c0,4.2-3.4,7.5-7.5,7.5H12.2z"/>
</g>
</svg>
