<svg height="512pt" viewBox="0 0 512 512" width="512pt" xmlns="http://www.w3.org/2000/svg"><path d="m437.019531 74.980469c-48.351562-48.351563-112.636719-74.980469-181.019531-74.980469s-132.667969 26.628906-181.019531 74.980469c-48.351563 48.351562-74.980469 112.640625-74.980469 181.019531 0 68.382812 26.628906 132.667969 74.980469 181.019531 48.351562 48.351563 112.636719 74.980469 181.019531 74.980469s132.667969-26.628906 181.019531-74.980469c48.351563-48.351562 74.980469-112.636719 74.980469-181.019531 0-68.378906-26.628906-132.667969-74.980469-181.019531zm0 0" fill="#3d5959"/><path d="m437.019531 74.980469c-48.351562-48.351563-112.636719-74.980469-181.019531-74.980469v512c68.382812 0 132.667969-26.628906 181.019531-74.980469 48.351563-48.351562 74.980469-112.636719 74.980469-181.019531 0-68.378906-26.628906-132.667969-74.980469-181.019531zm0 0" fill="#293939"/><path d="m256 407.503906c-34.699219 0-69.398438-13.207031-95.8125-39.625-52.832031-52.828125-52.832031-138.792968 0-191.625 5.855469-5.855468 15.355469-5.855468 21.210938 0 5.859374 5.855469 5.859374 15.355469 0 21.214844-41.132813 41.132812-41.132813 108.0625 0 149.199219 20.566406 20.5625 47.585937 30.847656 74.601562 30.847656 27.019531.003906 54.027344-10.277344 74.597656-30.847656 41.136719-41.136719 41.136719-108.066407.003906-149.199219-5.859374-5.859375-5.859374-15.355469 0-21.214844 5.859376-5.859375 15.355469-5.859375 21.210938 0 52.832031 52.832032 52.832031 138.796875 0 191.625-26.417969 26.417969-61.117188 39.625-95.8125 39.625zm0 0" fill="#54e360"/><path d="m256 222.800781c-8.285156 0-15-6.714843-15-15v-112.464843c0-8.285157 6.714844-15 15-15s15 6.714843 15 15v112.464843c0 8.285157-6.714844 15-15 15zm0 0" fill="#54e360"/><g fill="#00ab5e"><path d="m351.8125 176.253906c-5.855469-5.859375-15.351562-5.859375-21.210938 0-5.859374 5.855469-5.859374 15.355469-.003906 21.214844 41.136719 41.132812 41.132813 108.0625 0 149.199219-20.570312 20.566406-47.578125 30.851562-74.597656 30.847656v29.988281c34.695312 0 69.394531-13.207031 95.808594-39.625 52.835937-52.828125 52.835937-138.792968.003906-191.625zm0 0"/><path d="m256 80.335938v142.464843c8.285156 0 15-6.714843 15-15v-112.464843c0-8.285157-6.714844-15-15-15zm0 0"/></g></svg>