<?xml version="1.0" encoding="utf-8"?>
<!-- Generator: Adobe Illustrator 19.0.0, SVG Export Plug-In . SVG Version: 6.00 Build 0)  -->
<svg version="1.1" id="Layer_1" xmlns="http://www.w3.org/2000/svg" xmlns:xlink="http://www.w3.org/1999/xlink" x="0px" y="0px"
	 viewBox="0 0 50 50" style="enable-background:new 0 0 50 50;" xml:space="preserve">
<style type="text/css">
	.st0{fill:#D0D2D3;}
</style>
<path id="back" class="st0" d="M6.6,15.2c0-0.2,0.1-0.4,0.2-0.5L22.1,3c0.1-0.1,0.2-0.1,0.4-0.1c0.1,0,0.3,0,0.4,0.1
	c0.2,0.2,0.3,0.5,0.2,0.7L20,11.5v0.3c0.1,0,0.3,0,0.4,0v0h6.4c9.2,0,16.6,7.4,16.6,16.6v2.2c0,9.2-7.4,16.6-16.6,16.6H10.2v-7.7
	h16.6c4.9,0,8.9-4,8.9-8.9v-2.2c0-4.9-4-8.9-8.9-8.9h-6.6l2.9,7.2c0.1,0.3,0,0.6-0.2,0.7c-0.2,0.2-0.5,0.2-0.8,0L6.8,15.7
	C6.7,15.6,6.6,15.4,6.6,15.2z"/>
</svg>
