<?xml version="1.0" encoding="utf-8"?>
<!-- Generator: Adobe Illustrator 19.0.0, SVG Export Plug-In . SVG Version: 6.00 Build 0)  -->
<svg version="1.1" id="Layer_1" xmlns="http://www.w3.org/2000/svg" xmlns:xlink="http://www.w3.org/1999/xlink" x="0px" y="0px"
	 viewBox="0 0 64 64" style="enable-background:new 0 0 64 64;" xml:space="preserve">
<style type="text/css">
	.st0{fill:#F4ED64;}
	.st1{fill:#F0F0F1;}
	.st2{opacity:0.1;fill:#808083;enable-background:new    ;}
	.st3{opacity:0.2;fill:#FFFFFF;enable-background:new    ;}
</style>
<g id="XMLID_15_">
	<g id="XMLID_17_">
		<path id="XMLID_27_" class="st0" d="M48.8,48.5c0.5-1.7,0.8-3.4,0.8-5.2c0-1.9-0.3-3.8-0.9-5.7l-2.5-7.5c-0.9-2.5-2.9-4.4-5.5-5.1
			c-0.9-0.2-2.1-0.5-3.4-0.7v-2.7h1.1c1.2,0,2.2-1,2.2-2.2V15c0-2.5-2-4.5-4.5-4.5h-9c-2.5,0-4.5,2-4.5,4.5v4.5c0,1.2,1,2.2,2.2,2.2
			H26v2.7c-1.3,0.2-2.5,0.5-3.4,0.7c-2.6,0.6-4.6,2.5-5.5,5.1l-2.5,7.5c-0.6,1.8-0.9,3.7-0.9,5.7c0,1.7,0.3,3.5,0.8,5.2
			c-1.7,0.4-3,1.9-3,3.8c0,1.8,0.3,6.1,1.1,8.1l0.5,1.2c0.6,1.5,2,2.4,3.6,2.4h30.1c1.5,0,2.8-0.8,3.5-2.1c1.1-2.2,1.6-6.9,1.6-8.9
			v-0.6C51.9,50.4,50.6,48.9,48.8,48.5z M35,24.1c-1.1-0.1-2.2-0.2-3.4-0.2c-1.2,0-2.3,0.1-3.4,0.2v-2.4H35V24.1z"/>
		<path id="XMLID_26_" class="st1" d="M24.6,15.2c0-1.3,1.1-2.3,2.3-2.3h9.4c1.3,0,2.3,1,2.3,2.3v4.6H24.6V15.2z"/>
		<path id="XMLID_25_" class="st2" d="M36.6,12.9v3.4c0,0.6-0.5,1.2-1.2,1.2H24.6v2.3h14.1v-4.6C38.7,14,37.8,13.1,36.6,12.9z"/>
		<path id="XMLID_24_" class="st1" d="M16.7,38.4l2.5-7.5c0.6-1.8,2.1-3.2,3.9-3.6c2-0.5,5.1-1.1,8.5-1.1c3.4,0,6.5,0.6,8.5,1.1
			c1.8,0.5,3.3,1.8,3.9,3.6l2.5,7.5c0.5,1.6,0.8,3.3,0.8,5c0,1.8-0.4,3.7-1,5.5c-0.8,0.4-1.5,0.9-1.9,1.7l-1,2
			c-0.3-0.1-0.8-0.2-1.2-0.4l1.5-2.9c0.9-1.9,1.4-3.9,1.4-6c0-1.4-0.2-2.9-0.7-4.2l-2.5-7.5c-0.4-1.1-1.2-1.9-2.3-2.2
			c-1.9-0.5-4.8-1-8-1c-3.2,0-6.1,0.6-8,1c-1.1,0.3-2,1.1-2.3,2.2l-2.5,7.5c-0.5,1.4-0.7,2.8-0.7,4.2c0,2.1,0.5,4.1,1.4,6l1.5,2.9
			c-0.5,0.1-0.9,0.3-1.2,0.4l-1-2c-0.4-0.8-1.1-1.4-1.9-1.7c-0.7-1.8-1-3.6-1-5.5C15.9,41.7,16.1,40,16.7,38.4z"/>
		<path id="XMLID_23_" class="st1" d="M23.2,51.6l-1.7-3.3c-0.8-1.6-1.2-3.3-1.2-5c0-1.2,0.2-2.4,0.6-3.5l2.5-7.5
			c0.1-0.3,0.4-0.6,0.7-0.7c1.8-0.4,4.5-1,7.4-1c2.9,0,5.6,0.5,7.4,1c0.3,0.1,0.6,0.4,0.7,0.7l2.5,7.5c0.4,1.1,0.6,2.3,0.6,3.5
			c0,1.7-0.4,3.5-1.2,5L40,51.6c-2.2-0.5-5.2-1-8.4-1C28.4,50.6,25.5,51.1,23.2,51.6z"/>
		<path id="XMLID_22_" class="st3" d="M24.3,49.1c-0.6-1.7-0.9-3.6-0.9-5.5c0-1.3,0.1-2.6,0.4-3.9l1.8-8.3c0,0,0-0.1,0-0.1
			c-0.6,0.1-1.1,0.2-1.6,0.3c-0.3,0.1-0.6,0.4-0.7,0.7L21,39.8c-0.4,1.1-0.6,2.3-0.6,3.5c0,1.7,0.4,3.5,1.2,5l1.7,3.3
			c0.6-0.1,1.2-0.3,1.8-0.4L24.3,49.1z"/>
		<path id="XMLID_21_" class="st2" d="M42.3,39.8l-2.5-7.5c-0.1-0.4-0.4-0.6-0.7-0.7c-0.5-0.1-1-0.2-1.6-0.3c0,0,0,0.1,0.1,0.1
			l1.8,8.3c0.3,1.3,0.4,2.6,0.4,3.9c0,1.9-0.3,3.8-0.9,5.5l-0.7,2.2c0.6,0.1,1.2,0.2,1.8,0.4l1.7-3.3c0.8-1.5,1.2-3.3,1.2-5
			C42.9,42.1,42.7,40.9,42.3,39.8z"/>
		<path id="XMLID_20_" class="st1" d="M49.6,52.9c0,2.2-0.5,6.3-1.4,7.9c-0.3,0.6-0.8,0.9-1.5,0.9H16.6c-0.7,0-1.3-0.4-1.5-1
			l-0.5-1.2c-0.6-1.5-1-5.3-1-7.2c0-0.9,0.7-1.6,1.7-1.6c0.6,0,1.2,0.3,1.5,0.9l1.5,2.9c0.3,0.5,0.9,0.8,1.4,0.5
			c0.1,0,5.5-2.1,12-2.1c6.4,0,11.9,2.1,12,2.1c0.5,0.2,1.2,0,1.4-0.5l1.5-2.9c0.3-0.6,0.9-0.9,1.5-0.9c0.9,0,1.7,0.7,1.7,1.6V52.9z
			"/>
		<path id="XMLID_19_" class="st2" d="M48.2,50.7L48.2,50.7c0,2.2-0.5,6.3-1.4,7.9c-0.3,0.6-0.9,0.9-1.5,0.9H15.2
			c-0.2,0-0.5-0.1-0.7-0.2c0,0,0,0.1,0,0.1l0.5,1.2c0.3,0.6,0.9,1,1.5,1h30.1c0.6,0,1.2-0.3,1.5-0.9c0.8-1.7,1.4-5.8,1.4-7.9v-0.7
			C49.6,51.5,49,50.8,48.2,50.7z"/>
		<path id="XMLID_18_" class="st1" d="M42.5,56.3c0,0-3.4,1.1-10.9,1.1c-7.5,0-10.9-1-10.9-1.1c-0.6-0.2-1.2,0.1-1.4,0.7
			c-0.2,0.6,0.1,1.2,0.7,1.4c0.1,0,3.6,1.2,11.6,1.2s11.5-1.1,11.6-1.2c0.6-0.2,0.9-0.8,0.7-1.4C43.7,56.4,43.1,56.1,42.5,56.3z"/>
	</g>
</g>
</svg>
