<?xml version="1.0" encoding="UTF-8" standalone="no"?>
<!-- Generator: Adobe Illustrator 19.0.0, SVG Export Plug-In . SVG Version: 6.00 Build 0)  -->

<svg
   xmlns:dc="http://purl.org/dc/elements/1.1/"
   xmlns:cc="http://creativecommons.org/ns#"
   xmlns:rdf="http://www.w3.org/1999/02/22-rdf-syntax-ns#"
   xmlns:svg="http://www.w3.org/2000/svg"
   xmlns="http://www.w3.org/2000/svg"
   xmlns:sodipodi="http://sodipodi.sourceforge.net/DTD/sodipodi-0.dtd"
   xmlns:inkscape="http://www.inkscape.org/namespaces/inkscape"
   version="1.1"
   id="Layer_1"
   x="0px"
   y="0px"
   viewBox="0 0 46 46"
   xml:space="preserve"
   sodipodi:docname="Settings.svg"
   width="46"
   height="46"
   inkscape:version="0.92.3 (2405546, 2018-03-11)"><metadata
   id="metadata142"><rdf:RDF><cc:Work
       rdf:about=""><dc:format>image/svg+xml</dc:format><dc:type
         rdf:resource="http://purl.org/dc/dcmitype/StillImage" /><dc:title></dc:title></cc:Work></rdf:RDF></metadata><defs
   id="defs140" /><sodipodi:namedview
   pagecolor="#ffffff"
   bordercolor="#666666"
   borderopacity="1"
   objecttolerance="10"
   gridtolerance="10"
   guidetolerance="10"
   inkscape:pageopacity="0"
   inkscape:pageshadow="2"
   inkscape:window-width="2560"
   inkscape:window-height="1475"
   id="namedview138"
   showgrid="false"
   inkscape:pagecheckerboard="true"
   inkscape:zoom="3.6875"
   inkscape:cx="60.423729"
   inkscape:cy="32"
   inkscape:window-x="-13"
   inkscape:window-y="-13"
   inkscape:window-maximized="1"
   inkscape:current-layer="Layer_1" />
<style
   type="text/css"
   id="style133">
	.st0{fill:#FFFFFF;}
</style>
<g
   id="Settings"
   transform="translate(-32,-18)">
	<path
   id="XMLID_2_"
   class="st0"
   d="M 77.5,44.2 V 38.6 H 73 c -0.4,-2.7 -1.4,-5.3 -2.7,-7.4 l 2.8,-3.1 -4.6,-4.6 -3.3,2.7 C 63,24.6 60.6,23.5 57.9,22.9 V 19 h -5.6 v 3.8 c -2.7,0.4 -5.3,1.5 -7.5,2.9 l -3,-2.8 -4.8,4.6 2.7,3.8 c -1.6,2.2 -2.6,4.6 -3.1,7.3 h -4.1 v 5.6 h 4 c 0.5,2.6 1.5,5.2 2.9,7.3 l -3,2.7 4.6,4.6 4.1,-2.9 c 2.2,1.5 4.5,2.5 7.1,3.1 v 5 h 5.6 v -4.2 c 2.6,-0.4 5.1,-1.9 7.2,-3.3 l 2.7,3 4.6,-4.5 -2.9,-3.5 C 71,49.3 72.1,47 72.6,44.4 Z M 54.8,47 c -3.3,0 -6.1,-2.7 -6.1,-6 0,-3.3 2.7,-6.1 6.1,-6.1 3.4,0 6,2.7 6,6.1 -0.1,3.2 -2.7,6 -6,6 z"
   inkscape:connector-curvature="0"
   style="fill:#ffffff" />
</g>
</svg>