<?xml version="1.0" encoding="utf-8"?>
<!-- Generator: Adobe Illustrator 19.0.0, SVG Export Plug-In . SVG Version: 6.00 Build 0)  -->
<svg version="1.1" id="Layer_1" xmlns="http://www.w3.org/2000/svg" xmlns:xlink="http://www.w3.org/1999/xlink" x="0px" y="0px"
	 viewBox="0 0 110 64" style="enable-background:new 0 0 110 64;" xml:space="preserve">
<style type="text/css">
	.st0{fill:#F4ED64;}
</style>
<g id="Settings">
	<path id="XMLID_2_" class="st0" d="M77.5,44.2v-5.6H73c-0.4-2.7-1.4-5.3-2.7-7.4l2.8-3.1l-4.6-4.6l-3.3,2.7
		c-2.2-1.6-4.6-2.7-7.3-3.3V19h-5.6v3.8c-2.7,0.4-5.3,1.5-7.5,2.9l-3-2.8L37,27.5l2.7,3.8c-1.6,2.2-2.6,4.6-3.1,7.3h-4.1v5.6h4
		c0.5,2.6,1.5,5.2,2.9,7.3l-3,2.7l4.6,4.6l4.1-2.9c2.2,1.5,4.5,2.5,7.1,3.1V64h5.6v-4.2c2.6-0.4,5.1-1.9,7.2-3.3l2.7,3l4.6-4.5
		l-2.9-3.5c1.6-2.2,2.7-4.5,3.2-7.1L77.5,44.2L77.5,44.2z M54.8,47c-3.3,0-6.1-2.7-6.1-6c0-3.3,2.7-6.1,6.1-6.1s6,2.7,6,6.1
		C60.7,44.2,58.1,47,54.8,47z"/>
</g>
</svg>
