<?xml version="1.0" encoding="UTF-8" standalone="no"?>
<!-- Generator: Adobe Illustrator 19.0.0, SVG Export Plug-In . SVG Version: 6.00 Build 0)  -->

<svg
   xmlns:dc="http://purl.org/dc/elements/1.1/"
   xmlns:cc="http://creativecommons.org/ns#"
   xmlns:rdf="http://www.w3.org/1999/02/22-rdf-syntax-ns#"
   xmlns:svg="http://www.w3.org/2000/svg"
   xmlns="http://www.w3.org/2000/svg"
   xmlns:sodipodi="http://sodipodi.sourceforge.net/DTD/sodipodi-0.dtd"
   xmlns:inkscape="http://www.inkscape.org/namespaces/inkscape"
   version="1.1"
   id="Layer_1"
   x="0px"
   y="0px"
   viewBox="0 0 45 46"
   xml:space="preserve"
   sodipodi:docname="System.svg"
   width="45"
   height="46"
   inkscape:version="0.92.3 (2405546, 2018-03-11)"><metadata
   id="metadata99"><rdf:RDF><cc:Work
       rdf:about=""><dc:format>image/svg+xml</dc:format><dc:type
         rdf:resource="http://purl.org/dc/dcmitype/StillImage" /><dc:title></dc:title></cc:Work></rdf:RDF></metadata><defs
   id="defs97" /><sodipodi:namedview
   pagecolor="#ffffff"
   bordercolor="#666666"
   borderopacity="1"
   objecttolerance="10"
   gridtolerance="10"
   guidetolerance="10"
   inkscape:pageopacity="0"
   inkscape:pageshadow="2"
   inkscape:window-width="2560"
   inkscape:window-height="1475"
   id="namedview95"
   showgrid="false"
   inkscape:pagecheckerboard="true"
   inkscape:zoom="17.8"
   inkscape:cx="56.123596"
   inkscape:cy="32"
   inkscape:window-x="-13"
   inkscape:window-y="-13"
   inkscape:window-maximized="1"
   inkscape:current-layer="Layer_1" />
<style
   type="text/css"
   id="style76">
	.st0{fill:#FFFFFF;}
</style>
<g
   id="g84"
   transform="translate(-32.40146,-18)">
	<g
   id="g79">
		<path
   id="XMLID_4_"
   class="st0"
   d="m 55,46.2 c -2.1,0 -3.8,-1.6 -3.8,-3.7 V 24.3 c 0,-2 1.6,-3.7 3.8,-3.7 2.2,0 3.8,1.6 3.8,3.7 v 18.2 c 0,2 -1.7,3.7 -3.8,3.7 z"
   inkscape:connector-curvature="0"
   style="fill:#ffffff" />
	</g>
	<g
   id="g82">
		<path
   id="XMLID_3_"
   class="st0"
   d="M 55,64 C 42.9,64 32.8,54.4 32.8,42.5 c 0,-6.4 2.9,-12.3 7.9,-16.4 1.3,-1.2 3.5,-1 4.6,0.4 1.2,1.3 1,3.4 -0.4,4.5 -3.6,2.9 -5.5,7.1 -5.5,11.5 0,8.4 7,15 15.5,15 8.6,0 15.5,-6.7 15.5,-15 0,-4.4 -2,-8.7 -5.5,-11.5 -1.3,-1.2 -1.5,-3.2 -0.4,-4.5 1.2,-1.3 3.3,-1.5 4.6,-0.4 5,4.1 7.9,10.1 7.9,16.4 0.2,12 -9.9,21.5 -22,21.5 z"
   inkscape:connector-curvature="0"
   style="fill:#ffffff" />
	</g>
</g>

</svg>