<?xml version="1.0" encoding="UTF-8" standalone="no"?>
<!-- Created with Inkscape (http://www.inkscape.org/) -->

<svg
   xmlns:dc="http://purl.org/dc/elements/1.1/"
   xmlns:cc="http://creativecommons.org/ns#"
   xmlns:rdf="http://www.w3.org/1999/02/22-rdf-syntax-ns#"
   xmlns:svg="http://www.w3.org/2000/svg"
   xmlns="http://www.w3.org/2000/svg"
   xmlns:sodipodi="http://sodipodi.sourceforge.net/DTD/sodipodi-0.dtd"
   xmlns:inkscape="http://www.inkscape.org/namespaces/inkscape"
   id="svg28799"
   version="1.1"
   viewBox="0 0 26.458333 37.041668"
   height="140"
   width="100"
   inkscape:version="0.92.2 5c3e80d, 2017-08-06"
   sodipodi:docname="two.svg">
  <sodipodi:namedview
     inkscape:window-maximized="1"
     inkscape:window-y="0"
     inkscape:window-x="1920"
     inkscape:window-height="1015"
     inkscape:window-width="1920"
     units="px"
     showgrid="false"
     inkscape:current-layer="svg28799"
     inkscape:document-units="px"
     inkscape:cy="16.71204"
     inkscape:cx="98.889494"
     inkscape:zoom="2.2914062"
     inkscape:pageshadow="2"
     inkscape:pageopacity="0.0"
     borderopacity="1.0"
     bordercolor="#666666"
     pagecolor="#ffffff"
     id="base" />
  <defs
     id="defs28793">
    <clipPath
       id="clipPath402"
       clipPathUnits="userSpaceOnUse">
      <path
         inkscape:connector-curvature="0"
         id="path400"
         d="m 256.605,419.615 c -4.102,-0.577 -7.893,-1.853 -11.267,-3.792 v 0 c -3.387,-1.947 -6.339,-4.405 -8.77,-7.307 v 0 c -2.44,-2.91 -4.353,-6.207 -5.686,-9.802 v 0 c -1.054,-2.83 -1.701,-5.762 -1.932,-8.745 v 0 l 15.003,2.109 c 0.108,1.518 0.349,2.982 0.721,4.375 v 0 c 0.536,1.957 1.29,3.73 2.242,5.269 v 0 c 0.997,1.616 2.223,2.961 3.647,4.003 v 0 c 1.495,1.089 3.17,1.77 4.978,2.024 v 0 c 0.652,0.091 1.287,0.138 1.89,0.138 v 0 c 2.796,0 5.063,-0.972 6.742,-2.894 v 0 c 1.908,-2.208 2.831,-5.419 2.822,-9.817 v 0 c -0.004,-2.611 -0.815,-5.639 -2.479,-9.261 v 0 c -1.577,-3.417 -4.197,-7.64 -7.832,-12.612 v 0 l -26.208,-33.343 -0.02,-10.363 53.552,7.527 0.021,11.719 -35.041,-4.926 13.588,18.788 0.077,0.1 c 3.159,3.856 5.861,7.285 8.257,10.483 v 0 c 2.426,3.236 4.481,6.361 6.115,9.294 v 0 c 1.639,2.921 2.904,5.829 3.766,8.649 v 0 c 0.85,2.745 1.283,5.603 1.289,8.496 v 0 c 0.007,3.816 -0.541,7.158 -1.63,9.938 v 0 c -1.059,2.719 -2.579,4.844 -4.656,6.501 v 0 c -2.071,1.659 -4.697,2.809 -7.81,3.419 v 0 c -1.625,0.32 -3.425,0.482 -5.35,0.482 v 0 c -1.863,0 -3.891,-0.152 -6.029,-0.452" />
    </clipPath>
    <linearGradient
       id="linearGradient426"
       spreadMethod="pad"
       gradientTransform="matrix(-34.259228,-91.532082,-91.532082,34.259228,275.55078,416.29004)"
       gradientUnits="userSpaceOnUse"
       y2="0"
       x2="1"
       y1="0"
       x1="0">
      <stop
         id="stop408"
         offset="0"
         style="stop-opacity:1;stop-color:#7ff5d7;opacity:1" />
      <stop
         id="stop410"
         offset="0.0324324"
         style="stop-opacity:1;stop-color:#7ff5d7;opacity:1" />
      <stop
         id="stop412"
         offset="0.143243"
         style="stop-opacity:1;stop-color:#93f7e0;opacity:1" />
      <stop
         id="stop414"
         offset="0.360767"
         style="stop-opacity:1;stop-color:#d7ffff;opacity:1" />
      <stop
         id="stop416"
         offset="0.560215"
         style="stop-opacity:1;stop-color:#7ff5d7;opacity:1" />
      <stop
         id="stop418"
         offset="0.75790628"
         style="stop-opacity:1;stop-color:#2cc897;opacity:1" />
      <stop
         id="stop420"
         offset="0.808108"
         style="stop-opacity:1;stop-color:#2cc897;opacity:1" />
      <stop
         id="stop422"
         offset="0.93955618"
         style="stop-opacity:1;stop-color:#00b075;opacity:1" />
      <stop
         id="stop424"
         offset="1"
         style="stop-opacity:1;stop-color:#00b075;opacity:1" />
    </linearGradient>
    <clipPath
       id="clipPath374"
       clipPathUnits="userSpaceOnUse">
      <path
         inkscape:connector-curvature="0"
         id="path372"
         d="m 256.315,421.686 c -4.391,-0.617 -8.396,-1.967 -12.019,-4.049 v 0 c -3.623,-2.083 -6.738,-4.682 -9.333,-7.777 v 0 c -2.602,-3.106 -4.62,-6.58 -6.043,-10.416 v 0 c -1.431,-3.845 -2.15,-7.808 -2.157,-11.895 v 0 l 19.215,2.7 c 0.004,2 0.243,3.886 0.715,5.652 v 0 c 0.48,1.759 1.146,3.335 2.002,4.721 v 0 c 0.859,1.386 1.89,2.527 3.097,3.411 v 0 c 1.218,0.885 2.566,1.437 4.041,1.644 v 0 c 2.959,0.417 5.202,-0.272 6.756,-2.052 v 0 c 1.548,-1.79 2.322,-4.603 2.314,-8.447 v 0 c -0.003,-2.287 -0.772,-5.091 -2.286,-8.386 v 0 c -1.523,-3.297 -4.052,-7.37 -7.578,-12.198 v 0 l -26.655,-33.91 -0.024,-13.495 57.737,8.115 0.029,15.946 -32.565,-4.576 10.71,14.806 c 3.074,3.75 5.844,7.259 8.315,10.554 v 0 c 2.467,3.295 4.561,6.465 6.266,9.526 v 0 c 1.714,3.061 3.028,6.075 3.937,9.053 v 0 c 0.92,2.968 1.378,6.006 1.384,9.109 v 0 c 0.007,4.089 -0.58,7.659 -1.774,10.701 v 0 c -1.183,3.044 -2.946,5.499 -5.297,7.376 v 0 c -2.342,1.877 -5.247,3.16 -8.716,3.839 v 0 c -1.767,0.348 -3.684,0.521 -5.748,0.521 v 0 c -1.974,0 -4.083,-0.158 -6.323,-0.473" />
    </clipPath>
    <linearGradient
       id="linearGradient392"
       spreadMethod="pad"
       gradientTransform="matrix(87.002823,32.604332,32.604332,-87.002823,225.22461,361.71484)"
       gradientUnits="userSpaceOnUse"
       y2="0"
       x2="1"
       y1="0"
       x1="0">
      <stop
         id="stop380"
         offset="0"
         style="stop-opacity:1;stop-color:#7ff5d7;opacity:1" />
      <stop
         id="stop382"
         offset="0.37027"
         style="stop-opacity:1;stop-color:#93f7e0;opacity:1" />
      <stop
         id="stop384"
         offset="0.501307"
         style="stop-opacity:1;stop-color:#d7ffff;opacity:1" />
      <stop
         id="stop386"
         offset="0.614269"
         style="stop-opacity:1;stop-color:#7ff5d7;opacity:1" />
      <stop
         id="stop388"
         offset="0.87849908"
         style="stop-opacity:1;stop-color:#00b075;opacity:1" />
      <stop
         id="stop390"
         offset="1"
         style="stop-opacity:1;stop-color:#00b075;opacity:1" />
    </linearGradient>
    <clipPath
       id="clipPath344"
       clipPathUnits="userSpaceOnUse">
      <path
         inkscape:connector-curvature="0"
         id="path342"
         d="m 242.009,429.47 c -0.778,-0.111 -1.541,-0.251 -2.296,-0.407 v 0 c -0.164,-0.034 -0.329,-0.066 -0.491,-0.103 v 0 c -0.733,-0.161 -1.456,-0.342 -2.166,-0.549 v 0 c -0.114,-0.033 -0.225,-0.07 -0.338,-0.104 v 0 c -0.645,-0.195 -1.28,-0.408 -1.904,-0.64 v 0 c -0.125,-0.046 -0.25,-0.089 -0.374,-0.136 v 0 c -0.678,-0.26 -1.345,-0.545 -2.001,-0.849 v 0 c -0.059,-0.027 -0.12,-0.048 -0.18,-0.076 v 0 c -0.08,-0.038 -0.155,-0.085 -0.234,-0.123 v 0 c -0.692,-0.333 -1.373,-0.68 -2.038,-1.063 v 0 c -0.886,-0.51 -1.742,-1.05 -2.566,-1.621 v 0 c -0.011,-0.008 -0.021,-0.016 -0.031,-0.022 v 0 c -0.049,-0.035 -0.093,-0.071 -0.142,-0.105 v 0 c -0.704,-0.493 -1.38,-1.014 -2.039,-1.553 v 0 c -0.202,-0.166 -0.401,-0.336 -0.599,-0.506 v 0 c -0.215,-0.184 -0.441,-0.359 -0.651,-0.549 v 0 c -0.371,-0.335 -0.728,-0.683 -1.082,-1.032 v 0 c -0.076,-0.073 -0.155,-0.144 -0.23,-0.219 v 0 c -0.487,-0.487 -0.961,-0.986 -1.416,-1.504 v 0 c -0.194,-0.219 -0.385,-0.441 -0.574,-0.666 v 0 c -0.652,-0.777 -1.267,-1.579 -1.845,-2.404 v 0 c -0.001,-10e-4 -0.002,-0.002 -0.003,-0.003 v 0 c -0.512,-0.73 -0.984,-1.484 -1.437,-2.249 v 0 c -0.12,-0.201 -0.237,-0.405 -0.352,-0.61 v 0 c -0.124,-0.218 -0.256,-0.428 -0.375,-0.649 v 0 c -0.2,-0.37 -0.373,-0.755 -0.56,-1.133 v 0 c -0.128,-0.262 -0.265,-0.521 -0.388,-0.787 v 0 c -0.389,-0.843 -0.756,-1.7 -1.083,-2.581 v 0 c -0.013,-0.035 -0.025,-0.07 -0.038,-0.104 v 0 c -0.09,-0.242 -0.167,-0.485 -0.251,-0.729 v 0 c -0.076,-0.22 -0.156,-0.439 -0.227,-0.66 v 0 c -0.087,-0.266 -0.162,-0.535 -0.241,-0.802 v 0 c -0.064,-0.217 -0.133,-0.432 -0.192,-0.649 v 0 c -0.074,-0.273 -0.139,-0.547 -0.207,-0.822 v 0 c -0.053,-0.214 -0.112,-0.427 -0.16,-0.643 v 0 c -0.063,-0.276 -0.115,-0.555 -0.172,-0.834 v 0 c -0.043,-0.213 -0.091,-0.426 -0.129,-0.641 v 0 c -0.052,-0.285 -0.092,-0.574 -0.136,-0.862 v 0 c -0.033,-0.207 -0.07,-0.414 -0.098,-0.623 v 0 c -0.04,-0.296 -0.069,-0.595 -0.101,-0.892 v 0 c -0.022,-0.202 -0.05,-0.403 -0.068,-0.606 v 0 c -0.028,-0.312 -0.044,-0.625 -0.064,-0.937 v 0 c -0.011,-0.191 -0.029,-0.382 -0.038,-0.573 v 0 c -0.018,-0.402 -0.025,-0.806 -0.029,-1.21 v 0 c -0.001,-0.103 -0.006,-0.205 -0.006,-0.309 v 0 l 14.306,-7.782 c 0,0.508 0.013,1.015 0.036,1.52 v 0 c 0.006,0.154 0.022,0.306 0.031,0.461 v 0 c 0.02,0.35 0.039,0.7 0.071,1.049 v 0 c 0.018,0.195 0.044,0.389 0.065,0.584 v 0 c 0.033,0.304 0.063,0.608 0.102,0.91 v 0 c 0.031,0.223 0.071,0.443 0.105,0.664 v 0 c 0.043,0.274 0.082,0.549 0.13,0.823 v 0 c 0.041,0.221 0.09,0.44 0.134,0.66 v 0 c 0.055,0.272 0.105,0.545 0.168,0.816 v 0 c 0.05,0.221 0.109,0.44 0.164,0.662 v 0 c 0.067,0.266 0.129,0.534 0.202,0.8 v 0 c 0.061,0.225 0.132,0.447 0.199,0.67 v 0 c 0.076,0.262 0.15,0.523 0.234,0.784 v 0 c 0.071,0.221 0.153,0.443 0.228,0.664 v 0 c 0.096,0.276 0.187,0.552 0.288,0.828 v 0 c 0.328,0.881 0.694,1.738 1.084,2.581 v 0 c 0.123,0.267 0.259,0.524 0.388,0.786 v 0 c 0.297,0.603 0.605,1.201 0.935,1.785 v 0 c 0.115,0.202 0.231,0.406 0.351,0.607 v 0 c 0.454,0.768 0.928,1.523 1.441,2.254 v 0 c 0.578,0.824 1.192,1.625 1.845,2.403 v 0 c 0.632,0.754 1.297,1.476 1.99,2.17 v 0 c 0.075,0.075 0.154,0.146 0.23,0.22 v 0 c 0.557,0.548 1.139,1.07 1.733,1.581 v 0 c 0.199,0.17 0.397,0.34 0.598,0.505 v 0 c 0.661,0.538 1.337,1.059 2.04,1.553 v 0 c 0.05,0.033 0.095,0.071 0.143,0.104 v 0 c 0.835,0.58 1.7,1.128 2.598,1.644 v 0 c 0.664,0.382 1.345,0.731 2.036,1.064 v 0 c 0.138,0.066 0.275,0.134 0.414,0.198 v 0 c 0.656,0.305 1.325,0.589 2.002,0.85 v 0 c 0.123,0.047 0.25,0.09 0.375,0.136 v 0 c 0.622,0.231 1.258,0.444 1.901,0.638 v 0 c 0.114,0.035 0.224,0.073 0.34,0.106 v 0 c 0.71,0.206 1.432,0.387 2.164,0.548 v 0 c 0.164,0.036 0.328,0.07 0.491,0.103 v 0 c 0.755,0.156 1.518,0.296 2.296,0.406 v 0 c 4.583,0.644 8.614,0.633 12.071,-0.048 v 0 c 0.541,-0.105 1.063,-0.229 1.576,-0.363 v 0 c 0.648,-0.171 1.271,-0.367 1.876,-0.584 v 0 c 0.157,-0.057 0.307,-0.122 0.46,-0.181 v 0 c 0.449,-0.175 0.889,-0.359 1.311,-0.561 v 0 c 0.324,-0.151 0.648,-0.3 0.955,-0.468 v 0 l -14.307,7.784 c -0.219,0.118 -0.441,0.234 -0.668,0.347 v 0 c -0.092,0.044 -0.195,0.077 -0.286,0.121 v 0 c -0.423,0.2 -0.863,0.386 -1.312,0.558 v 0 c -0.153,0.061 -0.302,0.125 -0.46,0.183 v 0 c -0.604,0.216 -1.227,0.412 -1.876,0.583 v 0 c -0.026,0.007 -0.051,0.017 -0.077,0.023 v 0 c -0.487,0.127 -0.985,0.241 -1.498,0.341 v 0 c -1.77,0.348 -3.689,0.521 -5.755,0.521 v 0 c -1.972,0 -4.078,-0.158 -6.316,-0.472" />
    </clipPath>
    <linearGradient
       id="linearGradient364"
       spreadMethod="pad"
       gradientTransform="matrix(-31.208845,-54.746239,-54.746239,31.208845,259.26953,439.57861)"
       gradientUnits="userSpaceOnUse"
       y2="0"
       x2="1"
       y1="0"
       x1="0">
      <stop
         id="stop350"
         offset="0"
         style="stop-opacity:1;stop-color:#7ff5d7;opacity:1" />
      <stop
         id="stop352"
         offset="0.162162"
         style="stop-opacity:1;stop-color:#7ff5d7;opacity:1" />
      <stop
         id="stop354"
         offset="0.262162"
         style="stop-opacity:1;stop-color:#93f7e0;opacity:1" />
      <stop
         id="stop356"
         offset="0.366172"
         style="stop-opacity:1;stop-color:#d7ffff;opacity:1" />
      <stop
         id="stop358"
         offset="0.457512"
         style="stop-opacity:1;stop-color:#7ff5d7;opacity:1" />
      <stop
         id="stop360"
         offset="0.82912239"
         style="stop-opacity:1;stop-color:#00b075;opacity:1" />
      <stop
         id="stop362"
         offset="1"
         style="stop-opacity:1;stop-color:#00b075;opacity:1" />
    </linearGradient>
    <clipPath
       id="clipPath302"
       clipPathUnits="userSpaceOnUse">
      <path
         inkscape:connector-curvature="0"
         id="path300"
         d="m 248.285,411.408 c 1.547,-1.79 2.321,-4.603 2.313,-8.447 v 0 c 0,-0.372 -0.029,-0.764 -0.069,-1.165 v 0 c -0.013,-0.104 -0.025,-0.21 -0.037,-0.318 v 0 c -0.05,-0.369 -0.108,-0.749 -0.189,-1.141 v 0 c -0.01,-0.042 -0.014,-0.084 -0.024,-0.128 v 0 c -0.092,-0.43 -0.209,-0.879 -0.339,-1.337 v 0 c -0.035,-0.119 -0.072,-0.239 -0.108,-0.36 v 0 c -0.123,-0.402 -0.26,-0.814 -0.411,-1.235 v 0 c -0.031,-0.084 -0.055,-0.163 -0.086,-0.247 v 0 c -0.098,-0.26 -0.207,-0.529 -0.312,-0.798 v 0 c -0.056,-0.136 -0.105,-0.268 -0.162,-0.406 v 0 c -0.171,-0.409 -0.354,-0.826 -0.549,-1.252 v 0 c -0.178,-0.385 -0.373,-0.783 -0.579,-1.189 v 0 c -0.063,-0.131 -0.137,-0.265 -0.204,-0.396 v 0 c -0.137,-0.264 -0.278,-0.531 -0.426,-0.804 v 0 c -0.269,-0.493 -0.551,-0.998 -0.856,-1.52 v 0 c -0.022,-0.037 -0.04,-0.071 -0.063,-0.109 v 0 c -0.328,-0.561 -0.682,-1.139 -1.054,-1.732 v 0 c -0.11,-0.177 -0.231,-0.361 -0.345,-0.541 v 0 c -0.274,-0.431 -0.556,-0.868 -0.853,-1.314 v 0 c -0.141,-0.212 -0.281,-0.425 -0.426,-0.642 v 0 c -0.311,-0.462 -0.636,-0.933 -0.968,-1.411 v 0 c -0.131,-0.189 -0.258,-0.375 -0.392,-0.566 v 0 c -0.453,-0.644 -0.921,-1.299 -1.414,-1.972 v 0 l -26.654,-33.911 14.306,-7.783 26.655,33.91 c 0.493,0.674 0.96,1.329 1.412,1.973 v 0 c 0.038,0.052 0.08,0.11 0.116,0.162 v 0 c 0.098,0.139 0.182,0.267 0.278,0.405 v 0 c 0.331,0.478 0.656,0.949 0.966,1.41 v 0 c 0.145,0.216 0.288,0.431 0.427,0.643 v 0 c 0.296,0.446 0.58,0.884 0.855,1.314 v 0 c 0.114,0.18 0.232,0.362 0.343,0.539 v 0 c 0.371,0.592 0.725,1.173 1.055,1.734 v 0 c 0.022,0.036 0.037,0.067 0.058,0.103 v 0 c 0.306,0.523 0.59,1.031 0.86,1.526 v 0 c 0.031,0.055 0.065,0.117 0.097,0.172 v 0 c 0.116,0.215 0.218,0.419 0.326,0.628 v 0 c 0.07,0.133 0.144,0.269 0.209,0.399 v 0 c 0.204,0.406 0.398,0.805 0.576,1.19 v 0 c 0.196,0.426 0.378,0.842 0.549,1.252 v 0 c 0.058,0.136 0.105,0.268 0.16,0.403 v 0 c 0.108,0.268 0.216,0.539 0.315,0.801 v 0 c 0.008,0.024 0.02,0.05 0.027,0.073 v 0 c 0.023,0.059 0.038,0.114 0.059,0.173 v 0 c 0.151,0.422 0.288,0.833 0.41,1.236 v 0 c 0.036,0.119 0.074,0.24 0.108,0.358 v 0 c 0.131,0.459 0.247,0.907 0.339,1.339 v 0 c 0.011,0.043 0.014,0.084 0.025,0.127 v 0 c 0.079,0.393 0.141,0.772 0.188,1.143 v 0 c 0.013,0.106 0.024,0.211 0.037,0.316 v 0 c 0.041,0.4 0.069,0.792 0.069,1.165 v 0 c 0.008,3.844 -0.766,6.657 -2.314,8.447 v 0 c -0.494,0.565 -1.054,1.02 -1.689,1.365 v 0 l -14.307,7.782 c 0.635,-0.343 1.197,-0.8 1.692,-1.364" />
    </clipPath>
    <linearGradient
       id="linearGradient334"
       spreadMethod="pad"
       gradientTransform="matrix(-52.437183,-72.836632,-72.836632,52.437183,267.49414,416.8457)"
       gradientUnits="userSpaceOnUse"
       y2="0"
       x2="1"
       y1="0"
       x1="0">
      <stop
         id="stop308"
         offset="0"
         style="stop-opacity:1;stop-color:#2cc897;opacity:1" />
      <stop
         id="stop310"
         offset="0.259459"
         style="stop-opacity:1;stop-color:#2cc897;opacity:1" />
      <stop
         id="stop312"
         offset="0.27736809"
         style="stop-opacity:1;stop-color:#2cc897;opacity:1" />
      <stop
         id="stop314"
         offset="0.347893"
         style="stop-opacity:1;stop-color:#7ff5d7;opacity:1" />
      <stop
         id="stop316"
         offset="0.43463036"
         style="stop-opacity:1;stop-color:#e3f2ef;opacity:1" />
      <stop
         id="stop318"
         offset="0.467568"
         style="stop-opacity:1;stop-color:#e3f2ef;opacity:1" />
      <stop
         id="stop320"
         offset="0.49971355"
         style="stop-opacity:1;stop-color:#8af5da;opacity:1" />
      <stop
         id="stop322"
         offset="0.554054"
         style="stop-opacity:1;stop-color:#8af5da;opacity:1" />
      <stop
         id="stop324"
         offset="0.62663223"
         style="stop-opacity:1;stop-color:#7ff5d7;opacity:1" />
      <stop
         id="stop326"
         offset="0.756757"
         style="stop-opacity:1;stop-color:#7ff5d7;opacity:1" />
      <stop
         id="stop328"
         offset="0.918919"
         style="stop-opacity:1;stop-color:#00b075;opacity:1" />
      <stop
         id="stop330"
         offset="0.9444586"
         style="stop-opacity:1;stop-color:#00b075;opacity:1" />
      <stop
         id="stop332"
         offset="1"
         style="stop-opacity:1;stop-color:#00b075;opacity:1" />
    </linearGradient>
    <clipPath
       id="clipPath272"
       clipPathUnits="userSpaceOnUse">
      <path
         inkscape:connector-curvature="0"
         id="path270"
         d="m 228.36,327.189 -14.307,7.783 0.025,13.495 14.306,-7.782 z" />
    </clipPath>
    <linearGradient
       id="linearGradient292"
       spreadMethod="pad"
       gradientTransform="matrix(20.007278,8.4998398,8.4998398,-20.007278,214.90088,335.14453)"
       gradientUnits="userSpaceOnUse"
       y2="0"
       x2="1"
       y1="0"
       x1="0">
      <stop
         id="stop278"
         offset="0"
         style="stop-opacity:1;stop-color:#00b075;opacity:1" />
      <stop
         id="stop280"
         offset="0.13025225"
         style="stop-opacity:1;stop-color:#00b075;opacity:1" />
      <stop
         id="stop282"
         offset="0.413514"
         style="stop-opacity:1;stop-color:#2cc897;opacity:1" />
      <stop
         id="stop284"
         offset="0.46152635"
         style="stop-opacity:1;stop-color:#2cc897;opacity:1" />
      <stop
         id="stop286"
         offset="0.650596"
         style="stop-opacity:1;stop-color:#7ff5d7;opacity:1" />
      <stop
         id="stop288"
         offset="0.851351"
         style="stop-opacity:1;stop-color:#93f7e0;opacity:1" />
      <stop
         id="stop290"
         offset="1"
         style="stop-opacity:1;stop-color:#7ff5d7;opacity:1" />
    </linearGradient>
    <clipPath
       id="clipPath242"
       clipPathUnits="userSpaceOnUse">
      <path
         inkscape:connector-curvature="0"
         id="path240"
         d="m 253.562,346.673 -14.307,7.783 32.564,4.577 14.307,-7.783 z" />
    </clipPath>
    <linearGradient
       id="linearGradient262"
       spreadMethod="pad"
       gradientTransform="matrix(19.178778,26.675943,26.675943,-19.178778,256.4043,344.11084)"
       gradientUnits="userSpaceOnUse"
       y2="0"
       x2="1"
       y1="0"
       x1="0">
      <stop
         id="stop248"
         offset="0"
         style="stop-opacity:1;stop-color:#00b075;opacity:1" />
      <stop
         id="stop250"
         offset="0.24513738"
         style="stop-opacity:1;stop-color:#00b075;opacity:1" />
      <stop
         id="stop252"
         offset="0.353298"
         style="stop-opacity:1;stop-color:#7ff5d7;opacity:1" />
      <stop
         id="stop254"
         offset="0.433828"
         style="stop-opacity:1;stop-color:#d7ffff;opacity:1" />
      <stop
         id="stop256"
         offset="0.537838"
         style="stop-opacity:1;stop-color:#93f7e0;opacity:1" />
      <stop
         id="stop258"
         offset="0.791892"
         style="stop-opacity:1;stop-color:#82f5d8;opacity:1" />
      <stop
         id="stop260"
         offset="1"
         style="stop-opacity:1;stop-color:#7ff5d7;opacity:1" />
    </linearGradient>
    <linearGradient
       id="linearGradient262-825"
       spreadMethod="pad"
       gradientTransform="matrix(19.178778,26.675943,26.675943,-19.178778,256.4043,344.11084)"
       gradientUnits="userSpaceOnUse"
       y2="0"
       x2="1"
       y1="0"
       x1="0">
      <stop
         id="stop31561"
         offset="0"
         style="stop-opacity:1;stop-color:#7500b0;opacity:1" />
      <stop
         id="stop31563"
         offset="0.24513738"
         style="stop-opacity:1;stop-color:#7500b0;opacity:1" />
      <stop
         id="stop31565"
         offset="0.353298"
         style="stop-opacity:1;stop-color:#d77ff5;opacity:1" />
      <stop
         id="stop31567"
         offset="0.433828"
         style="stop-opacity:1;stop-color:#ffd7ff;opacity:1" />
      <stop
         id="stop31569"
         offset="0.537838"
         style="stop-opacity:1;stop-color:#e093f7;opacity:1" />
      <stop
         id="stop31571"
         offset="0.791892"
         style="stop-opacity:1;stop-color:#d882f5;opacity:1" />
      <stop
         id="stop31573"
         offset="1"
         style="stop-opacity:1;stop-color:#d77ff5;opacity:1" />
    </linearGradient>
    <linearGradient
       id="linearGradient292-492"
       spreadMethod="pad"
       gradientTransform="matrix(20.007278,8.4998398,8.4998398,-20.007278,214.90088,335.14453)"
       gradientUnits="userSpaceOnUse"
       y2="0"
       x2="1"
       y1="0"
       x1="0">
      <stop
         id="stop31576"
         offset="0"
         style="stop-opacity:1;stop-color:#7500b0;opacity:1" />
      <stop
         id="stop31578"
         offset="0.13025225"
         style="stop-opacity:1;stop-color:#7500b0;opacity:1" />
      <stop
         id="stop31580"
         offset="0.413514"
         style="stop-opacity:1;stop-color:#972cc8;opacity:1" />
      <stop
         id="stop31582"
         offset="0.46152635"
         style="stop-opacity:1;stop-color:#972cc8;opacity:1" />
      <stop
         id="stop31584"
         offset="0.650596"
         style="stop-opacity:1;stop-color:#d77ff5;opacity:1" />
      <stop
         id="stop31586"
         offset="0.851351"
         style="stop-opacity:1;stop-color:#e093f7;opacity:1" />
      <stop
         id="stop31588"
         offset="1"
         style="stop-opacity:1;stop-color:#d77ff5;opacity:1" />
    </linearGradient>
    <linearGradient
       id="linearGradient334-572"
       spreadMethod="pad"
       gradientTransform="matrix(-52.437183,-72.836632,-72.836632,52.437183,267.49414,416.8457)"
       gradientUnits="userSpaceOnUse"
       y2="0"
       x2="1"
       y1="0"
       x1="0">
      <stop
         id="stop31591"
         offset="0"
         style="stop-opacity:1;stop-color:#972cc8;opacity:1" />
      <stop
         id="stop31593"
         offset="0.259459"
         style="stop-opacity:1;stop-color:#972cc8;opacity:1" />
      <stop
         id="stop31595"
         offset="0.27736809"
         style="stop-opacity:1;stop-color:#972cc8;opacity:1" />
      <stop
         id="stop31597"
         offset="0.347893"
         style="stop-opacity:1;stop-color:#d77ff5;opacity:1" />
      <stop
         id="stop31599"
         offset="0.43463036"
         style="stop-opacity:1;stop-color:#efe3f2;opacity:1" />
      <stop
         id="stop31601"
         offset="0.467568"
         style="stop-opacity:1;stop-color:#efe3f2;opacity:1" />
      <stop
         id="stop31603"
         offset="0.49971355"
         style="stop-opacity:1;stop-color:#da8af5;opacity:1" />
      <stop
         id="stop31605"
         offset="0.554054"
         style="stop-opacity:1;stop-color:#da8af5;opacity:1" />
      <stop
         id="stop31607"
         offset="0.62663223"
         style="stop-opacity:1;stop-color:#d77ff5;opacity:1" />
      <stop
         id="stop31609"
         offset="0.756757"
         style="stop-opacity:1;stop-color:#d77ff5;opacity:1" />
      <stop
         id="stop31611"
         offset="0.918919"
         style="stop-opacity:1;stop-color:#7500b0;opacity:1" />
      <stop
         id="stop31613"
         offset="0.9444586"
         style="stop-opacity:1;stop-color:#7500b0;opacity:1" />
      <stop
         id="stop31615"
         offset="1"
         style="stop-opacity:1;stop-color:#7500b0;opacity:1" />
    </linearGradient>
    <linearGradient
       id="linearGradient364-47"
       spreadMethod="pad"
       gradientTransform="matrix(-31.208845,-54.746239,-54.746239,31.208845,259.26953,439.57861)"
       gradientUnits="userSpaceOnUse"
       y2="0"
       x2="1"
       y1="0"
       x1="0">
      <stop
         id="stop31618"
         offset="0"
         style="stop-opacity:1;stop-color:#d77ff5;opacity:1" />
      <stop
         id="stop31620"
         offset="0.162162"
         style="stop-opacity:1;stop-color:#d77ff5;opacity:1" />
      <stop
         id="stop31622"
         offset="0.262162"
         style="stop-opacity:1;stop-color:#e093f7;opacity:1" />
      <stop
         id="stop31624"
         offset="0.366172"
         style="stop-opacity:1;stop-color:#ffd7ff;opacity:1" />
      <stop
         id="stop31626"
         offset="0.457512"
         style="stop-opacity:1;stop-color:#d77ff5;opacity:1" />
      <stop
         id="stop31628"
         offset="0.82912239"
         style="stop-opacity:1;stop-color:#7500b0;opacity:1" />
      <stop
         id="stop31630"
         offset="1"
         style="stop-opacity:1;stop-color:#7500b0;opacity:1" />
    </linearGradient>
    <linearGradient
       id="linearGradient392-108"
       spreadMethod="pad"
       gradientTransform="matrix(87.002823,32.604332,32.604332,-87.002823,225.22461,361.71484)"
       gradientUnits="userSpaceOnUse"
       y2="0"
       x2="1"
       y1="0"
       x1="0">
      <stop
         id="stop31633"
         offset="0"
         style="stop-opacity:1;stop-color:#d77ff5;opacity:1" />
      <stop
         id="stop31635"
         offset="0.37027"
         style="stop-opacity:1;stop-color:#e093f7;opacity:1" />
      <stop
         id="stop31637"
         offset="0.501307"
         style="stop-opacity:1;stop-color:#ffd7ff;opacity:1" />
      <stop
         id="stop31639"
         offset="0.614269"
         style="stop-opacity:1;stop-color:#d77ff5;opacity:1" />
      <stop
         id="stop31641"
         offset="0.87849908"
         style="stop-opacity:1;stop-color:#7500b0;opacity:1" />
      <stop
         id="stop31643"
         offset="1"
         style="stop-opacity:1;stop-color:#7500b0;opacity:1" />
    </linearGradient>
    <linearGradient
       id="linearGradient426-467"
       spreadMethod="pad"
       gradientTransform="matrix(-34.259228,-91.532082,-91.532082,34.259228,275.55078,416.29004)"
       gradientUnits="userSpaceOnUse"
       y2="0"
       x2="1"
       y1="0"
       x1="0">
      <stop
         id="stop31646"
         offset="0"
         style="stop-opacity:1;stop-color:#d77ff5;opacity:1" />
      <stop
         id="stop31648"
         offset="0.0324324"
         style="stop-opacity:1;stop-color:#d77ff5;opacity:1" />
      <stop
         id="stop31650"
         offset="0.143243"
         style="stop-opacity:1;stop-color:#e093f7;opacity:1" />
      <stop
         id="stop31652"
         offset="0.360767"
         style="stop-opacity:1;stop-color:#ffd7ff;opacity:1" />
      <stop
         id="stop31654"
         offset="0.560215"
         style="stop-opacity:1;stop-color:#d77ff5;opacity:1" />
      <stop
         id="stop31656"
         offset="0.75790628"
         style="stop-opacity:1;stop-color:#972cc8;opacity:1" />
      <stop
         id="stop31658"
         offset="0.808108"
         style="stop-opacity:1;stop-color:#972cc8;opacity:1" />
      <stop
         id="stop31660"
         offset="0.93955618"
         style="stop-opacity:1;stop-color:#7500b0;opacity:1" />
      <stop
         id="stop31662"
         offset="1"
         style="stop-opacity:1;stop-color:#7500b0;opacity:1" />
    </linearGradient>
  </defs>
  <metadata
     id="metadata28796">
    <rdf:RDF>
      <cc:Work
         rdf:about="">
        <dc:format>image/svg+xml</dc:format>
        <dc:type
           rdf:resource="http://purl.org/dc/dcmitype/StillImage" />
        <dc:title></dc:title>
      </cc:Work>
    </rdf:RDF>
  </metadata>
  <g
     transform="translate(0,-259.95832)"
     id="layer1"
     inkscape:groupmode="layer"
     inkscape:label="Layer 1">
    <g
       transform="translate(-47.275892,2.7252164)"
       id="g29677">
      <g
         transform="matrix(0.35277777,0,0,-0.35277777,-27.439441,409.30343)"
         id="g236">
        <g
           id="g238"
           clip-path="url(#clipPath242)">
          <g
             id="g244">
            <g
               id="g246">
              <path
                 d="m 253.562,346.673 -14.307,7.783 32.564,4.577 14.307,-7.783 z"
                 style="fill:url(#linearGradient262-825);stroke:none;opacity:1"
                 id="path264"
                 inkscape:connector-curvature="0" />
            </g>
          </g>
        </g>
      </g>
      <g
         transform="matrix(0.35277777,0,0,-0.35277777,-27.439441,409.30343)"
         id="g266">
        <g
           id="g268"
           clip-path="url(#clipPath272)">
          <g
             id="g274">
            <g
               id="g276">
              <path
                 d="m 228.36,327.189 -14.307,7.783 0.025,13.495 14.306,-7.782 z"
                 style="fill:url(#linearGradient292-492);stroke:none;opacity:1"
                 id="path294"
                 inkscape:connector-curvature="0" />
            </g>
          </g>
        </g>
      </g>
      <g
         transform="matrix(0.35277777,0,0,-0.35277777,-27.439441,409.30343)"
         id="g296">
        <g
           id="g298"
           clip-path="url(#clipPath302)">
          <g
             id="g304">
            <g
               id="g306">
              <path
                 d="m 248.285,411.408 c 1.547,-1.79 2.321,-4.603 2.313,-8.447 v 0 c 0,-0.372 -0.029,-0.764 -0.069,-1.165 v 0 c -0.013,-0.104 -0.025,-0.21 -0.037,-0.318 v 0 c -0.05,-0.369 -0.108,-0.749 -0.189,-1.141 v 0 c -0.01,-0.042 -0.014,-0.084 -0.024,-0.128 v 0 c -0.092,-0.43 -0.209,-0.879 -0.339,-1.337 v 0 c -0.035,-0.119 -0.072,-0.239 -0.108,-0.36 v 0 c -0.123,-0.402 -0.26,-0.814 -0.411,-1.235 v 0 c -0.031,-0.084 -0.055,-0.163 -0.086,-0.247 v 0 c -0.098,-0.26 -0.207,-0.529 -0.312,-0.798 v 0 c -0.056,-0.136 -0.105,-0.268 -0.162,-0.406 v 0 c -0.171,-0.409 -0.354,-0.826 -0.549,-1.252 v 0 c -0.178,-0.385 -0.373,-0.783 -0.579,-1.189 v 0 c -0.063,-0.131 -0.137,-0.265 -0.204,-0.396 v 0 c -0.137,-0.264 -0.278,-0.531 -0.426,-0.804 v 0 c -0.269,-0.493 -0.551,-0.998 -0.856,-1.52 v 0 c -0.022,-0.037 -0.04,-0.071 -0.063,-0.109 v 0 c -0.328,-0.561 -0.682,-1.139 -1.054,-1.732 v 0 c -0.11,-0.177 -0.231,-0.361 -0.345,-0.541 v 0 c -0.274,-0.431 -0.556,-0.868 -0.853,-1.314 v 0 c -0.141,-0.212 -0.281,-0.425 -0.426,-0.642 v 0 c -0.311,-0.462 -0.636,-0.933 -0.968,-1.411 v 0 c -0.131,-0.189 -0.258,-0.375 -0.392,-0.566 v 0 c -0.453,-0.644 -0.921,-1.299 -1.414,-1.972 v 0 l -26.654,-33.911 14.306,-7.783 26.655,33.91 c 0.493,0.674 0.96,1.329 1.412,1.973 v 0 c 0.038,0.052 0.08,0.11 0.116,0.162 v 0 c 0.098,0.139 0.182,0.267 0.278,0.405 v 0 c 0.331,0.478 0.656,0.949 0.966,1.41 v 0 c 0.145,0.216 0.288,0.431 0.427,0.643 v 0 c 0.296,0.446 0.58,0.884 0.855,1.314 v 0 c 0.114,0.18 0.232,0.362 0.343,0.539 v 0 c 0.371,0.592 0.725,1.173 1.055,1.734 v 0 c 0.022,0.036 0.037,0.067 0.058,0.103 v 0 c 0.306,0.523 0.59,1.031 0.86,1.526 v 0 c 0.031,0.055 0.065,0.117 0.097,0.172 v 0 c 0.116,0.215 0.218,0.419 0.326,0.628 v 0 c 0.07,0.133 0.144,0.269 0.209,0.399 v 0 c 0.204,0.406 0.398,0.805 0.576,1.19 v 0 c 0.196,0.426 0.378,0.842 0.549,1.252 v 0 c 0.058,0.136 0.105,0.268 0.16,0.403 v 0 c 0.108,0.268 0.216,0.539 0.315,0.801 v 0 c 0.008,0.024 0.02,0.05 0.027,0.073 v 0 c 0.023,0.059 0.038,0.114 0.059,0.173 v 0 c 0.151,0.422 0.288,0.833 0.41,1.236 v 0 c 0.036,0.119 0.074,0.24 0.108,0.358 v 0 c 0.131,0.459 0.247,0.907 0.339,1.339 v 0 c 0.011,0.043 0.014,0.084 0.025,0.127 v 0 c 0.079,0.393 0.141,0.772 0.188,1.143 v 0 c 0.013,0.106 0.024,0.211 0.037,0.316 v 0 c 0.041,0.4 0.069,0.792 0.069,1.165 v 0 c 0.008,3.844 -0.766,6.657 -2.314,8.447 v 0 c -0.494,0.565 -1.054,1.02 -1.689,1.365 v 0 l -14.307,7.782 c 0.635,-0.343 1.197,-0.8 1.692,-1.364"
                 style="fill:url(#linearGradient334-572);stroke:none;opacity:1"
                 id="path336"
                 inkscape:connector-curvature="0" />
            </g>
          </g>
        </g>
      </g>
      <g
         transform="matrix(0.35277777,0,0,-0.35277777,-27.439441,409.30343)"
         id="g338">
        <g
           id="g340"
           clip-path="url(#clipPath344)">
          <g
             id="g346">
            <g
               id="g348">
              <path
                 d="m 242.009,429.47 c -0.778,-0.111 -1.541,-0.251 -2.296,-0.407 v 0 c -0.164,-0.034 -0.329,-0.066 -0.491,-0.103 v 0 c -0.733,-0.161 -1.456,-0.342 -2.166,-0.549 v 0 c -0.114,-0.033 -0.225,-0.07 -0.338,-0.104 v 0 c -0.645,-0.195 -1.28,-0.408 -1.904,-0.64 v 0 c -0.125,-0.046 -0.25,-0.089 -0.374,-0.136 v 0 c -0.678,-0.26 -1.345,-0.545 -2.001,-0.849 v 0 c -0.059,-0.027 -0.12,-0.048 -0.18,-0.076 v 0 c -0.08,-0.038 -0.155,-0.085 -0.234,-0.123 v 0 c -0.692,-0.333 -1.373,-0.68 -2.038,-1.063 v 0 c -0.886,-0.51 -1.742,-1.05 -2.566,-1.621 v 0 c -0.011,-0.008 -0.021,-0.016 -0.031,-0.022 v 0 c -0.049,-0.035 -0.093,-0.071 -0.142,-0.105 v 0 c -0.704,-0.493 -1.38,-1.014 -2.039,-1.553 v 0 c -0.202,-0.166 -0.401,-0.336 -0.599,-0.506 v 0 c -0.215,-0.184 -0.441,-0.359 -0.651,-0.549 v 0 c -0.371,-0.335 -0.728,-0.683 -1.082,-1.032 v 0 c -0.076,-0.073 -0.155,-0.144 -0.23,-0.219 v 0 c -0.487,-0.487 -0.961,-0.986 -1.416,-1.504 v 0 c -0.194,-0.219 -0.385,-0.441 -0.574,-0.666 v 0 c -0.652,-0.777 -1.267,-1.579 -1.845,-2.404 v 0 c -0.001,-10e-4 -0.002,-0.002 -0.003,-0.003 v 0 c -0.512,-0.73 -0.984,-1.484 -1.437,-2.249 v 0 c -0.12,-0.201 -0.237,-0.405 -0.352,-0.61 v 0 c -0.124,-0.218 -0.256,-0.428 -0.375,-0.649 v 0 c -0.2,-0.37 -0.373,-0.755 -0.56,-1.133 v 0 c -0.128,-0.262 -0.265,-0.521 -0.388,-0.787 v 0 c -0.389,-0.843 -0.756,-1.7 -1.083,-2.581 v 0 c -0.013,-0.035 -0.025,-0.07 -0.038,-0.104 v 0 c -0.09,-0.242 -0.167,-0.485 -0.251,-0.729 v 0 c -0.076,-0.22 -0.156,-0.439 -0.227,-0.66 v 0 c -0.087,-0.266 -0.162,-0.535 -0.241,-0.802 v 0 c -0.064,-0.217 -0.133,-0.432 -0.192,-0.649 v 0 c -0.074,-0.273 -0.139,-0.547 -0.207,-0.822 v 0 c -0.053,-0.214 -0.112,-0.427 -0.16,-0.643 v 0 c -0.063,-0.276 -0.115,-0.555 -0.172,-0.834 v 0 c -0.043,-0.213 -0.091,-0.426 -0.129,-0.641 v 0 c -0.052,-0.285 -0.092,-0.574 -0.136,-0.862 v 0 c -0.033,-0.207 -0.07,-0.414 -0.098,-0.623 v 0 c -0.04,-0.296 -0.069,-0.595 -0.101,-0.892 v 0 c -0.022,-0.202 -0.05,-0.403 -0.068,-0.606 v 0 c -0.028,-0.312 -0.044,-0.625 -0.064,-0.937 v 0 c -0.011,-0.191 -0.029,-0.382 -0.038,-0.573 v 0 c -0.018,-0.402 -0.025,-0.806 -0.029,-1.21 v 0 c -0.001,-0.103 -0.006,-0.205 -0.006,-0.309 v 0 l 14.306,-7.782 c 0,0.508 0.013,1.015 0.036,1.52 v 0 c 0.006,0.154 0.022,0.306 0.031,0.461 v 0 c 0.02,0.35 0.039,0.7 0.071,1.049 v 0 c 0.018,0.195 0.044,0.389 0.065,0.584 v 0 c 0.033,0.304 0.063,0.608 0.102,0.91 v 0 c 0.031,0.223 0.071,0.443 0.105,0.664 v 0 c 0.043,0.274 0.082,0.549 0.13,0.823 v 0 c 0.041,0.221 0.09,0.44 0.134,0.66 v 0 c 0.055,0.272 0.105,0.545 0.168,0.816 v 0 c 0.05,0.221 0.109,0.44 0.164,0.662 v 0 c 0.067,0.266 0.129,0.534 0.202,0.8 v 0 c 0.061,0.225 0.132,0.447 0.199,0.67 v 0 c 0.076,0.262 0.15,0.523 0.234,0.784 v 0 c 0.071,0.221 0.153,0.443 0.228,0.664 v 0 c 0.096,0.276 0.187,0.552 0.288,0.828 v 0 c 0.328,0.881 0.694,1.738 1.084,2.581 v 0 c 0.123,0.267 0.259,0.524 0.388,0.786 v 0 c 0.297,0.603 0.605,1.201 0.935,1.785 v 0 c 0.115,0.202 0.231,0.406 0.351,0.607 v 0 c 0.454,0.768 0.928,1.523 1.441,2.254 v 0 c 0.578,0.824 1.192,1.625 1.845,2.403 v 0 c 0.632,0.754 1.297,1.476 1.99,2.17 v 0 c 0.075,0.075 0.154,0.146 0.23,0.22 v 0 c 0.557,0.548 1.139,1.07 1.733,1.581 v 0 c 0.199,0.17 0.397,0.34 0.598,0.505 v 0 c 0.661,0.538 1.337,1.059 2.04,1.553 v 0 c 0.05,0.033 0.095,0.071 0.143,0.104 v 0 c 0.835,0.58 1.7,1.128 2.598,1.644 v 0 c 0.664,0.382 1.345,0.731 2.036,1.064 v 0 c 0.138,0.066 0.275,0.134 0.414,0.198 v 0 c 0.656,0.305 1.325,0.589 2.002,0.85 v 0 c 0.123,0.047 0.25,0.09 0.375,0.136 v 0 c 0.622,0.231 1.258,0.444 1.901,0.638 v 0 c 0.114,0.035 0.224,0.073 0.34,0.106 v 0 c 0.71,0.206 1.432,0.387 2.164,0.548 v 0 c 0.164,0.036 0.328,0.07 0.491,0.103 v 0 c 0.755,0.156 1.518,0.296 2.296,0.406 v 0 c 4.583,0.644 8.614,0.633 12.071,-0.048 v 0 c 0.541,-0.105 1.063,-0.229 1.576,-0.363 v 0 c 0.648,-0.171 1.271,-0.367 1.876,-0.584 v 0 c 0.157,-0.057 0.307,-0.122 0.46,-0.181 v 0 c 0.449,-0.175 0.889,-0.359 1.311,-0.561 v 0 c 0.324,-0.151 0.648,-0.3 0.955,-0.468 v 0 l -14.307,7.784 c -0.219,0.118 -0.441,0.234 -0.668,0.347 v 0 c -0.092,0.044 -0.195,0.077 -0.286,0.121 v 0 c -0.423,0.2 -0.863,0.386 -1.312,0.558 v 0 c -0.153,0.061 -0.302,0.125 -0.46,0.183 v 0 c -0.604,0.216 -1.227,0.412 -1.876,0.583 v 0 c -0.026,0.007 -0.051,0.017 -0.077,0.023 v 0 c -0.487,0.127 -0.985,0.241 -1.498,0.341 v 0 c -1.77,0.348 -3.689,0.521 -5.755,0.521 v 0 c -1.972,0 -4.078,-0.158 -6.316,-0.472"
                 style="fill:url(#linearGradient364-47);stroke:none;opacity:1"
                 id="path366"
                 inkscape:connector-curvature="0" />
            </g>
          </g>
        </g>
      </g>
      <g
         transform="matrix(0.35277777,0,0,-0.35277777,-27.439441,409.30343)"
         id="g368">
        <g
           id="g370"
           clip-path="url(#clipPath374)">
          <g
             id="g376">
            <g
               id="g378">
              <path
                 d="m 256.315,421.686 c -4.391,-0.617 -8.396,-1.967 -12.019,-4.049 v 0 c -3.623,-2.083 -6.738,-4.682 -9.333,-7.777 v 0 c -2.602,-3.106 -4.62,-6.58 -6.043,-10.416 v 0 c -1.431,-3.845 -2.15,-7.808 -2.157,-11.895 v 0 l 19.215,2.7 c 0.004,2 0.243,3.886 0.715,5.652 v 0 c 0.48,1.759 1.146,3.335 2.002,4.721 v 0 c 0.859,1.386 1.89,2.527 3.097,3.411 v 0 c 1.218,0.885 2.566,1.437 4.041,1.644 v 0 c 2.959,0.417 5.202,-0.272 6.756,-2.052 v 0 c 1.548,-1.79 2.322,-4.603 2.314,-8.447 v 0 c -0.003,-2.287 -0.772,-5.091 -2.286,-8.386 v 0 c -1.523,-3.297 -4.052,-7.37 -7.578,-12.198 v 0 l -26.655,-33.91 -0.024,-13.495 57.737,8.115 0.029,15.946 -32.565,-4.576 10.71,14.806 c 3.074,3.75 5.844,7.259 8.315,10.554 v 0 c 2.467,3.295 4.561,6.465 6.266,9.526 v 0 c 1.714,3.061 3.028,6.075 3.937,9.053 v 0 c 0.92,2.968 1.378,6.006 1.384,9.109 v 0 c 0.007,4.089 -0.58,7.659 -1.774,10.701 v 0 c -1.183,3.044 -2.946,5.499 -5.297,7.376 v 0 c -2.342,1.877 -5.247,3.16 -8.716,3.839 v 0 c -1.767,0.348 -3.684,0.521 -5.748,0.521 v 0 c -1.974,0 -4.083,-0.158 -6.323,-0.473"
                 style="fill:url(#linearGradient392-108);stroke:none;opacity:1"
                 id="path394"
                 inkscape:connector-curvature="0" />
            </g>
          </g>
        </g>
      </g>
      <g
         transform="matrix(0.35277777,0,0,-0.35277777,-27.439441,409.30343)"
         id="g396">
        <g
           id="g398"
           clip-path="url(#clipPath402)">
          <g
             id="g404">
            <g
               id="g406">
              <path
                 d="m 256.605,419.615 c -4.102,-0.577 -7.893,-1.853 -11.267,-3.792 v 0 c -3.387,-1.947 -6.339,-4.405 -8.77,-7.307 v 0 c -2.44,-2.91 -4.353,-6.207 -5.686,-9.802 v 0 c -1.054,-2.83 -1.701,-5.762 -1.932,-8.745 v 0 l 15.003,2.109 c 0.108,1.518 0.349,2.982 0.721,4.375 v 0 c 0.536,1.957 1.29,3.73 2.242,5.269 v 0 c 0.997,1.616 2.223,2.961 3.647,4.003 v 0 c 1.495,1.089 3.17,1.77 4.978,2.024 v 0 c 0.652,0.091 1.287,0.138 1.89,0.138 v 0 c 2.796,0 5.063,-0.972 6.742,-2.894 v 0 c 1.908,-2.208 2.831,-5.419 2.822,-9.817 v 0 c -0.004,-2.611 -0.815,-5.639 -2.479,-9.261 v 0 c -1.577,-3.417 -4.197,-7.64 -7.832,-12.612 v 0 l -26.208,-33.343 -0.02,-10.363 53.552,7.527 0.021,11.719 -35.041,-4.926 13.588,18.788 0.077,0.1 c 3.159,3.856 5.861,7.285 8.257,10.483 v 0 c 2.426,3.236 4.481,6.361 6.115,9.294 v 0 c 1.639,2.921 2.904,5.829 3.766,8.649 v 0 c 0.85,2.745 1.283,5.603 1.289,8.496 v 0 c 0.007,3.816 -0.541,7.158 -1.63,9.938 v 0 c -1.059,2.719 -2.579,4.844 -4.656,6.501 v 0 c -2.071,1.659 -4.697,2.809 -7.81,3.419 v 0 c -1.625,0.32 -3.425,0.482 -5.35,0.482 v 0 c -1.863,0 -3.891,-0.152 -6.029,-0.452"
                 style="fill:url(#linearGradient426-467);stroke:none;opacity:1"
                 id="path428"
                 inkscape:connector-curvature="0" />
            </g>
          </g>
        </g>
      </g>
    </g>
  </g>
</svg>
