<?xml version="1.0" encoding="UTF-8" standalone="no"?>
<svg
   xmlns:dc="http://purl.org/dc/elements/1.1/"
   xmlns:cc="http://creativecommons.org/ns#"
   xmlns:rdf="http://www.w3.org/1999/02/22-rdf-syntax-ns#"
   xmlns:svg="http://www.w3.org/2000/svg"
   xmlns="http://www.w3.org/2000/svg"
   xmlns:sodipodi="http://sodipodi.sourceforge.net/DTD/sodipodi-0.dtd"
   xmlns:inkscape="http://www.inkscape.org/namespaces/inkscape"
   inkscape:version="0.92.2 5c3e80d, 2017-08-06"
   sodipodi:docname="volumedown.svg"
   id="svg37"
   version="1.1"
   viewBox="0 0 46 46"
   height="46"
   width="46">
  <metadata
     id="metadata43">
    <rdf:RDF>
      <cc:Work
         rdf:about="">
        <dc:format>image/svg+xml</dc:format>
        <dc:type
           rdf:resource="http://purl.org/dc/dcmitype/StillImage" />
        <dc:title></dc:title>
      </cc:Work>
    </rdf:RDF>
  </metadata>
  <defs
     id="defs41" />
  <sodipodi:namedview
     inkscape:snap-center="false"
     inkscape:current-layer="g845"
     inkscape:window-maximized="1"
     inkscape:window-y="0"
     inkscape:window-x="3840"
     inkscape:cy="4.1103732"
     inkscape:cx="25.438701"
     inkscape:zoom="3.671454"
     inkscape:pagecheckerboard="true"
     showgrid="false"
     id="namedview39"
     inkscape:window-height="1051"
     inkscape:window-width="1920"
     inkscape:pageshadow="2"
     inkscape:pageopacity="0"
     guidetolerance="10"
     gridtolerance="10"
     objecttolerance="10"
     borderopacity="1"
     bordercolor="#666666"
     pagecolor="#ffffff" />
  <path
     inkscape:connector-curvature="0"
     id="XMLID_7_"
     class="st0"
     d="m 23.3,0.48257649 c -0.5,0 -1.1,0.1 -1.8,0.5 0,0 -11.8,10.20000051 -12.2,10.70000051 H 2.9 c -1.6,0 -2.9,1.3 -2.9,2.9 v 17.2 c 0,1.6 1.3,2.9 2.9,2.9 h 6.4 c 0.4,0.4 12.2,10.3 12.2,10.3 0.7,0.5 1.3,0.6 1.8,0.5 1,-0.1 1.7,-0.9 1.9,-1.9 0,-0.1 0,-41.1000005 0,-41.1000005 -0.1,-1.1 -0.9,-1.90000001 -1.9,-2.00000001 z"
     style="fill:#ffffff" />
  <g
     id="g845"
     transform="translate(-0.1022711,0.89760637)">
    <rect
       y="19.794304"
       x="28.123188"
       height="4.6161795"
       width="15.979083"
       id="rect822"
       style="fill:#ffffff;fill-opacity:1" />
  </g>
</svg>
